<mxfile host="app.diagrams.net" modified="2022-08-20T05:37:08.265Z" agent="5.0 (X11; Linux x86_64) AppleWebKit/537.36 (KHTML, like Gecko) Chrome/104.0.0.0 Safari/537.36" etag="vD5Ks20wggb6D1t40H1Y" version="20.2.5" type="github">
  <diagram id="O1-tp-2I4tbnhQS_PH0q" name="Page-1">
    <mxGraphModel dx="2268" dy="1892" grid="1" gridSize="10" guides="1" tooltips="1" connect="1" arrows="1" fold="1" page="1" pageScale="1" pageWidth="850" pageHeight="1100" math="0" shadow="0">
      <root>
        <mxCell id="0" />
        <mxCell id="1" parent="0" />
        <mxCell id="RFcTqZ5h8VtnZ5tcwIsU-1" value="фазированная антенная решетка" style="rounded=0;whiteSpace=wrap;html=1;" vertex="1" parent="1">
          <mxGeometry x="-190" y="90" width="120" height="60" as="geometry" />
        </mxCell>
        <mxCell id="RFcTqZ5h8VtnZ5tcwIsU-2" value="пэмин" style="rounded=0;whiteSpace=wrap;html=1;" vertex="1" parent="1">
          <mxGeometry x="-190" y="370" width="120" height="60" as="geometry" />
        </mxCell>
        <mxCell id="RFcTqZ5h8VtnZ5tcwIsU-5" value="" style="group" vertex="1" connectable="0" parent="1">
          <mxGeometry y="310" width="230" height="230" as="geometry" />
        </mxCell>
        <UserObject label="https://github.com/luamfb/tempest-lcd" link="https://github.com/luamfb/tempest-lcd" id="RFcTqZ5h8VtnZ5tcwIsU-3">
          <mxCell style="text;whiteSpace=wrap;html=1;" vertex="1" parent="RFcTqZ5h8VtnZ5tcwIsU-5">
            <mxGeometry y="190" width="230" height="40" as="geometry" />
          </mxCell>
        </UserObject>
        <mxCell id="RFcTqZ5h8VtnZ5tcwIsU-4" value="" style="shape=image;verticalLabelPosition=bottom;labelBackgroundColor=default;verticalAlign=top;aspect=fixed;imageAspect=0;image=data:image/png,iVBORw0KGgoAAAANSUhEUgAAAgsAAAILCAIAAADpPUiZAAAACXBIWXMAAA+IAAAPiAEWyKWGAAAgAElEQVR4nOy9a5MkR3Ig5u4RWVU9M4sFdgEKPDtKd5JpP0km0/HP67u+i3Yyo2RGO5E6cldcArtYYGb6UVUZ7vrgHpGRmZGZUa+u7p5y9DSqsyLjHf52D/zf/vf/A0YgIuOHU2W4ovC5QQCev1GANGoRWeoAAgLic/TpJQEKnDDm0U4S+++Myy1nrU0Br7bQ12v5SiACIhJC+/nz/ePj4z//83/9+PGT9877plk133///W9/89vNZtM03vumBo8d2Pp10M4lAAGwYjT+8j25wQ0qYYTuUEAAcEw6bvCFQtoiIhJCeHx8AgDnvHPkiBwR0RdGMy8MNwpxgxvc4HWB0QAk3GzWzIGIEFHZYjhFiL3BCOjaHbjBDW5wg2MAAYkcIokIIjpHztEXp3e7MNwoxA1ucIPXBckcIBiNfZjBNbv25uAELROaerhmQc6tRr7aJkC1nlZ14LZTzwJ4La+EG7wckOxfCBxCCKENgbMiQwLxlqzKV4TjKUQ6uDVE+wKrdSX8a3Rx0ZVJbWpfGJEoz8kpjmc38nCDofsZM4fQtm0IIaSHiIBIiJ2WSVVPz9zVtwc3S/UNbnCD1wHKaIqIiDAH5iBizKfSBvwC2bILw80OcYMb3OD1gYgwJ/KAzhER0c1SfW64yRAvACr1KLedf4MbmKJXAjNzEOH4EBEBCzE1NzgJXjmFqIn9foZuTLY9bhzHiD7t8iV4PX4a+cCjWnhU5GZguMHBkJIZCJsMoQ+iEYIyTkpEvryg83PDa6YQFdbiK0IRAyLClyAL9FbGzIwvea1u8KpAoiWCGYw8mCdT0jJpco4beTgd/HgSlfJWJTqoXAARLXfe3DpXgxO4XwHAo9++QEKhA6BqrUVKi1OQm6rh/LQF4aTcUac3fk6QeLbOBi8RqWIkBBipgwCzZAcRiXC1WjkiiEMQAcD62XmBw34RUJYhKn0MKydVABDxvFoF82k4Y40HtF3bbEHHVOpz9SiuJjTV82IySowXs4MdeQLFpvtFH+BqQ9Il1u+t+JFPAxoOgZg2EyLn0I3d++bDhw/eN/qngCAASE1uutNYmLcOr1nLBNcWJhahkKv0FHg9GzkbuAXNnBIRcYMbRBAQEWHpNE0iggir1er9+3fOOdDdxyL0IuWh1wavnELc4AY3+HLAbAwiLCzCzCEwiCDSu3fvvPdqkNCyL5t5fDVwi4e4wQ1u8LrASASztO1eBIhueOxScJMhbnCDG7wySLHVmprJQiFucAG40d4b3OAGrwbQfonm79NYotu1QZeDggxxdr+jWt/ZQ2q8qRlfKJTWujYDcAne1jKPswZJ9vsGk4AxkkgvCxKB3W739PQkIoiFuIcYFWHREgv7T67nJvji4Tm0TOdH5zcC8TJhmhW4LZfBcCLwBDevLxEQEQkBYN/u9/udiMRcAyMiARC94m+Rc8fDTct0gxvc4FWBObqKiCASEamT6w0uATcKcYMb3OCVgUjMt0FIhER0kxIuBDcKcYMb3OA1gUj8ASDVOt3ow8Xg5u36ikAqEwqd/bgckE7qhUe532AJigv4ojBw1DEFECZCcugcdnk40LK0ZHcF9w4Olv0F6tMMvaS5uDy8ZgpRxzm8qSzTlWM5+4F+U5N4TRhnksP067gKT+hMJZzYw1PAMnv3WhdmbkNoQwgcVquVc0SOAGGcrCl7KT40m3Yhu2Rdd74s8gAzFGIR/aYUbTXYg8+NYRCxar2uh9nSjYlnrLNSmj4/Pq8W42tGbZUdQuBrRnRoesHnr7BYCEtJq2oXuj4XYPWeKCR7hl7X8ZCZOQBQ/brEUi91rVmvEAAJAJCBWQILMwggSonuKnAiMFkBhNJ1LIWMxKUwPKmVNt6M4us1yxAVhN/coa+bN/t8UHvMz749X4MMkWGVt3I6zwf1yzdxr0k3o3L4dqhbENSjKlC+90cTy2sCcBZmCSKs9wYR5aqjPGsk4jDaQSol7JLjNn6BzsmvmULU3cZjueK/qHX9woY7BKnZFxXVXFEArS/3LMRwkWwcCpPvIuLCzEvg0LZt27YhBOfQOSRHhIAISIKYix/jCSoZ1HCCavSUW18o1/GyKET9InzRGPAGCxAxTPHcvwrqWam2OnuygkOgXqItBK3NUJd+0UErIsIszMzMIkxE5EgDrWPc3HGovEQ3bvDSKASUmYuRPlDkC+eS3wJIrbx/UhMnvV37+rW0epVKcch6aDWf3OMDDqAGtmVtdh/yUvkrAyIBFhgtwgKg949qyBwSIRLZNaQvy+fqbcBLoRCd+atm7yLSUfrQG5wC9ebi8xqWx+WfZ91nWhl0/uz2oUO1THkHio0Me5hf4Fm8h3ix5YOWQETsflA743Z7ao7UmW00sYx1L2tMLxYVkyGERZyJECpF2L8bZjgjvBQKkeCcTMAL2CRvw2gqAMIlD5BxyXrmlxlx0uyHqTZEqqY69VBfW16uc5OUGZZ3rtUil1v2caqoUybfngT1KpzxRzponhdkefUQQURtV0TbNVMAkYW9xaLJcU2LIHbUIvVVBDgm/XbOgWqXiKL9AgVjp0zTOO5SBkqRyjEgZRm0H1oxN/ILwBWQyfEU4vwJW0G3z3xYiu2huuquSSKMm67qRaXBsbjlTy85X+wAhZ5U5EhLOXUQgGepDkZgonNlX0ubZwGzjW5Rzf8cu9NXTNFk98vkgZZdZiqtxzbkiEFnpI301eiu8VKFizTMmhKdrrDfa5tqMnDOSQjReGD0ozMfEZIRCRQRTb3EzCGE+/v7x8en/b4VgfVq0/jVZrP+8P79h/cfEIElcGt1TYzAiJQJHSldx6iwxLNr+Aije9PAnpLbxfujn5ucwwHxOvkvXoQMkTiaNMvTew8VD1URifPnMT8YavytqhXyWFmyXsFfUWHHv59L+aCnV1UFM6X17DrnQAnJWShEpEmV/RyTB5jBndOQInwXCXKnTR8h4EG7lO1uJMIJUS9xyYrySGMKEJJpt6++q52fRGymTyoaLTVLNeU1t23bFYvd7oajYsFoDh4eHh4eHrZP291up6U+f74Pob2/v//m668dkQhn8RRl4tufmNkxYuflFDVgc2nCO0Fnrtbj4GqqiGtTiIiiEvupHwaifQ9UBCWCJb1Hr5Jn1/bUyzr1fassWD/UqyjBKnUjuhOYWXGZhG65j+51InUzGLCTUkWYx8bgo9rGjgean3O9UJOIIOLvrtsw2lGxKjPLmTJ/RM41iKDXejxr/bt3khCxSCES119DSXKeJYQgIm3bstj8AoBZoKcpBBGJyH6/DyFst9vtdisizPz586cQ9p8/v//jv/4RESoohHWK9R/obxg7s0ok0+Tcrz58eP/hw2q1AgBAhjzMAvFtO8Jem0IA2i5B9NFlbVF6BcRKtXj30il9PALiFn0DN5PoVOt5Pk+FIsrtLmAYM0BAcVf0Xkt4H0Y4dNy05KXLpVJJNt4708yMKoSIcWaaluijGf1whiWdc6p7Iecw3pMzbiUfYC7YDTD7YGLzp3EYOKZVinMlwfRYIn6dKyh9SPMz0UPoNLLZKPKq2hBCCBzCbr/d73chhP1+v9/vf/nl53/7tz+uVytSRZqpmJYNJBnVLWD59MA59/3333/33Xe//e1vv//+e+/9drvtZKC3Ds9MIUarhuCdd85574goW7S4Vdj+y+RfAID4cJmDib9nSha4qBNLZvt0iUKk7xfMAXXFjii51K4OIeK1M0yjod2INyarIxQm55wyEEDG9jIzB0O11pjWx8uqsD6unBtL9LrprA66ETmw/j9repna2YvMIQStYlBAnTYJNb8QcODYzW5QzCETb1Kbkpamd3KsfzZk5qCavQHlyKcmoX2jExPz0ysjM5rCUYU1mj0QEBtpKo+mEVJnJU33bcVDCA8P94+PD6DOUXbyjjADFOw3WgUR/fzzzz/++OO3v/12s9lsNhvvPREx8/Nzns8Pz0khymeSJbS7/dMTh8Db7eNu+wS9PWfyXJ6nEQTjAZnnajGel/m1zDgIXEKCJnzOFpOo9lUkONvD/LW5gseUPBu1i8hldhoFY50yn5pA2DyVhVmKSXJiu8yiOFU42JnP7YqjLSEA81tCxyIgc2MRYAFhCRyi373WGXULWdvaKcOF02PREQTW/9pxJzmwiBYQFuHASpLMJkyKIs3vX1sMLBnJ0eGYrIVgF7FZ0ywcAjOHOI1iUhx3yFQVNMZ5WbTB1BxGnk009cX0NIqwkSXhMCdPx80jwADCobeUekfQZrNx5JDo3/2777/66leAICyPDw8fP/788ZdffvrpJ1ss6EtLx4IAqtuSc+7bb7/9y59/+um3f/7ur7777bff/uabb1arldpCAAAQUMZ6jzdCPHxBpytyAUelIUoVkdC2+7bd73cfP356enp8enh4uL/f77e5LcnEbcyuCBFQ1G86x7k2I4WYIE55hbHJ+QohQ4JzxeLBUyZ5lldNFc+OJQUNLpXM/AIXKYSkYgsIPXLJ8xNeOxYrIeXJMdmLBQQ48MPj49PTIyc0pCwkkupk4iuJWV5gGvKSU53UHcMhPD4+7Xa7hPfV9SWBFWatdoFfUQzJKkUwj0uGEFg4tKFT3vRRZHK/6SwTAmy6fE46HPP+yhSDVpHRgriC0YjQodKO37c6J5Fs9u5MMRN3ODFKC0xVVre5MCRBTce+Xq/Xq9V6vfru268JPiCRgLTtdvv48Pnzx59++jNzyIZ0EJFIDiVdcK5E0YWInp4ef/nl5/v7z7///e+/+eYbG3MK7og15NXVti3wwmmJHyr9xSxacsgwl6CwOdp2//PPv/zpxx9//PHHp6enP/3px59/+olDm6V6B7BVoDw7I2bIeSa3JarfgYrns0Jnxvouc92VJZOaiRfwflfRvLkL64odUDJaGnle1wMAbKSOpzUPcOC6WLFSJ42bDi0Hlth0ftwRUczNpOshRpRQM5YoQUxiQEWXpswyLAsxbDd+sMKm4WKRmbUWztB5rHByfiKy6rEu2SfQ2c4UYak6Rdn73X6326naHgEp+pgCmRZLR2LG847kRPogEuZGAynkgGFuS5D5My0776aDILbTGJIBCAEFmcNms757t/n2t79ZNz6E1pNjCfv99nH78OnTx91ul0SfKCVVo68Yp4EASYEFiAJAjgRgu3vij+Hrb379+fOnu7s7ibKdxAGCIcz8BFT5NLx8S+Uza5nSB9zvd3/60w//5f/5L3/4wx/+/Kc/f77/tHt6Am5ROMcwRiFyQ2U+oXU69Hm15ND2OF1fvaInybmLac9zrclZSlYWk4xCLHBbHcO4KIqN+nFEMVOWgKnWVcEFmVYao501H0ukEPNjSaOeEXQkkjqJbnWRZYSkxsm0TFXTmDHn0YlmAtJGH3j0RZ+j7hwk7Tx03YlWOktbJBS7ymE4YIR8CgGgw67MPHtkOqQmMucuzXEOMcUGFYcci8XaU1ndBzZ2gkDAKAwSgFtgQOGw37XbLbd7lKDLr+TucLSbpBiGjkgjqrIp/kT1aLH6CoLwCuG5LdWIyCyIsNttf/jhh9///l/+6Z/+6c9//gmEQYKEVsIe+zI4Ah3nldnhi4MkznOA7aJF5Hs9iLhgHl9pycTJz9tUzgNOtc7kSBneiNDzxhGxT65zXckShTDxaXIsEe8ml8ve7hv7/+jjGcW9FuPkF2UyzERJKz/qVUT2/Q6UDobSz26SsnkrNhZ7KHGFEUREptl+neSI9mf3hIlESyw1gghDNKJEz+CMBQAAFMFojgZgBEGRsN+H3Q44CjMm7ansUQ+ZtCadeIoWJ5f96Boyg5G0FL2ShtvN0QHtv2C4greriHz69PHHP/3pH//xH//zf/4/f/nlFxaWEEAYJQC3mB2hbM8cQ6KPUEl+CYAJBSIROZw9v4afeQ6vnRlEQmhD6PWhx/+WdkPVLVXRAV7m5CG9bwARHQDMX4OsXzEHKGPrrhiRGo0DgNU8A0jH7HZ7d7Ynk28hOkQ2SjeH0RGdolBmQZTFWN/Zqc7qVLKUBfHpIOZX1TuneqFcMjxOcRMlRRQQlDo1e1cEZ07Qq4bnphCduKnqn77JwdiWwaVQEPWkh4MKwTXkpb7+s5Ob44jfcwNCTKAwB/WTszjqQYElzhlcVVoCEU3cM93RTIbQF/hchz9S5ZqS19sSCGgReDMFEBDIVXVSz/K8/GliD0hfgzcultwhjOsfTOfpZ1PFI9MoiXXLlFedwvUL4jmfX4YoJ8IwxTMikRtdE3h81GJsq1LPX7XqrwOhz0Ni1aqwFZiy+XlR2yLnPnq4TCFEBHH5lGdY6GyIQBs7aH4ujYWKfUGsUtKMzBizUKf0qZsc4zElO9uXwNooESUIoAAB0rGajFcNBQqBZ85mlAQFvf6J8yeDH9MoDXbTgTrFUdP2aR6K3jfFt55nj5SXoIgZj6o+/lPPZpzOshoRZSfzPROYthvA4hDyrwAgH3hk92uC8aPSo8869PdY0lZEDjKvZtRG4TrjyQ7UTGAqNix6yqksTs24vq6LMzKEVXXgfZwVA1+YR0YE1YmKSNu2IhLMf7jn3pL39aAuxndsb6BIDN5B792HD+9Xjd/unu7e3w01riggOYMy6w3f79/Crr02jCjE+SMhoCPEkfzbnwUiUYKkmDq42UyFtVgWCyfwqktXkrTO3EK89nci//GwP6UpuihMqhsiQ94VUyoye9i6nS3GjnSODFA41FJilQoNSOdpNAMLaLdftljuFL/IYvcKBAKyCZmqSiRphQ6BJf3k8vsCCI4QCZVCMHPQy0jbFqWQ9eR43CugBAkBURgEG+/ev3/XrJrt9sk5EmFAAKCoeuhfYF2/UJVSyfV0WlfLy4QaB0RpigGitHjN+ejDFbWNl2067suEIivf6/XqNJG7doBn1VvlIx3rJWp49sEjs6leZrXOWOs5q0oK2aucDiXs0XU4eRBfQvmrWeoFUDMcOkfOOSJiEQShK6Xjfma4HoVA1GxlgzNnCoQvxhA0BecRmCdrP8f8Xp5+diFdl5bEZ/36K94+z/UVLwVqBnMV6gC5/7PJgh2tqlyC2m2rFbOaIfT+OuccIYUQEJFowSHtbcDVKIRzbr1eOyLRA3atftzgBYMA5CkubvCCoNax4/wgEDN2S5dhtpZCH87WmBcsoHPOkUNCWIwhekPwvBQikQL1w/ceKxS4N0hwRcv51UDk3AzE9TSHE88rR1dGgnWo6iDFeJVHUZ3V/TDQgOhpFzYABCSbsKSPTh4NxSrP0S8EQEKi7lLs2PgbP3zwzBQibSpHpBm/nZoiznTxwNuGoub3TSk3RmDehszzw5zxvCwblu27TsWpVupKj95SM7WvFUzfZc9ddf4+X9MVhCQyb4jLLefG2fPQCQQUQJ6pTyzAEwBTWlqjEyUZwvTV0I39BEM/EjnvnXMupf5WMaa8M7HW0evlSyLPSCFEwDI0AznXNI3ONUZu4EKortsoo9MYfVhi9wZvSWJQenB2pFwWfCu9XSejS14WDN2E4u+ZVUd1XyklGh4MTyxPROm4jhpW3KZopcOE2PXqYBg7xE7ARJnhu6K5+BB6stMwjPRAqFMKIQDqNE4XxvgrZt04y15Dgd6+He/rpmk2mzvvPFkcO/eu8RktfXKES+6k+V2wtbJXLEaIzjk1neaGMRHz/xqyKXVHsFYUO8J3rKr50ZMRc/C8MkT01yMi771me784NsutWEPUsuzJc1mL8UQTUw/rycaLIhJjd2XsJy4tQubgVl63cdkCuRw/yAn/meao1vRZdo4qrJSVG3xxkuuYevvO9TSlcZpX6yUse27+t6PWxX6+f//u/ft33ntyDkR2u8f9bldRa85fRCJbb0VIm0/lFyUShJBdX4bmBn7UiauXWxcPzOFQQG4jTuK5LdU6rXqhFjlH2X1RzwYn2thOcVwpxn2eIqYMuKEZfctLhGpF7nmdNa/jpjkFpbGdl75XDjeZZOfbTvqTM3YxUvh4pV+pw+/efdhs3jnnhUEjFSTm2JoP8sWc3489H8apzdNORO+dc945+52ubDpgkK8TruPLpJJatPp8SZ4qOAxOM32L5UqLG66UQuB1Yf/50yOa5LQmOvMlCUMnw0nMyQkKxYNJ4qIa/TIqj6QOKsB6vU53OAFYKt0QgsQE44tdmrvgafZFQnTOr1YrQkIER24P+/m2Ludb9cxwNW/XlF7jKuf/Wq56BSwvnQK2w6pvCi0WABFgFHA0NebzniEs63XgGXaicrr12YdGcKyhJGpaZhI8YPdTpfM+92RhhxGguBUkhADaPSTmVoQ5hLZtBYCmksb068EUMx4ZtdoJRVytmq+//tp5s0O8tQiYabgehQBLPn3RiU65PrIjAACQ7OMHAcb8dYiD+wkOiBAePsil4Pl3r8luVK2RALCw+gUiAEcXNRf7TXG5BYCHeAiLSXgvMOgJLcZJUCcHixrea0zOBX63JFZibb7CZJufBgQ9LQ6rZIiZiwQPg2gnJAEqVSr5b8UZLCist7rGqxqmXMK6agQA4zXzZr5OdMISk03Y+YjIOU+EydWVAztfjphLlvy3AVfI/p1WgZCcc7VG/6RqNHNa9xvS094HLYFsxiBNaozxkncG4ChLlDqQqSwHbSDS0LEEIR6/hTMz3j29G7gjW8Ml91+pS5mF2e+zQlWVDKA+iUotAAClm+L0FQAQYR8dUEbCu7bwwLwgy4Ayk6bwuBr7WdsmQS8eqKkvJrgcPT6uaQSAoIzMfP8AUYTqFOyFHp4AysmNiadAvP2VkAgdOZeEAbvWFfRIj49M396OKGBJpTpKOSQhZSBjZe1qdLV/uN5ezbHB5cjDoIeXaahf67NSCKPfJumJc26zXle9SIhIoJlYWASkBREETndVAgGQXSCYMXT6ByISknceNeQFBZmFWxTgwDB7pUxvywoQucZ7AeAQJBpU9Cu9PLm7+yXeJ6bJxUTEbk7TTkQHiaIwwyJ6R3K82C2aEGPdKn8JSNu2bduCABI6oq55u7deAEDYbpwXFiRUN4HKWEVLE05EqBM5NAmKWGYcFgEEIiKk9eZu+7R9/HT/V9//9d/+p/90t17vnrb//P/+17/8/BftFQPsgTMKgSAkED2c3mKIvWiuUE0uu8DKw/jwS1mckjrHewRpBBYajq1WCgfurN5M2ajT0AUAWPlI55zzjfee0DGbezyzBJZ4y3SPUqbEY7nkZDpeESCMSKhqCKgnC4mIEIlZTyUqxZfUouRC8Lnl1PFC62E5NwyaeUYKkbySCSUIIJJzvmkq1bKEiM6pMCiI7IgxZV9EEIdAiE5JRfeaAMWr59FuC2MIATigMIJhzAPIvm4ssFslSfeMsicxiRAhAQIzc2ARCRxC2wKAc15pA5ETEA4cQqs0b9CIQ3ROR6E6GQEAzRsGUdQQsWvro3sYOe90NGoH5sAComI4Z8UsOhSpcnflW7+jiOkIauXMgVlAGBgQ796/Q6S/+v6v/8N/+9/9T//z//K73/3uj//fvwK6z//X//20fRKMLv+QdjiCEEi6JLhnjrlAAMp5KxQZu5GPAAVEb25mXkTUkdcZPC5VuszLo0liFRdAAYhIEFyUdc4shWnTw5VBACAAoe5iWk2cFydQMKa/KGrbLA7SFJsSRShztTb7nzqJzAwHVYZAE2HA7u7tELSoBGTmG4xc3+VVwniuYJQOxp1+di0TgN0TRLRqGv2pfNd7/+7dO+VUsWnEOSAXMZ4ncoiOkAApZ/wxYkXnHCKgsHAQDsCMOLixcNEQAIoKmUNoAwsjoiNzgdPkXiruZA52HEIIbUBC55wKGUQkAvvd7vHpab/f6x2WA/j+v/nedFmYsDMgoF6j2YbAIQRmBNDJ1BOUNx3alpnbECSSIHXDsMwB1RRChY/ArANz3hNiEkEShWARZn7abQPz3ft3q9XKOfc3f/M3//4//A/ffPf94y7g+q5FF6jRt0bBQqRnMdM1qbbjAmn7LoHflkD0CgHD6fNF1S29ZtQyNvgXSwEoZpxrWvlhpEVHNIhrdMZ1EQAGZBxZidTGYEjXQEVW4RRZXcmwm7hvA6jdBGhSDJFrVo0Ih9CePxrkpcKzW6ojAiMi3zTee19NIQixaRpyjvwK/TtwK/S+WTWrpvEWEW8r2TRNCLzdbpm58au4wJpNRYNChFk4hH3bmsMc2AbiEPb7vfde6wSMQoZI27b7dv/zX35mZnFBGQf0rlmtv/rqK5MmVNce/fJCCLv9frfdAoDznoi8c03TIOJut3t4eHh8egptm/RciEDkEPGb7/96vdkQYlCOJUXkiIjIfr9v23a/36PmL3GOHDkNN43miqDA3FEIABeBiKoxr3BgoxBEejNwEqclJU9j5sC73TYEblaNJkle332zevfNY+u23GxhvaPNnsj0wfGgWtd6ksll4cwSRF2NKCLIALIYACQCWGsGrkKOkpjNeaOFALCYRDxzaSjavzGXfMLy8diCr9skmiGy+2TidlPlpmk4S2QtY9QkOXTpF/a0rnPOuajqcgAQAhM5VTNdyhjwYuCa8RB0qC8Tomojya8A34HbON+sV+vNet2sGt/QqnG+cd679Xr9tH365edfBGDVrJtG6UjDAiwoAAEkMIYgvt1rkvkoikLbtrB9Wq/Xd3d33vuE8EXk6elxu93+4cePAATYeO+89361Wt3dffXdXym3m8jEer1umubx8enh8YE/fw4hAKIQife4WiESuR3BytHT7uFx3+6ZgwAQUEOeiB6C8/6daxppWw4haaJ0thj2Afb7sEUkIQeuISIhR8aDCwAwcsAg0Zphc+hc91MPHsi8zknIjmsS3s1aEliQPW0cW3IdEWHcBLrbBv/E/on9DtZ7Jbhi1oaekafzP+ibOs7Kr52Uu6JYodmhlhsGCTXGAAALiq8YdiX7HG1/i4JJcgdZmqTiKI5cp2h9KKPbTrEfEzF1roM6mRKTCIzfHvToAMmhewdxtWpWqwZ495gAACAASURBVNVqtWqahlmQxMfjE9Wl/Y38hqjGFeMhUPlfqqYQqhBkFt7vBQOE0DK0Le927Wrlvadm5ZvGNd4/PGzb/f7+/lEEHuBptV5v1pv1eg1ILMAALMBAgCSirLS0bVCehFnIrcitBFwbQIQR2SjEtt1tWxEyAkeenCe3AvSfPj+qDEFmhMYQsFnB54enz/ePHz89sOWUJ++99zskavf7x6en7dPT09PTfr9v2wAASNg0DRE97H54//Hhw4f3YEyTWd3V0N227W632263AJCSAajUYmGpKCGwWgdEJKluo+GEIi2pBHXkN5u1ma8jH2YUgkVEkCV+hwLy4eP9Lx8/b3ftLx/vf/n4ed8ykk/q4AwFStQzwFAJU63PPUDzW/D4LxCnyglKKpyl7sEBGApRZNr/Mu9iBaimXZdk5g3TqdssVPTzfHgQi6o1MaN51DPFvtlBFWYQ1sBLzM1XXa12E1x8MzVVtPlP9Q1xvd6sFVZrCUzoCR0KAFKMMVHbGopdpImRFXn1yqgrUAhdbDP+YOb8E7+HkQ5WNxAL7NtWPSgFd0AkgRxR24a29b6hVevbxu0b750Lgds9Bw4ceLtrHx+2IrJv2+1uj+TReXQeoqafmfe73X7f6qkkorvNXdM0ehcuACCRiDw9Pu73+9AGZgnCImIJppzlBe5kI8TN5m613jw8PT0+PT0+PiJi0zSr1cq74HwAgP1+//T4+LTdqjKobQOzEKEwEtGnTw+Pj7vdrl01DaQ4DPNZciKy2+2fnnbMDDE6XSUetLQ2EjhwCBxF8jT5PQRfDV3kalIxRRlCrRB66sicFsk5QqT7x6eHhycWeHh4enh4CixN44EFUV3TEyLStJ6qAqf8XFXFXcexVQ0kloYh8ugneJW8cBUsFVY+l+YLirk8Y+Tnlwc1csPD0eLat/PcGJk+CqBO0DkXROlBVb2S43IwJR45ckhOHVVZRI9MCCr/d7mT+hULotMdiuZCKWDWaYgf0gXsc93z3t9tNo33WoGzqzEHeArjxkni0KsnD3BdGUI1NHZVk+0OKscKAQpiG8LHT/fkHTlxTRDZM4OIyKNdYEso2GnXVZkBYleda7UIRIJOKVTagyjC5jdr+vFfSl3WF9ARJH8pDmEXRoZmRKSP8BGQEAjizt3vwv7+aTQwVrkGmQAAGHDHArwm1z5sf376c4oyQ0Sh8eHvIVCLY1I5YvaiPoz22nmNt8kCACnsarFCiGjOEW33u9//4Q+7/W7ftrvd7v379+2+BVKBhrtDhJKh7KEMUXWLdo0MYVx8CXvGPZMP56BbYqRegzOP9JEMRceEcHONFq0F0cYTCxm1waUpYlOsiwDP9/G8YOTBdmJHIRgEAUmPqlEIh+RZ9rt923II6nNiBEJkGOesE26zkcZ+hJeRc+7d3Z13DgF90yTNeLd5rbeJl6uGak7tOZyjSnA1CkGITVTtxWeTVFciV8fCwAjEwAEwMMQoM4E2AHDIdljklU3c04VAYTCnQ+gQe4epZpfXMGSQgQsUjBZaBAVJgObRRty6kv6AtBXUZCgcAsdJUFefca96kjmCqHvLvMdiJwEv2UQxnbClvTy4y71F3O93iKh0nJmBmbAzusd+QH/WXX8bWEzHQttQw7HhBIWIOq66WiZrr+jAMm8uiSTnWGiywnQC+g/7fyjaV4fi6XYhqmCwpp9nBYEoUQ60TKBUImb5VF8SkcAsAiGwqKoHkzGg/34uh/QYjfhVElem8a+dEiIQ8M578gCIMtjBsWmTwmbym7wyuOY91U3TrNZr72v7IALMAsjAjBKE2TI3JE2F7pJIIOKyDZxfe1sjf14LRVQ53GGUYvnyusfpOUYqguz5gBAhYLHlYT8EGaLr4vQgJr8Z9wQ6MjZfsv8ni9w/Pe33e+dc06y8d6q4Nf/zuTMUlc6GKaUqrcUyhjaFdW8oikElmI/b6JsakHrzd2WFnRV/puKJumT0lwBJOg8Hr+PzgGH4CNmJNXulet8lOcxc/Fh5KYqnckz+NZ+HQlQkmA5Roi2NAJULKQ8dARyRurarU3aiG7EZtN1Vv2leCVyNQijX0HgvR1wwF92ic/xLiZnuxVsVPRxeBwz5uKWkCVYIBUFMw3quoR8aAGQaEtGLZsmsI+oDZRJdZYUqtleVrSn0RpTDXwZYKAS66CCeRBw1IajFGox3kklq2k9XkwpJeg3Hhw3y8pl5EaK88qXA9ewQYiERB+Ee3TKiYY0gkpneJJoyhu1cgURcrsHFuZLEeAMsqbHP3HRe1jR7PrrVihwjd/fsFGeCiEhib2IsjClXyhLmYpU3OD9Efg+dc955IgIEYc3UZBoFvacB8ZKZWhB90/jGe++HRzujSkO96VuB69khiFar1Xq1Wq1Wla+kg60qxSyKPpKGIdOMAnVWTkiRyz2QEe+cO97NwyUMSxU3USIAXyJm+JhgqH53hzXMxGTlcN6h9AwctqFQpS3ULHhRny1zfOWRvRQoqcvKasYbQDxuli2YEGCgpY1mhJg4Z3BcU8gOWr5uAnPTUs+pnrkFEfIA9RRFi4ib9Xqz2Ww2m0EyM9NQ6j4SE50vkAvjmnBNO4TLwhQh3tyurtsDexOYAc/eNNQfzQzR4NoVTo3Et5ZXbMIcMHyxNsJ/dPWF2K/xyxfFDleUZnpt5+ThAFVt8rqsySlU1aOUtbpnkFImVHrlcgZxvllcTqSR1bzU64MVYVjQJ0r+be+73t3XL40yTc232n5VG8QiDFmGgfTeaOIGKCHqqOqmt5MJENWjZrVaYW9fpM8mhELMTwu1WXxfAcxQiDrd77GsMiI6S5XhIXJu0m3abq9oE1G4VN+kjEJM87bRga5UYNzrYjXFwS2jDcQUg5ypPc3k27cn9HJPzNV4AK4/8dL7IozWOf49OAmV7JMIVl6qIRAtS0s1L/s7RQoBkOWfQMDoqTiQQKvn3AIal6GAnk6wjETZeYj1hvb2bokGqyOj5bsuFDXCqAZkIQRAEZYQAgv33U9MtC8sQrJ8od5Lx6DrNXQBw4j9O8EE4n3JzWrVNM16vSZKk9a1Jp3yIjrLHMAEvXS45h1zKXnR4JtBXOVgF+cpWHK3ySKmLTPtRcRUujOq6BFfFQTe3zKD5vOexC25rDyC5VK9Dpzx8C85uuZs2vEww0CeVsFSjWr7hKEFsrZdwxfXwQhXa/i5oKMEkXE3P5UMGc+u/NwM9VBB8nBJkklMRNYoL1uXqMZkm1oR9KXD9bRM6uXsnS/Ne644GnxhPHidYCATWL6kYa7VOi/rz9HsnlSIie2Th/qUElpxndk9JquBs2KP59ju5Rz4z9TuaIBv4YC/bsgPSDIqiEgILPHqIESsPrsHt+0b75tGE4ZeK2btunDFW0gBibxvNpvNFdo+Ya2rYnfRskVMxVgeRB66Rpc5Rhn9XAhizdK/xKbawKAa2y/y0C1BzGrSCy08QaP7igEtU9nX33y9Wq1EABG9944ocNCszBeSowSAAJpmdXd3t95svPNfJsdwVQoRs87lT8ZlzAPa1PeC0u0IBEnaoUucnmMceOy1ZMvqmwn1d588SPdNVsUxDR8K9Y0UVwZi3w/sbFT0DpU92Xe9hs62tMmOCJm9UfouLa8JcPShWCb+lMzkwwxoL2EiuvPsiNar9d3d3bt373e7vX7d+MY3jRok2jZdf1JLJyT7PV1IQASJvPeN94335OiyHNdLhWtSCMnykrKFSKpSt0MhulkQQJgtIJdFE1+igLAASUYuCk1cQVlgsdCqbMrEZCgjwIkqppDyWUGortrxbZcZmT4GsJxuqeBxXN/E4tnHHmGz3SGRSLxKBGAMU89DqVBgIqvrKI2gzfb15qG/7Yn8arW527zbbO7+6rvv9OHj41MbAgu0+xBarktvaCkm04e096aSGgCoMIe+adbrtff+zSTSOAguTyGwMyj3DM4AIIKI5Nxms9nvd+1+r2klMArUaI4+KigQ9pPRmWyR84L17Gbdah8pQxgMsWpkXUXmszBb22O5otL2hROfx+Uwy00yB3qrab9W6WPbrM6lNcBuXrrrLju/kH5vpDIoXg5afigghWErWCQ45b6U/GgKfRle8g2Q5YnOXtQbuzvMNT0s8wCFHiOC/RLl/qTsNP3uSFfnkTAaYdVbPY+T9Gm1Xn/99de/+uqrX/3qq//1b//27u5uv9//6cc//f3f//2//fBDs15t9zuOtwzxhOLW8pxB0j4MFqvwTjc1It45pRCCKDTUi47Jiyyfp2OgVOVzBAOfSiFqcKhuukJCIiUAiO/evXt6AN7vxUJOkiYgavOVF+cAiCIMLJJEhxgLmzeX9a+MVWsn9vgFKNuURWP4hsbuCZP8sVJE3KLzpVMat2Uigeps3HUu/TUgEliXsoyMCciNNPGvkaRVp33XDTZh9ekV7NjUGSJhzImMmy+f1CEzXlS8FdWJMJJ+I1PcCQbmuTOiQxgzRwwEvEL+rpJsNmZUBFCvQjlStVdSUtWZT4YoW99ZrVa//vWvf/XVV7/59rf/4+9+9913393f3//xj3/84w//9u79+6ft7vP9vZYWAJAOc2R1xc2q+8O8zTMLmEQhctRtfUREq/XaeScAgjhO3iT95caM8zonFA7WJSPJI1xTy6QXG+gN5YAgYvjT5A1dc11PROEgAJoeHFEcR+EiMdvq75xtbUS9xPA6gytrR7Sng0SwRaTzHHGZGH8v5cXr+KKk0bPc6jUiSKE+AIn3Sqa+RMTYq2/pnvnjQEbM3xBHJLbjerqFbuAa4DLGtB1t71m0y7q6Gt4ekUQCQh2hv4jlvLvZk4iIHCI1zQoAf/rpZ++az/efP378tN3uNpu7zeYRkYQDUB5HlUkhMWuyaixYGM1RtkcfYKSZQ4R0oQo5553zvjlNo/Ba4Zr3Q+hdZ3oDrF1sE3MkxoUTyEJgVexAEWBBZ0Skl5gJhvjlhcJIITFiLJ9tDJX4HQtqr5OmOl47jPGPWCUM1GR14X8StUx1RucRwnzhe2aKSvZVdOmPAmfS8eV5wfFD+2ZxPi7nVyUACHq9GBG51Wq9Xm9C4H/4h3/4+S8/f77/HELYbner1XrVrE3mFBCWcWp8RDQkoXHYMqHPGEHUeYp3TtGUj+nFXvxeOTNcNeuG93rVMyLqveQEMHUalAsQZkYGYmTGioTQlwCqa7gguAL0o6y1mD4fvYx4tBiBehnMYilMd0UvjciijocVFOANeWRORemO4KCrhqra1USHva2CWEiCrOqMt+QGG7l+JNpsNpv1mohEJITwx3/9159//vk333yDiLvtrvGNbzyRA8TQtoSoIQsMo00oMcbusI5oPETjmwYRfePf0jTXwxUj5kBTciGR3vEpMfXKDBcY6YT0FH2iCa8tkDF7+21R+wNGU3ktG0QisQDSsfLTjCeAuR4X2NUToX7k81nTcr17nxF5caxhSU80AWfGWxW2nNjsiK+x94/vkWIAcuR9s1qvfdNEKUGY5eH+4enp6f3796YqYiEXL3tkDox6x1BPMSldzQejeBG9/12TyIGRjZIW7+3CleMhnHN6z7OKB5p7ZeE1ARZGSG6a6RKPTCfVtfDCDv6zAI5MHVOlivbPEkjMk2h/ZqkmMlOCmo7OHAdXZ44zP5Ul9NT1LLesSJyKF8IkmiVuBAVTwtnNNDWeTCJqpxlh4u4Wn2P7pLGCSHqpu3NOlU0UA6pDCPv9Pl0O4b0nogAIwObPlu0/AVVYD0WKqo4AiLrjex8tIkeO6VXDs1CIiT0nAM1qdbfZbDZ3AMhBWPSOcIye2smUmh4iABI6EUtBkS4ozX+ydmtNjUV1d9EptTZrdYmNpxISKkc+nJZDuMoXRWJLpS96f4+HItpK3zAYlcILXYvBEEnYmH2jLtFIFYeIACjC6q4DqWVM26zn0Vuw7k72kPrzAAVTh/Wz2PtebdKpKHtfDGMerASW13DUx5J1otiXCo7BJnui2FC6OIRaiGXobBr34cO7Dx/ee0erVbPerL/79tu7u7vdfv/jjz+Spza0gLLerB+fHtuw5wBJkQDqRR01CmklzAdG+QHTZpWHIaDitYS23azXq9XKuS5yKNKfTjwpzJBxrhflOQ65IuxYbDJDIc7GnEwgIQERzZi4Xq8BoG0DOvHkI1+EHaKTiMIld+GPC4Zol6DH31nLsLzdrWztDFZOShH1MRTc+8++iUpGgylImoH8SQm15c9UlLcnfSLRPZwChC4r+7Afo/oOh6V1TCzFaOwFxFY9jziaw84dBiImmiQ5/VZYUAq5hmTwh7I/BSRRmsDSFWySGKze0yqpJLECE8KqDArXrqhYll0honfv7j58eL9ar5rGr1bNf/zv/+NXX3213T4Bwj7skQAJ7h/uH55Wu/0WuOf7kCzKyVepy6WXe7rG3uGwF5aqITCv1uvVakXkuqH2D8P0FD2DSFrZxPHM5jXvmANzaLNrKonIjfK81lSTdobIQMs0wTpNweWlyILMC1Os3PFQO4lJy1J8PoDnUsDM8KYLL1ZzVBFT57QBeg96T4+AxOIsVzYmGwe0m4w+Q/JUX8XxQHS4Zr8CRISINJuq3tvTNI1z7ttvv/3qq6+enp4+ff788fOnfdt+/vz5w69+9fD4+PT4xMxAyHFhk3h6IjjnGu99tEY81yF4QXAdCqG6Rr37lYhM02gJ4A/e3jL6Sc0cJIS9KTXjsmUhK1nDEj0jXPYcIiYOEVJQtwiUFDs1k1HTW0QCAALmIsvfq85OwYgHHfGkqoqEmOiva6uYIrcoWYzFimKfxpDquwinTOS8b9brzWrVNE2juXkeHh68909PT+Tcbru9v79nEaUf3ru2JYuaTNaIkRR2AKgfm+YE8t55T44IkTvtBeYW0BcF5cU79lxfSYawywWJnItihC7BiRH/N7jBUYDJ1iV94rl8sDrVw1n2rUYFlXU3vYco0axbgQqtYA4llxwctTJb51BUOpdIkRQLSv6cc03j27Zt2zb0Yb/f68OzC06KnxrvV03TNI1zHoliVqC+cu8l4SssK/4O0qX04FoyBIIGxRA655RWnytkMdXzxqSCQ2BKfzQogklLO355VD5DBPo3dtrewes1mGK83LXhbieDDNmQZ+NKMLpgVCj6C3es4+CPeNftnFkn/j0WQXQHFDs5ersE/WEMVHY5Aq04hv1+OGeaZ90jREjk3r9///79e+ec/+WXfidmYh10ElXUSskZJZOeii+ay7ZmjVOHVyVZInaTSCQVk1W8GbhmxJyGVPumIUTvvebmq5/wKG9g/gQy38iDKU4FjRIY2KleGphDOEJJ15CDpjjB8kVDBZvmKE4w2v2yJRNA7O4Qnuqh6Ymj/2L2Rcmd7Fwa5bwDiJnbkmqXeUydDlBRaj1LL8SJGaT26eF3VYCpR8+oyh7fGvkglP4pKBpkJqjvaMInrUAlkoMDvVyK3hvUcLCuLqHlGMSAiPj582cienp6ats2viSG9ctHcqR77hGJWYjyS0Yg4iXIo1fLC4/l/fzqYJJCTF19kyBthCNFSxEBIKLNev3v/+Zv/uVf/kVPRneFrIBlaR8dk8RdRDFUsq86ylAtlGRSx2LRqlJXBESk2MtZi7WeAWETmhMI4PDFkYgqYrnqUDF9oskWJrGc1SBGRg5TVI1eHDABc0CV6eYkbl4rLb1FRUhZqKqSE2n3Ci7QfdYZtaiAADR9jruHu6NQwICSXaat9eUl0wEYQhTu+g8BAMa8dgHbmZQzrHikobKHXQLNuItIgAtl+23RUG7tsQtmnUQEwBDC/f299/7v/u7vNL764fHxp5//8vj4yDFra2nZLS4Hh9NhGzQ1p2kK9WOazohe0HtPzklkCy1wtHOnTAPr9BbJx/6MF5scBOfNH3U1GSLJomoKUi8mQ/5p8Y7BxsdNj22ImqIvWoSIG1eQKu5+kEKoCsLoVmocRsElTgp7t++oSiBWuKwaH3duSDAgIsa6Sa91Ti3mwMv/kNGzaaimYSkdMWWof6Qg6sasyKtrp6TPK7RbDvqdoHYFyQnHCH34qqB0adnzLxEBOIUCZIFrkJPk/LvUD+gNVa0ASEShbT99+iQi9/f3+u3D4+Pn+8/3Dw8Vu0LiDOeysl2pkUimXhGRKC52fcCmabxmjevNxTCJLA4/jY7V88HUVjyyP1fN7QqAZOHsVHdL+ODd/IyoOJFfJ4CVmZtwgOjeANSmBZaRXgFLVCNKZ70HA2k9iiIMFQIoWKFFvYzqLM4prYumCgbI0tOeAYbamiIPjmhke4hR+sjGdOBA/aTipTxdmKY7bxxGTtWp1iRH4GQvi4zZoLbeLbvpMYJgIoSmCMhrG0tVCXQcNjPRCGHScAjh06dPP/zwAwCIyK7dt20rALTI0uVqJaMKHIeTq5vsagkn1GkgAAhxvVqtVisiMl1W6VgN8MyFnG2ulVn2yhTi5QAOnQbLIKb1eslZvExvu4h/NXp2KAubL033d6QG/Ud9wSE2C4aEThxB3h2NnT9jLnTso8GIomOfo/ggZSlnDJMFh/gQTSc35P17GDl2Cu2yRcHs/ULTWaKL3jejLsVdi1nOLpwSu2TUwxL0MGGcRzMGprz7pjwevNfDoigITpCTpIMJFK+L7Ha7h4eHENq2DYCol1cjEYRQ7ltxUJjpxIZDExAIzESUkDE5p/G83jnrR7VeY2xEeqVwxYi5LnoMc132DU4CEUEyQ/UihwWmLcifSZ9SaojrQIaIxyRRD4gYyCS5M9GIyOxXa3xqoNi1iIzsr/RTN47zCqAZy52beMqdKYhrI7zfM16IpHfGcdY4QXCmejoaeNRGIiZvhOS723M66HMhSBATPfXAdG3RW2m32223O980ftUgkiPaQ2ztLCDCSiRExDm9XW6z2fimkUQhvjBEdR0KkdR/usOQKGZlPKCOc2OOG0A3n6fy7DWvX2ft0HJr91QfMtSH6Be123HKm2VYKkkPkiH+QaMRwSbSu9ByQYBhGeg9RDQlGFpgYLHemcYmVwqH7EUm6SQrSvRuGgwpS6IocSykNi8AQiS1DkTyEJVWijQsfdMFtpASCUQQIedWlpTJZd/XOTAAjITFcnvXs1hUwZUoBIDpKPXaQ0xakZhJS7Lf0B3WbG2WKYSM/aAmehM56S+R3mQXfQ82dH82ina5whpUsd0HHouzrwsOPkjn7drh7jl02q9sXGSERTD7GSugCnaIYYX9fmd6onHJ0XSZKlFZ4E4BlVnCk/JFj+J4QIUlMAZ/2NJ4XLk1Bbt3RxQUAAkJQJAcAIogs2ga17YNqc+pHhEIgeMxxzgOzBrCftN5ZyUb9ZAhSt813jerJjpW1QNW6qNePsY5nkIcxvH3QfkCjqvrvNfcJwLq4cdAqJdARJYBAABRUIREVJNCCIymH4g+7cP8cjIZntobSb2OK3PQPmbgp0FJeTPsPNba5+1t6FQLvc9D1FNkks2qbQQGEEWAo3ZhAWo1Mzgykp8I/XCBOKfUa0VZGFRn66X6AHiZK0cAVOcKiT6aVmbAmgggCggDjKYRh5g2xoMNMNwo0aykC/jytrIcht1yS7/MJKg7k24+lvHdRgPxKCqYJvKhGsEQIee//vqr1XoD6ALzdr9H4BDa7fYJCAMIW78RgJhlv9uLAKJDCADYy85rjB8JgC2RZXwVEU6aKxm57iUVByKuVqv1aq2+t4QoQMWbwQrzUyVAxHl6wXAlO4Stj2jy935irLiZsBD6k/GeEjOETtDqt2En6kGBKA/QyxF8Tg8Op/k9U6VKIXWdqKfK4yO80JOFhkUgS+0WdR/DqIRKTJm/MvcIO7HCWjQqVOp7d/FuDvkzib9VKJgfe+Sxk64mCuTI8Zz0GO0q4h39PQWgy6Y+jsTAHsnJaeMAlFlBIkAickgkAnplDDPv2zbqpAHB3If0ugju+wSbSDC0sUwxtJPSrACQRsx5b2ZzQpks/mbhenYIEdAUXU2zWq30qr8CPZ+ooP9TeknktRCJym5KCauOlGNXU5Yl/DXT+lEG7JKPWdEUXjuNGYLuHsJAsoCJmPRC8naMxHGu1S7MCk2rWb6zCDFp8wvNjx6hChADVc9wLvpxzmk+zXQsfQvBoadGFcPJj3a8VvnntD2l9w3ad4hAhI7QmfGakBCSvkFFDfNykhjRwMXdcCpYUtGUIep14JLzw5XyMiEKAAE13m/W6/Vms16tnHMtjpmQLwFqpdEa5s7yBQBWEAsZ+jt1PrK1MvKwwqJWPq8+qVeq17nk5VlCYwf0VyKfblM6mqqEznHoYTNqBaO5q1pvZm5mpTsbOoan7uKkiO5nyyYuflbWTrrCpepirQgxuMSIRLEYmrBqnUitRQVBJ8wBgobJYbRNasycsEjgEEIQERczQQOgCAc2SFMppqark4SmQRPK2i2kNpCeq/AXAtehEOQIAgtCQ02zWq2axjeNhsl8UULcodaMcfmiDFF6Xq5v+OAMLkyL69fTTS/XWA7sKIkQlen7jaGOVKYojdj3NUF9BTlgGdDee9bNXmC/dJw5NRooneZBkmNYKR1T3kzBLzZSJBNBol+zUSiVE4iISECEOTAziEQaQoAgDGL0gXNVQuzLSbsZ1Z3WERJ9SThpCFegEGqCUO0hOdKrqhvvNb2rjAqP8aLyLKzVAArwIWrtUwGRqljsGtk36hOyISo/deye/DL2cpGyXmvoqvEoup3mhVRk6G2KXrRDV5AEpDLJVIp6Wdz80zfHyaAHR8HpQTBGDxySI0eIpBKEShssSgYQCJAIo/ghIbBSjtO6X7B3IpH3jW8acg4Pv9kMCgjgFcTQjbs4QSFKmt9j2wRTegCBhE7FIGKCHJHd0UGOiAKnO2Szxqd3cIkpSqoWguplqV49zH4mS4BFAi/g+ohVhDq9c8beAuTjm1qBUc9T3+bYunIBe288utqtXWS7y1aDA9ZldD6LNdYanmJ2Qas/3ifcS18Y9ykMnSWKjYaxqwAAIABJREFULWCmSJlrOLHo06fJOOipdgZgGUQWGsZIIJAo31CdxNmrenHb6DsyfCn7X78kRmNN3nGJX0YEgeAdqk4HCZ1DczFVcwOwCAOAPqUo6jBzddauiXFAvBk89Q1Nwei8c94Dod2Arfaq47F83cQ+F0wcwBoKMfHq1DrMH3UkBBBmy7sizBqTwsLEIFGB6PJ88JDiKJVUpHY7TwIRQVF7YhZYgcOI4BMhU7BqtSo90FILKTRVYrdnikI8odI9S+ctawlxItvSZPUy3zQUXWOl6F1apW4BUG/DsfW1imZMQCn/YGmRK5edobcuWU8yRr6jdD11NkJpRsU4oFlM3ePU+90vErvxw8LqCwBXKfbQMmGAUbOFslWQEhHG6iwib6gF0G4P80T1ZQ4RIUfq2YgE5JBc8leSpMKKh7tD5swsPEwsWQ/YZ7wi9gEAIMJfffXV17/5hrzzqwYsy/rYv3II3bgG4YTlbb94SFNlz0FdqmWIizSdHMFjiAOaUxMSOe/JLEKmhlI/76JLUvRXBsBERko87zk0T5lCH+ODmrx4+h7VLH9UrS1gjVTrMpwxi9Fl4IAj/UyM17iNIuIuF63B0rNFjuSBD3zNtnK23/pDyWzH5+vJAVkxo1oJCIHM+UtYWIRFgkgAEA0pidQdWGPqTlMydWqBODEC4H2z2WzWm81qvW5WKyAUgGLgxyT0u1VCU+fBUcdCVdvPRCEQITqh2wOI4rYAOCLvvebMEulCWkYi/gHNGSo/tduJ6Uv91s4vJtYuqJinQRAEMBnEJmS16uFc0RiR8yCzB7eWJbKVHMAJOGGglnle1XBtr4uZ0cd9ReOhalpOwvUgXXvHNx9NHmqgc/cqcNidIzBqzkLU4WpRFmEWZnNrTfcvCYCI8Fn6rOQhzYUgeO/XkUJo5mmRGWtOJYxevqLmqS5S+Eq+TKp3jOob533jG8qVN7Wy13OAiRFxc5zd4SqtVCHN6uBJXbt1jkxgnNOgzrL/TrWWSQ2yWT+6L47G6qMXz4ESIr4sKJnSaK+3Bacmu6ilOBAkuvCKpGugLgyJXZJ0rWH2dHYMKiiENjDzYCNkWTeApZQE5AQgImcOr5ql6aXL5ReCZ6YQkVegyOUDIKIm3Yg6I8vm+LwdmwbsMB0eFDlTrzgsHNHI7vWaw0qfisMiP6v0KwcB9v5nVcrwQR1ceh+MKUX65gUxKeeEEV6W/IsLj/qo6kWEhTmEhKZNIhHebrchhGiQPE8fVTYhQrOKp0N3Iba1kvZciUI9I4WQKMmlzPERBRKi2iHUx2lg0jqp0ZNvnxngebF7S+p56oOaSIQhttYjHrX3AqmS9jydOxQmejhKxFl/2gpTfQoHofstU2GK2poH8s6x1b86GK9XlfHs4D122IwKZOfC0rixRJYSAUBYmKUNLfN5FE2QDJygHlMpoFqvy573RDgFqhTR12JZLk8hTGeINv8Mkq431jEjAoD3HhHNtTle+ouDAM/u+jPsqkWMmeW1XP+3FGnM1ESP9LzYQ3kX1hmmHZARjJ5p7JxkqatwOBknapkOQPwnFBxr+g7uXmYoSg5YPXbaEr31ax7b2OPWXu5AcWYOm4dcEZu6VmeI6P3Rwza5KWLKGD+s7QBcpQc2c3At99h0uah5v6Nkx8zB4p84OOctjJFQgrRtiynxE3ahkId1DQBSCLZuguj96hvvmwYw+cxc4vhXXo51dntZbYUXpxDqYWcsmznao9hVV53WxntPhMzcw8eaWTMzbWG3dYw8gKjdGOL2jrSh06cXp6LHpMRiC5OGQAAxp+WZodhVGYUCLHdSTMdU08OiUHIahSgGNhfwCaqj5nFQMrTU9lBAALgfokgJOaY0wva55GA6ZiSkLseDlIwxR7tnp4Syi1hRpJDcb2x0rSQOsWgdXerw6qC9jBjrlIN5u5uBEhERWSQEC6IKgU3fg4iALLxv9zZ3MczkAMep2D2lXXHXRj4BEZ1rVqtmtQK9ghQOosfVHahe+7PSpwP23LPaISQKjACdF6spGZmvoGnLG6xY+GoL8BlhwMCOWi9nM0AYIaOCvk0uYKMsEc/n0dlUku0iPlXtxWDGBsQgEo3Riy8eLLjjjMtgoTnLFS7GWsfwDE3JlxIzxXx5xt0rxhBQlywlJSKSlA3nyGAiuZWDyDvnm4YcQQyXi2VexZqfDZ7ZUt1tFhaxYFaR/b7lEADiFfPngM5RFS4goh1EhZehVutVelJGd1AY9OjdspHmJBkiKnL7L5fmis6vMastl486x185Oy+RhekVmJnuLwwOVOdMVJI0fQZEGsnsyE1f2qMs0HmdWSJ5sJQe5FzTNN45JBQAVrXXl2OcyuBa2b8ZBIQIEQPzfrfb7/cnCNyzUNZjn1rrWTeoLO4+C34uxQ/OvFRVpCzo1hCnIkypmPsPom66rs4LQorSHXlIYCQT1nvSYlzoM1L5RocRlJR6JfdiqQjNwu461f5MPp8jYKZ2wUljavQ76l34KDEXGaaZFkAE51zTNE3TaBqeZ0jkKZkfKxESOXLkm8YiIcjFMqb5egF79lmhSCGKczBx8g+wkqXfthsshV8Ibdu2IUC1oiDVY8Jp6k2R05WRH80ka7LYOqaf4sE+CurzLV9EGBpr1SdoRuXJqCuGtZFeF4BlepygEPs9secRcFlpV0uMp5s5Fqa2/PEye3emurqx1O2Yugb70ljMEJVJvHofhCPnyTlNsRDXKhkgIz1P6xJb7+5iSsqDlNZpehB5hxEFQFVclk60aRD14qCIRL4w8gDTMsR4JobXMQpAvPGnZto4WrckEQnlG9q2bduWmXUx6rotIoxg92sJCSGJbSiQaP42/RISDhQdxT5jVS4NVVJWsueVWF9HVFW22MqEWr32fRiv66l0qIKLPTFQq0CeJ8haTSsYNZy5OTBpnGMNZsPu4Ynoblc1YwggSCMz79g+VEXD0NqvJMnlLh4tKg4WGY3TKajpl/qHIJySHjnExrnG+8Z5FBRh0/IwY7wqVliYQRg0HbjEcHHsta9eMSWJL28bQRBF1MMS0Dm7uYPIObdqGgAhcskT4QvUKPrRmKPMmD73vugARfQCmkOE2lRSHZy53baPj4+BLb37YVom3RWo7Fs8MFFrgED6JQLlFmbzUhmuNabvFludEFW6ryf+WB5MBBl9mK5vdAkQHEAgisTpRE4plxdrWl94NF3RmMYXS5WUQiM2N85EPvaYpCdnLSSWig1GxhZH116Oe5LS/fb6WiYHmtFr3iwuYDHK2NsEUhZmSu64MowURpD+Vc+xSmuvq0zVbyKAQBD5CpQR4U/XK+U23p5Ozz4wCzMTkSO3alZOo6M0c2tgYSZAAkRBYdnv9tvtrt23EW+Tqaq6NlgDO+y0ijY63NypF4IQU4diYBYAIvJNAwLrptHsT1rFm7BUp4VfPqe+j3V6s9efipFaoJPgDtE/mHpBAIQ5bHfb7XYrmvn1EDuExAsNlYGIKh9lIyhuC72vikZc3vhQziH9frmlYscw4OOjX/hc1msVmcgDZIilvhwGcT9UMA3lXteVLBUvByQcKM0MTBFaQ9ceZvdbj/qyuPAJT/UKFtzTRBAY7OKT/P2e67NRAhzSBCyTiOEjlAJ3ETnlAZaHIVNliFYlh7TbZNyMdbDHd0I8brllAvWWIATwRI3zSiFiQqYggfXOCBSUAEHCfrdvW04+9AgoPf9psry3aJ3IOMSui9GduVN6skiQoFlmG+9BoHF+226jwjF5MLx2qOUCp+wQkhIoGuAQx8bcq5WNpQqz5REJIaiKCRBo2nuhWKEAI5CmmCFEUWVSpBiISEgpAmMg1tv/B8HMNc7Jsxz2UJV15Faaeqv4/CLW/RFU6T1iyQKXXv9qAYrCRr430aa6MBXjNCUy4GHzeozbnelj3kwnQyyvQSZvDLpTipAQU5fS4Hm/xsQdSP9oVgEiYNEcXqu1gtyMbz0a35kdKQn3nuecJSIKAiEIIROCI+eJHBJzkMCKs4HFgpsJWUzFxCxgGcf1yLusCQYAEEIQKUhF4+GYs60G6DnnfNOs1mtNSy6gnAIOZakvAI72ZUqcVaXJMUccAtlpZBEV4rCLn1uCTKReLIlJG9VRhh6+i2e+eC/CfOtTrVmpY5E3JbZtoHx6Lckgjhs4TtpUCmVHizW0k003E1Uk/TYybGtfpQsyR5EleZ8xbq+F5gURWF2hRrLgmL2/EhQ37XhdBCA5mwxeLy3YcCNDlkfV3hMNQkjXVMdOqBghnS4JRy9OKACqtALU+YNZv5AQRc3U3tsd1XmZy/hbvmC4jrerxj1oIiYOITDHVFmXmf0px+rzL3an8zn+WpNO7zGgCV/W1rwY4Bi1QbYZuuwQFSKFxBuXlraShZiJcsyDSkY4eaqOQdv5/wYFL01kovKmsuwAhEbehUjknDhypkuIBkNOdwGoHpqQGMP5xmeuBwIAwCyI6D2t15vN5m69XhM5BBARva/C+vQlwXPndsXI7CnnpfZq5gAAZ6cPJpfgM5L9rKETZIisjox5exUCxCkjxikNbwHDFHhGrDy+YmbVjpaXKoKO2s/hW0MaFbpWsdI4VsmXK55oa1BEBCwRTNd/qMoSVVosBCjdQTu0P5v7p9rK5zudaui3k2XjSO9ivJU45VIVlSFUZkFEMgJxTgpoco853wtaTIZvGr9arRKXIBbj+cVxac9KIRRpYj+DV8qZiDSyddjvopa1bF2MFXe/Ez/yKmFsSnzpcAqJqLZfY+GLYsEJBlt6+HYgqBWUTNjp/UaaP3WUXcDJljci35nnAYvhyqocxKYt9mpUXz+3q6XD6KnyBRFF0x3WWj1qnqB5M/YC0zQrjzkiI5JzDmBfYVqoBe2IWFvKVTZNs16tnXNiNyiL6aJf/vk7NxxDIXK5u9LV1Uhxp+8zO1u6CSLK6WohYGNbck9ABAAGUPtaKla8AgUTybHjU/A/uAjNyL0H5+dl9gxPfHWh5JJVcGK7xcko1FmdyKz0bnnGRyqd6LYovTKjl6PyXB3l9epcRATh6NaSSumvhQXX30UD+bhxBBq6ihQrLWU9Kj6ceN8NHlgsd34NneUvHCqFYsq7/uvj2YZEHQdflG86UYFf8bTiBvVnSXZK4V56zzOCLbYIAqxX63fv37umYZFtu4/pxeOiR7vIlyBSnCxDHEJUjT2gtBaQ0nJFVVA6FZllG/tnuWs109dnWzo1ZR8KePWC65r3Y2puKpovYcAje3QuOHrSpshDCZucAAPtzXLhnuQwRtJoBlmrN12JSGpXhYgpRNWls81lqUOLmHGs7jlgtsf2kk5Rxofx2tI7YEnWx/zP1Eg56LHfcen+TdKtjm3sN5HKJxECoJYlPQ4wrpRv/Gq9Ui+mfdtKhmK0FxfJ7/wi4TqWamV0jESIIKKLYfZvjyyfazwH8IY3OCNkWojhNz2z0+zSKPeT8dhjrucicKh+VaL/KESmGk3RpF9D+h8m6jlbn9YjOC9kGQnKgyusO/FyahGvWgF1bNdrRy8DaO5URESCehdF5sZ7TiPIK4BrUYiOS2ERJPJN48iZKIFzCk6RSyStvsAxzfzjzl73DZ4BELJswzHcDaOnbK46qfWFyF2uk3V7mGE3N3YsbPSeFIRdzTJ+WAm5A55ohxORgBw7Jj3LAmW0DvRyIA7LwLDybhzmCs+iyj5AIodI+1ZCCPv9/rDR1QCC2sMpD7bF7tsvijzANSkEAJhCUwhxtWqcS1rRdOJGC6KWi4rMl8f05ayYHG+04bWDOkL2UsR1Do9KP0CWpIfpuic8oJIgvWx26rBvv+oz+b0lDa0SiY4EHVxRxUHIinT1Sx4PgYiE3jkBTxRC2z4+PpwdXWN0mULNRU5IX/YpvhqFkIwNQSLvvXPO7FTThFoZNzY6UX9B04uBE3bbYuKflwMvWRuGPRScnk7vubHnfvpDdFVo2RBhLaNkAnL0j9GahpbcxeqeCaIkAZ0TbZyrutw+uWNSuUDKmxHtjnY3EIKA3kJqzikY75MUlJYDx5enLF2HQTxfhOQiEBJaPigAuNhVpC8Y/IBCmj7w+fanCd4ZhSBEngk3ExHgGhVodQ+sFxcIlzxvheULfwog18bQ42QMYzvntU5aTD00cq0e6y5H04gClG3MTGle4VEtqUxGpEDVTeXsi4tKjejY2itWnziotE1SEoKRoRoyuSkq2PpWA5AxpVsCI80oenVPzDOi9EBAhCVRCCAEImxZWCQwswhpVth+0s/jeEeJaU40LCNSCESN5U4mfHOVlkzrUPB1vioZOSfeGcoQUeV4aQxjXmVEhHpth3Nky1Gj3hRmDsyonE3n56A+1Zbue3GeUnPPRBpObqbWt5jsArdnFrLUORFG/ZzPhvvckDx/ylr84cM8oZBNavJM6uwQZd/Nfm2a91vdDfriyyjGO+pRu3lT+8cID4mmJuqPJTL8vQoLO6eA10hNwJwrlXoUyBy5hOItUD0fqjEPI4Y/MzNJvwRqtAE2TfPrr955b9mm9VpiFg5tYBbnCEAVaMCseRiYmck5SGxmqhIt7XcWfJU86xP7JCYfZZpEpUvk3YcPH7759dfv794JkuYD6Ywz0bFLUEwNN4r0RYBCyuXTYLht0kin/5wHxKpTOaAQthW0oYvzoVHjBwB6eQhiFZds+ttz9K/H615Y4fjMOHJK+r50ozA0OAK8IPqQQR3bl572TMtRJ1E9w5lWC22apq8c6LIA9SooNGbp+0a4fsTVFvd2mWwIdAPsbN7phcRExrWeW9tCgHcfMWGkMehIb6cGEBZGERFu23a334kwOfKNc44EmAVYrRMqLEQaCvmURhI5HKExMAUxW4yciYbl6b8AApxWS6JeMerOsEueOBj3zJy8LvAjtGg5Gy+uqNBsjETkCFskRwZIjCRTCQFVYIjswHk6ElVMZ6ltULX9f/qrA+ur0zLFJp+dJlk+6T53DihwrsU6F9TMpJKEGG2gqmgL6ALDnogmU1SuC9pvQzlJWo4Me6JCh3GgyeOq6/lgfIedZjUGIguksQ0JlESpfX4nq9Q0qH1I+VAsZZ4DJAAUEBYUAWYJzC0AN77x3hFhCG0bIDCbFkLNF32FQReF23UifSxPRAznBkT03jnnyDxrBcHCF1/YFp6Bc577q1mqLUN3dBnAaIJAQuSpTVeZb+ZlQLZnS/jokgMZMaDPBKrxGEhm16FWZwHpoxnjTZOILWlgB9D7iGozYoqJVCgVkrKzRpmqxZe6B1LwZiqyfIX6Op/UTFroeg7dV+fjIO2mF+hwgFYvrEnbBBC99957RAwh7Pcc9NLiDOIms0jsmfUYqd90wEZlEdH7xjmHRjUQTWB4wd4XIzgjv3tNb1fq/MqQVMmkMsREedMiwmCREzp8QTioIJnd4I1ANNUeomOyN/UORCMQUQoRSDEXIknPP9oyE8yRMr69JCAIeWamWcxWIBHZtRNawBBuUi6NasjsEGXz21Dh1ZchUO/eQzv9GHUEltVThBUxqCcLgIQQAjMgdjn+YtNHofFkYkFA8N7f3W1Wq7VVPnBn+PIO8vUoRNQymQhhDshVzsdm8LOlRUSSbtu9oCW8xUO8asiwbLetTOUEnfHVUttVgCmx+3EFuQQQ0X0hpUNU1vUrlJg1MMX1dQqx1OGh3q8akZbUNF1/qFbTO0tKMckQdsdkN3DWiOpMuCCy3Ol2K2VULk3I6AdwjYgmf2wiqA084SMZ6u4GFpo3C768eiXr4vmELEwNOCLv3ZMIAja+id5lsBjuIByStRqBBEi9pRM/8GKkipfQhzKcXWqeYqtfKeuVY9ncuXN8uTPUTmZhGqLIkBUy5Iv9YgVbAMQbdEYZ9Ebdy+qbIQ+plXRztwo+sc6MDpUGJRP2k/4deCXBhZAcAdglQqj3AgS7F6DrucZKpIQbSJKwwLA/JRM1ZsNI0wIQibaAgDA3TbNer5rGszCgixVJShufZqabpeFidRM16NYpUOtTe9bD5scOL8k9IocpbI2EGt2yDFmKghR6Q86tmlXbtoCw2aybZtUj0xJVlKO6ArdOgmV7BYfgBAiMFaGoQFyeKtVZnZ3Zn0sy8JLg3C55UQEzdMI7byvPARLPwGB7c8k2WxninxhV6FkvOlY9ZQIsJ5YZIiLN/mqSCKQT1r8uIvngpAZ6bY66KCzQHZ1kipDuTzBfYcERR9BJ9tkzKG8GAQBgAQYEcqSJ2YjIO4+Eu90ucGjb1ljGbA4EkQUEUABZNIEgdVgeJDrAC8RgEzYaacETWVoSAMUXgiAgwvvdbr1arddr3zRtCM3KCwKLsM4DCkNAdGheTIzoCkSq4LGhk3v8SSiRhyLirfMHrYZqLdNl+EBSX2NL3ueVgZgaer87HLWuCEAClN3Nkjq63OPsoJ4VXgN5eDZ4RSa+AmQLOcl9Vy72wkRgQu5FbnFxGqONuUdgusysI+Q90LFPHPFByxgfaSaOBYt1QV7ofzQjR9IXZcFpHCzTtyTiqamaRJQ8AKFkPo9i1GgOVUn/g+krcjFQwDnnvffO63W1LJyUFfFXJlGWxIXnARnwApeBa2bdSOuVvJiUiwDRi6XmT0QKgo0KpWI+3n74KvRXEqE6TPlAuJGHtwlnCTFJzkIl9T4MnMFyf/si/o4oIq9ucAuSPet8ahNWy9pBwIj0R+0MNWt5iqZlVmj6iCWLC6VsqkhJadazlvTC3ARALNwHhe3Jec4cETlyzjnNygSIIQueMKKAKQZQBvLI24MrZ+5TQCJEoHiTOSS/M5hVmtaBbjaMG18yueEQH8Wu7Ktye3uhcCnKfAk452rnStO4IXsxyTBANNKXqEdbD7PqRnEApq5KqlqMhyHpkHLOKSs4bGOkNswx8pLmaikTsxIZtJwKphxWT6YwDDWH0RScaXUs9g6RHHnvvW+8c0TJ7BHvMwZUGvbl6AheBIWgNPdkqRQl2QZOXojR5n6devELQI3i4pKtv+hV6Ljv83XziKz1+RlYynk0vZ79b4pKWJkoDCX+/IzbRgAIBAmQQI3U0exhGqWsW5h9wM4zRTD7VqBLmYT1ixd1W8amOkdqOY8EQqCXDvwFbd2h5vDc9fuCnfkS1y+UAZHI6YIgOI2rjjES829aWuBOzarEHVJ0JcblzBqLnNO4G0vzeui8iwCpvfxKmBArrdASpfVztVvnIAAHHDOqnP6U362m7HKRS9DPhMSOamjMucpQoJ1U+0fWvP+4L210KvZhtqVhBy0buFWbN8rjPig6j6FseSWiBmJEcE6cQyIHACJBAJg1q6tdPopIAEjoABmEQBwCETgWJvSIeW4IQWIQAiCREHsqEnNClzZTVCQhknPknZoiEBHiPZiHcZbPxXwNnQUw+90rdzwSKskQmc6t1/RgewGcqANCANLb5eIuMLSOVTPMesOi7tOkmIohkCPZIZeooxPJfNTzXMcXvu+4nStxG5WXJEZqes6Wq85GPXs3pYAfV4kEICOlTanKivpQEIDPHcSfsHA+R9S1Eb2Zoql5eSpzk8N4zWXwKWmGOi+PvHBHJfpfyaAnCADIpvTpabYKnEkKzhidsWgcR1DlvzoIMTMiarhcd7yR4nkSDhzaAEkt5JzxlNGsIUCgqQ81GC9pxcTcZQcTIwIsVrtzJkRo4g0GULc2zQwC1pP0ciaPxckzulJC06eYlceHtIDk+ng6f7cQUV/XbjkeIk+IVagxWo2kMxcfCslJD3Vn0P/P3rttx40j6cLxBchMyXaVp/q01hzuZs37P8/c/vtids/u7upy2dYhiYj/IgIgSIIkJKWktK3oajmTCQIgCMT5kILm4D6BK04SWQr1YJpxUfKtFuWy4G7WicADhcaG1sk1A6+jsEQ+05tj2wGv76mnDN72wM3tmoiJapnmKF9c1Y03DU3cZop9ACTHmVkSjIxgR1VJ41spGUipn+VxhEJns3jtoKy9cWS6Mky+QcsM2MVSY6KGyD9U8374VJi7wB2YjDAws4zZ9VyvQMQgQPX25u7r5ztT/jDgzD5Rsh1bbLpayB0cTxlhEPKqpgUnISpEICdBIYSu7zmE0HXGeDKBQFYoAlZjcPIAMD0ZZTfTuTGoXPOqkPfQFz1dv/kQK/c+VrDoXtrsatEQxqKBCrpAIA+bbJm4aqrSnveG9TPGQviZSAfklZj514MW1P9S0vBTAKQNubVzfO8+n/aQJ36VXTMPoVuFplYzYWC3wypvVsVsDwDDmtN0nPbVmHMQWJlBJKKRCSoxsYAEDkBI6BhxkBgpigKBweAi4aEtHgsJkxLonkiAVNLCPX6nU0+rrURCxF13vDr2h77vexNlkN2sMpmdIOIllnYW9kELtAt1VnMuBa7c+4RxX9BSjZQvBlARqMtsKXEf2WswkaJFfeWof5JhYFRXjYPmXyozWmqezgSvqGBK4zc1U6IXTxKefRDayDYThf1WHh8zf5QKmUST4GvMPua1F84GpYazllNva2VyaINL23axFvipNH3W9V4NhVLmN8uu6kzxTL8xlSEWDVVlwY7Y+1IX/kHMaViLcxABUcrWZL64JEIiJJEsY49HIGqa8Ig5QCQE3o1mzFM1nB667nA49n1veZlsScsEUK8GlRfQnO7lzHaIZ4OM+rNUOEXSFLouhECq8vA4Z4CT4mq5P+sLpOVkVlst79oNoXX55ftxmjq7wb1d/daKn1fFoYV1t607uPK64cFVnsYwopJ5FRtagHFSOlKXOl+VM0MYHk0aoXHnZ1aKiACVCgtsupvFDKcCgeZ/tPg6ubhBa0czZNoWmkzL7FpnqIpKcZEdP1qg+nzMh4DF5RkZOPT9hw8frq+vQ+CoRCAOAXk//HjwchQC2VqQVJLL/c+MwOZk9gAKkWnpQxn3nSFWz+c+Q4HXliF+XCiVxC+TLP4B3mDTCWnJvWDe8jyQNCwACM7cjOS5VcuY7AUlcJltBMVj+FGc3m1W5DUikfQBbFmeNdFxKGBDAAAgAElEQVQHIq8sNrYUBeloQ05K5iVdesAaJlKnqqHrDsdD3/cAgzSMcs0PCi8bDzFzIlrKTWAwE6mKULNkh2R2q2L8fDF/yAL1TrdUx/I/WsTca9jaHwxI9SanQuma7Nj4RCtlrJ4A4+yyosguT32H2oct5Y9xh09igFergS2ljuoyWo+tE3oUqEncnnNj9naQRQxVFRWLp0YyPZk1QomiSkGB9HFG4L7vr45XfdfDpAbTitP5SPa3Bk+kEHhMmvydHqEVkXb3Nvd2y/Op6mSpWUGf7nnyo83tWhcGSx3KWj6w847bzt3XT+eGQn2v44cN3dSWW4+AlipKjBaIGS3LmHvWbUW9aeaSyvhVfnq6OBUjTeXO1fM9Wcg6GsgqMM/oV8oQqqpQO2MgIRIRTfqAFILgNA7mg6pEwzCoRnjdH1OiSX6yhMut21EymE9reoUZaSJ0fXXVH/qyTU0H+Gh4fD9PUvMuWQFqFSCfLkOgXVbd7yvpIdu7A5CcoC3BQHInXDZVF7f9tr2ez7Irqsq0y4FlZqo18nD2p2jusMYJVnF3M0Jv9dBuNlI3n14B8TROOH2YETZlwmwLqqPO6QzrFHFJHmoUonZzne+uESDMG6DWGlLi69Lwr/AUfAolRFKxtLIgkomARSCy1K9DjKfTyVKCJ/oBc2CdFiJVzULGwm03WbaLOYJzwenj1VXfdVbdjvi8u/6pxqonDb6wxjWegovIupFdkIiM3M3DL3duLx7W3TH2VvOSsfYbfL8wR6LJLPxK0zkraGYVp6dr96wlR0YAwRgWFQ+HgAW8IYUSaAoprJLFVTLVNnsiIupCSkSOR4Z6fWdwGRTC0vW50/HzDzf7CuQ/Zx/o0pX4lz2754EHiLxnXx6taS1s800uPpFfnA4B4CXNZxMRYrPleOj8DJpZWFXUo53IQpidOpD/Nl2oRG0X8nqrHWIyJU75Q9+AiC6EQtS0HeceYA1T1wMdv3F4iB9Yy8UXcgp6GqCNu3iuAIcGyFYyEM/LNcD9Ke1/AGbOQkRVDqa+e0s37hmpuBw/C4uRJYpuh2a2BDyWLE+8ziiBxgRrLlnUHSGLns2sXQs02YWu67oQQheYOe77tX//cBEUgkc2noicjdi/TdUD6jeMj6VVY7WN/718JPgG3zSkjGMjhit2uaYW9uUx/O9krEsRXlH8Z6DjL+RFvk2WMMbd0iWMqma4sdolCGkJPkmZ3ZKtelRPrUyRUvBd4I65Z3TkTu1MluVJq89yIYv8jHAGCpFCEbbA3u5GF9ZH9oZt4fPUj9FUYKckFuRpGZEYJ7hw5Fsf4unv/ymnfG5VfOyN54MLMty9BDzj8c/0oMIOa4qwaHTJrly9JFlhglUzmkbyJ4Gf1xAYpKJCItHKy6nAK6LavSpi6fyqizb+pRREl0UO///amgBMDIQYY9cdunAAQvJQY1IulFkzClGBS1r5M8BjKETB65sYi127+DbK/8Mffvnnr79eHa9++eWXr7//vhvjrjTmactXSBUeZln4VKf9NXUfaT36T8LvydL1CG5uTffT7IPT1qw2TCFzpStLD/UzQD54e1DlPyq6wdZ3ldJBtzRt7LLVLSRlVB0liGlkRtqz7o+37PQxryFRC/s3OYV7d7U32zCskge17hGxhaRExq174hNL2Hm8Orx//z5wUCWJQhpFxP4Pz8jh6D3GKFEsSkUw8eQyoirjmOOPU4ew4slhaXUt7CFcXV2/e3f94f2H/tDXwjJo1LaO/aZ36W62rtyb8aSXCVJVWy7gcTLE4x++Gix96A9ExIEPh0PXd/sbT5PgaI5u5O5ry1NV8dKrRQCsutg+Wv/+NElUa6r/pZfIdg+PBiy+6tk3vKJ579XSKDUSt5Whz0tonYQ9YMULzDXGAu92UZU3Wt9Kzk8xOpuuuYVXVnveCslftJ2GFp/86QFiIHR8dTweDgcOEJUoCsuuISoqXJS9U5MhVJLywKmCJuGk/Frm7ihhxCyurbBQc2Jw3/fHw9XhcOxCl9KZIJUn0nykxxnZh3EJkkpLFQR+xLF/YWhLBXAOLRPviF3ZSW29B85JWRjMHNr47rRTJnXbJ9gjYbfZBm/o2xpe/Fu+NGgWmB5jRXxhaHwWk6P3N9XieRObOs+/pkoqz6KsMKWrSxWNBPUMY8LVNVOyAhAz+r47Xh0sXaeIWFLWgvmbaAosLdPDxm9prqSEwH0IfegOIRxC6IGQyEMqWZOr11381j0jvJSl2v2c67t+JA+5jvijkykieU9nL7p1JckkQ0M1Y8dTxKXVXr9JeGZfsxeEsz/FvN7OzthtmP95kRA8MO1lUF2pxM/kAQDZYU+nNdmlX5x3UCJShNB13aHjLoSOOcB9yTAKKd/H/n8gXIQvE3zLYizuFFoSPj9+vO8F273BY+C8dLsd67/BEmIcUnCcF4qrt3tWVktVVZn56ngMnSWYDmC4s3GRBP4HDKM7B4WYqXUeFaUyKpiMr2De7aU1Ofo4sfHGyk81svFEQfy7ESC+BSjsv29w+aBZ+2RF3lb8UNMJeuxJar9PrTgNJzCeNeO2H5A2GDw1c9/8DZhJf3pVdUdyVJFse3Avgj1hE0ScvEJyu6UgqJM7lhf9hzRo5eZXxPLf5o58wJlsalxX/m03fQU1RaMZIplKR986TL7+IAC1rEy+FmLl3TTZ7HXiverhf0qkIqUDUctAjU0tWsKC5fwWpdGNL/350d4TPZFCoOpek6oClrDivedwGoZU8085mBzBQ4xrwwIMYhBBrdj8WNNUE8Yn821AMpXt7RP1ZGnlOC+kPKh41iXXrNk1m9VLQybdDU2Lv+ugEHNwmHkwYMFc1IfIvvSF/NpYSu2BFKypWSPmQHLBGxEg2b6bWGNTsPWFxTSM8GBbMU3MkMkNlRNFUCIhRCFLw0QkJGaqJxA88x8YCro7DUqBw9R33lzdSVRZXOpX9SThC5dAC5VYZD0RldNpOByOx+MBgEgkBgOXEFT9PO7mrfDk7N9z0IpX5qp85s0kxhDYHbYruLFyIwhISZcn+ZRrrbd39JhluDbBlzijSyKLInlxAa/oY72xSIuGLa+PDFeUsvvDXYvL992qYnoWi2MrM5Fx4saMLpEqnBOSgxCp5UJXMhkCROB5RnFP6ul7I4qoKsAEWV2nvJwN7nKe55U84KLruq7rAYgoRDPT+SPD61mq3bcVYB7u781SFELyZAqBVmWIOWRBgaiJvFw+VGWz7wkApMIZ5XNWqMvSR3RKJ6eapQY551XdbJfk4VsAN9VSWuSzPIQfV3iQq3LK2qcpKRMzcibPpQSb0h3afJyxhNMSk+uaVVEAAV0XDofD4XAIISA5RH6Db+vM8EoUAoCFkwIgiiKkyjDq4Jbqxp4u+RU2Uqt2ovZ6SedeDeZEZGS4saAu9u++i0PruW+UIE2bca6MgMhJSudaxtcibfZ0prdV0sRWP+l5k3gA81Ihy+9sBEIseyuYA6MWeA/nMIgMk6AkN7Z8SfJong/Qdf3xeDhaCdLHP9n3Bq9DIWBRbCkMQmIEiKfQ0E02axX9Vj+/BjzApfbsqvELgI2ZvrrFr8WikvHPfktTmJ+JRMAClitun6+5bGlW/piA5Qt55HzgmdOIwQw1MpFy61mknBJRCCGHqtHEdm28JSnBqoZBc7od14bmRG/NViJ0XTgej8fjses69aJzl10g8kXgAuIh4Kk4OHDXha7v+q7ruurEPHDedZcqpJE0kg6qyQECrDTGuLzBmQCkbd7FCl1LYTI2SXzecpS6lmlNcT+7fnazYoOHgzV7GXMVpsRN3d3mvMIFchLycZyJueeJtDBFsnoSNQuTBRBCQFSrNCeiowkCECASCcETgjMRGwVNVUdBVkeCkzdAWpKqOa/yyAHcdZ1rmZgjkgF8nhn0hyMYr0YhQMRjYngmVUaOmAthM2IOqoCABBSJohW5VQ/rV4WFQhI99OA2GzG/n1DpJkDx3zr4id0hD94WQCU/UmUIryZfNpkg7sIO4dqPufF6OXgzRn2QDPjMBmfXPU0lZp1+WLu1vl092XZ5SVST9Lt8EaCJwGToel74qEI9tPJajEwwW/I+WNo+gNXSGqkJBOZdCCUMokKISmIqKYaovXNk9y+XIAqsvk0e4PmCnE6F0PX9gVNGpTHlR+7jhzr0Cbra7nlpjWff9cPpZG+o7/u+77u+n89JlKzYuSqggUEUVU4qg8aTgonYCsummlRESQ+1g8+VXFRtUK3ahm55qOcI3G6lTC1P0jymCpnVSMfMmbV2Rh7a8zI9bHWmx9Q14Zi1WD5zbYwzmx8BJGw5nc5snBQKscv157xJ0w5R/E2XgqqOSNm8SbOSfzL4Sr6b2Xd2HLu6f7KEwWCFWJa6sjuk9IBJaaSaBPxse7BW9q+FqBGo73ucPDFf9I7NhA0G397d//7771GJEIxUwbzqFemMpwLgOaBqcyvm3DwMDggBHjCnpLe3d/3VMckhr08WjOQJN4nIWLz6J8Lra5lA1B8OMQ5JxAvMoWqHyAwTkarErGIiEtKoGpSEwCXe0LRfX/89f9uQ2LqthRxRWAMKTgrjB0NJKkrutZWr+e50j4bH3P1Nae0J1wSN6iuYZ0CeLq4WAa2P0bAh4TFXNDGYvQwxbKcl90QlACzAoCqAEASsUOdZaMxWmzaf02Exq8nuPNyakbUXHXMgSqIJFfqqHEjxY+kPXtXblcjzbVise0jpUHiNT1f3oU/V5bIdIhJJZiLzG33Gubf0/l1tJCQF8H4zVexq75+2NoniNxKj7x4KdVO22c6bZNVOAVKJfdNlfv6F/FHQh2kgCGbf1ycMcjYeDDand4SkHk4iB8zUDKLRDqEEJYjbzSnJkmqSV9KbeWpc0ZrWazIL96cy+tD3fdfV2dMfFl7JlyknXlUFICLIjtHF75cLTQTi/FqmywyyfYOzQ6s20RXx6Stt5y7YH0X1/KbvlaFdX8sgz/3fVmb82SZjluq+7w9WLluwqBrwQ8Ira5nc21WM998pIzGFdXn6YuC8JOIHDIb4YaF15yRdSLLOnCso4xnBHww5YpYcRWd/1hfng0DEjBBC3x8Oh77rOmImlZLaurz645GM14qYIwCYues9ZGeAyHO36Btn/QY/NrgYockLqeKkqzWGqiqqP/9pGmkEw8PvOM2kMLnnCRWOJ15ZEmPE3NNAVQhmeODOsn6H0IUgHnqnKXrRXcl+QETz+pZqIlIRpMrjOy3J3Flh5EFEoOJsB4odj9o/2zB9/XUV94M5iDNyHa+2OXMQ0u6zjOHAU3iGqVe6fKzp+xyw1O1UJwI8D5o5e4+T54Flw6iMMyuMWrddI6WvHcmWQlUsCMrNh9AYI1nxUVGyMthur6axeKhmBzY7oDo1z+fqqNAyPd/4wbBMvlmNPbWEof2h58BgJobHdRd+c+X2OudyP4cy+qxwGRRCFdyq83M5WolURIRihKUEzqE4iVBkCbat2zksbxtdwvdgFJBaxm6D18u6YDwpW1DSNnjt4ykL+DxHYImuXu2kVZ9xYSy2agNsiGly9xNf7PkUrmlic8Tv+35GOMgjmr3V+OuEumRcng4uiLzkNIFzCI2IqJBEtSLVnpSHLJcfSKEKMzwrQQEFNNqRYMf3RoXcB4kmoocoibm3aIqaUZ8YNKpwCIerK1hyKEAsq+DUNqLFHjvXUbx4AnEZFEJUA1qRLxElRsLIv1IuTu9Oztbmshf+4VCNRlpv+kyP/+BuH2I6fYPLgJpLkvkpZSLxUIN27jLHHqmO4gURcWAxLK4qjuBdCZXiPLI0Mfe6rs7jYQxV4NAFYlg2IBGZ1cj+YeEiKASpgmspulYABJDA9pKoirKrMpHZ9u/ODeEBBMKan23c5Jd4rh7f4BuFgio8gu6nu5VEhUdWbkyQYS2iiIqM0W+UZYJMKKgpJHRXZZ1VV4Dpl8BsYsObaTPDZVAIasVoIEq6SxJViKpEFgGIAWIuHdQepGV6gzd4gypMXHoeJusvesKoJF7+audVRaJIVlCtUaMz4nBm7rqu6zovPmrGidesxnJBcBkUAsXfpuY5fCIzEwCyZavs9Mmzunh4wjRbbt03UH+L8MYiPggyYQBNa+qth8jVTfUJ3TMRCExmUjA+3iKlxVL3pSgJeJAs0eMwdoq99v/KTBr5LwNd6Djl/3hoWMn3DRdBIaxsUEilqrcgUQYDVVIVFgGRW5k8Uj8xII/YVKPhra5ZeUWhpDKhp5q6WggASL+7KNPzuRQZ3vkOqeg6ZLoAmoWVaf59PKY6izwDCIHQETpwz9qBIOJ2Do0SY5QBFCwfEQgiVlSUJgzgChL3UqeeBlo9CDt5OJEjiNE1CYTA3B/6/nAIhx7MUUSJ9KXKB124/rZKIbBcnGfVy4VUW+5wOFxdX19fX10drxaTMpeHtJrugufp5ImIASmdmHJq+YetfzJzYxyzOpEmaMugV82IUB93hTF7DIwFnPaIhGJMg7MHXPMxqpOXdqvTeSHliZ/OtD7Kubc9avvx8fyqseS6dEyopeOkRX3mjVlW2yHVCdbyZI2WiXLYHK+QUuwllGLCCABmBOIOGrKnSbJSiAiDlcSM46oqSpbz1ZM5uQJZndvP0032Chmz+nm3rmrwxH7kgSOmfOBwOB774/FwPBDzIMZyQlEKSyPHub2I2XtrLT/uvHEDk/cgd7dK0uSVTltQ2ZoMsXySZzTecPB8fcfj8d27d+/evbt+924xgTEbaN4gBChlVmHKqJRcwqNgVVZ4EIFoGehpiqJH3j6aCnerIJgg/niM/qS6DZj8swEP2KB+hHV59REd6gN2hKGmafNFHqR2UKN3+xN98NFdpGbyTgp3WFIdP9tN46RGagGolAvkOZSIAnEHdOAOClUiFXOCFRERsCTuD5aDLd2OFCFI2am8eE6XHcwPNqiXeBjz72GZcpfAOByPx6vj8eoKjEGiOmIZoy9KxdTe2uU9OxtpjqAe9N5b8X67kqOtv4vQMjFjrCun80csIl+o+o6y20PmiHNoxLNO++Wh9kBPekaAG0oDvWpp52eCxM1nR5nlgWksT/a9bbIalGJukWSbZvQxFx+f3GvlfuA4HkIgYkWAaZkQECFKMGfXqDrGRKjVC7NqYWrazuwIWxPx7HWm2GsynZKO+D1pnAq/eFDgcDj03aEPfQfmqJL01eNgo6D0g8FFUAgkRzMiItLAzLMKQmkngBcM71KpMf590BwmvPilljB/ji26rz5qTNn5TUHxhlFn7YmIsMOgX+o+eUZIpEEJc9tAXUGF+U8gMMGD01RZAS0rEyatUP5Gi6DAhSgwA0fo6hoxuJZtMSkiIsM+gR0JsajkPCbGSRR6tGewYDeqAV6JOl2WBVI9GJ8PVkxcSWUUI00QfcXpFfHab/AGPy5k16Yz8A0P0Nk+FzBzf+i7rutCN7rzlpLSDwwvLkMgp09K5LhkUM3mzMwhZK/koobHSM/0GWK4yg6X+srXhbxmi2jSJ+Zs+NEPwBu8ImCxowvrEGj2YUXJvAo752LslsFd6Kw4TalTegN6UQqRvA+SA4FLla4VKrIqJcfkzKe4HXoaw+KFKD0Vi57B7wSz3r9/5JmLeb3BG7w0IDml58DpnKrZf2FHE4VZgQFF5vA3u2+2KxNbDSEOIYQL9z19eXgJCgEiBifJDS5HWKVAb4HQBSKyMk993/ddx0CE+7MSqSvEkKsMJtlDi1Rdj5te8rx4Ac7hidELZ92+mvWsTW2fAE+adJ1zrEyoqRGZaWHSWBcfvLtGU/Xrw36SpIemUdqG0jVo0mt1f0/HtVxLmRtLdAIqEmMUkaxZ6DpG4DioyBCHYTQ8Q4jgHrBE5DyiQlNJOVUWTTk+1DL3IfkjIG16LykKECME7vrueDxWnvRciqaZTcs4ZHv2/W32DPsQTfqHF5EhtFQrac4jbeHtFikTOJCFvwfTB3ZgpmiWCSEiphRTAx1dEs4DeDmd0iXmcmyZzytqsqp3V+dT83OrXbM/qDUovp6pBMHzQ4MfwbOQuhWqM1vx2rgAJTkhHzxVjTGKpgKjAFuWJEiUGGUYC1Obc93od2tYJdm3kxMwsrE7jWBUwcQSlAwSAHAXur7vz7Q2VbIyYUyUEgY815APhbZj+dKWanMyMwlyqtYpPqT9QeYjnRL0ldvRnBTGX0TPyCK9wRu8wbmg7t+RQtccFRBRdlUVRVI7AwRSosnxdi7raax97o9TPVQCvVWoXsJFeLtWgd0OISrLkKLX1J6/mhBwabLHG7zB0nr3fJATNJ2jJ4WqKlMHZuZgmfvePJeWcLkUAiZDpIjRy1HOvMw2mo3ytnff4HJgfTd+G4EzVp3SPgdmDnx9/e6XX355kyGW8GoUQpPSEB43o1nkzP89GC26WSp1+6CECBcF9VlXrenVE9lkyE3XvtlVqsHcGLgwxs2+oriO5c9v8CxgafEkpT4SouhuTOXbcx2T579Q9+ze3aveT1XDnyPB1e03SgWqAfjJBf++N3g9GSK9iBCCuvIRgQNnCIHB5E6wDdFqKUQ/9W7mrEr+rLXpvKLeagYMdslp/shMcyS2QiEqpGQ2DrzY13dEHmZrk5iFnTtQGKirPk7fDYzhYGfoihJJzdbgfPT2gZnAwmwZwEXJczIVXlLIR17zq0y7Ne9uuNGb0nMhkQYdZ1SZPAhkSRxKTjS73e49e8uReT2x/6zuMHXVW9VF4QEPXHE8nHRpGSJJAUUfehEh0YDQdV0I9l/I1TwIuUcAYym6Is2vpAwum5NaeQC3mFGT7QsbHZ0VllomT2G205Bo9OfQ+cX5rc376Bke+byeBdXeCgPotC0tVsYS/kxTgm/hmMfDfCGrkZ8PXZwG9mnsdu9lyr49YQxsS/lPV9aaRpshqFjSw/Hw88/vDwcGTgCpSpToSftUkiOT5YuEXSYKPoLn6hQGVDQhdgWg4ooJVZBk56ZiMoCKGHkIXTgNMXTd9fW7HFBdOvLaCdH0tcgpu7E0Y2TXzho+w6l6DszUNbuRN0Ob82RmAgIHEIbhlELlwAzbHO7wBICTv8Fqf0RKKipQIiuRnqwXmU1ev91pEDYbpYFeR1XpHnoP2AGlo5892cQVbPQL/35AC9S1ARNBAflflHESzoaiKdFLM6ldq0rxMuJKij/bWiLNCes2eyJQijdY/DT9poW2J7PoakU/Q2CwEoRUVKLJEPm4e6VSv11VBcSZSzKVa3JY9RAL56J0svEzD6mkjNGdMnC4lxOADz99+Mtf/nz97nqKYpbeMbaIOyvznZ2pV7RUa86xQUQilvrdbRA52XTeLt8fOsuwJH1gaD0pNLfgEiVVzFNuT/lCTP/7gUCnHHqOuaq0bAndfYM2yNw3C0BihAEMQIhEdRCJztMBFt9sFkpCSqxQ7TbRPZ5Wv1DNZQEmFCPfZcRaVRn84cOHP//5z9dX1yGEJoagRYh4TTXTOc/0hfkyJXsDsuUB5IYkJNvzdwYo/o7XVmoXEc1RfR1Krm38/mORgjaYCA3T69/ldnttyFt7irWzKgoIHEKqBfA4Em1CAhGJCIl4yg64DZvcekEmWTCjN+V2F7quu7+/f/pDvi5kE9FZ4AK8uwpK62E0KC4mQ8ROH880t+eG0QIygW/2ed7gDRpgnblmWEXizkpGPxVctzQySCnNmyqRRduCWURPpxOAQ394Ywpm8PoyBJKdLaFH93SlJFEQtlKjmDrSPR7e4A3e4LJgKaSZq6sZPMTbpDBqpGJizAw3KkykjZm2yPlJczMoOSywOm7wpvNIjUQ8Ajgwu/0jXADHfGHwDBRCq0mOUKo6So1htji4wW8UNnnaoBhh9MpIPabMXC+gGThj/y4OPrTHPd5qTJf+RjYXUF+UFadfLFq9gYEbibHibl20Kw3UIAJJKjknCk4nGDlPIsb6AKNh3zN45hx3WlFT2WUUljVRKStBmQulpthsSTjEzJ6ou5X96HB2CmHavgVOtxAWGUtNZ7cTlxvsVYEDe9Xqvu8JxMwzg6GCJKXfUlISJUk5uWhy1Keesud4tuSdfS4blD0Wc2W5Fi0tuMgYqp3R3XQ3jmCC2kypm3LefBcAQDM62Ia15VvcuvQKMHR3OWtmCspG19jERU+cAtO9peEK0ytU++qc3vx4SfphlvGVKJEHBQkQARaKoszIrJ1LAcwhey66sUCyP5OQco5y4UIwWBryyi8rlm795Q9/6PrDTz9/BEZ+VFOq0aTEoPxTpY8VeE0z9VnhObRMa0sz5dMKKSKrk0ZgtlztWI3xcddE5G+PKj/36q+xedJYsE1Ndz1mqB8Sqjthab4+Yzbol4S1c5QR2fhTRQdQ3Xeb/jwV/j71gwjXL+XAC5AGIiUI3DSHgkQUcSljwaxMVUYEXuIPakttTYUJcPSiVb9+UdzAa8Hr2CFK3SJSlsfkquN26tB1Fg9BFgmg8x7MTTExKHMBIsPMsp/1UkWDb/DEv8EbPBzyTl9yXJmEAKSP1U8CyPrfUbTR8sxZGJsUDI+pHDpSTTnBiZO7e06ikyiFeg7vc6Butz2YzQMgJRGBP/sbTnB4fUv1BDByAsGybpgJakkiFuBapuX1UTFQ+X2qN2raFm8U5Q0uCvAARZORgaVqqmDz27tbH8PyHUEfTGtMfWDJd2w6y6mcja9XApEF7pk2e4gD0eiQ+xJw9sHOqleni6MQGQALmXn6bli8gOXyvTLO15pkU4PvMyDkDV4YFm49Z+08jZGIxEMcJtyXCcmVqbhzbm6onOLic9N4bs9InlNWwiiFXSmaSr89Fc6OeM7e4etTiNL4UHxG33Vd3xFtpT0YMzO5rlIX3a7pnebXzvIsj4WGknnKST18tqm6J0fVBvkGLwWm2MmfZx+ogX95ItP/vLAgD+bSSsUJzX5KAIWA4AHV7AlAlEgBBELIBu3C/liYT4i91pAOqgNBmEnFdF8MUqE5bQRzFzr24VRFwYAk4g+bY00AACAASURBVLFMdvDjKRCeRCGexoyM7ACP2b49L5MV9bCUTSuUHLDcwba9dOxU83ssLVnzV4vZtfMGIj4EMnnYHB2w+qvt3ZZfsu1t0sA6nK3LExinF1y+Kl96+SLW7vSQElISTVmZ0qRsn017HjhEie7KuYe+pplTKz+NP09iaXU0/I0TrbAW7mCYT94MO+SachRB2QAgqiQaVcRJAXMITOAYc0JOMFjB5l9mqmdVmVrQU+JuiLnSms3DzdZm3UyuVoWoAw7chRBCICJRYTCYSPJ9k0OHik7iiXD+Q3NeIvZEGaKyJ1vYmaQP9XdApIE7RuAiYCYwd32npKpStS1bXu9cg5SISMdkvtmnoSoxPI4VcGPFOd9Apg372F+nrht73ba1mmdvqmcoaoUHZRZ8EiwJ6sP9vF4Ykkp9jmqVsgUtxYeNllgscTkREYUQ3r9//+HDhw8fPvz1r3/97bdPlXe5AMd31Ty4KUbV5zH9kbxK/ExMrzzjONs5IsjOimTHOwTuug40iNAwDCLRmTvmwKyECFUVMW0VB1Cnyi5zeDHrFFE3GtcNHQyqJ9icGSQj46he7XqcIDO/e/ful1/+5XA42DoYgaBM0aYLsbvLVvFDzeRwdplkDeU9Gl5fyzTRM+UsrkCSIVb9C+FCqG2i0Qdu7LOOr9YW8BXFR2gKDN9s89RRlrv7YT6Me1CPlXyDTVj6zSRmx3b++ONUAnBWynLlM0OVc7OnKp1AmHAK6QQiOR+1EONRoqDMj6cjrl3ouq4LIVgleq8MoUoEZnBgUUXM7k4ArJQEkzpfA+SAuBQg4chfSKOqe9PasJ75dTZrJYBCCH3f9/0hpII0AIf8vCUWUb/QAher9nsovD6FSHy5Cc6e1jGE0Hdd6ILxWHuSXYVdofFdzuWPmnbxSY/wNDDywC/HfxegFarxZod4bUgScZU8ZM7XiEQI4Xh1dTgcTqdT/nVpmRipyyYTnJS6qwcOGPW+pV6q1pVLFHCPRJfomZkhHBhgMFuEtcXFgdJpKGLxUuAzCJwS4Pv0MNe7epSoWsA2CUiBZLfwxB7jAhhiMWzjiQJVA0JJBxQl19kkQyT4TkjE61OIEixQjjmEELquO0fZWBcoiSiHTZZnJ+m7mqjEj2emeoMLBduKInIaBmbu+z7GOAyDUY4YY7X9mNl0CoV00sL8wlQ9u42d+WPDygxYaSCkk6igFAFhf5+D8UZSQY0jZIsOceCr49XxeKUpOQeZVOfE6nmx/DNorc8Pr0whMP/q1SHYtUzcuHxZj0vpg1P7VDBk0nhhtM4JVh/xCN8ULK1GrzGLN3g4zDaniBJRjPHu7s7oQQhhGAYRuchtDGaYdZpIPKmGUsqzWtg2ChuyX/D/NH2lPUGoFQJz1/XX11eHw2EmrrmosdQAnhGKni/xjSV4UQoxx8wL9G0yqYmfnYl+e2uXXd/cFVRJkjzYuOw/LnkgeiMRFwVZjZGcLYqfkuIoSQMSYzydTqfT6e7u7uvXrzHGXXemLDHP3nu+S1UZ0IXa9qnPZcwyIx1wpeSXumY2L5SuqfCwcqIWcwnpcdAf+uPhcDwc+q4rxs2OAt89QmiCl6MQWdqrLL2bDSbW2lSMlGs6USWyJMKusrQXm/aRwpxDk7N/srpl3WYxio1MxT8vCtk/pCyAiUkDWv22BvXT3Xy1ar5udPJbQSzzePdnM2ifh7t8Lti2+qRPYC78TnNh9gnyV9XT6SRRlNToRKmyWNoh/K7Zv/Upjv/ohHPXRbPaw6yMCyM8uSFAqnEYQJE0pUyAqruopodUBZlDktZihnxBk21f8kfVmbG9AqbLDqEDT1bWkgkCpJQi/vJjtPv6LQKNMEMwhQPOeR1GzgsvRCEAUnVns2Kna7IduUlrKnm5OFHtUKEKTxXL5u2cK+xCQere/kitqxZqGo9UslWc86n3QZOtuESZyPtwqR9b7CVdHhuqM2ZVWOCs6o0gNBabqqluVZenBW31VB8Kl0wg1pLHYFydnMNSNRVO8Bbj5s2Cwt3dHQBTLi0tdhO1CSXEvbcv4JkyQBaY4SmVSjqRW0qNCOmc+KtZl5MbbdqthguG08CIEiN8curkAXYsREQIWXSoHE43LYyhsyaZFEOug9moQxcAnoUoQikTpNnRRMPZqjqmY8YYYdytC1pyQfDCdojZCd5wHaaQAiOqC1bDQy5DpMok5VhrDq4X9S6eF2bui5Qlg6Y1eMty+SKQ30bKdoeRs0nMTmFzVtVhGDQxX68x48eA2abNyVV0MP1YCm2w/H1ERKJRVdBaB1OXWEFHRZZ1rwlLgIgO/eF4PB6Ox64/i1PM9wmX5ctUQg6dW8Nh6wciuetBAahtxwsmBi4/jY+ZP8/4pqeigIlBMPGFT1EevcEzAZI//u77KYMknntWjwNMxXd4NRgiIhWzp0S1sCZSVQUjBPZvDxinQiHK3yY6Nltd5sPhcH11degP5gNm9GRXPfVDweVSiJyI42mqAyyjuGoi4KvCUvs1UX2W7d5Q9Y8BVblZK1HTl00hAEbSubgHEzNzAAAVEYjFyqkIkWdgS4F1EBUVaVRvzkFVJLIaERILoBOrMUemPsPpdM/M7969PxwOlieUTOyg/fwlPw5cJIXIkTUuQ1QtOYDCUnGBBCpQgUd8ginFKI+Gt6VWcGL18H/1FQLXkkNXOXCSIWbWyYd13ODZ3kZ13o7LFmjVLHmuvhNLu2LcfxAua9k/Wn5Y71unHyamxUVj39yWbTuXoSf3YEDRCac69UKSvJ38frWz7iXgktXYojLsNC8GFkMLY6arMqHJWB/Csn+b+SGHDFZhN/NBXgXUtkR1ZRpHSYxAy/BtMB1lbW/UKURrZPlGx48GULBQ0c4i87taGI+5PYEIKgqJrBEaQ0rRAqJAZFYloxdzbab1V5jBMf9tb5ZnAVREnOK8bAnO2/3O3//i50KT1fIsb3aILVjS7hkD8qTObemFCLWBHkoh9ppPkqWOhrxKs1kN0sIxJM8tWd4T1gOIwR2DQQxzPhp1OubnHsyDUUUThVAg257V5RJ2Ww0Tifl+KbI9XDWbHsxPIpk5Zm6CMDTDIcAD+0jNNL4ObaeFkofi5OIEI2dl14L61ykEHo8O6pNcpAKdOxwSCNTVNlgrrwqtEpPK3VpN71BpR0QEZsvZEjgs07vCkzuaTVpJBTpAT9DBSt666cGm5qEv9io2tDn21dSVG3sgVTdsO5X7rTT5vM0mMjaYyjkVYarCmjShczi+aKKHeTvPZ7m4WE0ft6zRoS3IiuibVasp6dLpRfcyGtUoTU6mV9+ZK3WzliO37lt4dj/COGCFWQF4Jjxp2TxPP9HKHITBIEvebLVIzU2OEcx/KDCzhVy7Y1LuxtPC+hEHSXabgs9j6g25v3EswU8XukPX9V0w9yzTWSTmiab2S2Xad6LNw1e8qUq3qPE4Vw7XJO+DndSzajfGt1aOlFJLJJ8fBaFboggFtdKIKv+yUuqtLaje9hB3XWdJgDnMfZmYrFghmUQIEcgAHUCDUVlVtbzgU+1NZVa197f1FrL9UBsOZrvLP7J/3zgNGu3tu1CjyLsnJAvvrTLT0jtVawWeKmRsKXCPiG8fvgUXnc3gg+m1jaep3lBwR9W8iI05B+b88xbkaIzCX3/BxagKuZNowv2o1S/NeC3NHSlpApA1PmBikBJrMEFAc9n57KHotMaJgzpNKDbxuKNMZNh9XEsgHZj7rusCi3fvSDILRKUchTaryCoiqaPGHb7BHvTsIURCKtO3hRHz+1rTpdkhLEmrZWzPtaYYrJlbMCGDXPIkURWBRmiERLaN43kgYZKnZJ1K5XiVr9u43/O9hxb5H7zIPpb2gk4l9sdM4BvArd8vPDnBqndTflx0+ECusmlCyBqk/WZZhE3/CBVBOyUHYiwwJ1USm7urEokfACYKCAEcACg0EQklVVMSe5iTh1RBmCyvtzBBISN2J6PZezQR8CShdiOTlYYgSRh+eT8W8R5ri/OggzuXsBeDPgeAiAuJf9TyuMLFXisqFAJtyI2IHljTpqVHUlIGOIRJwTl2vt0+UFo1tyqpmpkaOeZm5CeAbLd2AWAal+dtymfZfyZgPx0IN4kAFv29O+DDoHj+NyLxSnCpC99GJPbPvyrAhfC02S/G/3KxMOIc4ZpGdLenaUWtQhea41rrwz1UCQOinNUVgIXeikiShR4PSe/1qHtfjLWrPSTgCdPzZC5IhoCLh5p5AVMsWn0peYj2q95/bdu/ubW9wRs8KyDrl81sbV5DRKLikpapqp4XL46zGC8xuq6zHNJlHGKpi/+OYRqm4orprGLzi6qvSCG0VLQnpaNJnnDnM6RdBeZqveqU60WJ3GmhRrmTQYIoCQ3VCa0oCR8DuasdApQKJ9Z1zI+dzPiS93b5pXK6b/A9gGkjRqUT3ODATEqikryVVKGiTK7k96yvOZsG6mVMaqMVX+1OowzJcwWmYPCuutBdXV0dj0crQVqiyKoDCFHbRL4RYF48Y40HfwqFeASRTXatZIx1I727tAEpEiIwu/eCaUzyWyvNRqOVLIdfZrPWaPZF/p6QZhVrV42uOn3IB2wPk1R3BRRvVut7aRhuHNo6brznBbxYf0xzyKWhkuwrucey0HzXjz1Mmk2b1BkSP3vjP+aTQSBVEYkikURUIqmAGL3H1flcTcCQiUVnfV2n+C4bxt3dFm6ixGhj6fr+6urqeHVlFGKGN8YHmhoEWwopLhORtYO9oxc5NHMtOLx63+RilULU6WcN1hj2aSOV5EGX/Az8uooSJJqk2fcd6EplOBz6GA/JorXpMkaqpEIur5JGeH5HdW0axqMxznBr9YtnV61wEkoA7yq7EhlqsEMk3WvLnqqYLFCzp5G2hv61NTOj/+Ji5flqTiQVBYLl7KwNtJjei0BiLKaDN99cN0ov+YOa7XQNa58LR2j6qy2ak4mOYdbHtFmdgzE2PSkrNCkAFMwKikAEB2JV0kGG0/3d6f6OoR0zUbgOh+7Qg1lIhURIREhFSRSKZJ8wzrFIzAk7qrkKKaUpIE/HBJic08r2Xgj8008/vX9/zUxk3rPwnakJy+dzaS+zyYbvdzXtXVB1nzyK/c59trjIIKXTzY0LQljy18+gZVqbnmsbadQLJXIhIqoCWD5e/3/yiasldx1dAI0YqKiKmjgq+d1kTF9qINeiiFFxFcHy6oj3N95/6cTeYudotYtVWJOVWWjtcRbgQlLTTm7liiqIrUL9qmjxVYWN6thNr0WrHhu1nLtr+6Ymvp4TSumhbY33W2F2jDB7qSArlUpESqn2PBFEIURQkijxfrgfhhNItOs4kHkXgSHiARwiKnHsd1zTdK042hh/T7EDRhYy2iuEGfuVr6+vjsdjwpJed8xeXaap41NqQiX7r6fVk62e3+OJkv2u5qLkFYoPhpNnjV/HDqGj8SBv3AmaBJG5KofAK0g2v061rCtKapVpHyve10S7hd/+RNxt6fN7huo6V0Pm5oBGitMWRPMGlwww7YXx5eaEDo3DIBolaYGdYR+ld40SRaIqiUiTLL6jQQNlqUKkXiEIRKSjayFKCqGZmRpZ0x1o3rcVCbv11vrAuxqOpPBbBvWVqg97HS9LIZQya1uSh/R9wvdaPAR2QuBzUfUZ0X74GmMRLYni7+R6kwKpqoR5KtTDwpv0PzXQZTx3pVGWhav1AC4J1lOYvMGrwajGyNFoqZADTV5PtmqDiFK6PSbn+zFr3Tx8OiPuT6tJlaaFMIE8uFffSHM1hVTKB0U0HofNQZ+46Z6ZsbSaHbM0LrZO2TuI0mO+HIWwlAOaFHQ+hSQDVgTtFAnRHH37JCiLtJRX51qmNbJR6bFRyljGYazdWOlxTSvalBsAWz0UXfn7unBci6REKK59Q0UTvnNAYlinB2p19+WsfZSQc2KGEhGp6kT255HCOIo7k8ftqBrM+aBalLVPAw9238UWqm0YpW3CSolCZwrhejnkuZgI1cls2BRa1pJVIstcq3iKXGM4uhrVpm+ZWgShzK+3U0Eo7bWZcEoJQ3DxnE1QYQxSta3JJY/mPtu+QXqOiTiV2Jxp3Z/KsDWLLypV3WqgLhg06Xta1XdtnREtTRurvMBuWoJXhooYt9m4BVqf95LXRdTCnYlTPDRIvGAwBCRMKiSUlMMpFoqJVBRRWax2KYMIKiV9IGIlcdOx6uRs7CibCMwsIswWr6qiQhIFIzYzjVhCL+5RyUSWpbxE1SLKgMwTsxu3smONcE9cItksMJ4l+Iq7/0p72eWMEn3YkLlt9p1ME43kY7s9AgoN3UZLTUtFbsvTdHfZhAEF88RRBygqCNW6HV/khEg4TVIiqzcLyDR7UD35e5ty0VH3dMRzQEUXOLO2J7NLbVLlsvnfRryhlReymJn5pRtrtdtj66qg4vW0lpusraQLUvmEmcy3oPr5ofb2+OoyFtNJOouVl7Poc79J6njlmWeDrBDV56cbWVgr9MLzceGcv8L+kgCSwtEUThucQiRLAoCgpEIsFCi5qnhKThvGeVhWIxqixEQRxLDcG0n/gFmYHBKHzGzeMIGtTEUUiChI0iMZxnInPLj/lBJMOcZhVL2ICpglSjmKMV+qKrJqljOtFoOVPJB7o6Upv2KMVNnS05ZENnSb+FzsZDsSMqaXtLwl3az4WjNqoXTEUS1sUk4BhML7aPqrVU8EAcyQ8uHHCkIzLr7ozCfPUCJPyKE6xlGkO6Rw6vQE83PkREIKpdJzqvImQEoununkctZlbqzEKiwc44yK2cEYNXLVTLo1xRg1arjUR9ppZvud1Kos7xLRxh0kvECqS5uKJmq3u981VwfZmwDanlpVGX5myrtnmFs9Vc98SxDNmYgUtbUYiCpvUcf0efO2iyvLixVhDM3K2nbFnNTXeuRvnC7YyLZOEMvdpDr8+us/QghXhx4U2Jl0gJm7TgYR6pT6tP9zUlcGQzW6FoghqtOgIpqtZkkkcm9dF66OV13XASyqp+F0IpGSIwAJQXJt14RwOw4Avg5fcofMbHXCy3XLsdnbGMFyR6kQM69xD5nXF9HZKCuNLW3h1sDqkeweabIqm4BUtZPKzFqFmSRtbK0ClAD1KqA1vgiAiu0jzhsZlDypazs7E4lRtHREIpaACeCilLkWaZRW3xkKkpAO85yK2N+KOqqcw8NhgVVH24TPwT3Bkzf2+jCVI/JE8LdrKU/OpdXXuqS6ZELHxdnNwtaK2pzSNRASqk5y5J69oXdWod1YXEmYc3q5LunPO9wnfnlCNZLTujkbuZwUNjC/m7Q4O3n9oLBKX05WQCREEhA+/vzh0B8CBygCByJWhRIrsVBQil7hIe8Ai4sAmy1bKTm0rk279tgMttTfzBCR0+kUh3uZvgjBKNNqUnTeiU5pqJJa+pD59mvgFi2THNKibdMSTXJvg56jrY15C5DOZz4z0XSxMvHWkL7qAVr0RjxybCt2CLgTMohNu+R+aVjdsL5ptNg6SfvGHikHojLhI4gIG/XK7VRmQbQqwJevssoMPgp0cjeKy0XGMv/XK6lsA6g1h0eTBOFkvgnLTJ9lF6aj60q8ewPssU2pGbkA2UIk6h3MIftirrKBY9OanFkh+aAnpcSsOZ09RCna1HTk2bW8WBVVhFQIwqSA5ZwGkzCk6/CnP/3h5w8fiBAH/f23LyAMpyhCURAV0bU9nn0Do8gFIhDD87+CcoKntAd9t1ZDPY377Lo+hKCq93d3t8NJspaJrBfQlGXMP+Sd4+xiNWRrfxnhIqnuJxRPwsHZXC9UkwFyXLXRL7RsWfFlqrEgtTEap0Lzh1scB8oDli8CI5Vom4y6HclMGFootjycchODWIkp3naufR6oO1HREmNqctnb67DR7YGa3nRpMNhpntb75Q3LSH7ss8U8tzPTkjtATVx48jArh7D6MDVOvvXeFwBVFdJAlNWIqmppt/uuA+nx6nh1vD7dx6+f74goeulqTXELDlXHbh/CUV7K55Rw3yqAAOr7jkNQ1SgyxEGm6QmUUlm7yRG0P6OID4BkqWJuY1cIpElxtK8+mnx4Ioyuu6XAN6f4RETd/FFMbKoj82nDhPN3Jm2kStScBmhhkofbVUSjDEMcDGKSbdqOnj2aiJJFcgIEiBIpcWBxk8YW9m9L1v3K0IqKFuqaeqvahqg1A7UKJZ745hHYSAv+b3m95WBU29QuZp1By7SWl0pE4qldkEST8sa6rFB7fxV90sobnLXUReowWtkkzS8kayn2NBWqBaJIQ+uUpTM2DaoqxM67W/+iYvDbp99J6c9//gsj4yKNCcTyNY2zWaOcHmCRiIQkvnRLdrJCloZ81pej2CmZ9KSnzmZxXQiHTVomAkmSa/e1TJMPW/22sYej0DUbZSZD3N/eLXrXwjd2fYC0XAtPr6I3SkQ9EpRI5mo8yhRCosZ4c3Pz6dOn3377dH9/m38t9txMDnCJE0mv5kpKgJmjEkmuObtDHtJkLwww46EU2kYkmuW7FhmtZoQ9A8z3eh0r2ZWGJzZd8ALz1yhOmwbVtpNrzIvrntsMqRmRpwiakIilXxYoB//MrzdRX3sNU55WaaIYWRs63d/+4PuLpCTkVUKLpspTLTaxebJATI/suVuJPn36/fdPn4dTZODr5y+fPn350x/+hER4htP96f5uON1pJOaewK4WycueSaOSuRyBlFRIIolABBpJo1+nempxK3JMO+x7+TSVtXLWYPlaG7URyqqBaj3MRrIZtNjP9lXHa0NoMZZ/1O7zp0+TZnbYoLMdtcKeqQuRW+MqmwuDutF8pMC2vZxCiMYhDnfDEGOMJkyIajo+GLmycSpJN0Vqhi/3djAouIfRxru9RNuYCGOj6lF/PKRtP34ZX1Kigum3RoTSCC1nA0kmbciA4bNtWJw6/1I7hESEFlfw0ZGjren+BGnZH5IMweN3411BM1oyeU0pYjWnj6s3y2PTlCwjKWNnx7JN7LW3su69W7TUpgV0Lba6QJAv80IlIypEERpJ1RxJrBTD/f3p7u6ewb8pHQ+Hu7vTcJI//vJHQ4QSB42DDoNGKDOHgKSuJiOKSqQQL0dq0RMCieZEGyyZp4oLySjXcyQzHJiITqdTN5yaZLsCic4WbfLMfnMjPfZnKUerIlu0CdNt9jiiDX1ssoir6ul030kcZu3Uj+8o2OnYg057zBRidd4gsrrR4xog/6HUg8Y4xOEkcRCRQWQQub0/RVFwILCxzoaqzJQsph4Hw0ePSuJHF0zKDAQmMV2TT2JrvfYZZS3+1cr2eQSAsj4hszm6tFzZ0nEiD+cSdnwjNM4z3bHeXfaLaHGKrQ+N8gRoIYA3aWl9nza03GepNSVpK05OIGKCFalk50xUiNRiqbaEafPJ89o50xRkZaxkQtAokJohkDV31RqnOtnLowsQSHR99yjRGGm1h4h8mqyjkcqmml4EnCoJ6VEG0KBRNUYiZWKoHvqjKr5+vf365Wt/6P/4xz++ezeIkViFyEnjiYZBB1IGCYOZKJKqFUePSoPGKKJRQlQaIsmAOFAcWGJQUY1EMS1Ofi+Tp+r7HqCbmxvqQnd1MEer5YOWH/YRtCq5l5UpvrZbQ5WJeLZxlCb8LJrrVOdJPslcoSQiohJjVNXun//8dfJzodGZXF44gKpHHpiWqT4hYyehZMrEKfeTZAiLQ7E8v0k7KSKmhZx1h7QKHkiRKIcTKrBRCPOBHv2RVXcZ4GUN9nqzFIT8FD4+LaLnnVy4QpxRPNmEBhNZBgB7Em4K6ttTS2XyULJemnIyj+hyHkWzzoU0u7rOJrH+M2q7QR3XQEmjLwmJFcElEl7PWggxfOnkYGH7S7zfqDeXjOjzbjGCWY7RpFLIT7rhqJ12Aaz77cUp7ThlWtvM4qR7PZOzRkJUUZHojw4YQwGlIUa6x+k03J/uXRsBSBwkniQOMlg0nIKFtFNiIURQJBrMChJFB+Ehqg4STxqjxggSaCSKVFCv6QciomEY7u7uo+q9RPmdpCJjjTj+QRRCvTZSI4UIcwoxTfaR+cL9uhRZRfgkEjH2RkRdRV2WFmPEHXAxX6cUgpHMUCv7ybe+oxeLuPKF9gfOvqgmZcRMIpZ2FMobvTw4iQyIGbVScTqrn+T7Q51GbJ0lJWniznMcxpNIhKuTC6Gq5BkWzZ3WJoesBgY9+/ast0rn1/Ha1rOj4Wwk1DAmeN8aOnE6miZMmhBnYkNafa4fAomxMBy18cgpmJaK1UZeKNhn88EwDTiT7OS11cTCTymtppl5zI69YRWCZP2t+AplddaDQUzA29e0pqO/I2HlVzw9pbU3JqrCSqQaRTUAKfzNCJ7oSYb7+9PpNIhEsztKHOIwyHCSqCoKKFhJRcGRKIIiNBoeHCKGqFFJjKicSCOpMEQ10gy7TWf39evXL18+d6ee7m5uT3NvV0rqDV+XB1AIEtHRcr4KydVVwzwMExMJd7Q+NlCIsxAIZgsWYWZ0Sz0rETHp3K/SP5bSq5rPwI6WyZz4xYJKHDHknowNM48ABgalVJkw1SdceVR1m8OohMiiXRIpSFQ1Bytubnoli99vUfMlCrHdbhNc5+B6B1JJuZHX+DvXY8N0I5vHHMZ5NzyIJpSjuyqXjR7KrzpyAOvOIf67irstSN4JWVk/yljkuRh27RCt6pHxqNO2DOEcCmihO5oxdyKkELGIsI1Ryfw4aW1XF2xCFr2zomnU4I3UtxTrdzy5lUj33GVKNjm9lK0+bW5pcVbPKXhARwF9Dw6kwuZIYmwgqbHbMgyDxCiqJHJ3d//3v//j119/+/3zbYwWbhIUHTQosTIEJECEmrq5Ew1igqSonlzAMLe6zac43Z9MhmDpBpl7u5bCEI1iUSPu1ZHPWQcAKkxYCJ+YNUtEYp854K4LXde32iI2JpYOc0fTzCHqOtD58VmeKFUViUqyTSGIDLe5oYWSsdoG4bS/QSSAxEHFCtiOqVqW4vPW4wAAIABJREFU4MpPO1P51RGZkipKNMFNrDYR0dbZTf2JHcoNTJSGwsbMco+bW0OjE8XkHKgFRqiPbWGmzmxsL3YmiZsNbQNYCv6tnGCF2LctMyeSU4kvnY7rzcQH3kLTiUPdk4dSt9tDU2ILaXysDbCIXVUtg0pHrJ2nyCosEVUtRTE9VYrO+8ydRNdm6lJLwu/OH6RbLWPZLoWAaTMbkH6m7jJW4VqZmfN6sVS4eloEpeneR+yvD/0hRubAqh0RmDlKjDFCRwKsRCo6xOHLly9fvnz++vXL6XRKzCQrBaKgBI2kbPnWiCx9n3nBaACUaHCTJCQ9wurKqBceE2NYFoe6XhuxhZfKfOqmMJ3sWLoUZxd3JZS8cfytfiuJxuEEVBPatUIeQVU7Jj8AQ4yBWZWi5JiV8iTMlTTq6mbZYhjTW5DBT4WJ6GOAiREMcbrRBVaJw+k+Dqf8n/lWjWutk3+cQVKROLgPdRTSQRSipPC0URs01fnyYuOPTz0z9+c7NlGWP+e67SMFhpj8ZfSrVqdsvAFMYKVuuY3nQ0MJbGbWnUcmUdUY1SsBrxKn9J5pgEqWGwrslPpUIjV/kg28r6Z/VlGJe1QHSZ0H0Z2IZUfmLRSCVIlk8+wad5xc9eJ4ceTrXWQBaVDp5MSbfJKqKiGKEcYtmzbZGTFVE1KfqtBRFPC5IADElNIRrPXmefOkQYtthLOu4R2blRRi5ENAo+/0qBRRwinE4XDsj9z3R5IrUwLHIQ5xSBTQxxLV4RRvb+9ub+9Op5NSdC9WiJKQRiVWQMX0MK5vjkKqYLVa0ydCJCUiIUTSbrZtjI9kUAggkEgUYY0Uh9MCUVc4NolxX4owRWIU3TGPWTQ1oMmbhmwGSFqmxAVbEgARUyNs4jJa4OmnQnd/d2v7IsYIkKjGGIdhmD1Zsi8Vk7GDRltaJiWCUowxngZLk8spxsQ7EyXjI1RVtO+DSJThJHGIw8mcXg0hJyJKdjhcN56Sgql1RIhDvLu7CxzJPWzJHKm2NLCOCRLlX3+ppQlgg0ag6LK6MlkhpgUm2hYNlCBKgx/IjdNbUpBthEWm6rF/NwbXhJuIppQRnnIyPXXxOBsHQxUEsT2mqdykdUBUkhxMbtpbHef5G7SERDAXoG2K4xMrX2J6TYX+B+SOFvvuC0om4jbwoK5rpYwHs92OxkFQRvyuBWEnGWJXxeSH1Q0le4UCVYuU3YltGHmcRMVASjxoVOpPgqt3PxP9FIc4gIYhkkIcJyNGGaLc3t3d3tze3t3dn07RuCgYsvdlt7I3WYlqwyXrUCClIu/TUpohM20BBAYzE9Hnz78fr47cdyeJtJAhlismUbYQxDiIqgiZ39say0/knmiWJwz5RbofmE48qn2TlyeuAomv3yZjoyCStQ3rHXb/+Nv/E1GRKKrDMGhSy+xCPkKiy9xOYyNbLRJPEzVz1px8FRWNEqNpiu5ubm5vbm5ubzwnO42LRKpEnPlBJhKNIhIH/frlFjf3njacoeTZvzeeKGl3HKtvPDqIVMjqimwjQVIRiJCSxo03YLYxo0u7mpSoenKvnXWfGSVSS5AG0rj2LJq8BoZoN8jaRk5OFOZmrlxOcn6H6wB0fFPVsYlUyUQ8kpB6WeptcyJdBTHilh1YlRKF2MCEyI+z2tE2lLRhnIyCBwo7+StJSSW4WXtrOxoWGHRIIvd6n9YAnCa22hDpv232wuOI3L60uRs5u1pNnFdmrcw7RHBLfC/AKXan093NV7kPfHNzy6HLzNLX27vrm5vffvt0Gk539/fJH05HQl1MSX0DjWhOiKAcCOlwkkpHRKSxXMIc0Q1CCAHA//zP/3z46X136LkLMzF1Fh/uO4d5Bze6LOsYf6mcL5tClRDUXKjz3fYfMFIIy2XYFs/ijPe2eqvwUN7aZUoq2v2///s/yTro7L05H+mi8ZzCpqOyaZZUKGkySSX1HJWbKl9RVYmDUQhVvb+7vb+7Pd3dWvXpiXEfxlW57klUNBLz/Zevv4F7GutKgNI23aeozqBNGlaCm1RTntONDlVVlKJYzrKdF5uRzt7eM65ykz+wXSmp/erQbgtwc/EGhRg5FyMPpQhBM7HS0LRMA5SqkzTGcSmXTiTkfJqdedzSwiWstqdioqTn3Gi2ChMV0ziQAkTDTo9K5LtiR0mR2G9Ts09XZ75Y9jDVPOGTZp4cgjAL/K6NbS5VDXIOso5xtbF6PjQmQAnD/enz77/ru/eHY//1y1ejRpYF4e7u7vb27u7u/vb29uvXm6lGebQxFfMct0MSGYyPsfWFM+bESQQeJ6UqYOq6wOy9qIhEmjszLkz7SqRz3crKg2fKsKG99c1/cs9qn2RJITDu2CQ9tcMOxmtoZj93v/7j78wIIRyPxxA6Zi54DufYJ/8rblbXMq3KEG6RVlURkxp9ilNEg7QR4jDE4WSnKNkhBkqi73IFjJs2s8BpuId+Vq86wowkS+1bBa2/auh8ydISiJx32ZQhnMfRqDrsmvHJzvgC71S63RYwfei8PXeRpYrIaRh0vciJtRxZ74pdamKKSF3vM6oA+U6bPdNSRNHMuW/NsnjmTXTpoWiP8vWYdD49CEZiN+foTLEhtA09AVFmh2YmMQWhuFedz12X4NOtPmLaZ5tjm8FzP2PEPAK2PrCL7zaoxHjz9UZFP9AHUWFAiMBsKtfbW9caDEP1ieasW7k49mZcZeLm/BXSZbY/kCVvIxdUhEQXQuq8Fghtc13zZjW2ejaA+VxjRIjqZNVUuml9izN4FngAoQG6jx9/ts9m5lUV87HJR0gzcZjaM13djC0ZgmqPB6IQPD07TBlkykXSaDn7VEXk13/84/7+Xi0ujzDbE5PHBanQIPdKv4mQgokI/rcpXauSQj24Y7o+FRkCjoy2sXkkCDU4elHiY7a96VPo33ZP5QS2ZjgiVDYzDYisjEkNd0qynG1a022aFsiyye8TKYUQAve8kYx9csOmAOGtDPfuvBfHfYs8a61Q5uxLy5ijHHZOsE8MG3XH1sAifJIBD/li2WDr3uI4r7dEBvUEBFt9WrjnziO7gwWEEKOIyP3dfQjh5ubGUaNtFqsOJxIlHg6HruuOx+P1u+tTjLZWHkwbo6iqyCDxNIyZICZIKVnb1yampDHGwHw8Hg+Hw3/8+398+PDh9y+ftQhR9LmTe7+6azrY2RpK+paNxaGmPTalEI4FFGpONuoxOWCAibvAANg9lihKNKW88TupIOf5U1N3Xz5/nl0yZmdyJSGU+csgcxDd4mKqBFCiebtZaJxkGcK8kWz425ubm9tbUWVmifUhxqhbj8Y/EZPZf4xwkGIeNbMANxmbtXORd7b86vVzacZOVroUzy65QyHgbiayiwRdpvNKW/t6EoBKc8WsffIj00CUEJYbW2c2fSRtBjC3IVXmSCa6zcXzJYTAoXM5b/KQixuVhOoF12bNjIXZCfxOI2L39NYAMwqR9B1+QHZ7lMXJWh2o/CdRCFpQiNFUvfVA2XVwFPrqjay2CqO4sAEN3DQ4VXvGECXGeDqd6KsSqYqTVRBRmZofFEIgoq7vjokp9LMkngf17u7u89cvp/uTaa7L3ea4IH1cPgEI/eFwPB7fv3//n//5n//1X/91PB4/f/3MATUK4QuRIReD26UQ2D2kyBRCCxlCnUKY+1bqBzTaIZI1xXDyGO46YQTOB91vs6wb67AwRDhjKbTqnlEoKBZdqbm65rdJSjoM4hRC9fOXL3d3d6oKMK2I0uwJmjRzdyBSpPSbtv+W2S/nk1TfTpa7mjK7R+UeGwnDnrin2YFVdc8OYfsypmw/OzPVMc3+jtaFKEXi+q1LphBMisDMrGaUyO5V8ykCMB/0vf1nerCKPWVOM7oQuq6bu2zXpXJOT7QttOnsQxXS6X3cQcqsBigRbAJltq4Fp+6+5oyJJsfdONiE7H02GNnU8vpan/nzahsbh9NO2XmcRgrhRz9GvT+dbr5+PZ2G2683yK6DIyId/QwAcGAOwRXd04kcDwcAn/Xz6XSKEtOtY8JRw52ohaACOBz6w+FwPB7/9Oc//fkvf+m77urdVXfgBYUYFalIK8wc0EQhGpg4byhJ8enPodnqBkd6GdF6KI0IEYUQUJwfTfAICXVjfqraHbsJiz0x3+8tgv23wVva7sB8F+Qa1C7AqSFVoiFKjEJKojLIcH+6u71FVDnFwVewQCFjXSnPYGFx0XMyBtpPkZGwf+ZF/fqcyaWabrICJSqoHqR0XJPmgZYzn6FzxTjLJQ6v9T+5qkQo3Q8AAAHEyQaiIiKeiW1GSEDwWuCTg+GM84h6GARocL5nc4bMDF7Qg8ViL6/msOtsCCmecJ9Fn9qVHgE+pGHShMcT/t1EC5lfKPtKyr5EGDJ94FRpMTUohp/g+pH0byL0kkRMHqZoUfaz2EDzRaAC/866RMaplieNSFRPpxOpxr6PwzCchowU8orBKzbDmAwQW6ZDJTWiZd5HRBQ4qKgM8UuUeBpczrD8WMlO4FOs7Cljivj9h/d915uCGxRNSpkdLVt3cIru9ZeI8qzWpF7/Z05FFgyQk78U6uJNrKYe5lov0mTfzEGpMrIFSb+zZRV+KFgyve5f//yn8uC3shsgMMD2Hve4jWJ/Or8/Uzol94NBJLo/vYQ+gPH3v//9fhjodO+xh+SUwXeAuXw4chCyMiVpWUFkmbFGb4g1KKi4Fi+SH4VHQKNFIyXpLH7UeVsii52ZzXCR4XXUrk47XJ3GHLeWaAzgEDrz3nPiaEts+386giXKnROdwnLOrp4AI1g2hCfjYu84syGJvXSe3Rio5xCrW8DMuZwUPaQ57ccExuwqRKqaKyqU4JY26y0RBhhlTi9jpvz0OSRtRtMK1xZqyewYkim+VEHdyJcw8IjlHTMws+HhQGZ3GQaJEoeYMSFsO5eKESEStV1EABN4LCdhJXrYJCllPXTd9fF4ur+/u731etXK0HFCXhZmYZBwuQt0dXUVQoDRICglw2G5Fum02TTzaiW7YVrDtU24x5eqvXo36I4sqma7H01QGRHZAcsoraCALjOBu7OZIgyFdf/x7/+Wv5CV4UTefKs7z/kbJhiF2IvwnlKIJaNvFzGImsUhRrm5uf39p98/ffp0vLq6vbv3tC1biF4d0aYmlqkil7ndniGlRHYzLLjxLJvgR3uhX9ORKtioa746VcFjMZ8K87hwqMwMN4pbTIwLXQAzZeTEAFJ+lAKYwTyXDJRGLQHMpREIZDJE8cbJ6eSDwakCkyY64Sc80aNHmhOeDnY8C5UGEVcphC8sRoEAk25SNPv4xkqdRpKwnXhnNjG3HG/YnzHtHwEiGu1SO61clMK4p/yDkggx4+efP9r13z99sjhccadqt+Qh7eckDBY8xazXKQAIXXc4HvvbWyKyJNUQge/rJGiSqm0d1VG6S85knAvJgEyhNaclpdEp+/9z5ai2Fguan0tnSwEaKVP2qJ5PhphL1nd+pBKjcNbjACLV7o9/+MN0pMQWbe09wweebLtNhvBPFTWxYzSoUhQaIikhxvjrr7/e3N7cfL25H+LhcBiGk6XyWR1DiaAlX+QyRLJCb8NohS/PUu3Bml6CwlithaU6313Kj229rum3qmRj9rVIZGVKJWsUQhe6jrvQhc7cy5B3wESsJHdt984W+iEggEHEYBBcvEgcXeGRXpH7afrTuOQTCpEOYdZPllmJii4mNqQFTi4nTBOFgC2kTnuobwDD7BJFJMYpPk1YyFkB8yMH2Nz2kAVV8WByixfzHieMWp66OzERkSXRmlOIPOI6OEFLEvzkeqWLFafBKZjHU/nUYx+qRDgejrZfvnxhuZP7+3uRFD3qR6yUIAi2Xm5d4bQN50hVTUXZdYfD4XA4MLOHW6mFS4+aF9OO+iwNMxQoPwMRMSOEEeml+cz83+Frs9gSzQmQau2c9qDAOSRTydAJnu9SpL06Y1XPzypZeEl3fX01PRHjocukono7mbIMO2Hoam4I0UKq586ImngbVSXFEGmIdH8ahiF2Xef8YvMjzVIPTAJod/e8Vj7XkUvjbDx511J9tJxKlQepzri95QiZQ7P/7u7u7iNdX/Vd319fXXeHQ3foQ+iM+zLkvqQQWJGms7hpRV4YTKqn+/vTMKhq3/fMPIhKTIm5ileaEBfFGAGEEPq+LzQPIEIiDyOBS+p/JOMc9YeemVV1OJ1ub2+TrhkpgzFnzscITAjd1dWx7/u7uzvbllfX1wA+/fbbzc3Nl69fiYiBzqOqKtAxhxBAdHNzI+KV7DnN/HQ6xSjM+Omnn969f+9kQ/V0uj8NJxUZYrT6N1o6CaSc0QBRCG7XoXEHz9Y/Sx8zvD/fHKmRTLxfvIdZs9RGt1UkWQ+wJpocj8c//vGPHz9+PPT9x58//vd///fXL184sIrxguLD590Dz1Thgcy2pqI0S8dlkpWoveKr4/H6+vr+7k5iTIovn5+SrSRAFjyHvIAgYiB03YeffrLFY+b0ayIP/gWToQmKpW0SzTLEjOFQMiNEaW9I+R90qlfww5toAxExz5MwlL+eBWy1Op5INOMbI9pP5qLGFG23ISIiSf43a8hSlBQUkP4yXR36f/n5py+/f/r735iLJN/pvsqo1f61jUdvlcKrrjr17op7xo+1MSrzq0o91bH35aO8WDZ26PqroO/evbu6vv7w/kPoeu47ANkfYq7bThaGshMUPH/WiDDQd10I3U8/f+z7jjnc3t7c35+GIR6vrn766QMzp6DZxBVYpcOu//nnn/r+kFhLGynJEMTjg2M0AdgFZj70fQiBgDgMmULA8Y7RJA5WzBIIzKHrro7H/nDIzHXXdSry22+fvn798vd//IMSheAQ6lxCQSFOw2AJ3dzyKHI6naIIAz/99OHd+/cf3r+3u37956+//fZPgQbijI3HdPfGe0OJaEj+/lm4oeSKPcq6Uymk/upHhK9aqRI/kScSCye6Kay3wP393f/5P//f58//8vHjx69fb/76v//37v627w8WdDUuYwJmhpBI9L3ETGpll5KoWEZuGuMfwvHq6uPHj6r65cuXeIpIvs6FJkGVvIq4rSWYQ9f1h/5wOFxfX1v6Bmb2zIYJ1xttLmUI4z7Zc50UcirNj8vYvvxa0dsrkSvBR9QF/2H8kIYpyFc5+ALOLUt0Ya7PMk7LTupGASt1DfoexlTvtUyutGxABIqqAAVoB1XSjvXnD+8+//ThEDwPI3LyIs1oqpx6jRgkP6YmEQLF53T7IyGbf9sat3f7uMmMH4Cu7/q+f/fu3dX1u3fX78Ehc6tiqdcTX5puAlyGn3Apic/KxZrs3PZX19cfP378+PHj1fH41//9319//XUYTn/605/+7d/+ve/7f/7zn3/729++fPmcR/jt0+n6+vpf//XfjsfD3d3dZN4jkRifwa0QZjkBQhcOh2PXdSEEkXh7ewsCByZCrleo/z9779Utx42ki4YBMstsR1Ku1WfuWfP//8p9n5ezxnT3nJYjtymXBoi4DwEgTVXtKoqkpFlXELW5WYXMRMKE+cJZnnNRU0pNh6jrBTPn461917ddFWLf9x0AEKGosPCJ6URAJBFGhD50bdu2bRdjMK4XYuz7XiQiUh/6tmvq2udLhR1BEFU7XAogqinNDGSxXFVDCCIDxU7/54zAdq/EGezbV1bfSD9ortEyLN+0V362ztb/lRu/9u3hsN9snh8e3mx3259//kkBRNNajJCcZDlQJUANsQdUIkJJQTCEDMyUN9tQB9u4PvNyuYwhEOLL80YlOS6WcekYEzJEgsg7531VV5VzDBmGQiw5nRLARyOfF0ifpkw/Ahk3TVRjQo4w8TMttA+KLDXqdpoZDB/OJeqcIuS3bm5sZEYFwqQV6AX/d9Myxi9zoqlCSYFLlvVuDmHn8G3MJwAAUQgFNDqHzjMzUPJRGpiRAqQos+LXBHO98LSicUV79cVPmVI+7lZXfnLyKdf3PB5GWi0BQKTl6mZ9c+urSpN8BqqW0iwBu4UApEXJYD3lNAkZ2s0eeoAA2G93y+Xq22+/++brrxfL5Xp9+3/k//zy/v3Dm3fL1Xq9Xq9vbhSQ2LVtY/evms7Xta/q1c3N6uZ2v983TdN1XTpWdn7N3MucqpNpBIUoAAAkVn7Mf/P2m8P+0HYtEiJRCCHE/vn5OYvFieIiYuX9TbyJKt45m1GJ0rbtZrfZ7/ch9gCWPbrHLOYqQN91IQRTRCCnQA4xSox96GMsxYE0m2Sx7dvHJ+pCZ9PbdV3XdSpRcinFlKYycwhrImI3ztMPRfqfWoAKq3hl5RPrkbGX5Ei3mJ2SwXZ+pUJ99pHaRWi69unlSUQEBAC7vkvUMpFOo/sKZvkQiDEgAqIDwEQMUDknWAMQVcqpEhRRmbGq/HK5UJGubZt9Y4MybYMS3U87lSzGIu0jMhA7YyBUQlZHuFd6ahGM0HQZAB7k4jF1z4HoqoNsU77OjGJm2zB5XAfXYbXFGaNMmE8fnpvx8XoY57pE+PC6bgDgxsV1Mvw8skVcaBNt62QHVCw+SAQDj05fZ4yEERUt0FJRBTUSCKogCKESAsEs5YPO3lF1/sIX6/z8Hu1L6AvX9Bz6EJL3la9q5yvAlBwpM4TkX1jEUs3eJmqRiJiMtDFbHUcsEAGwbZrlct22HZK7v38Q0fUPt5vtbn1zs1gul6uVKqzWT4em+eX9e7usXixWq/VytVqvb5jZYKURtmvuMSKqXd8miBwRAJgIiTx5AVGQ55dnEelCZymK+xC6tt3tdgPKn4VkQuxCt+oa75w9I4q0TfP88nLY79uumUxcRrSapun73jEjkeaK6mZzDjGMS6oULLQPsVP9z//6T/s2xhhjsIzrkGVqK3o1NQmYDjE2GAws4uOQ5uQ4CpRdRTGb6O2sMw1K0hj6+ygxaP7M7AWsIMHCuzxDmhc9JhoIYE7zbdf0PRFRVVeVr6IIRCAiU1NFlAlUk80AkzpI3ru68ou6Dl0fCzqXf04BhaSwmDoBk3EMrgvZ7gbTHZ7OidVrPzpyWvrYP3LmxSFkoXhuTOYKRl9O/p70Gf85R9RGLGuA48/1LN3O3y815468pgpzeFWSBoDBznK+gw0ol2pQ1Wl6pbyTFAA4c3KLfUGNqJFUHKGzyraaw6NHWPkfjwf80RszLxYL7zwTZ0+hIrtYODpmNxCwGC872qJiyVJCCCmF19HsPz0/E/GPP/1cL5ZR9PHx8Ycff/zhxx/evH3TNM3N7S2o/vjjj7/88v6nn34qV213OyLabLbMtNlsdvt920zItInAMUqmzFaIx9ISYFVVZvZQ1a5rY4whxL7vDe0ZwWYqql3bNc3h9vZ2tVp7nzlElLZtnp9fmqaZqX1GiVShbZu+75kdIjITERMTIalKCCFKckidAUEi2jQHGwNmeJuK0Twbt4v901gMESDRoMYpnVQiUrvqDMhxDSFEnOWzMVA+e+ifbTMqNmMnKvkFX3N1yWMwobQHZo4h2KSG0HXOLRZLABBQp+q9QyC1QNScWQeRTI0IfViuVm3bxRDPTQdaFXvmpEbQ2AUTSXOiKczZrbPGkOuHA4BYbB1iYd6Z2Ba0CGBY1KQnDet4PB2adffyb0y1BbCASqbjkybF6Bxdnn36Ooe4sqeqOjo6D4WDIr7GIxSyqeX8Iwx7ME5c2MO8dzYwafb7sVm3EEYEMI8Ue1oGlHSujPzZrm7Mrqoq551zTgbJY3bqEQBVY1IvFFQlSgih7/s+hhhCCCEcR6gc9ofnl5d//Pd/7/b75fK/tpvt3//x96enD0S0Xq/rug4h/POf/9ztdsXksN3tlovF44cPq9WKiA6HQ9O0ZgwojUpkAaKqdl0vEkOIIjHGyGxuR+nbNFpL+yVZ6s7AStd1h8Ph6el5sagtBRAAiEjf9/v9PnY9eVe6Qz4RqiB9B1HAbDZE7Jw5B6taqbIxhjORgfIvANkmIIhICIJIOfxo0g1n2m/RTCZnLQmAJ5nGcbtOlJKsPl5jhxjhXGNhNNtes9n4ynERddw5x955di7GGGKo6kVdL21FnXcAZr8Z1AhEYOKq8ioa1mu04O1CVREg+9OUUERiMpCwORyYCVUpQZkKo1AwAiBC55jZObNXpf9xckxel+g1X/SKpj81T+TfB4UDESb+fNe1z9ITAV05JHk0OPt5rmWdAF5J7aqFv2rCfI51DkRM1asJAUCSWo8l1ah3jokMKbiYhu/PdrEVN1CkeQn1ETnDsm4qKhpjDH3fmWE29CHEWGrHju9QVdV2s/23f/s3x85XPhPM+B//8R+qEGNo27brOntGuepwOHx4vDY/2HHD0Y4dCXBnm4XXbHfzog7MzMtkvSxAi+ay0uQ9+KGzYUHzkZw6OGPb7Khb4hhmqQOU2SXHwz5mBB+BBV3nnDSi+NfdWYdhTGCy63X7QXyWGMQcCirDGYViiD33SBhjJDJTAqqoohCTSdxEVFV1XS0qX9VV3TQHyBwC08QOIjwhEFLbtk9PT//5X/9pMgXmRGrTcYl37ub2drlcvHnzdlFXmc7TrwQusFDDcTOb3jD1dqLGcNx081zc3Z+1IbhZwtjx818fC0JyLdLXiDYCgAoioSrJ+ORNWoqTEYgo6ZB775l781EBg7MUYOYVPrE8/KlSfETDCYl+raOCxBi7vuu7ru+7tm1jFInxFdlVVLuui9soUVQFJGQzB1Fe0I/D0y+McYQXXHuALvcbedx8Ypsaa6CAC6CgGPV4OFe+Rcad4HOhra97RU16jlb/18Fep29rLgA5DxsSU4whRCISEbKACUMmrGYlIRF5SyGDhACGHOZYKB1nWyo8f7vf//PHn9quRwQEtbruRxxCvXO3t9vlcqVC7969qesKErUsJG90lfH4ojEY1U9wvfEWPPY6M5RlCCjN2+NIiwTIIOVvDKy7+V6cktzxv+aCQtZ6rslKWrKzntz5hVZkhZsQgZmZnXMOS92aYd84AAAgAElEQVQCVchJnDQFR9CFKGu7/1X2it/BqHGC5/12zTbcaSAg24PTnIhoDDFBTDFa7vZXyuYoWNiwhZIRkOEDQ0vP/wJNVa+j6dkGf6nHpzcckYl05xFxzRR++iw8kRLsBKiv81P527XXEq1/wsqqpfkLMUoMURTIOeYYAjrnNMEWBlYLIhkZQiIkWtQ1KrBzOOgQkoBwu7eCqjaHQx/k6fk5RKHMIU4lTdHKu6bplssDIgPgu3dv64UD5MlwE4guRr1U1RJLpc1THKLSb/MqN8d2iZyiM7sJQsZqTH25NLlXYo7jMb3e3CtOtjNp/8SBMQL36gOyCmWVamBcaW401uRlBwCIhCSIRMzeO+ccEyedHEGSIwgicub7I6VnCgsa+JCS6OH4aecGe2VBm6tWIFvTX+twRpE8f8mvPXoKQNNsCnaKCDDVXhy9lkx6ZZwoxj6EEMLgnm9WWSnIfzktKX+0KqhEALWsuwqAzMycF/rL8cULC1SsBa/wgDK81/nEFJe7NCYFRBowmVPmivLBdZI5ZlFt1O2TeMbnWJTZu1ytl1hTAQFFAEEQUUv2zMRqew6zLYeAQFKmJARVQaSqrohJ7YyrYHYcyCsuALB2XkS6Puz2+7qqmYgA+ch8i4BdJ5vtQQTff3hGYlG4u1tXta/rOq+X5j/Z3QNQBCAhV4j5b/MoM0qoU+vdJBFg0pA0DwEggWOYwJWrEghdNc94UuaY30rdFbc6fZCMmV8lrQ3ToaOf0y5JxgRAJfNjKzmQSwYey32bslsZmZmlLh9ujTBJiDd75KlhX4tOXHn8Lk7N2IflGnKZmcnlxx+rotkYNj8G5a3x+KMMl5v9wFyD+hA0Z6nXFGEgqgoTxp8L/ipkTFXSoGKM2cL0OVGmj29qUQsnideQX+RLcTE9WkU9Wohr75N+mXx8VYr6T22fGHb96q3FsiNrlBij1QSILAwMati2UQNQAlEktfS3qIhIzFaXDKyCfUaWCnVVVIMluhAVurqqXEpSPTzfGIoAxLZXOGgutd107Wq1WK1Wzvyk00mT4qJmLhMISkmRsENusn8STUsBDoDiVj4WyqzymQIM7lWJQF7BHvB6AnXdXnMne518wik+cQV2MwpyxOS3NH+m4XambBCiplSiIxZBJdcyFuKPrygDv3ebQAo6SI3ZtdEwhJyhSAGvKR9oOtN1HGI8Nea8qKLTtbA4LBwTJR25ESOOvJhizAwiWK/EIMx9QI+9VnSAVMfbRlVDiESASF9Qh7jc0pAvjOFKwAquJ+xnFZfi2Jrw1Ouwx5F4PPv4yvF8UrvyKdcPJtlyFRBEFFHMvdqqy4mKqCR8udzbEgHkjTwk6UBU0CBRk0s0lcC74kiqKn0ICADOy6TCbt7PqEQkTa/aWJ7opmtX6+V6dajrejSE5ARlfuTLRc2ohMqE5HB0xDADu1l+AqNiud5evl1GpEbyLqYEMldQ3CtocnnAxZ44jakePWJ8qk1V0GPxefSilwY0SMCn0VTzISPKxgZiYbEU81y0CSJNOitm/vpHbXn5IXGFnFIfi9NmyQhte/qKU309h5jKGmk9VQ2wreva+wqJzDcMp6uadPjEjdVk7RQDEaKl2AOw/Am5ZIc9YD6sqWw0/KIWdSF4pQr6eVua7fzbFRdcMcjP+h7Gpud52c70LIDZ5PPfSD/7jByi8IZyEea9Z67VMRBTDDGFlFgF2xzpicniBai5iiqCeeBJtI2mVmI1PSvvTQUNMaoo6xC6bd8pABMBgyo0ba+wF9GmaRfb3Wq1rCqfOBMM0L/31Xq1urtdL2q3XPm6Yg9cQIKJP7ON0DzZEEs0cNlIWrZo0iHSgbxmw17uMn3WK00V3IkgDtQJ9c0E/tip91zBtdmOSHhUkSmPRP8hqw+CFZymWTNTFJGdHrFRfm5c6Op2+YbZxGRSQ04BTakwGeeAKxyVar7IIRI1/ngdwm5uBSGcc8vlcrVaJV/+M09CBMrfqmiMlhpCslKhYpk5Cmw4RvdmQ5mqKfD7MIbJ868l+3jVMfpiL3MtmKk6W8k/rm59bVMAy/QqEmLou96xy74qyugJQSQXZgUAMKATFZSVLccKAPRdn4AeRFVOmTYyDzZLsJjIMsLMC9MVAgAmBVUR6WKQQ9PUe7fbHZgpxqgKKpAT4iITrdarN/e3tzeL7757qNxaAWDIPP7rCdHvdWAQ8Ro7BMA50Oq4hlNqE3I3FJpJGt7JW9lmRwIFImJyys55751z3lcVWYZ9VbOvxhwDqSPadIr2lFWZSdWfcoiu5tKATEzMVVVxrsycuENy++ScReYqSeuEU96Z8c2GqCoESITO+aqqHDvj71naPH4jzBTS+uTsZphFpuTtNHrkcOFsLJDzrdgHWO5/+YU/d0uS5lU9AX6/k3l1M/UUpuLvtRDzyfYRCNVHPeTj1BoFAUCRCKGDDpCJCMHC+isF9B45VZIzeq+gUSMhRY3pQ4Xm0Kb9RwQCqMTOZWk3p+lTUARBKyJXeAQCoAhKiM4RqmKUrg/Uom9d1fZEJNEC+7MeJwgI1fbw8rJ/+2a1vvH1snZSESADS4qox7Fdupi7hqlMJwzHSeiomGg/q13sKtunHnu7phEfoaWnTxYNmNQEHMQM+c2pM571xkoCASEhiioDqzm8eu8dMyWABkGz+w2iyjgv00miM2hv5wVd64FgkODrDaFARq83VQAr9el8VVXee+99iflnZsdMzIgpcekrgYf2YM3wwbESNhtfnohClDOHsIzWZIx9TNTzOlldGARAICqb1NhDQp5yBJlm4HEmaJ9z4Zp+aPWIPjMBvl6/vqrn7+SF/BHtWK0HADgntl17z+svvobElNFcUbpOsoe1bTBEEFWQ2IeeO0ZSUWUutJLQDRIO2Q1kQHMUJEaT/5k4pyRFYoeA5k9cZkqSUmH7uXg/oijEEPN3ClHbEF3XA6KhTJqi0NHOr3PN4dC23eHN2xUQKdCd88iIY2+nNPzM2pJ0PIgkdtLLOuRY76u3N302Gx8CzHWIk4YvgBHYdqody6HT22BiiskMh5rdH9PXGY4v/ZkJwDkXnHMPDw/L5bLUcTSRmxBFcQrfn8iCnHj0ifCs+Yxb0EzBwk5KPCaBajZzvtLsehFhYF9X7L2v67quHREhaY6BMMNbQaNevaN1IQW9xCEs5fy4T2JpAtDHwEpEJGoJlgsgBpirKOcpkMQyQJO3htm7IfuY64hJQAGUYBYefDTAwhq+BBbyOWn6F7L3fmnG84n3/42s3MctOfXM6Y+dk/bQ9G1ru+fh7Zuqqs0dzfooQN/2fQgxRFUhIlSwihuWSLcPlk+JiB2SAtJQvYgo29GK1FRELBPzRnYrVY3SR7GiE8cRuxKkD7tDu13/vYqCDw/voiiJMCUxeqD1Ke85gAogF1E7BUJYyFe+r8lsJ+WBcbN8JJfJ08e0OYdIYN88sONEGwTU0+yjIBilX+ppC3NOj7AlAUl4fRK2LQo3dUEiBMHE6/OEnJ++pG8UIT3P+FHv4a3xAv26pEOUPZWrJdbeV855QrOXjdEZI5l0YfEhFRPQSRL0Mw9HmAA7kPA4zFJnKsRSXjUBryP2kC8ctgEWCwLiSMiaCQYXMPAvSBv/6PL+/z+boZTFjDm0K/hQSnmdTAyQkSBsD82ON4vF0nvLgqIAGKJYOGfaxiaHi6qoBBEVAoocQx+RHE1OXMnaNx5ewhTSnbJsquW4pCECTM5ycrqJAJt987zdf3h68YtKQBeVy5KRHaEyP+UOhTsNIAEOfQCG03lh2j6vBHLKDmHkcebjcqZXslTqicGrjiYg6ZqFLZonwqhz5jFprZCIhBJiTzSqRZquREJAR2BqZL7JWQBWVSnHKCIAzqpfjFbkHGsc+p9w/zrdkMg577gy9uB9hTpYmsWQS8CU+3gMR564l/24WNMv954R7lLLY3w7yDx5xOBPreSZcZ1Dk15/idFCfl6ifnUQwJ+85Ddt6dwf0eDTPZMikf6ZMt8N/qGICBLjYbcPfVgul+lCRIEM+6iqqdmiGlUsQ4xq0EgUiYQdELNlfrIEDqZ2z4aSC9dMRozIeMmJEiEyY9uHx+fNT+8f1/c3yMvKe042sCw9DrHTU44zzNn0ttcc+8xlrrMxXGPTPMkhoFDvC4/RCTU4fhiWb5IdwOiyABzF9GDKEXtFwAdm+BARrOBNhvSgzP2JqwZ8HGGswNkI04DG7CFroenzWZmXC830AiuYbNZqZscONEJ2IU37JekzWbF55ZaQ/Is+WoXMMkjKVAIJdMvOIelQWXm51B8RgZJSdeVbp51/wZG/SFD4+XnEn6T/N21XkaEicE637dxUolp24+gzxeT1q2q1QgFEIgBYZH7XdWkXIQJmsEhzpI4pEBJtf5vHtldBBCbydV2swgp4GRUA27cp4fzIiobTboogTOp9RUS73fbp6WlRO1gtmBk0AsDAfHJ03PHDjhjWlQ5qA8m6rl3ueYJDTLSgC7cvFs4TEtxwD8x5rBQs2RbISZ1Dj/WWRDunZk1MQE35Bm0/JOYw7jn6pykiSDSvLwhYCCIMml2JW0BEtNTQIQQ4GbgwAY7STe05KakUWeVkm7PxHTAxOsCL1u9BBfgoSqh5D2JiECJiTrfRQp3NmU9VRaOm4mhIiFYq4ONR6YujO3WyPr39yR7+iC2zhzlJGW+rLCuciCUcAjwzAmxSZMr0LgLJt4KsvpX5uVplJ6sXOlKOU6CPc945551HKlTltXrLZZjFVojmMpMlyLmwD0IQzXdRJBUWBAAkAsk1Ov7n7NZrvV1PtiJfj/nWWZqS6SMYk4CRBC9JpNVBmRgYdZYRklSefhfEEecXEVCB3Ds/UjWrc0zsvOMUimCeCROqfnd779yQ3NkYhHPO9uJut/vpp582m00U4RRC/+rMQDoSJvvYsAuAM+MPhf+9flM8FTGncEIEmRizsWjnCkBRoopqtCoodupUUgVhsUBpREQm55xzLtuu/+fs6D/b/4RGkyQXgFdYyC2W03RUO06YL1MQAp5lg0n+UJPrLWg0x1gx56P3cRwiV0q33+eCHYISxBKhYjVVQt+LZ06Vlea3PXrUiQ+uPYEzEvhKx+vQAXelunDcBiPE/PMjm/Xwv+VlLJ/mDmTW8ezxiQDFsIoIgAkyLNAQIhKBUtkAxIRAhR8Mg8kEDgldsntbrRlIcXhZKlnf3FZVhSnFR1q2xWJppLte1G3X9SHsD/tZRQ0oXghHnwGA2dvL8EvBpZIXeMQmLhiri7v2sdAy7VcYguaBUBbaVBWigiGzIoKp5M5ENUcEVLIXEBHAYnkpCz622A38+JXBTweYMa7P2c49/U/e9oXa55/Y+R0LMDz9BRUWVbVYLESk67ooEiQmKCCfkpkUVX7OaC0mgOMa4B4xFb5NRCnrEzM92/Y2IWlMSUNilBhEosiQVbD0PkJN4NRWvvZoXQHSz/pfbE5/dU2ese/LWG08umFGIW1yRv7yIx0i+06adRsBIEeYJNadfV0R0ZxdC3af7nUCxyzfASJiFEEkFAGFiOCJK3bMnEsSgiLkilK59FiWO2yBU32xo82Ek6dZSzXRvPfMbAzChqmKooWMEyAhMSANWQGOZxpGBHWGUR4bJjDPS4kN1QJRadQYYspkUKrbT6dLFRUiYN+3ZfLNVxYVUJLTQTFznZyM19sXINqFGX7xJ/3ZRtTx4vxq9iq9Dq40rUDMLIGZmOLYmqvq2f31L9//y//zL82h+eWXX543L7v9vu+DYamaA0E1J2CyvV/OwUSITNbjq6gqpiRADDCIvTam8RsjCDMTQYhxt9/fx5sgEnMt8vlxPembemo0F0c4Wo3P6e76STpEaghjsn8Cpc++CVoCCi++whBAUmCmLBknkDzXCClXHOWQwDIgTMbYpHwSJAMD0WKx9JU3pZEQVdW0wtQ9I2B96A3Np3MM9ZhtoJUw5MER6+hYISGTBc3R4OZwYjJyQUU4InpHBpBsYk7f5qrOKVgkioQQOvMLNNv7fNZygmWbPFAEjRKmjzoW0Y5HdrZ9Cczq40SnP9sfs81A2DOtXtTrm7UVtfWVD/+IgPjyshE5cT7SbZMEcaTpiyjmWhKXhmasK0o89hQc/wtBYhAmIRTA+FV4G1OyWZ2hxAl3/lwbVxMV1uuP4hXtVOa+aweUxiGzEZ2Kl8prk1P9XK82YebWE+qJWVC+AOmZYpGTkIqKqtUzRSSixWJxd3/nvZ+5Kg3aUWZMsre840h8mkMcTyIxOe+ZmZDmI8vqjukZhJzf5exa2N4qLhDjb8YBdAimlWQDHCIRWf4yIRHRKNLH2Ic+hAB67OVnO1ghu4SAqoJMAr4Rc2Xx41m4tJcKo893utD/Y9op8OrElGZ755/tf2rb7/fPT893t3eIWC/q3W73/PKSj8fZlcVTyRCLlj0Ri861qJ32AHMpeH64IYIG1Z5Indc+9CEG86MxfnCEsn+eVtjN573zr7dU5xnXWYj3cVFShWxOzbF4c9Iw4E54Vh89eu+LAocNTBFJSvkCBYAYQkRc1Iu6rhf1gh2/zsgRoOs6lcHMdb7v0Jgop9YgTgk2MGu5EFUJkJnruq7rBSEj8VkFxQg3gukGsziSGYeY61aQNmXTNJvNi0gMObDIcpaY2hRCsHVBSk5Vwxrh4OHH7GIIct6T+hrqX0j5r3CUeqV9DJrxZ/vDNULKJi6y6Dg6hegCwG63+9vf/gYA9/f37//j/eFwaJomBtMGxqs/8VhUUBE5HPbVYkHOiWqz32f/qGvTgJ6MIZh6ISqCIMQYmu32aX2z2G53Xdf9z92WJziE8dXP+IwZ/T1BGiYmhIzqZzm40L0Ce9s6XTTFm0stEikSqKhqFEERESFmYlLVLvQe9CLRjyIKqgjM/PpWKgJCjghnQ5rgFPFCRHZ8c3tLxIiv3VkxGWaOcrue4BBwRtfe7XdIpAiSK8QBQFX55XIBAES0Xq+rurKBjIx3uttvf/7px9B3fdvlpC84soTbuwAoEABco5Xi5AGf3gpcdlGHgFfzx/zZrm+Dc94rfa7R1850Gt9+LBXFEJ8eHwHg62++/vmnnze7bdO0yRNjguEY8oBI6J2rqppQmrblzcaISd/3Br3qVb5MaaRjYpVVkPH4FUGIhCnpJGar/o033Ge0yLlPYW7XX4vJuHl+w2SnJYnFCceqmyV/S1UAoEz2C6z42gDM0zTdVhARBMCi8hG0C/12txNQ5/xQXuRMa9o2h/PnwlHTwQ+bJpWVSlYt57133vIgjadLVRWVkJxzD2/emCnitRmEZAY55hCzakHZXjFvxPz88kLMlohGRCTGqqoWq+XDw31VVev1+vvv/3p7d8OeZ6DsP/72X//vZrN5epK257qiZAlMLrrjR5MlchoziUmnyZx9xmYbbL69ziqjV5Wb/QJyH+KZ2fjVj/7cLmFXRWYVIP7ym1xndUIEKFXPc4m2waowQxwAYoxPT09t1223mxCsTBDOk2eoSfeoQSUKEnliBGnaRhEBwcyNI+nz0rtkoUpn4mx5hfRRZILb26WtYxSJcYhG/Q3aSUn0V9/NffZxn8WIDGBJ7ko465qcxpCypohGg6Jo07RN0+bgF0JbUWPcF6xLuabtSF41F08AbNs2inR97xwfVzybvYVVzxm+Hb1WeVb+Im1sRCzBFwl/zKnqxyNkds5xVS8AWWVu0xk/US0a/fjrKYcYRj+Y5lVF6sVifXPTtC055/f7p6enpjksVsvFavnw7u39/f3tze233357f397c3uDGVYyZX+1qP/vP/7x4ZdfDrCHIZREZ6ff7B8E89yxJ9vnrQBlq3x0Ms48+gqCUBbiugNyVSdMlqQLnbPF8fKj8cQ7H7kzFNTxlGB56gnXrgueuX42HHMoeo1GZb17tp+GMKFTg4sxbjcbETGBDLLJcvzgNEpFBen7ntgxuhj6rsGNxc8RIlDSzhNlnWAoMyFo8BkfpmBwHoQ0CAHW0PcWTaXZVeTiTE3brzodOgx69vmvzvfrPsVqd9Lod1pfPGUk0uFXSMFtkDx60DL9KoQgHx6fn55e2rbPnIUypGHt7Jtbb9GM3mcjh4JChCiRuq7lhoiNEE7HNia7KqIhhBSWOX4XnHgPFCtUCcuhEb6ERQLJ+0xUrCiPcx6ZY4znLE2aPACSO8T8u6OZRQBzVQp9H/o+hCCqvl6sb+/uHrhrW0XsYw8OuXL1cvHw9s3d3d1ytazq+vb2FtFqNjEiMtLhq92bhwfv3WJZ6zhIezzbgFhK8k4qR3xmIfdkU8AIxxYY+NXbG/MuuGb0V53/7Kx2We7G5Hh2jfBNp164QJ35yUAKNNM9TyQ8tmuveJfZA14Z3+Cwc753Ea6SJcLefVAfRp7eiSMqpPJllPNgzE4Fpvw0hjwqEhFBrpirAKpR2LHp98hMxJISreqEBWBOuTB++3kO6bGkiwjCJIbZOk+aTvpHqaTz17mynVuWKzW5k+2TYqpPSjmzifgoBUdVLZQNkUSjCPR92Lxsdtt93wdQRCQwzfHKPYowLCgCApp/jkUOR4AgghiMJ51/CUiuUKbXnBp4Ft4BAJCQmZnMz3VsmUdI2qZloUnxltv9ThCJneGVpxY4AaxyAuGa9y+IvGkPMYS27ULoQ4x93y+Wy9VqJRKjRvb8008/7A777WH3/ulD0zZt1273m83uBZMalNC3n3/44ZeffuwOjUO28l14ROvSGx5JfZ8dBjnZDOe7pgDfadJ7RMA0w2PXUf/L74j5z+WW98uVjOfkg9Lvmj45jsbEU9OF1+pM5x5+okcKRJjp6Kc7F3Er9R6uwnwZAkw0JxzpDhMhb7jhaHUU1DleLOq6XhCxc8zOETt2XlMCmgmOVDiE6c0z6KKoG+P+lpeJSYnUsvXnJlZwG7Ucky9yNE6sIL5aMeDV9okc4lQ73nTXX2oSRA5OEJG+D/vdoW07gIwqZsHg1MPO33mQSACHqk0ZW1TMcjEAWIXcwZY7LL/mLPbT1827x9xoLWEfEyetJIpQvsl4JymoxNi27ePjY9sHJDYXo2OSqolJaMr+PfrqNM4wNngAxBBDSP5L6/XN+maNiG3XCsjf//G3pmubtvnnD/9EgPvbu+Vy4b2z2xbV57DZvLw8xxgYCXNe3BKmMm6/DT842azi0RUcwuprT9ox9pPF3guJCEvndPNT9LXMVvn98hivbacBsyJnTFj1qWccD+Uzr6DV3C5aQh6KnnzJjMMWGmwaxPjCGS/PlBuO1bMiV82UAGauKr9YLpzzzFRVFSJrqqVYSoqOKX7a6lfOC4KawytAVCjQtKqCiOJvpVVP2if4ZnwBDvFrmyQAKPnMhxD2+/3j4+NuvxOJhIQOVCCe3lwf1zBl7kDKanrSAjMKJZnhl2ZsxOxpg2RTlNAstlsstXPOisoRl8pHaGaG8WrFGNu29U3Th+iqGhFDCKdHTFi8XcfOQic5RBpwlluyCAOqutm8dF1bVVXTtoj4r//6r01z+Mff/96HYAp+OrwJThME0Cihbbv9XqJkR9hJfpmPrWj1JbiIaEr2dVnuHgudk4+H31IoyDnI79WbH3+m46+OxN2TAlUOW7/w9JNOmqbhnXD+P/2gL95SSrIi2lqWTzt0OO6WB4Rz+9ZnbubVnfPNSBRkBKAU85xhpgxsIVr6puLuOIWgB6U5630IqiIFU27atu/7tm1FJMSgCgRoGZ+nmb/HI/yCb/+x7Q/EISCBkAqootJ13W63e3l5adsWAInJ0r9/7B2ThqvDmTAgncmyYlTMTIQxSgghhiCanCr02PtAc4raMtzyy+DegYRITHVdL5ZLi9FPlDq5PBULsipo3/fb7ZbYCWyGj48bJd6gRxT2/GFKoo8dz8IpmPeIsNttm+bw8vLcdY1qTM9MlTYkvamqihKghqAilBMuYrYWwSAXvz6S2bBOuxKdxn+ua6Qp5OUq+fzVTggoQGWVr9lyJ3GO8lVWxSZEEYtoPDFrQUZ6tIjSWb05pZ0AHsfQjPCRoZ3M+fVRWPcZXWUY97mWlfURUJTDeib3zBmfdcogJuQ4/yx/LgkEZY5VLTuZahQJMYYYPZGoBomMqJhkwwGFzkOPIjDCCea6ZhaVRnhYColAUkQ87JvHD09PD/d3NzeOV1b4TkSBAVL8rd1zfF86Pd+/R/sdOcTJLacqoCCo2HXdfr9/fn7u+34wFyFoEu2v393ZtGoVIAAAwGqc+sovFsvKe+ddDLHt2q7tuq5rpSsA08VbD5hp7o+ITLyo6/VqBQCiKlGixND3CgBEMCgTGmPUrovaFQvZ6ZNsug4mDnFeCkcizAGCWLaviEgUEUvYp33fbXe7vm277qAaLcu5GdTGOkTWQwBjJEAgANEUyISDSDyT+C6Gwp0bO16BEb1y10SALiooF8UM86sruuI1YxpoxIRYTK/OQY95oHnLTDRC+1u1+H5CsrHACQ0JT1qqx9Urc3c6qW18jI40U93HkjSO1aOj6cq25eGYnHmuOTmATt/yKK1MKSuk+fYKp4Vxe5RqKn4sJoD1EvsQXAzEbMcV0LKIDxzC8GLIUlXKGVucTF6dJ1RlAkL1npixabqXl+3Th5ev3rxdr9ZFtxOxmmaIkKoyD6P+w7AHAHBnKoxf3jjDZM1mDef9xrvrzBynQgUCEEE1KqB2od/ud4e2CRLNyzN50eQqOhcXSw211+K2ISaV2ecLpqqu60XtnCNmREo1EiRSSAJEhiQ1A53l7RAABAQUCJEYQUBHRiskc2P1iBBCTD55mVjnechqLWnoRcbDFu1DP0SCQwZzi8V7mGQFRLPt5zRQHglTQaSMoNk5DVFDDG3btk1zOBxC34EEyggZQNYh8pKhZnqqAGL2GyUgE10H1QHL4S82ol+lC+hJyOyKWylk//nL2yL7aI74xLHhRz+qMIYW69Qxj0NL+6OAiMQOmWNMGwCGvxKsYdw3Q3xl9QvpPciqp/wAACAASURBVKasp0CtkbqMr3c9NVszFjT+pMyTZhON/ZOGjYDZEX3YU7MlLefR4ntGn6t5sctsQWaOhZC4SNJxszRyDAmamJOVFQVFkMCEpLGPvQs9MjpwAjFIJMN80IBkyfZqEIkhWtq9ZKFIQ9WEVOcznyU3REIgUCYIEZ0jcu7QhMfn7dPT7v7uYeE92mojqaJitvUdTfmcjs4X6mz7BKPDieZO1J2/VvnMm/vVAeWdkjnE651VRSFGEQ1PT08fPnzY7fdZ4AYZHRqAQf1+5dGTP5kIW0ZrUUtSFESVYlSRGIPZHojIMQcALeQ8v67moLDyOtnAXV4QJGXH69quJcRgCYCLT/RozERkO805X0xtxjycczo6G5i9MsaHJ7GZbFOx8AsiK9c+T1He9z1g1x9CjNJ2fYwx0RIFlIFwgoJGRQsylcxnNBEFwpT+mPB09pGJG8FonPOFObleZ7I9XQAxsrA8Le575i4KGUAbyO8YMQOAHNqIc9JUvFqOB/6qp0i+HYGAirrC5m3/pF2BCkpKVPZAynUCGdXTY/kqv83xI18ZzmvNKJOO/l105PHRwyk3T07oKaoAUkxTZoHljWB8H5PzRrQnyyGTaEYbT0HqyqCyM2PyM4FMuScvY+oIJsdFBRSJBBw19rHn0CGjgqIgQjQhy8pWZL0BVDSKqKQU3iOjnohIwpMtFANTkhCipNeZ02QUcT62bdxuD4+PL28f3lQP9+ZEDsgKJhWPhzzoXDDayoUKXLGEOp+HT2sn61Rfx4SGbie1kGtbIr9JdFaJIKoxyC+//PLzL7/stlvLeyUSU40bRUguB1coOvlUjV/IyoeoSoyxbdoh/4sqADjv0ALZQmi7DkYh80lyEQUwoCg7uiAgYYq8UFWREMLhcABVZicqE7qCgJoLjyAB0u3tvSLrVCQ3E3rKW1hQNhrBFJlDyOTwmraRdu14Krqua5qm7/ud7IxjgVoOLVWBlOAy2+Ex055RJaIMLk3bydWcNZGrdggi6gl55XL8szEJmuIq57pOJAwAAEg1QUwvTFX2hiENv5eKg/O51Ukxs9nwVVVympOkDGO5FSDa9siKoPmrSRzdwegOImUZaXRnQDklZP/qhlk/KK88GONGAplO+RIV8ZnQhOsoQ+6DrPLD5D7l5/ThNLW+Kxb5PD03fQ6ACKLjT44LmyoQSOZCqhIloDAIhhj6ENg5IExpFwSQyBK4iUGxisYdRCRGS0EQu67NafMVEZK/LDMzoxICqqBAdEzk2NTBw6FbLvr9rvnw4fndw8vd+oZrJuTBLpVEw/ESnsw+cbVe/qs9W0+1M3aIa57xyZxqvLPNhcAYeIyx6/sPHz5st9uu70feOEWGwnNeABdb3sokCcmxpK3ASAOka+MYSlRQLl2VCWjuZzARJJe+DGZZUdy+74idV1BgJjDXaCM6Qz5wUqDVeo3ERQhOEjpTIcGYxVctH5Q5RNVMOErU90kOgYh931u3lKfPRO98fE3Jz9sW8mMydp4l6BSuMrhoXd64V+Y6VNAT5YKvcA81YBol6xOvP8IuGctBOPpKCzVLUtwYMcuOlcdjTI8dHFvscanWgdAQmTASE1UgeXabSoaqGqE40SkMSkv5OYFlZNArNOm+zgEMZPH4/SFVPTn2+B1PRmomIyuCFfdUVURk57xzABBFCmsr9biMkhKJKoCIioLoWAdQOBu2YlLfDCqyV7fLEU3qVoBkVhiYGc6uS5OC2bAGKqAkIqgSRfoQOIRUJBgAEEhV80Y1HpF4g0qMwVSHEBIiYCNjNj5BIkoggChAlLhsVkwVuq7vurDb7Z+ent8+3FfOOXY5RveTxOsTDedT+IntD+HLlEl/4qUhhKZpu77vuy6aF+ZRO0mYrsKOsySsqjFEpVQy244xGMoSo+2E7D2VNeOk8RoESYM8mbRMErCUHpAD7U1gPPI+GqsLRM4xIBuWDjYL2Rw81istPmMujlNSVHXQgU1zPnJxUVVL45rANGVE0AgqCRcFSFoRmjBur5p+mNtuomRU0vcdrcLIdvLR7fTGvoJDJJr7K587SB6ZDGXU4EhdyG7x00OoqAJjmbh4zyuSFpM0piog5rxgJV9FAYAdV8557wAghMgcR5ZqLaPAJCYPKmQUFYhkRJdgtVo9PDwQUh/6c28qIm3TNm0TQtDiHHjmiDHz6uaGmfu+6/q+D2G5XL59+/bN27egutvtiu5g+zX0/X6/3+13fR9CCBpFURRSQfQxcz2t9ZykbTp8o2keT4WDH91Jp1V71fy+1DIZiMQYQu+Y0yETNbnNIDIpIqEm4CJzPkoFBAARLLiXsinC1mY0snSEQaKEELque35+fnp6Wi3N9jmV9f6o7SyHOF6Ca0CwS81knixqJUmq1GZI8QZRNIpa7GEJP9ChmtplLOGKcSSNxCAkNAuV6QNjxVJHRsW068A0hlIdSBXIHCUIUDL5UDA/UU4lbZMzXXllKGIhQNO0pkwM48PpjxGgVMxlAEbMbDIwYadaONl8tfqub/a7vmmk61ElxfXbfUFR5zaONOuTMU3k2GOUSdNN5lv/rLyaL8vvcgJDVUBFen25075BGcjd8V7NX2la7hPihDEFJhpq0eJ8Vob/7BIbvyqoig7+CJigQoCc7h6JvavM4FT2vP1ExMVi4ZxTgNB1MVimt9RBxJAkHbtKmGjMiC6LAnd3d+v1+uHh3vtqtvhjxCKE8Pj4+Pz8vNvv+q4PIeTyNvPZYMf1YnF7d1svFrbTFPGrd+/u7u5Wy5Up+rYLktsCYt91zy8vz09Pm+12v9/3XRf7vocuakhMM/tOzIvnZMfpY7Bogi1hnm3QovumG8x1CEDAmM0oiDCEotpiiYQ+BOoRkQjE7EB5+VSLO1/eNgoASMweSYgzykREyfiXt0qWLDJyiYii0rZt01ab7e7x6fn+7q6ul0jEDJLlsUHr1KKrZshhWMPryd4nCGpDQ3hVh5gcoWvAhEutyGqFSUy+UBVRMohPARRQACWnbEwgTFLny1r/mlkoBzxdnidfwXaOxBhNrc4d09OGy5HYubqq2bHV5Ykh5JyAkIpSG8AAyZxlWsXAKgDAUCyF3W6rwDOA5Yj4ilqcwkRYtnM77H2zjlCSgydv3XVds9t1zUFCjyqM2Sk1pSxT1Rx1Ngi96XQVc8ioDaXzyiJiRltmzGW2WEWByvOZ38RC1aYQhBjvfH33FUxGk5J1YrumoPcMLo1g/UTNc3Ps2GqZ5/dMI7H6tRJHaGcy2Bh0jRqHScgHm5ggZ7i6v39ze3uPhZrgsBeZWESaptlut13bZqObaIwQI0jU7Fcw3ovIzntvUMnbr79er9cPDw+r1dLUkTLb4wQbMca7Nw+Pj49PT0+bzWZ/2DdNKyGWWS8Zypz3y/Xq/uFhfXtbLWrnfVXXN7c33jlHDFYMGNAKn5hSHUO83W3v37x9enp6en7evrwc9ofm6YMQIigpcNKwMyKLAy4HWWY8Vi+Kx1CG1CTDdGN5ffwb4lCKBSBryINFRBVEJcRAPREpOwVAYAVRTqcXU5AcAQBrciQkRSW1GgK2N5gYcqYge+pwPBLfRFXt+/5wOOwq//zy8vyyWa7Xtsfs9XA4C5rE15zvP7/SK4RuttX15Pb/tQ3nHEIzu5yLcjpfuEzqL7dcDFlHP6GcMsP7VCGKhighatf3//zhp5fNtut7UdDkqkyKUgSMBOuWmdUsDI9GKaagjAlqXkLIFA0gYawGq+dydAl1LbADQBGAki0Cierl4u3bt4j49Pi0eXkWGWDRpEZYcjFEzBlPRxMAqiohKkoMknihakkKhoSgMB4GgBFACTFq5kaSRB1EROdc5T1TORcy3icxxrY5xNCDCqoYfiQaVSVXvAMASbmYjCukKTUzdtbkElHN9aMsNWExFKfXhzyG/CMf16FDngTbRZaTHIlXy6WvKsnSNTAjs/MVDpVVCypPCtr3fdc0EAWjgoiEKLmNt6cW9QrTXHnvAdExV3Xtc3Hyuq7fvHnz1VdfPTw8iGiMoes6i4nt+z6EuNttd7vd4XAQETVLZoix70JQlaQEIUCMvSp89913b7/+6ptvvzUE4ubm9mZ9k81MnLEjJCJ2rKpt0+5228Oh+emnnzabl812E0Lf96FrmrZtRCIhRlXnXL1Y3D/c16sVOXdzd7u6WS8Xy6+//vrt27d1XVk9kiyOqIjGEKJEzTrE6u5udX///sOH7W77/Pzc7g/S9SpiQrHN2P39/fff/+X7//W/Ht69fffVV0axsoJE3jnnvNkgONvMHh+f+KUSInXkV4vV7c1ut61W9Xbz0jZ77QIKFDJPiJMNWgjiRDA1YzWOmGk55vPaZTAVi1SVABSBUtRqJkD5iEfRttUQIjvnvSevSM6cbQkTfSAiQWDCDDlEEQHgPDzTGKjoQCbMsCMkJEcAiogCGiQ2bbvd795/YO/8zd1dVdfIxABW9DLV6Zq5puksfHDW5t/gZAY/C5fQMxWEAI51iGNm8DECvI6ogY6winQbERHBPkjXxefN5p8//Pj0/HJo+ygqCtH4RE5PmWmE6iUOVcT+YboKEc98oug1qpA9pib+QbZRzPcp3Yws2Zc3xydMLhzZBQ8SZTeWg9m+MV4xzZ7cqiAQBUgAdZxFXvJWlvyfJPDLkAEESHXrchU7I1hYpMypWw4hMgIjUKLmqjLwUEzOTJrYOaIW07lVUNSMousgAONIyCl8YfyaiaBoNvGP5iFVAAQr/AuMSM75yq/X68VySYiW+UwIlcj5ir1jdsU0CsZEAbuu3Ty9HHa7BfvQ9X3bRpEYQgjBIg/KhBsKZ3U7qqpaLBar9Xq1XK7Xa4NoAMB7f3N7e3d7u1wuIUt/fdcZnwgxxhCenp+3m83Ly4sBKaHvQ+f6rjP7P4BZqhbL5eqbb7/76ttvvvnLd4oIije3t+v1TVHG7BUQ0JxhVLXt2vVu3zTNm6++enx8fHp6fHx83G63XVW5QxVjQFAQYXaL5WK5vn3z1dt/+d//++b+bn17s1wunXPOuZxxPnMIAIkSY4ghmoTBVbW4ubl5uF/e3T4/P69ub/ebzeFlu9/tNUbnnRGl+4eHh7dvlzc3y/X67s2DYDGq2pidY06endk2s767A8d+sVzv7rbb7c1hv9tuV+vV+1/80wdoZYdBUFEgUnKxHtF0RAVRHHYQAui02tVI65oc/InWlvVnZzHNlLNCKURFUUjFpkGIMGZQGUCZSEnZJZneDAyqwImGK4CqczDTXcY2xdycY+KcgiCfgj6GzXZnoTPf/uUvi+WSmMEpiBZ7eWafmqwhCFR0+eOmeUZmn/4WvkzHg/lVeM41t5XsXKYKItp2/ePT80+//PKy3XZ9iAqStUOkkZKdac7HDgtH53PczHhrDGKw4BVFFRQRHTuzVlnln7quK1+ZHJqWixBM0IjRE9tilS3PKVYXFFLQEOaqO5BcoYg145AI2fFRIIKI9KHv2i6E3pgYWP0JZnYOvTmSgBXiJsSsoo6Ub0SX/iRRLHn2SVIMyJx5U3ZEsgGCJMVBQUWFRr6nmEkdJOVM0eIHj5BkdJMP0klWUACJ0WQPz855v1gs727vVuuV9x6QgFi9Q++5qpyv3r59m5+WnbtEdrvd84fHzdPzm9u7ZnfYbTZt2x6a5rDfhxCKDiN5Xdi5uqpW6/Xd3d33f/nL3f393e3tarWq69oo9WK5rKvKkvsjYoyxN0k+BBFxzJvtdrvdPj8/vzw/f3j/odnvm8Oubdq+6yRlaIDFcvnXv/71+79+/9U333z9/XcKqIjr9e1qtRbIkv1I0THfKte2XNV120qU1c3Nm3fv3jw9PT4+vv/55/1203UdAYAIM9eLer1a393df/f99+v7u/XtzWKxEBEL36S8NuVJIUYL/VJRv6j9clE3K7esV3c3Nw93u6eX/dPL5uVlt90uFktbpvuH++VqVdVVtVjcPTwIQhH5LcpAUi5tjSnmWMjXyxWxr7mqq+Vqt936qq4XFTtSlI1o3DcgSmjaa4S81e31FUkxuwHlIOekCgBYdJmFIs8PddYpM3FHACBi9p6YFVFFQpRUMNpyMWkwYFEUQHsFtWKQAEyEzI6Iy/E5T/3SBE/RCyzOHEn6FBUQFRDR7W6PAP/9f3+4u7tbLmomM5+X5GaFGyRCrwMDPmrH5C+VOfg86oO139OXSYu9OCsXotK07fPzy36/7/swnJ8B4itgleXRuOzV8HHjAZgu9oCYJDkY0bwfjDRKMfEhErFJ/Ml+nNQcEZEcZFe0kiHnzkS3ybs7fU8ASnalSYF96EMfokSJgoSqSsl24E3Zz04lQCMkKN2fkIlKUJ1INEab4oog02z7wKy+5iegqBlvGiYn06CCwBojZE352Yfnphc6YhsKAGBUGwgXy2VV16ub9ZuHh/XNjfcuKggieKfOu7r2vrq9u/W+qiqfbQMoEne73bJeLKvFu/v70PbN/tB2bdM0bdP0ffjw+MF8fEWk73vTAq0Gxrt37/7y/fcP9/er9dp7T7ksYJXZg3OOkERiJWJ5U0SEiKwe32q1Wi2XlffPj0877/a8a5BijmRYrFZ3Dw+3Dw83D/e3Dw+SUKa75WptzjGSwLBYjoCIADMSucr3bUdMvqqdr3xVeeYP7/3jhw+MCBKZyDnPzgFi07bctux9vVg455gdc5p/RDSOJSIkIi5afl9iUkJLTMbOVVVds6+sSALxYrmwV6iqmtM88Gq9FoQ2WL1lVEWJgqJG9QBFBUWESNk7b3oeOybyjh2b1BS4l118Cn2PACIaJGCumzCIGTRiGgg5yjqRYExaF01i7fBEAwAkqqsKmQFRRDCEKIAaISnmCTgiJBHQELquoxzggIjsmJBnBGYmWGbSJZmAlQ1vXraCybdYIfu8dCIbleeX56fnZ+/5Zl3XtXMIIsdlzGDELU46CM8/z5zyuOevb78LhzCCC5k3j5H2WTOalHTIAmUkXvFZ1ZpM5FCZsMTyp2+MZMNgfFFVhRBjc2gAIcSY0yWgZYslROe9qZkWfllePLMWQFRUyxWfPVvNN7a8fN5+dpMoMcud5iiJdmdVIELn2DlHOegfYS5qIQIxOXaOWWJUjahKxVyaCjNlDpxqYQAIYNZGWHnMPTFziBQhgUiADolghBQAFJR2orclVym1eER2vFqv1zc3dw/3D2/erG7WzNyHGBValUPoQwjE3Lad976qqlKXKQT0zq9WK+3Den1DK9D7++K8H0L493//9x9++KHrOgBw2djAzMvl8vb29v7+/vbubrlcUtLz0Xln97e30+xPYqCBiSzO+zrjk8Vvsutaq3yebMKEghARIkGkxFTbGKDvbAJCCDbVRJTugyAIykTeOVXLgC8x9v0q3N6Grtu8vDAiSGHMMJEszQSCQKbJ5jUyPL1ATzFGZvbeRxEXeu8rX/XesClmYirr23Vd27Zd34cQVIWd196SDKQEUxYqgQQkomyEVyi/rRcBXSBoDK3EoDFSH7EL280GBJgBhRDMGG8WfrPy68zPaRCYkpaOAAI4ShmAObx07CSOoIjGRInZLJ3MGkUsqmiwSYCgkoiGvu8QHTtmdva4xGiGSU5koRAHzQRiRpcVRaLpVSYEoESwosjMrcSu7d6/f8+kKrcAS8SKGbOr/HErMtaU4ulAEb9c+204RKGPJ2wZSbhWnb3rkWaHlBXPdKfPxCQGnASBkhhuVuJEkC2XL0rCCE0okBibw8GyClr2WduYhlQ4xxUxEwOAikYorhEFLE3vV1RILKoJZq8eix4nMZsyAJhJEwIIoB0Mc5lgNmObRwAEJVATtHRc91SVkJhSZVSEAn8lyCZxlzSrgwUHAIqTyQyBtZelzCUIySMxTmxWmFw6Zqubjhk6ZuKqrm7v7968ffvtd9/d3d/XywUhBYlBYds0vzw97du2PxV2R4RVXaECK97d3SW3pwRBYYyxadvdYf/DP38w2ZmJVNRkZ2SyNJ+ASI6TlGp6hPnn2JbQstcsUCaACipz5atFvbq56fquaQ6Hw54cl0IIyJQofvbKtDuYFoKI3vthhkSi9FFAAJCYHTpkdZGQQohVU/mqqhY1M5d66rNcL4goagE96Q8lzLOo3HFICKZa+UoB+hBCFULf9ZWlKKv7qi6WsK7vDvv9Yr1qm3bz/LK+uy2pTRDNR4+Ne5aTaIoaEVPfqwCIiAuLxcpUVexCv923TRv6HokogkdSAI5syS2BhsRpkBR0TTht9uAgRJ2mPk06ahpTTheGlg1aiNiAXCZyRJFYwPyvMRMSq9uAEmPf9S01hMgmaJGm/Qtp/SxIakrGTpMgBYEURBFVBCSqKhNR5R3Ry8tLXfm68t6R2XcWi4rsmemoUEaYMBfymlPIqSSWP/vcHOM30yFOaUnJ0pKZ4dTMqXrEI+AMlymXjL4d98KB0kE5+SfHyOSKpGlDsCjKEKJqLLFPohpibLsW+s7sw4ksMDnvvPPeO04mVdIS95/ljDG0JmbLTvgOUB5chAmhTb6zZjEnSYeBUq0lJnYZRjWihGB6kBQVTERIgYkccQ9opz2lOChcKs3VMEwwD6ucTH+YVgXC5Apu5ZIYiYmKDjFM6kkUNWvlBMgmt9eL2/v7r7795ub2drFYEHOIEgGWTROJwocPYVQn3PxtkuUZyTm3uL93zlXOs/kJMRNSlPjV/pum7w5Nu91uDaYWEUWMKoDYxxBVgImcM/cwcoyOybnEwxPpya8RSQk9E3SdElagS9Cost/vXjYbZB74ceYQKelkngvCHERthnoEw9YBk08TMCIqkbiqJiSrIFIvFqv1mhzT4PFsbmwjgjpmF0XWMOd8UFEiEQCMMcU0VlVV9X3XtZXzVVXVdd3XdVfVh7ZJSyTSNO1+t2+b5rDfK6KrU6RFFiwIibJ+kqQQx9654LhTRY0iLkq9YATHiH1sNru26zYvmyiRKQvyrKrKYiwSJEYBVZWkweUXQ5MacTSEcq6sD2XpHrMbnjk/Cth5SZOfC/oyc4yxuHSDqELsu84ROSIQiEQIZQ4BAGKMk3r1ZebHklMasYKFY5v7k0QAEMcMQJVvmsPzy0tdV96RSgRQhJvFcgEpo59gYhKQdfuJ3DZ61PHB+sxM4jfkEKWNXzPZRk3xw77rnx4fP3x4v9/vReJYZjUztenRmkF8VShSm458iY8fm2WfMt/pC0MS0q+QhA1kYmZQPRwOMUqMMg5lNvqybw7UZRd6QLTcEiLa90hUU8XIYIHJSMkbyCAdQ41MEdH0haJkUqTIadOLqIogABMt6kULrSuYVxqs5WtgJlaRrmkRgBGYqXIcY6CUuFVVVULMt6qZqOt937ch9Ao5elS1SEuA6RrI82xIhTeo2znvPTM5R5x4EyfDbjnCZQWODNf5nCc+5KqKnAdmdH6xWi/W63qxAAUHoEhNFCQGwHFyJ2ZGJBUBxYiKpG3XLeoFO79er5nZOlOM6Jyr6sV63eaAFVSJEtvQg+NOYkQgx+SdqqY38Y6cgwLV5JGqKhobDAFBicAjCEIQ2TZNG2MnYoxbAXqRfXvYNfubvttut+v1DQKwUVMgAguiBLGIGUJC8Y6IWCwUOQZR9VW9WOqhbevFsm1bduZkkCCptu/3TfO8ealWy5jLYyRxAFPpdccODKgViRhQlb0ndRgChFD5arVYxi7c3dxCF/qmreuqKRwiSt91h91uv9up6Gq5qJdL770RJgVWpT7EKOqcizHGEFRVBTSqiqKCY4+1OtIGVCXWqxXVdQCw7NiUT6WdX5EYYi8iSICWrsOqUCuqFu0HYpRiix7vMkRUMWgV0xwoalQBQbWSleCIAqIQqWpUlRgM6gRAEDOEqwToWiCEGEJKvBFiOiCQlmqyk2FknIN0chGUJmnNFEyNEgmEjqlr2r5u97vd4wfnCN+9e3d7e991PSSY1wC1Uo7FjDNX0v0TdW0+pf2WHKJoSVPbign1CgDYNM379+8fH5+apgkhzs0TZg8Yvf9EaXhVvQCwLYbMDLks4jCEbCFQSC7PfehBIWdmmYykwAXlrtnIhFbssw8BAdbLlXc+J2mZrK8J48mkYMnXkEyctvsbCIQAiuicq6tKV6vB6wWzXJuwJnTeGy0AUAQBFRAhBInBTBkhRI0pCbn3lXe+rn0IVR/6GINIMCuuhTLlURpWkezzZOqVc977ynvjEIbbDECTmWJ0vmrzZTTqRWxWF2S2BDcK5uWHZpkw/x9fVcvVarVaxU0cScmma+XQwAw0ACEyu6rCjLkv1+ubu9uHt2+brmuaxt5LNUYVRYgq0ZiwGVcdk/E97wCnuYQxySCI6BiVECMroSLEGJc3N/VuR7tdjBEQFSCIbPb75Xa73G6X65Wvqtov7LVTflxAQZ04fZoNithCK00YYu/qelEtFr6p0Rg+JcrTh75p25fN5vbh/yPuTbcryXE0QQCk3UWSR0RlZdf0TE/PC/SZM+//OF3ZldWVWeHh0t3MjAQwPwDQaHeRFMvxZEbKr67MjDQuWD5sPz6Z15ZH4no2DxQsc7GVZKnMvsqGlYnINF7meSKARGnIQ04p5bwsFoJVyT0cDn/961+V8MsPXzoOkcU5hBgZrVxN2LBeamWuM9d5ns7jeJrnaZ6mqqJmNAPAVRYBYCYRZle4zZnJ0Ng4uyH9tS/beVwdcUuDBl0JOegymrniw71tWT3Sg8z3tYJOAIXmyKugbou+J8bHUVk+2uyQ9iknFUCJaLPbSU46yDRN4zheLpe3TJsh/3Q47vf7zWbjewEiPMJJU/vv4/ZHMgcA+IfnZcJQ31NKUuVyuXz95Zfj8TDPswU2x1V/QKu1bjabYRhEgVfZMwHAURtmnnlePM58/5tyAtDItisujhYhokZmeSs3uNlsnrYSNg1Y0oo0ib7FbgMIqCChJBcnKeWcPYLMI/s9OlMXN48QNlQBwLxuTK8GEZEqtZbZuplr5WmaIHwrAxnCfdZ15QAAIABJREFUnPNGNyK1Vvf4r7W4pUcVCBKQsGAiAjNxZ2NXNo1EiOSJchuXbXlyV0t8s21TymnYWMk8aXJXS6SDkDeDYWDb7Xa/3z8/P03zfA92XJoCABEm2mw3yRLYMT89Pz+9vPz4Tz8dz6dpnjyqES0lKlitsVLrsNmkZPmNMOWUcjI3uQ4gAlAQFRISYQLIiQRAALbMX3784Xg4bnbH8XLR4NKXaXw7Hp+Oh+eX591un9MA5qCMHtNoqT+cFnaM1IELA6ty3ux222m72W4oJRNOAJGFa63jNB6Ox+Pp9PzyErOgHC4Nsc287kk1k7q57TKrKnMV55VgmnDoyrZNQUVKKYfD4S//+q9AOJU/bzYbDB1CNJXKpdZxnGottVYTTkophohKLVyL8MQ8i9ZSa2EGwjxkcDLabwliLrVWj34w9txzAggEx2I427rrYpAHO2TipgoBq5tr0j+ZlpwQBUWbHxW4FNQSronWqqhqoamqrVhE09LebfZepN3ON2yAMOUkPBiHNiaRCN9yfv329rR/+tOftqCIhOAMzdaCcGEPn6D/n63d8Nn2D+UQxtVVATElOl+mw/E4TaOIZ6d4NB9rU+hn21zKfr//4csPz19eAPF8Ps1zmS3QCTRRQsRaK1deTqsEFLT0jCkCH41Q67o11Nq8fJIlCzNtVp2kqycCs8yRwCACZBnALJcFJdo/PSGigTiB3wAEJhaGglBwPaWEgogqKwMDCFdhBkDmaq76BrXnlDE7Vk2QNDnI6SIXSyf0IxGhOm5OREPOw7AxLYJSaF4u7NiRuKMMI17vbUo0DBmJFJGFgbxKZs75ab/fPT0ZiVekIrLb7Xa7/XZ7tsK0iDhPBRBVtNZaalEWYfk//+t/fX56fnl53m53BgUws5mFNsOw3W5TzlqKyYsiMk2Tu+tM0w8//LDf7TDm2VQBTAnJMzg5tVVhZmGpRltVCNEcBADUQosb0anMl8v5eDz+/PVrStlAj8PbYR1TghZAYhQ2XGCFuVhOMEKay3w4HA6HA7apNpcNlXmaXl9fN3/bUiJAfHp6+vLyogLjZeRal4IGIkUqc5VgGdA4gQiK1mk6nU8ePhLNyCIzz/P8+vYGf/nLL6+vP/70IyKBQqlQq1bRyjxNs9VWQTHbuGc4B1VQRqiIosqn02maxmEYKBikJajykwM4DINxCFVBIhRFUAJSFMtb8z7CbpCtMwZxqoqqJs2LiJfybWpnGCz8pIMiuRzGOpv+oY1V+ap+QIHNImKhqh2+qmBQcpeMi5kvlwshpIR/+9vf8pCfnp6+fHlOCUXVXdYwILPu8R81vV8y5N6Vn7noPod4X1j745o2QZgoMfPlfB7HKSoy3LznSuE3g8zaRnf70ia6B7o+bDYvX17+r//23/ZPT9++fbtcLm9vb6fTaRxHIvKUO9CE85hpfPCvjyX8sQzKJ8rDkHMO/CzkQ9Wwn1jEtVj8tlnALa4JVCsRM6fKQ3abeR6GRI5ua79bIciWp5EFUQFCS1pDoMpZ3RbhVStUBCmsPmiD4mBnSEg5ZYDqoePakuc4Pww3H8o55ZzswW0isIFpvW/4w6U32ujpYs3tY5qm8+n80z/9ZGqT7QEi8jAOxOPpPI3jPE0pDeDJkDzCEdXAjcrMJTxKmXkax8vlfD6flaVZWTIlVX17exscNNtsNtsyz6t9CQiEgOgQv3h2GHNNsXoBIgKiWvl0PI3jKCzBbE2SlWmajsej70uB/eailh6gbVZVrlxK5RLx2F5C0XNbp5RLmb/+/J+n4wFsak1EQE9XM14ur99ed7tdmct+v9/v9gAwnkeObDa2QyqXyrVtVDBXHhUEIAWpPF8u0ziJm2EXCcTq55DI5XIRBGY2+EeFWFAU2AvssIi27CyBgoJZapDU0goj0Xa7lZQB1BJzSmRQVRVQsZg2AFABRTEKSUisiyvoLXVqktnyggBWTNbSJDq1YBDPPtw8IhE6TwLPQYsSRknQq2zFn7AC2ylwhWT5bnUaGgo6l3I+nf8OfwfQ3W5H9C8//vDSUHfTfn6VUoC34tiD9kkan0U+d+Ef3hqd98BaBIBxnM7nSylVWBE8NDhWDx1n9dupeSy7lAfL3xuArEtnsN1tLT3yP//zPz89P+chX86Xp6en4/F4PB4v43g6nwRBQNGSuK5UfwAI82pI7hoKqI2h7QcjauCREBrZhM3a5nex6xBcvWYNqqCmSqA1UQLQWs1bKIGmkHmiRqh35JAJAFt6zsAVtBapRUpRZq2slaXUahmhE0GihJhzchuL4SxzEXPL06ZS+yubWEXXYXCm7awTb6jembSGzvWNIouaah4GrbXMdTyP33759k9/+tN+97zJG7sgKZrOrlXOh4OIHL69UeQdilAMQoS//q+//Jc//7mMl2HY+PyIjKfj+XA4vb0B12xRwYqIWKb59ds3s0xvKJFC534KgMAqcynFg3AbItGvOIBJayzHt8N0umitCcA2j1Uos2zYLqUoPm+foC72dlNPSqllLlwqqAuMGlNponit5fj2Oo6XJQtXaBIIoCJlHMfTmRSm8+WQkojO42yO0J6rwHKPQZdtTAQVRCqAomUFFBXmeV6lDTcRgJmb8eF8PJqDV07bRIN53phdCdAr5cZWtwUUEUZmAdnk4ccvX+pcLN2LoTHNystcX1/VkH9ErLVkSpVBmNs2eyS5an/Wo4kyIipKS1uskWgRAFCUXFwDAAjrmQKQrnasLlnJQkR7p6GblW8ZSUR8h2eUa3fM0yQA+p/4836/RxDCf3n58kLuchXw6yJTfO+W74DE96b7d7cm6+v6bRUiI8I8l8tlnKe5VvNFpJYLOITVFRP2b1ydWOia3nBHo1p5GFJOOQ+l1sPxcLlc5nl+fn7eP+1//OnHn79+rVId7DbhwcDNVeBZKCORU6/fMM2aHSS7hReZfuCj9/otrkVYElkriaokhKCJUJXHcV9rqsNQB6s4Yv6dqy4XpFnEfP+VPTxHap2nqczzZbxcLpfL6awgiKg5JyIYmDBTSiIMEYvjcJpiDDUYXtvcLoMTuvOgqyMQno5hT+z4gQcErhZPwU3UCohEKkpEojrP5fXb69//42+bYSMhuYzTWKaJ5xmYpdRASWwPmDaTgQgBf/n6dSCSUoZhY/Mkwj///T+/ff16Ph4NzYmkO5ARYa7jL28npa0SsvoMx1KK6DRPcy3S9DNjzk0sdIwUQHQ6n7lWEG0p3NxDgUEuc2UYGQ8VyvbsCkDca+nGbW5LmcULIpsoLQG7aylFLfAKWo5jTESqigo8z5fjEZgtlZ5PuyaE1MxCBBS5kyW8d1SRwCqoO4wWonUsnPpymw8CdoNHUAFlMGcGBCJU8CTMjh65AMWgzMoAgqA5ZwJU8eTz2Dm1CfNcZhauXM3A7EXTm0sZIjT+fE2g9Br9cYRBsSPrxtucSQSv6BKQgW/jEHGwPQcaY7mrRXQqRvxzN0Aag3m0PKHMrIo6jYDw9etXSkgE/89ms9ttMMIAI2JVPocy/cEt31c2/tDcT6BquU3XvEejI2WWr1+//eUv/+vnn3+utRVmcCDOBhRqF2LsQKdkGNJ+k0asFxcNQtFAAMRxml4Pb5QJ3edl8+NPPwKAAp7O52yJlG2vd9qa40SdihlY1PWmEZUI7wRDJgC9WGKbUXNyNA6hzHYuRUGEuWop42U8IpJaRESX1qIB4tcuXgY3qTKzwcoowGWepqnUucyleFisDpuBAGeYEtF2s6VEwlzmWkpl1nZsMIreeLhdHx9hPATdLpHIg+YQrS7vgqT5yy7u/zFv4RsF6JVvVNXo0Ol4PJ1O5/P5dDq5oR6AVcZ5nsZJQV+e9tM0cWVWp11WGRAVCGE8nf86/tu3pyciKrPlUipfv34dp6mUYmrcgMnk5ayYFPUwXuov36poqXkzSPAGaJsplva66nfsM7c2q3nmoESEFyChQqpIzDBNMsNUYPMTbvZ78w/2B6iaUQARttsttC9UK1dm9zbe5My8mcwXCxTUC4mbEia1nt7eyjS9vLzs9k/DZpOIgBJ4Ynd3nAMkENaq5tIWkr4buABURBFSiy6wk4OAiRKY1FE4D9mL3IK2PWLnSy0PKaKAeZ2ZEwaLsCq3OleULHdUHOyw20mi3dNu5jLOIzFBBVZhEbeX2cZHAgc/b47A+lBgHHo3ZLeDApbfqXc+8WEEZwQwRKuTSf0F4T6x7BTu4J94WzZMDbYkE7l85VgYEbCKnvl0fNpvtsNut315ef7zn/80DCkc27FJHXe6v2l4w5setFtCcqflT131Bze9+QDTOB6PR64BgyoCpOAKEAYLw/cUgnj5cmsjZ2DWA5F4uHbqouo0Td++fTOCayC/w74IU5lZBBNhSurZljDkpfWki6e8xig2gJEVwPzc3dlDwaRd0kg9aEdKGkpliJND2hyWZEiJiF6//eK99UVYXYi6y9QtTZPhqAosgZizsoAIqLm5VBWeEUZTp+a5lsK1qrDpMp08tNjJULHpTApARMMwDEMeNnmz2Q5Dzimb+/aVhGURRz2LEzukCgpk8WLzPI/TWOaiAqJ8PBz/7S//5phPcBj7vM3DQOl8PmupCoqiwzA8Pz9ZPAqXyszH11cVqcylFBHJRM+7HQ/D+XxmQcOZDBsxflbnMl9Geak0DGjKUf78GTPKqmkJYkEENbdVBAccuJRKxLVwqTJUAuRGVHxTN2LWyJCHPYqIgobTQe9a5QTNlrvOM4pOlMhKMw8ZUULQU9uKlt/VayxHiXLn6KpcWSoLM2qrkxVHAElEaqlIxLXaWycvpdnJTMEyYi+zqJidRbTzVAaAQEdb2Kflv+JITZFzpkQkxMig4NUbAV2Tu9n/j9YLu8iJwPpcXGvRdXaAVTvFOVjklcyOTqRve28fzSvMTs0Hu8jPs4qI1ffW4/Fkf3l53g85ffnhy363w6hLGPVKvze5/sf6MvlsE+LhcDidTk3tAyAEMjdS7VfS/zPxRs1l3vTQxidUQ+WwTrp/aq3H4zE4hKfosrvmuYgqJqJEzKEZIFDnTYAIoIhkSZEs5Z0poLHcPejkVgqV8OpD5xQLHONgiGWvM7ZkXklE58PB/6px4ppb1Y0kg4j2Lp5OQ8DS27QCiqoKqCrMXAipzDCNY02lhr+jihOL9goxb9iCEjVMqZbYZ/+03+22+/1+sxk2m62Z1pF6Rx1AL6BkxgyT0AXUSweKggBO43g8nUx7qKWgIlfJ5PiU8RQXpShlpP1ma446oDAk+vL8bGK7ZUcyZ/xElE2tAVVVZp7OZ4NQSCEZrqaq4eYCLJbaFomGnNeunx9tYZGkkCBSbJm+EQTCyE64rrFWFkTS0EkQTISAKHneSJYBf5G5oTIz3tImWDLOS63j+SystdaUs+kQ2AahK/XIVVgw25WCgliQBLP7GsTi21YG1Vor0GJjsK7bbvQPiqAQGfTFchMVMb+szgDjmIlZ7DxxC5jdDoBSyqo5ZfMLEBVEtICEBljiyip2b12ch0pTOBomYLu8YTfddN9whGW+sU3IHYxJW9EqU/oRPB66V18ciWhorRMtpxqIAKWU0+kEID/98MOQs4jQP9F+v8dIRgVWyPz7tu/BIUIQX9qVkkiUKtdSijovN0qMqKHE/n7GGeTpcrl43DwCAv79738zDrHd7QtXE9ExQg5Cx3QUPhHlnIWb02BzxPD6DU1ldgYB7itiwqGAApF2DRz/FWMTQaMUANhFMgdhHOkNhnT7ft47RjoNUVAVFtesY2tbenAAsPoJGk467ck+9f3qhfaM7uDhHGIzDLvtdr/fb4bh6elpt9s9PT1ZtRYKdIzANQgHRPytHZUxI+Dr6yv8/e+v376VeW4+YLDeMW5S3mwsCcowDHMp8zwfDofNZvvl5YUAEyXcbAlpmiYASGmDgDazFesiIbb3MiKuICLzPKcp05AzYmUmkbC3fLCpwCE+MUYIstQqb1vBPgnzNE5ItEVIuX9GF3QeD2SuwlXCTchCFh40bLcKyzzPAopEYAkk410tqLGRdBTxpHlz0comw5oGbwoxYiA0kXpSrKpC32u/De3RAhChoLWafy2zVPXkZAtHieR/GEm9PL2YqqZEiTbmgy7MRYuZvVjFENy7dukHjSytATTMLNhbk/wbmYGQhbqpbXP7njrQYuOwtXZzdx8uVizfGqbb+RdkYkSdpunr16/Pz/vNZtjv95FWUpFILMfB923fM3Nf/+tqgUfP1jzWUj+z9jd5HD7bJFJAN3EYIr9NFdGoNGnMqWMPPmgkUtWUEnhVUREWZgaJzUGeyh6avNApPsY3wonH6b+/bigZ4MqQtnloBFNDvbrLIfxi/6+FZfgPRIRwojAyjYhsCXAMDPAMH8GP1g8kRM8rHZISIQ05bzab3XY7DMMwDNvt9smKonSCEjakw8pvmFIFYLS7aZAu6AX4QJH5FeNlqxRhJsBxGud5Pl/O0zxzrYCI8DMp/PDyZTsM4zRZR82BqsmcjdjjArQDIaoBTdOUUiJmZqGoMvDJTaUstRRQU5i8jEH8TSEy24nKPE0ifDoec/hNKYSvzHKHIzWWGCLWC1gqIoisUgf0khcaual1VgEks+20P0ZN9bhVBAVEq1YGEfTIBKvrt9pOKsrAFiByhZv0n51qS0OZhKt76llUaFjQNGzKqgAUC6Vk+gyDquW7TClZtjE7Z2Rh0U7Z8Z0j0A/K0V9sp8ZOMsl13kzsVKH1E8D//mF/ePOhZ0LQHdtuXfxMRxEjJKJa+HQ6v70edvv902Xc76f9ngixpXf7zu0fHFNtVOL1m9W1fZ3CJx3x4ZqEM8enno8dX3cpZ12cEmwXEJp812qQdBIgNJUWPT4uAuIdr/0VCk7IJNrw0EZDYyyrzXT1musTump3z4wD4uZ3RLqAUeS1jKyCOzXzsiIi8ppGZMCMOVMyszC5Z4sOFl+dh5zykPKQ82bYmA3WS3xrJMN0UNq5qnFhlmAKItTSCAokxYRIwVcUFFhFlUHnyzhN0zhNExez3CDi6XRKiknhUC3srBqyZrMpKq0qH6hSxLv6ZAOKKLBM5wvXmsxV4dNGCGtSq1Yx78kbU73xVwKTomsFkSoyXi7tAl5zCGtJxdi8efM6BQuDVs8V2v4JtqeqLGaEaBQKQEUWDqHu7WoQFkayUm0suedChMLLvnu4190gbjoZ23Kbh23UOmxF1m0QggCmGGOIPjFdmCht8sClas6qWkoJ+cwWhz7pSqO2vzXCbxeJaYFM7cIPHvfunxcESjue3XRWDHyrk9qWSTMEAwEQGFQYmOB0Gl/fjl9++PG0vQz5hGg16xTNSeD7tu/CIVZeTKufzFyrlDJfLufL+VwrhHS9OjOul0L3F8VArxY5tbtcu1+vj59jHZZpwGBEMYDVYmsWiMD4BYOaQ5EIA6AIRxy+g8Tdzv/ExpWFMTRJOTSM+0Dn9XTeI2Ea/6iDBGqimcn7luAPEBIlU7eZBVXdPVGJQAAzeIiQ9taIBJQQB6QEuE15QCIFFK1jmfO4pSHtsI7zKIDVbfjm1+QWFM9u6cUt1GkFcOSZqsyn16POTAyIqlW0CNdizAQJgCCAOK6lapmx1oxIpqFXOZfXv09TnUsH3zmoEEC+oHAWJQUSc6IKCNrKwZbCqlbLCD8rovr8qCgyJ3vO7Z2x35HFXGPNHtSv5u1ymtDpaD2or6IVVFfQpuC6BO5EVtHRRquKuxArF9rbzLhMDyAY8dULArTegZbR+Ab2u26ue1iGfAv2CTUI3anJaGFMSiQ0MSstKliqbX815USYE6oQaFaupVgNCUwefv8JpMF5nfnMtyLwqJbgfu38iJEg685zbA7f6elG54YGY4XODQBAZNGvFKuriqCEmBxwBhJGJqhFj4fL159fc9qktElps9ttNgMNA5nW8ZlB/VHte+kQgaEv3AIBVGstl8t4uZyPx8M0zwLprqanLZ/r8mcMpoEABMDL5WG6XjpvdLdBKLh8JiAwcbUrHOSKIVFKKeAhZGaXSzsLsBkAQmv9eBowsJfYJv4rgZV5D6bXcTlcBBKAtbrQyEuoOXbINXwhW247Ui+KTFZFAC3vndtCPOwJrf6M7cJWjyV2ecJkHCIrEMt0OvM0z6dxv38C6A4ELONcB/Y6+Ua1YF5QRRWYyjxOoxS23JoMpQg6Y1FOmSiRYWHWgGVggRa5plq1vJ3PEXQeEh0iEkpw7qy4pMqR8NG0nyIkRCJQu0RMDwTLXkNowvtC+q80CAB3JlUAQ/OQqIuAArAC5VddgCUOiiqi6qK1rXJo0KjuE7aISK6IQVhOO5RD1f3ZwJcAAEDYlqEDPBUbmW7zc681C7jPkttd0dyuxfO8sprxQEVbDdPl6YoqaEnXCVUQqP0FEsJmGAgxJ3PiEGahpQ7bx8SxVSJyzghugVPF+OA/m0x619qjy5R/3EyPaG4KywfLoBPeMeCHOoGm5kqtgsyEAEXleLgg/kI45LTLaYOAmbYwmC3jPfH3D2//YJSp1HK5XH7++efD4SDMj5QoZxL2+bPiHQAsdMvKq1nOOsLFXAxWoKp7fncrIoBlLhVVrtXi9VvWPXEoQ83hqlt4H/Nnx3hvmRfhI4TM+xrKoieHOKTqfriqquowRVSecHPJkitfzbxoJ8TQ6uy5oJpLN5rBlIgypUzJHHi4srCUaT4ejrAME5bXNyYKYM5Y6oqFo9UmU7rwpD4yAWDE4rcKgFr1cFVxwVOVml9lU93cguIzEPPlMP7N5IbSpgAAZBtELUANb47c7d1dHvj4B91j/84iXS/uAsS3L256iIUMo64xjSa7+BULk+uCUHX53gl/gOzuehc/AABAFNH4SbjXAQBdz9h9eTUMIugqYxPIRYUtLR6qqOONvJoXjacKGIRmH1RacXUlxO0wZKLKjKoJSXog/rNangCYM4baB1NTGmvQ4BBXBhhYcwWF6w/vNRfuIqyqsYg1eK3GTnRZTFXgqqbrIOLh7Zhzfnn5st/vd7udAgN8d4zpH8ghzNJQS53n+Zdv30qplRko3c6CdrEqxioQAD+BRGLQRCIa8vD8/DwMQ8rJvDUi5XsIW7i4N/TN0NtpmpitXoWaU0cTiQG606O/iam7U43GLkKrkEOeJTp4QGj7d1vQRwX1sAYbLLg3EVkcnDuNuDsnJIe5xQzUVsP9+empuakDgCXIq6UQ0saSRAFKFcxBZjmOrhucbSCi7qqhbC5Vbqk2GosEFAfD9BcydEeAOSbWQteD7jpdadw9gg1bWvRebvZJab8a3XRvYK/+arNqJNcNCL2coM0dezXRt1MPLqGL3p7gEGRdvVvrwfcbNh7RdlNwhR5fWdTQ4HaAwSSw34rxXpYjIN4UHBfSkKLNjU3bjXdV1fWLx+iWt1LUjvnbu5g1Yv3Si4ztpFSNSQS44HIbZUqULD+59PaQzzVxwSIyILj7c6y3tn+uUTB4oDfcl9Lu9KtcLZe+8wj3V7h+GCi4G7BLSG5DczH07fXw7dvry8uX3W768cfNrxE7/7D2j9QhFNzR8HK5lDKraiJ83wfdKKjq6qg8aiKSE6WU8pC32615ZFrNeghqYr7bGol3+kcGxcFS5lprImKnXWGG/XXqzEfvZe4a5kyaCJEweU7VpkPI4x47DgEQjkOWUoHc1gkImCwUmighkUIypMJznHkJTi+kkzzPR9WakMjCo5r0Hs4tV5MQlN05RMBKLrw6tIRWSNvBFgzy5SFiKzhNFF3LadTByKLGmuGafmH7ATEUdJTNCxyZL38ngKuLwdJTiGBKH5CkcCLuqeTVyrozjZOnbnwPl9JRpNuvVh8aY+h1COhcO6+kdlV1BagFfsvCKhqX7cXa7jW7R91uwlAiAGx6PdTcUnq4dL5+50X7cdzVIlQa2+jeBXFIAyFJX8XrBs2709CzUYEnQfKcVAq47E1RVWUVZanMS6AsmBxx/ch7mYtXs2KiJ5hw4q8RzPdKRxFVWjzTVMMyhIKgKjzPYynzn//858vlstsNoi8Ai9n7u7XvxCEW0USXGTGPuMpyOp3HcWYWGtAzq4fe0ASm+BnnYwmUwParGuuw9YhbmqLHzLUW8+VvfvdiDquVx3kqdeVujLEapVTPBRS5RE0q+8ikqQ16uvO3mxkKvylPUxG5wz1WLAgRANzBTYxi+uR69JuACgWSDRbr78gSJsRkzMgiJ8iHmi1YTDxEuD0LEdGq66QklocQgFWuhmLkoJ1JCOSnCbGq7iezWD61vQE0SdsyOTqyhPEE6AmE+SXHgzSegWtmoe5ZuOB0CBihzrj0G6u1hny6VCn9Ot1bR13/entHBz5e9XKvWQjdg0TTQb5X8m6nQ9juv8/cGhtT7Y0NbRv7LrrZtLf7PKhf91axhmGVaXc2laid5pYMJ8bTGKen49bQ7Hw4hJhyXo/z3eYMH4MvW/5fAUAV0BTag8GL7kOwkAwf5JpJK6hDB/fWudcWTCOHDqJwIc23ffMtwCb4xVA9gZXlLMlDWmQVXa/592r59/T5SV7We6C3G1UtuX8tlU+XaZwrK2QgUVSMILOYZHsMOC6hARV4ckbQFoWAMY+eQk2dFUmp5Xw5z/M8TfNms7F08739dCrzlYTe7LQAYKmNmN/ZITeTs5bjXK5Qj3NeqAQu/3okT9i6IPA0wIXGXdlLogevSmYb2ZV1E7sWpxZHsaxQuynvGZAIGhtIKbuvhfNnRySIUClRSkCkCGyZTdZZgbF7UydBy3w6VWsHXjVSvq03vYJ5xkOA+gLhirkmC+pLdL0JtTMD+zZZfkEfp2V3XpCZ8MSUa+57jw5dM0UnA9A97fHl7a73mv5aOTGos4aFZkV/V1fGhaou3+j9t/xMp03zaJYM62LhvsFuxFfTG6KvE8aZMMx+4TL9SvtDMIgwxA3vjk6BQNnT50AcJVIAJCu9btqEm2eMCYUO4WLF6olGwkzAv7VZAqA7RtpRgpaGA1bgAAAgAElEQVRcwE4uWRYUsML17kyDxsjAgWERUa2ijCqICigsg2U/VIcPqJeTvk/L70DbH7dP7K27S2l7q3Cd5/lvf/t7LaqSQIZakaUBwsEYnPFqd7cnX9UQtnx/+iUhSSIgusmhlQaySkELewAHbh3Y6RQPCww2aIWFuVarxGu0JmEK0u3mgxZfvZqhUB/9MDjk26h60C1b/04CNgXc9uWSm+U6FCSkLhO5l9OOgB31DcKMDrOAl59XsLjbdvoILWOrE3hoQ0ebBlsWVFDuHb/aUBYm8Whn+JsjWrRrCFndVrEZ675rE3a1B/yO9q0RD110Blw0FZ+nJiQCdoKyIoB2Ks/Sx8dno5dpP7zaEfqPjg2CzxN2r6tXr25dC4R1447Aserad5ynS22nRcG93pw0XwVcLHJMp5q1ZVocE7X9QVXFhgVukRDox+cXOglGMslG0ChotxOWna7g9mxfUF0FJd5v6llVKHQDdbZkuyD2tiqQkoIkpFa0DBs8hOsnIg5EQHe5d791sP+97UVEwORFJ8EcOBC8xoGBYP6TVRlQU3JuaCRjGIzLqCMl0e/NSD5rrGnIxPvtu2TdiJ9+kv2IaOV6PB3/93/8BwABDAB5ni02vxEfjA2JDh0Fu1hkM3Qc261sihjGTwiyJiKWew4AChQIfHxZRULQjBSgNgIhqUvX4I75Zj1Dr9foyd4tAJcQPfcOT30hGg3JLuRqizXwsRFheMoGZN7dqdJcxl3Wwutz0XZ7w9dsM6FlewYxONikJ3SgCdyLCS0xKiRwXMtpaTOuWWeIhAkILSeZgalm5XhnI75zfF126yjZCndeIInGAzSkhGvKGic56EhIEhgxaM1LeHHa7QiaxlAVwNXWK+2wMZh3Xuejt+5pu2pjEh+19Uj6jH2rwQcRXq52Qn/TR4dTNvhqJaqHNOHiecNzoOmg3gJbtMm3B3YRFS7gLQdMXcFtb2BKMlpOFteZFWDlo9IxpPXnAMc+5MamLRCYE3knWnlKW5s9RFBEUWLV9fa65hB2eoi033T3WygTvfTjkIACet0HETFncwQI8NoDiBSYCACTq9va5IW+OMmDFnLlx+1zV30/OwSAH0fPUI+YiKa5nM+jBbpa6gcGE+ydN3SmHOz3qhWQig0ZKJMu67HAMqDM1+mueg6PLUjKS0wBAooHYqp5f2JeiabeyMtz9hyilBLmZQQAjXSU7r0eEqRxl0QEOY3zimjYjrGUBAhtZ9weevNdb/Njypd56SBaSongsSazE2ICLy+dkUyNSC33augRN72gEjACIEqQmd+YrR5NmQkqpdd/ghsfNcRwinlXSDfyH8sD3T4J/uCaEqAEjQpi2sAN6ASPNqhPNH3Hg2B1Xffzw0vvdt2Ljx6/ozcy+p2d4hMeXOCjzh+/TifL6KIgL8KQNtb1UFNCAAgxhVri0kei7/XX6AbtD94Bo3I10cKjbXjUuaa7IzgDe8Dhe0901wxs0bq/tmnLnGGUQEBBKwC3wFsRFmVETQmHwcYuCmzO9jkR0iqY5ju0fFvo4pOtYQEfW42iNWVCFETZioACUVSEiSI2cV1Isahq9A6NP3vay9Vo+h5uP0O/pVS1qVgtKswvwf4qd+/JOZsJt98WjUO0gAMrUO6IaesITG+AYEK6fkIUaF46xlAXTOUkIFF9kBq+EzRNYmtcFC3ZAykKEnoqvUwpESYk81bKSMkTvLWxXG99oz1W8EXCau5T9dllf9Ae394LrRH7925r2oRHtqyIzgIWBRPSxqKaDvHRMH7TezwY7CeeeMOlO0ws+ns4/x86YMVx683njV/2fX30mMa7O+YXKo5RUg3IeM3CVvLQsuVu3ujuSBAecp/PNbMRBIwMJGiw9W3qvlWviiigrR7wOx00PnpzGV5dBwFRgIcNCQurVqSMhLEFFcDi8PNvEct+X/u+3q7B+y0Jg+XVySlfLheRBJBcv71R8H5Xj7ffNZQ6Dok6kt90OCVYUBe7oKVubQ8hIMgOOFlOwMPhkIjM58di+1VavI578zQMFOJ4IBF5GGwXxexEL8LxOljm0etoOBraIUcRSsnU4gSIiClRTjmnlI1bIGVcOMRd2URhoaTQkQAAuHOgP9fi3VqMYSg665+rO95/YLB2+9AxW3DBD8Cojb9K2CShsYd7ZPf+jKybWyZhpYi8d/3n9vU19e+F5n4jxOg/1/ciuQCEyLJ6fAtDvnez9p1rlMVyQapXjwS0JUEwKomwko0UAEQQyeroIgh6aaCb2dE7IvN7CkrXhVrVVVz7iKM/1XeDtnRR+P4SGhig7h//ARfVBg11YB14MckH1wOIaK1VtJpNAtZ16pjF8eTHGlTA6r/LuHzV/iHxEKgApdTD2/Ht7Xg4HLhyiMmqj2f/ljYun24wevv7fWWwKRCdDtQzCXR/bgWAUkoppV3W97jdbff7PYInwiullHkehk2kQSUQVrDALmQPJnJpX1oFYUsW6890DgFohoPGxCIV9a11qf/NZs7LXgOk5KwiCG4ii5VOS8rlIJ76nkj6W1nBo+aC6sqM4D3dXvtos6+OfbtK25+CcS52+EUviZsXWe/eqeuvudNVN4yFIrzbHs7wbdc3qpwPBtcXN1r5EUWI6elgKrc4BJMI60yf1iDMDHBLdbR5h4SCoE653RnavKJhCY9YRhLasafaV0U3/96qi/eOcG9BfNQUQEALV1gmzx4Yni8I7H9DtfQfTRq6x8jVCDyoVWp5v+s42dCmN5y/5YoJNbO/wdSqrKBW2oOs/Ot6NkxkfP/d/9j2nSzVrhi68ViFZZrK29vp8HZ8ezuEifCaFjkqoOAekCY2dRBCM6jelfYacbjKymWyglX6WBnrVmKOd9k8Ym+FbFUlpPyc7TIuFQEyOYaDCi0ST0RCunf0tqsbp4mSscVm4DD5wV6rZc9vmMl7Ew3g9nZdPKOMDQJ4yQZcejLe0DLmPG5/6J7U7kMT5byX+0zi7kMWYnlFuvxh7XTFPCyqabOC4LLtdC1Ww8JI1mO699tngdZH03j1vV4/caEJev22d572wWAWGuWaXFOjbzSFCMJepqt1YTPWKh6qHytVk8rds0+b0txInUb5aQE2YV4RkQQB9IogPpDxVtaOx43BqkBfuYcuBFZVTTBXRY5IcGgSw3puvUKteiKRjxjUSoGIZ10HzUUn2s83oIaUSHde/lPtepf8nvY7OESPy7zfFMAiFBSQSFhrlfNp/Pr17Xwea2U1X80GN5hDuDa5BcEgHfsc3auSqaYKICBovwJAeJEa9aGEw7AZhtxssMJSavFoal5Uh9D1rBQPCLr76tWLdL/p09M+ESVKAowAQ8qEOKQ8UNLKtbLUKiw2XFhQJgCIwAiIpNyL/mB14xUAyGLnLOU2NPv84zXpUZrQCoJPuEevlQa1apza8JduVe899/qyR22hwu9dAQBmZl9o1SKoasgUMRa9Ean9QRiyq2N00AsZChKeJ7JYmlQBARKoQq01UdImvIY3QMjDRjqvAZy7Etynpbr7a3d997uGly48EGJ4Vwnt72lDLtDGNEeUDC4rENfKQsjs0QjAGPkrgkCbYNYJ8wtGa6lWVK2mqZJ65XNnyYEmibBQ6LCIiNCU6f51r1a+6S59lzdN1c1/S1j17eyYoCYKook9XYjPkgKYC8AVGimRFDe+xDgbsIC19qu4v9Td9wmR2PE3FwaD8Jkhn1Z676fb7zUPXrffziEeCHwPLl42IqpYOqZaZ65VmAUgOQVdPVmXUx+wUP9IRJTA6BEIgUNXMeKnoGB25t1ut9ttt7ut3VlrPR1P4zgCg0DzLmiUwZAuoDU51huclJA8RYUL/A58Z0qJqFrN+EgEC6AogGByV1S4DojAAxE8IgNNBQAA6pqf6I8w58YhkFbzZfaGJiSaoCSNe4S0po+YxCfFkg/NygiecXY5et6ubdKmAKIRtJunYiyZQxjhI+UUHxV1qfUQSIhHS6kCwna/rbUGvVEgCF0WFjaOV2QI7+77X3EQgka3+25hwytVZv3HpU8frb/+w0AqdagHbfdA26j3TD4OlgXr9lv8n9VhADDqewXhICCQJ8wSVEFVlDCPgbP15azJ6l7Vx1ktVoN0Lesdacn/FMutvZsoaqv44vnAwZwc2sa3kRhy0eT7mK6Vv3KzF6I9d5m3tCgj7dqmvwmABwgqgBijXEaFS7ad36wK/GF84neiTIi3XLL/MwRhj4tqraWUUmoptRS2DylFrOCvK5CBcG8GbV6Nn6eU9vv9Dz98eXl5/umffrILpmn6+eefv/3ybRxHtzEs5EpFBBBQUUiuVuhqR6aUcs45Jbp3yG+EH1DQlYEvntjQIC+B7tn01D1pzWTgcMwHYsX1yQ94HKMXG1o7NQgtuxiQR5LSLTluDJ6u+fTVK/r86+MdGifpMSfBG0UEI71e35c2x3h/OVWhlBA0hDk0F5GF70TQn93IyhZ673KbhswMfrbV7bDLuiMowbWc6898vykohMEWV9NzC19+6oHgEqjpELfz3faJb04TmDpcru0TcMEqqL4hq8HJnMrFU1rX4Ph9J1C3j8yEqFyVxVPlw8qV3xbI5nYZMJGKfEpRjQn7EMXoU7/Ye6LLY3HkUlJAglQhtZ2haFkJxKW5/oGW5L29citG5Rm/QrIF9QT3/ag7AVRtbKogTJHREq3mE+rQG23+0S3/VqjLWoj5D1qnyS57i4WnaZ7GaZ7nUipiLyHqHzYrMa5EaRjyZrt5fnq2b4Y8zDaAEtFti+uBui0IPx6LCNdahpztFdGT4hnE1YwK8dqqrqGGgrna2oGrUWBNLS0ktXAFQPxE+l/s/1tRtzhWbUQWq2EmcSR1/hNht+22CLX7UKIx9nFPML5pvnHu6AZNClsuXA0o+ur2XTt1zIyoqDZvGHHxzSUEb2/snyAexaQaDmhX9EcDPPjVDcE8Kj25fwcFfEZOdFwnqDg4iVZQES/i1usQ/SsigpfVw1beNR4R2lTksXFOGZmB7X4D87jfeYt0s2YQi9VNAailUzWy2elNymosp0980qx07Zv7s+jPaFzivoiqAAqeial913w+MOIwzMmVIQGmRu7tUlVSWNUHVwBQtjTxy4hCBhb/3J+c25FhmyqLkEM32rsnlSnMiGvi8Q9t39uXSQGYZRzH4+n4djjM05Qo9brm73z+Il24XKmV6zyXWuo4jnbNNE+mPQjf0c0/r9lN0/z16y9/+gl22y3XqgCbzZByJvdkXjxo4pCYkdpDnZcHkcdAgCvaPVW/HtxHr3/1XztHfmgwlADDB8TpDAJw25H9vqYwjBiVvY2nu2omcr6nViIa/ENul/wDjoHPs8UzWYZCwFYLpAWyaNiZjIqxsG+AYOiUCBFFhVkxEPP3pVRoZi354DJEU0Gg1yH06t928VUXTnk5iLK2dxFlt55ecfX4RIgZKANmoBSJZaIwecvL6JCGf2/GWFUESOqbOK0UfIu3XOLdHPH33BGWvyApgJDziKaU+LDQpXVo2m1ggjc61fW0eKkQZ1P3rxS3PkHLVqauxgWD9b1ui2GI17KE5qQSAh3EO0LlUoU7RrKgdLogdu7SdcdO4kxZmSO+VSQSIrQXfw89+/7td+oQn5P5DV9UBIBauVSZC18u87fXwzQzYAJFhQR6P+PJ/UeaAIr+3zXME7+qaillHMftbvs///V/2pdDHqZpmqaxcm2WJSu6Q0JCYl8gdenY9Or5CAAicjmff1H98vJlLjOoDpuNZxdHpwioNkBxJUIFPW39CmiwLkyMNwx0EaI7lVO7cLCHLdhNxFYEu9Io+wwgCC0BmUKUgOv8qxZEFhE9AtZeCtdd3azLhxwCEAEHGrbDBpDCiOmvZ34KELSjKT7vv7S9JSUihJUOBwhoXDAosWV7FhYRS8VoOxgBKVECK+KdFEBQ0FLALJhZz0CXAYnKPBeR67j9q3lRd3eWLtizydfXkgrCessZlVYNaoqg6jklkIBuAkhMXVAAy+MLmIEyYmoopYkjYKEhy9ywSqkVQSmgvQSYgBJR7gxbiGhhpCtdr1PFwLQbFQFgp4UBW6ltUYVgGy7OYTe2Rw1BVCtzdRILrofebLhwwlBBkUb9zRHcirfbqBEVkBUVqBU5Cg1f1VhzR0wq8zscwtdNvWxR4+ZtEdvwzKELFQgEVTyvQeRECy3T/vOY+XvJyK+bWzaCDb5/Md6H9K/vyg+u+7ip46UPE1wvPZLXRVSFKjrPtbKOUzmfRxYATCbrGKU3fa1Nj0EWMfCenWtYe5d1tWays5NGBGGe53kax3//3/9uF3x5+ZJSmksxkwOAOZgBAkICrb5r7Qu1LJjdxMVfXBa7XC7CknLKlIZh07KjBjKj5La5ljYbBLrCpbGaiCTAoIRm5VJk4ZSSqOCCL2noAA/bgiwDIGIi1BZ6IwhhXETnGoY2aWVv9zhEA/bvKL49cVrYw43JeX0LwgCbnM2sEeMFbNJUcxO/e/9NM+vR//f//g+nex3NiZeIK1XneR7H8XIZay21VmMVtXKttZTZ5elEiVBYWOu6K7wVinJKL8/PHx5IACDf5cGxOnvVChhazypYLSm0KEwX9zslU/TKsAGgqgEorThE0wXNSQ5NZwJVVWauIqLCzcfOEnyJkgIK0E0y9DvCCgICsrCKVq6iUkUu88Rw7VAEsVvs3RUcX23qxf2GwKLg2hSEGQbuTb5xIFEAsVp3KsqtQM+iVCiiKIjbmW1DNtjSdal2ddOxvI+FQ6wiilSFK197wXWGQHBvDUAVAoGUAClhHMxG/zpCaNnTPnCbc56p10ET92n0I/F+Nez84fF71NANOtiLuXd6WwRwVMTKMlc+X8b/+NvfS+FYYVQFARQkQRQkCTt/BPSaU0GjP9fGOZfrAkOJOGHTHmUax1+4WCl4ERmnEQHdCdWISYjsSLjf760Yp+kQ4zRO42SkxFAL6M6GqgISWz0DSoiYKBk5d7VaBZTRoRxFBFEBgjWaaSMXUBRQAqyVgShhsnqERAlAEw3DMHjFiIWvL6CwP6r9tFpEVnVVBESVGaTLBWZzRSkPw36/bzxAASymLg9DohRJL5cqzEvagYDG++VuqwYARJTIR2GzaoXrzFJty2QokEvTAsMwDMPw9PS02Ww2m405+iLCMOTNZpOz/RxSomEYfKWQttvNy5fn7WaDBCkRUbIRRgFUicGGviTCLFyrZYY3B4p5mkutpRQRVs8Ohsw8TdM4jrVULtWkuvYU9QyL0BnE18fEERRMSAiaEAA9Qxs4smheNJ5vmABQwXKzU+AObFkZmEUNHbOwZSADAVCblWihZZ0CjM0I0RgPudEMYkHs0nmeD6djKQtfNE8kEsUOp2+6JguDp6121BLAiajlWUORjCAslDzffo0kaabjtsNbjSSvbUMuFXeylKgyKsci2EYUD0JebmZQRi2gbEqkY2sMCjaHZh0Wy4YEZORcuo4wnAm1a2z41Q2H0Guevsg9q6/M2cn1J0HQ5K8qQAS9QtKzB1RAJbrNdQ+wnrGQIG/UqnsE+o64d6/9jrxMoZ/ruyHoqKie5B8BiAXnwt9eD4fjWQRs38b2IwXLBhxzsyI3vn+WJ8MCaJjYD6DobmtxjZFekWnikAugltrEhJXs5vR9wShSTrnmmWYPQHYQpDMUmIUZlEUG42gtwVHDwDRS1ERNL2lEvR1s+2ze+zZZrkNQShkAkBIS7Z+fYDGDtzRKD/gzWvqP5MEUvtM6+DYUYwry3ZiEFzCKL22ErcgXAiT0P4Md9bYrcFk4CA6Rew5BlJAypSEPEePtXxNRzsNmsx2G4Wn/tNtt8zDkTCmnnGjYDFb6acjGGNBMPgaIp5S2myFloqi+ZJPTSt3ZuDE2jpF2K/hhPslc2XCneZ6Zq7DXt6qlTPM8GYeoDEFL3JIhXrb8bvY+bQKoKohwKVyrKqvd4hTN3CetJqBziIzkUo6JQ1bMdWFuoiKomkQHUQINtB1YmA0s0sXK2tTKFRkLfHX5DDCQCm1K6s4zKQFagdUmJGuzgoRRx7QQ+wYERMDMHghaWLXUearMbqiwJ1wRKMdzOuIWGdkdrAG3LigjMLr5pYkurfKjzYMgVNAJuKpoalkE7Bx4kktPgiTCnkY93g5cuQAAlTUhVUePtfv1bvtYo+x6I/d1b/c5shQIp0KzPK0sI3Z/b95X/QDl7dstOHnnxt+RCiqsQB9dZImjEZRASRSnuR5Ol7mwKCqgKCiYIwE6K8b3fWjtwW7uVYvJxIiSMy0tPFiaAh5bR0GhT/XatIEVhBJbzcvbh3voIs50zkraiaaqSr3rjDYm4XVwATzMNJa/8bZYnfbebJsGEcWQhZTTy5cvVxwC+i0STV1dReMQRogTIBElh99c16WYqyC7QVstSM90JhudqET8ECJmoqenp+12m1YKzYo92HOyDyAej0SI++3u5fk5DznoOSGaBkZ52Ax52O322+0mpZwSpYyJaNjkYdgY/G3PgpSACIjc1M8VlAEREkGzgvcnqoPg/XsOq4Cxb2HnEJVrmcfzxTzu5nmeppGLKFtFJkRFMYKoWksZrYz5TRNh01SYWVlwGEhVhVU4eIvGf/4Feip8slKAGBYvYzHOIZIIC7FgLTgWZCZTMoLRoArelIbW7nffsywhKvn38zyfz8dSinMXbfYEMXTGb48qnlaBfOETsjomClCFz2W8lKlI1cX85oEPPU5liFDcBxDOFBrKBAAIgoBWVAZgaJXi3T4OEBYdBUEooCUBowITJUqUMhFRciAGgNUYu5qS0dN6BFBTOBpCgw02DoNDt9WDYGG8S1xwuyduGiJQWglxAAooYW53usFca60i1+BVjBdCFXTw5ePQOaU7xH+NWAJAvtffp1pbtneJuU8ghnWAhS+XcRzHtTLwqxsuj0ZsvqG65JTwETolCCbR/W/x8+lFYFddXcaxrLzL+8Y12AzG6iE04oCW1364nZQV82nnQOMh0JRq32oGSVm6Km3iUj+n3cJdmUki5VIfeOPfRlkkIMCENOScKFGibIJ+6i0Ont08Olg6QQQzuvg91FKC4BWHILKq2ymnlHM2JSBT2gzDfrfLKTd9xQw3RJTTYHEmph107Gx16DQCFkAd3AALKkR1toHu1r5ag7bUwUVBPRIfREAwIWYjhZK3my0hZVOkACrVWliZXQcIdyARcdNpNGMevFj/xdQOLrOUosJN/TBHnyB1DiOhAvFKZmdmFSm1ipi1SJQZRKFUmWcUBnHiy8JzrXPtXG46AanblUFc13r5XMrhdCq1tK8CSVtHx8XRt4ADY2Dd0xuXUFYtUqoym5+omnLt9a1WHCsEs9ZLpwJpOB2AgFbQCsrQlh+Aojr0csyAVUoFBgBkRCYs5AXEyNyUmL0y9W04ie0UjOxovlOQTJ5b6Q1+Pvq95c7vd03o616cWrT80G3B1k0BlgJlC4CxzBCgs6WYwk9wiE6F7L+94RANOvjVLUaqH/j5IQCJpyqEWmop8zzPtdZ37/rVDXvpuAn+QXmDbEVMq9rkOCyILfGGAIRzh4tvLIQ0DINIZOxS3yfBCexebXj3+215hGr/j0tMgVbYu9jnlEAUJpoOh4OZ8681nm5RCZFytmpWNkxCSkiJyFwmGhPIRJu8MUOF5THPKSNhjzjdfQUCTCmlyyWllCklSuggnHMIDK3egwopSUoLekseg1VTNQssgiksiRKpgqgiIjPnIW+GgTZpUcCNo6QEOUNOZvy1pfSQADuqXX1fYL5WI3wcAnWhMyYEc61zKVLrPM2nw3G8XOZ5nuZpmqYylTpXMQ7Bi0BfShmnkeuiQ1SuYkXYmR0iV1WROk11nswYzG4PhkYaJYwMIAJVfCJUAcAAHGZ7pLliidMM84DwbQUibErPotN0UP5HRxWq8DRPtXPdNSn7UfVdH14Yf2NefVubE5HpSCxV1ewhCOieVp2bkKglhQVoFMqPsX/2xO5mYGAENttV09dXConT7IFl6OADlziQqGF3ujgW3kyNMnOtYlHlIYYgYIs7XO66vf2u3Hx7nB4pBMsMLA9sGlP7a/e38MY0I1RE2r/X7nAIjO3Ytay/lUM0OfiDTIeKoCpWOg71cDi8vr6+vr5eLuf1dXdQsY8aIlkamXCBsC1j9AKAEgGoEhIkCRio3RvcwiN1fDHMGCUSAcaY82DEzpBLDdUEAFS11iqVNRDUeH6HKD6elyYuaQgIGtqCKBCqiFKt8zwjIqVM03w6nwEJaFUS7mZSMOWMbjgBjHJyiVJCNDUCgkMMKSck15w0rHNB75vUruslNh3C8SvTQdDzUFomj/bHHGHnOaWUMhGlFInHiZx1pYREiRIGT7Gbck4YsFRKaDbqYRg2281m2JhG0oIeck7b7SZlAgLHoADdVWFR1mziXcb1gAiWuZTj8XA+ncdpYq7zPEvlaRxff/l2PB6naSpzGaeRC3NlULUDKGGKKHMZx7FHmSSwDjPkctB9ZVZh5SqLAUMAMEIJzAmXQUSrUEcPQnx3yMfhKZVKUJIwKZtnqwXHSYTIObltOI3qu0fVNe+Qmm3WDLI3Hnt70m0LS6vm2z1nkS/U0zTZN3bUDHnWliqNbN46JRrcq6fTTg2xRSYUQiVXPxHRTWIh/QAAAWbADJig7XnImFJKiO6+0YxVcO+wns+n12+vr29vZZ4rG3kSoARXXDYyCOg1sVVdE2C8cWZA1zaW8+XDb2wxxoaIHyyfGg8L+v4BdwCbzGvaoTGsruX36fu7PYQO8f64VUFJRCszKJ8vl/PlMo1jKYXMBru+AwE/fD07DY2edvYcXzAES+2plAgTAqIBAq6i+2HG7ic0bdtcmEQAQTERYdpstkPOZhYwWdPGoKplnudpLmWKjJXNYnGrvq2WrX20lwBQBT/6duQMlkXfHIBoZvyo19tEJ7xWJtHyACZqB5XAowWaAtFSxSaz76saxYKQ0SnyIsC99TUlwYmZckMAACAASURBVAhx9ssd3rNaQ00OIUK3ghBRSohorgSkQKpe9s44lx3kxiRyMi5o/JgIU6JhcJs3ND3KUCzzXsquh/SWapHFQ8E5sNt6fTdIBEbUWk30LqUY46+luIowjsY2uHLoG+7OxCy11mmaruIhYvIXF1Xy/SGgKswsgW0EafEQNlsIEXQBU9ucx7axkAoR0AIyW5Wy2GIZYCDa5s1AXXCjR+yuYabrDQpNtLL4HREGQFMdOFjtivw0c936aahu30LERDQMKRFhC70KlElxMQKaFAywPvxN8lvWG4GQCJUIc/OlSDml8DKPfaGQATeYEqCLKlYTxThEAJjmmeJPXqshl8v5y5cvz9++vb2+HQ5vc2WzEl3PXOMDa3UAb+nvFa0zPxVDDTQZ64QGkd90dE3ofmcL7n3z/fU3+UPF8532vkjiopraiZBpKufz9PXbL8fTUfrqMZ3K1uPNy5ivE7eF9G37GFgtJ6KrpJbvRRFgt9+nnKpUQhyGDSLOZT4eDuZF0jiE78zFgzUUBDC/KMp52O33RuMAwOU/5lKrskpWrpXd+RfjPwhR1TvxpXeTGDacyS5wRDuMn66nB5tH9ILsHCVw7WZ78iMP6WV1NEwykUWy7UJ6oLe9j2GuJKNFKwuvhJsh9U/DYA9JlaK0OxEhJCCThMlTn1OcvHePhNEhJDRLeJd05/69K2jvfgtG4u7z3KTa9jBh7Tx5FCAcJJpds42hYxwYTkcPG5n/I5HS+0tAMd+JDERdXc2q3Am1ndUNm0ZxpVr5deGEqipKfqCQMK2uUQNnmtprf3VxHt3TAeLLPAx5nbTVEu+DC/y+XimnvNlg995E5MWhw88h3NDJxSD02JWU0na3Nbe9pkMgeIVd01xNhDCUyaiEBNAHnd7TBrm97IbtdrvfPz0/777tj8fj5TKKWEbxe2uzZgn3GMQ9lE4EkgdMefI1MrgFO2DDL1Wru7E87k4P1vdHR8Z+fAq0+R12iNgt7/xdVE2fLLXO8zyX8kgs/S1dR5USdbkEQEHA00OaHETg9RVCNkKihMShbzTJ4fFULSONTZ8IIwinMpd5tngI6KSwqzsfvoIbCttZazY+WXWrAu4EjHB39t5fiXDeBViND1s61Ks3NOrzySXC7oNN/W1mjv6LhiH4MWVVEETVYqzFjIdsxZc+ITEhuFJkCgSsMmJe2+u0zV4oFh82Xb8iAKhC8ztdYkQgCJmjdA8CVj9xJuEzFTvscevok37MIUEYC20OY50bxWovrJoxOwpHZ/R8jVHgao1ALp3EOkBHalNKu/1+yEt2H/Q0xtB8HOxnynnYDOAJ230MYOnqOzQpNDLHH6nXeRtGg+CqKi6OheC7GgHM+wMsss+/hxWHUICUcxrydr97+eHL08vz29vb8XB8e3s7n86LV8LCV64l20+7nHZOIE3Mxau1cUPposU9ogMAnQXiA/Ed8KP4OwAAyPIJ4+rDTu7Yru5coyqe0LUW+L0cwhUIV37dWUQIEBW6YNMl8wxauJp4uouglQAQS/I+g7gaqqo5KroR0pcNw2uIlts+/Yq6+BwqwBW2YwRKQVFgybpqW7kTBj/RS8iMscVaf8s1K+bx2eEvd6sb7qknW1ePcjzZ3ZwZDFIBl47ioHhYIt4cvHd6BwTFK9itw2bWrdHIu09qpvuGQqzv1Wamdk/86CxWC+SzBOJ3t3svcTVgRLQ4RLPZ9LjKg0cGGe4k64g8Ia/ZTit14e4t9td/+S//kjsOYRAs9ozLLEnD0HMIMG0mjpSoztNkZhvTO4xbGG/QkEY1LDcGTqC7ABiq104r2aGRhqx2wH8bp4CmnF82m812m4fh+eXleDwOwwCqp/NZXChUXNKW9O0u4757nWggCj7sLuMOdjYSXXbauznStSFRD3dgbP5PjfC3W6rhA0LfuDGaQY+Zz+fz+Xw+nc5yz3n813QM7vXjsS9g+RHV5jRkRGYGUM8nxOgHO4KZXRt9N+mIbSmutZRSoS6ivhWVY1bVFjrW5Jhf+zaIK+uX/aqe7QPMjL54oQVDC1n4EyQ01gnjFFtNi0Q0uE04A4A7vHvXnRyuWkstpfTChOk5qtqYIyXyXA52yBuNuOEQBJBEs6q5aYYs7qdKIao6PBZyV7Nn+iKoh5+s3zwuWf0edz0+QmphbcrAsBAsZxtO2hIFKt89RwEa3mIb4qNch0uPnTtpOBA/JuJLg5Qw55Ry9sTCXaU2bIueKFFyRaBTEWyELbgHrkqSIBhCg+u2TEL/pvGEXp8w5nR7KNQTBoamgn5we5OGKZHhV+yFttx+JNIFwSGiBRVCsAm17cC1mpdwmQuH2QnA87o3DmED8nlt05tou93u9nsA2G63hJhTUvZbzuezpcMBcpHktwm9n7/J2FxXgWIhBavmhOI9qt5U4c/szd+b2/UdMNdGIQLCUOYyTtPr2+H17fD29jbNszr9XdQ6Xd35qJm+BeGh7T8JIoAuDm3CJCIurgLabeZXvnIECuRYgzhevYSZLk1ANgbT2Lp9gwCWMI4Qkwmy/ozIGHLNz3tuEC4mQRyaxwKtKzKiuzg81i7vzr/f7HuCEIdhyEMehs2Q8zYPT/v9ZrPZ7XbPz89DzgbVgANQ0R1oLbXUsvTbYGhRjZhqQ/yqsP3UXixaj4sUkkJSQREMSbznEL/2rJnMbvERi/Cu7bT03O5TDhZ3W0RrpzD0PzxejcK6heUTza5sfsYmIN8oA/31Jm4CogWdYEo5Ep6vLnRkiCLUfyHiFB86jCWMec1D3yX1YCLQ8B+MHwH9N2jERxF8BK6i7lUD6+s2lIoCsEb2jLhSVERZlECViDQcDVRkNikzhDbjEEuQfHVLkYpwZUusUquFoahEJEvDdm+lhTTkp+fnLy8vwzAgUU75+TmbFIWE+DNeLhdWNxZcGXV+vf79cWsCITQI6y62bDrETVjD+hLTu0A+UU3g93KId9WdcNhWnStfxun17e317XA8nVlAwVxaINRBtMQULZjz8VO12xcauuXqMGFYohAJFc3DyBUIO1eLVbGxqEgOcv0KUiuLTh49F3lYvBsABHesyIQJlUASkokwAIIREqkgapkCfLwCq3cI0EfBX+Xe8n+SqqH3GL8iIuJms9lut9vtdr/fP+2fdtvtZhj++//934ecd7vdD1++bDYbj5sjTECEqa3uoq/E/xcO7eG0Ymq85X3jLq4HbtQIs1QjaM8hODhEf/kHe6FrYlk8W7pQAFC4i9IvIN6vZBG4ICLvBYsAgF3TJPrPsoguqNGeAO+wCGjZQ+VGZsT+o1FyG3pTzZrpq7fHuHKsTT8XO1YOfSzBCe3mFk7dTqHRHTMDqCiq8DiO3Dt6+Y3qzsZczZeMY/O0bR+nw93UzVuMmS+XyzhN4kk8pDkKNxcOAD9z0pKiRAyjx2iEv7CxJFwdl1jEIT89Px9fXp6fn3NKu/0+5wyAP/z4g63+L798O1/GUq0U9q+HDq6XajVD2q3L8qVnGr2X62O9UdpadN/01zbk4WMA6Xdk3Xh3VoKQGG6BleV8GQ/H8+F0mitrZ9vR8I5zimswYgeqKLb3i61jx97rtekKaQlBRm2vN+QyOFaLEnBGEQcGxH+7q0Z4WgTx6s7BkrBpD4SQCBA9iTmCuaib+4Gaq7IuanTw+aUv7cZvuWZ1MSi60KAI1+gc3tnby3O08xnb73b7/e7p6en5+fnl5eX56Xm73f4f//VfckobT1qeNsOQPfF/ZDBvYmZngdQQxZtMB01WJ0LCxZFx4XzLjo9qNoJewC2oArqg8Bv2pOsQETYHHuS6cIs2z81Q/WtUfIh5CEAl9LJgN5290fAoXEITo+dGulZgjD0rHIM8eUSTXR4dMbuamUWq5WnyezsKuxo5JfPEa+/f0h5FpgyI+1W15VwK2ofLT1tIy4xrVFolQvu8u0XBAIR//+u/8z0o2wV8i0cXqVznWjkwpRiY2IVgeoaCiMzzNM9No20vJCbPNwVOmOdp9tx86sFxEcS+OGJFAXmfqLCoYKqZReZ5Pp/Pu+32aZ6f9vv/n703XW4kSdIEVc0d4B2MyKOqq0pWZF5hRWbf/zX6x+6M9Mx0V1dlRpAECeJwN9X9oYeZuRsABwhGRGanViUDcLjb5WZ6fKqmNmvbJoSbm+u+72KvZFDBSYx0qAKgv9zkdLR3rgCG14WaFM9YGIjPdTyxByYOWzrVgzoSIrQnyj6pqTIorGsABA/VFYShYcBIvNlso2Q3TfCDSgszdbNssODr22aDJb8T3lPIBbB1j8ZmgUHPR1M9CuS4Dgk6tcNctNW7+shMTBjlQGwAZjnaGoH9SBVEEK4YkC1fo0U7AXEKuSLfJsumZZdqnA2rtFAjnbx9PDFRO2mYkixTaNvm8vLy08cPNzc3IiFubm5vbm4uLi6aNmAIBNRTnImgCyhRpwyg+5VEooa05qukMiUEcTbKvFVNjdSu95sDcEOMmlrU8HosEsXoq5zgM2esBNrmD2K+OtjXxnESolIvK3vMM8juuFO8O8z2YnJe5oKePYDWg573uvoi8XbbR5JsgCoiKmYHA2AvPFRMGrETpA7l8va1/HWoyVp3aL1ev76uDkZCEsVffv0sZ/1mrdExSZcQttvterNxJMiUfDoiqE48GRL6AECRREKkxqTMFZa5wNmQTHOz/hrbtElE69VKGDEw31xfNU0gioCyOgCYcI9H63CjIZ/zDgizSaykRphdDKqfmjJswkKkGycrOcNUTtK6hN50glDtSWfvyIAhIAMgMaBu89z2kUxhBAjMrNs/s73sh5durq5kwtuXfm4Oyz7ogZk86PT++lxFdKtHSkAGtPQ/yNwgN8ANUIOBKWV1NXPBlCOXcLZHVXUYtxjeILO1wUQQsGlbxDCfz6+vr29vb//2t79eXV/NZ3Ojtmlxu924wyOEsGoNaELLiGSIigDqO2cLIkr2xEZtiGykbfZmjxNwZNZcvsBBZOtI5+CpIVXJ5NTJl0kILD0btn6OdUPUyNAYYWn7yszNLkgWlV8EHxxEorjZSFqafbGCDNB32223EYSGTOuuVt7HnmJMuL83XXNhGyBjkkJNQ08CMyiQeL1erVarqnGQU+z75XK53Q4lRNFQZgaIRH3sI1G0LK2sWuCJL8pjzVwW5aKpQLNxaAPIMPR9r+x5s5Hr8/kMUTLThFY26YVgydiL/JWTl3H9NsM5/DBdN10tBx1ikNPGLO9aCu+AMJLsp0/2008Q2kG2Li0cJjQhEBtshJGYVTXVZIYJF0IcvMpa8anrqEbW6HZObgm5mQgQKUOP8TihWpbvfEeFRDoPjQNCgxCAKRcPmQ0EwCDBVGihpmzX3y4ZtLV6gmYIeHl5eX9/f3d3d3t7++nTRzlfARFD0zBTjH2HEDAIjAaMDcreEXScyINUgmWardaJAFCzISRgtAlNfhqoDwVaAJimCMRdG/gOUbAkP2ZDYDpkTT9nw6Mc6s0mhPJZT8y6p8zE8cCcNswWlaOBOmCnZcQYl8tlOkR9d/Vdv91uN0SR3IaoMXQi2mw3Xdd580xCcAolE41dk5/nyExVQtB6vZ4iIRIGlfuljJm5QcpqYjMENQVsMGlCAul9tQ+uDKrO8YqBbiIiEz15JQAAxJtrtr17kkmmaYJ5WXLgY7JVUdWyjUlJsIOi2GbpyID4t4SLoQs9xsKEeNN0bydG400mZI5q/KDpSAjL5evTYvHw8KXv+3RiyQltNiQ0YBC0xxCZFFIAOjMIwTJXJzmhyu4ImAN4274QlpxeFsZhGO6ZaZLBp/gZXMznn3749PPPP9/e3F5eXrazliWRlIC/fS/5JPq+d3aQbUmo7OmVbEutRFVa5LtTFerRFuUJFkz/EVSp8H+OIKXQhOur68vLy/0dZ/FUA3PmqU4SggvtzpX3CZbqgXtKCcFsgVSSuc+TuyatmQsVZ1eNCQixO33jhUNJrKdqEnN0CbELFBpT6eONZBYIxdh13Wa76bbdxKL2k5ihw4tmLWF5KwP0FLuoG1qZa1kujqGKS0Z/2LcFCkxfk4EW358cVyXStAntrJ3N5cSS2WxbYGhvJgQJK2iCiSINOE4BdK62mYJdxsyJ5lyCeNM2P1SogjK9UWIQuPsBGICJ+p6enxcPX74sFgvxHMudb5yAkotCXqZK0oCZipi0ablgRls6+zDDpQABdhnpB8lwAtCCAKCuzL0vuXbUNE1om5vb2w93H+5u7y4vL0MTtttONEZJQLTZbDabzWq16vpeNCZps+ndlWweMkUl24FHDGc/q/YHYRiuisnQAg2sQcQgWT7zUnCwFyggzubzWdvul42yf16UAjINK9RQJod5KuplSRIzszV4oV6vKeIxEidwG9z7PoBSpkgI80sVEoKtBP/G6lvWUAhA0DDloeDeWZMXqFCMz1szLyaUMqEedzjn5SU9vlQyjGdMEuAHKgZIJnpCHRjMvh128NCoZWMVEEMT2pmkl3xrOOiIkg6VJ5oyo8EhiyzcwYGN3E1Y2BA4yt82iZi42r23+CbceFOvUYzUdf3j49PDw8NyuWQmsCOXJfqdlZ3qDLUFfKgWw4scSjTQyf5mzQEtGoCZdAXlFSQs+ATizOeFBt/zWVCMktQNsLtUtNTms7a9vr25v7+/vb2dz+cMvF5vJHW07H3bbDbrzXq72a5Wq67vmCV3uRy1ZaVlFclcBFljZKbbuHqEfK9c3vDsLt2Naxgr7lycabYjwO7TvEBdOjKbPJYpSYiiL+YAKI3IMRHRdrvNz+Os1MvscL45dgHsVIyQYE3MwK29EsLusRhSvdPd+Q4maHGaW5xAQ9x5qp0JKfRA5qqfBWLM6C08ACCzh1Qopp0omVowHgqNZ0zI7WnNcC8Ppq+Q2Q7ZhADQpcOKWmM+9ZLKl7AvEzOWjDJDL95ODoewguWZ8a0CwqcVuoN69LpK8yyFtx5HjHUJMZ2qtQZ5ycBAkZbL1fJ1s3pdLV+WfRepV8cxaBI62y9gmjiDnXqeW0n22YNsiIExMJPmY/IN1SWgPzjZQ+4TJsZJkNgrnvKiEeRgGt0Oh8AMhOpyaBps20AxetZ+0yWTUWErudCTEDyEC4ueu76lHBjHe1xSwC4zIraz9ub25u7+w4e725ub6/msjTFy7J8Xi812u16tBUPo+77rtpIrMOlZmV9wMMV8nlYPU/PbFB+tDpt/Qo+zKu63hWbDkhVTCFx7JF8UFl6WHvVBQZ9YUlRhZublOTqdN3vv3lTbwSNKnhcYZMfbQEtGAEabrjvIImKHLVS9F3UOFHiqSKjoXybydhXlyXHjsRI0neUdNjVYQ9I5jzwsTKPB/eDcQ1pzqqBiN4gZHLuXV80DLcY0K1t/OsrWPhPMqgQUy9b/PVlCoEwyC9vXFsh2767ribKc3tWH86/erZHFsONFHRhdxHB+CYGIrsjFSOvVevny+vryul5tYhejHHxo2gpgkhDCREldF8gm1J1ryVRONgYab1StyoywgrPUWs12fltCwO2X/SOWtwMVYCZ1dzEgC2TIFG2PsJ4TwDtciKImSHF1fSpN7NIdld0kV0i3N4dZO7u+vr67vbm9ub6+vGiaEPsu9v3r68vrav36utpsNl3Xx74XnLcoUOIL8paYPolmeqXcGzUraQp78tx69ZtzAVHTNXfWkAFWvqTEOiySAyeYKW/+UOQAwJQgDsnbD8iheJ7jWQ/IOsR+KGduk7gVomSxGtjSsGd4ywZNMpGF6aWQjaKi/P3nJl3xXk5FzzHVkpiCXRxb4ugLwaEJd3m6hs5+6NNAh3uLtSXeO31/rrSKhGDxER6h/mvbh24WZqilj5oyvbEmIXDSOvcW5e0ADWFnAIiR+j52fbfttovFYrPZuCXOoqcMNX4tBqboJj4SKQAeMI2xTAY2p/SwgrHQNza/u3t2T/6z9tbgYAnOAWB2n+85CSuN8kPzDOzCgLPZ7Or66ub25uJyLof6rTfr9Xqz2Wz6ro+9HHdf45PjNqdVhvklRN3VN2rk4V7bhpQdyKhzjdrFfRXszmOfJcLOjZGCO0JFnzgcWjXATwYFfreE2achN4HhQFSEJ4xnTp0stnvCjV5dOSErDx+PgE2/H3MC4CzrFHiC1UxATjfapreAiIiQ5dD7MHL4ZUQCwphsY+LCbH0zMXNbcWztgYYrlE02FHvO7Xlx4sXttntdvcZejtYCtGzzzMxAzMGn0ZBFF7y8orUghsFUzd8WogmMYjIraxq/Vx5rz9XuuumaPUrMIOfNBkDU42WqBbwTsXFxRGzbZtbOZm0LzF23Xa1Wr8vldrvpttttt91stxRjFos0haenuxxErgnf0le2nyZqu+elpLRO6PU0XxKzzd7MI/qdSwhwZXlklo5HpiI8J3uyPe5zPxtFRI/92zt9sBoGdQ5KBUpOKdGTNfmsnD2Ctm+NRzj4+YiZiWLfCy6nQUpptCsoQhJW6sCoNGwHlnIYZcI2lId7HEdFDlCzIWx5YAgA2PdxvVq9Ll/7PjIrYrvLdcJO1gP7/3D2iIdNjRB7bcOxY//zvsSQgE5tzNdlEJrxDAFQTn9r5/M5Buz6frlcPj8/L56ft9uuj7HveyayEZOWHmgqilGuyfzOvjJ/84RmqPrgML+VhU1lwN+KEiuaYOtPjKcXoI65NNx2AZkTFJFpTNw8wMl6UJ+PRe7ZabvNOGz3PUjiFEBOxWTq+2693qxWr3d3l5AgaQX6UI4BKmZLVXoPD0qBg8LBqGZDTCfUoxW1FWqE6YnyTBwj9V3f9XG92fQxMmLABkNDjJraTsUy8gASBd7ViYTYY7FjTl/tAAUC0NgmB2EMqju91zuoiCjInNTVVeSXHe3Rx44l66HGsQAiouRZAoBuu11vNuvNZrvd6gnMdviJaL5VAGE86u5ZPrp5/yXpNzFOXIL1p9EUg3Hs/9/ZIBj7RgYL2j4gHGZxE3dju8CxXTpOfnqFnoxRiv1pFuYRxKKHKRNlJo4xbjbb1Wo1mzWzWXP/4e7m5jq4RmKnXOvjPibTmsXmyC1oJEjeuKcajelKy1gCeBADExNBjLGP1Pdxve0iA2AITSN5+hgQQTzV6AIugd5sggMAbPfWQFaaF8M8ETvnOmawmbBEN2AKbB1y8XP0SOgZZ6yRo2Tgw47g7vJidtOR1buABFRIFPHi8uLi4gIRIpGcuhz7uN12pCdRo8xABImjrBY6vvBbYHt/0HRKilM55Sb7ICeG2E/i5u7yKZ2sbp2PSpzUyCk3ueKjtgQqVIuWbTdoEposUASFGaVw5LOonAzMjMQMFBEb8W9ut9vlchkCxK6bNe3V1XUIjeZlAD/fWzlHiumpwCljG6I2jDwUEm0N64EJ/ZVB8jpMEc6GarvdLF+WD1++/Ou//qvyXQwMASQFE6PvDbfNtJILT8LtQYI3hcVqMIoLTTMi3EmYGoFFB03q60CaMekdPJMSwGCnBgTbS8uWE1lvSABalj7W7Ay9BTQ5vtk7kCs44I9k3dP8sGwjf3l58fNPP91cXbdNA8BARH3PkThGIEkEYg1OkGYxA3bCIzVBUvNhTeMvk8XNVA10OjKT4lEOKIHTWJvceU7x6REt74c1WYSMTJvBBJhWxHSlYVKJrsHlYbG7Kpn4Uqbd6ZgVWtpKRLbDTjORkEkIBrDctDkqfjRlsC0zAwEhMWb7RhG6rnt+fn56evrph09t2yI29x/v57PZmIPtddFUx2HHxZJ/1qNdD3e4docp+lr3Zts9Pj59/vzl8+cvfR8xzCA0kieaNTA8oKbiCcYGyNNkS5EMCraBiRKP/hLeCKjIW5WR+EjXhy0Djq1LJ2kDtlEeEeQ8PSlTzIhM1zBcyQSG1U4AKOZXikkqy0/oVU6s+e5kMTBRaJrZbO5b8MVkT+aSfkbZJTAK7jwy+HzYxunc5TiaWOgRry29jf0PTe/OeTv+dZwQSTGR72Jrnz845610cmOmPoiKMGlmC5cHVooqloPp7VlVThcQtYskzFEPX0Ki2HXYd92vv35BCJLj/tOnT22rW6N8hWeoyHR5MCDngempM2wZT/HxpgCLWn95cRlCs9l0AAihxdAS6LYQ3TGHkjsnlFlTvW124+4VY28RNTcTp7hma9ORTuMTBQTobmoMbMmUxbLbN3s0YX1mXoyjDCc3ISBQBixmi3xYMpowULdcGD9yOk30ZfN7Ksh/0Neh6ebdseV+TVL/ZUDZzJROnA96pjdkoFOu8kdLvFhNbngCmeqIANDoCYVIxACRmJfLFcIDgGQHbT5++jCb2Xm9pefmeF2vaMUIZareBJM1rEzbN00cAYCIuq7fbDavr69d14fQkOv6RTXDMm0zBifrz4FCuZyO1tGNF+iW8shkfqc5fC5C0Nzy49DY91PJd7WkqPr0ciYWcOgswd8Unf1Fnd0Lel7aA2e8oVB8h80FE6oFUZOSCMiNCUeqEFFybIBa+uzn18FRm9oONced5IJxWc5GijEuFou+74l4Pp9fXV9cXX3o43YMNNWScBzVhOJbRUI4cn5okhpIAsgGu6t2SLRar1ar1/V6s9msZ7PZuu8G4mFn2xQdrXvBMDFO2XyRCQmFEss6vu+V9lUow0933ZEJCHzb0p/6LEPdTfobpXcREd/xyGTO3bMR+/HJX7njDHrCrB3n7Wc7YXaooBOq+9NyJO9OQnM8IYK1Qg4q17jivu+7ru+23XK5BICPH++Z/jSfz/tVliI+Awfe8GqG0u4ciQlZ43fME8FE9PL88ssvv/7yy6/L5QoAmYTto0BpcvIbwJCf55QJiQT9YLZJWhRwj47LcPavSgiAGvaLJr+PbgVWN39Pq93lqYlHiR+QRFXFreNaMGlKf9CJlLkVYfd8dj3TYIrdfFCn++lxdb9JysImsjEs5+uxhvWUNYXiglD5kIRDyHIZJgoB7fgKO1vjPBKCNRG1MjOXUBr7Stx3UTKoPT8v/+M//n5zcz2bE4WKWQAAIABJREFUt5eXc7X/5YhL15IHw6g9HdRYacXgJgRoK4NoZtREWa4xrhaYgwCr9frLly+//PPXp6dF7CWuUpodLPxJkvYPTmXSNhbBPHsNOPRFZ07rWvsqj40KnboUh64clYki8RCyTe9Hre6R+6Pa7erFHFlDSLLUjWMPwtDZPoiG+kM8vIVMwh5E10Z7RB1WrLxSt6W/KmU7Xr8N1WZ8oR1W79lbYgkojNQjKbA4Wwwc6Ua/R7YrN43f52dp60EdZyHmxKAdDGHjxBKQCABdFx8fn//Pv/99fnHx3/7b/wW6BRkg85pUh2GoCWbcIl0ajW877qFGA1ouAbsI5Vc/6Sh4qI5mIQ5B4jZXq816tQUOFCNiIx5qfSQzIFhwKhsZZoQQNLzH4qJC0UPTkbP3rYx74ssapwPjYi5OeRoBJNo3MISACAElMxMGYKQs6wYxC55YKUr5BFtqV/fqyE8DeT5otk9qTGtbB8LnmR7ngOZ940iFF5sYA5i3Tps6ZRB2Ds4xgvGb2C+IAVCijlGVi6PaXN8hLLymAuilwrEIYEu3DRaqBOtheI8TqAZUxC+IN2/y7ihx7563OeMF+MYZMl4wla+IabeD4krJXw3qFIWA2LazxvT6SHIMn6bbmdg92L2+mEllj8ZvamsAgBlizzHytosAiCFut/S0eP3ysPjLX+nuww1AtGJZeHM+kgJvYG1Ahk2vNW2MMnH2N79aLiRmyekLGqtpXQE9W7GP9Pq62qy3fWSijHmNKsvEAwDk+achaftpR7QK1kr3TJwMLk2dXyd5m2zc9cQDoBNSU8iEKEUyekLiaoXDRqOfWDsaZ3d8BQwBRSCQSESb/MmmetMG+98w+eo6/kkVrsFV0tHbN3cdM6YJLMK4uMFL1HgWz7LzVcim/zHL4LxNq60b4arlTW+txwJddO2am8EFBObKmNsZGELbNPKN2Y5dOvfb0fB4TlUbLoNEIDZE39Fm269eN4+Pz4+Pi4vLi4vLGbpOj7qfLB8n+TxOAVgbzKEQbQfvOdkP5fWBFc0q3gMAUjDBBwDMfYxd13Vdt15vNpsu9gKf4RRYtaJF/EZIXicxN2luvTeMPIz8CKaDyHFAYqf5vG+axgK4XTHz9ukS+f24jo8gtPiUIx8Dg4McnzZx4b9DZovrBkrd3sgp/8uuwgOU9v1UG/dEMln0DVGmOpXW1jnKg4QgIZj7Ae0M4WBnK6VbLf9G0yAExChE8eTsnMl82dGtpEkQMaFtzgMA6Lq42WzX681i8fz5y8P9/Yf5fIYhYMpNYcjEoMCTpk9bc0MMS7cqcuUe7SA54SvIek4wyBnIkkm0j5GIEBHZoL3fI/9RbEGD4GRPLJ5rQh8iV4hUkxUPWsIoEDCEJjRNExtqiJxLacv1HgzgicC+f/rWLtxcYWKAWdu4Hqo3OFuzoeagJ9GZnu7aeuX4PF1TSZVN3rnfJ6ENyAD2yPx+55uXmHBVUK+DobDmIDb5n35CDIhNEwCYeur72He9HUI+uWkmGJLBCW6Hmo6R0j+ZOzxCjFFnDgMBbbfb1Sq8vLS//vLLhw83TYu3t7e6TdY5j/zJ13MeIVpqiHtafGIsk4g+O4vBcmIwAgBFPQm563vZTcLnjBf+TskwRCJAgxGP6vKJGqIMbUgiiZnlnHqGIMxHUSbE0DSNiGxD/VAzttpUZR67aL5H+vasMn+5zE3TpqUOmN+gNgQDySmpSJaSOHmLKqAuInCWTGCHaj8CYc7QsXe4c0JZBqPXvKlVelOv3TZIvqMU2gpuYaAtYwx64GgIweJc+0jxKF9RrjtgJh1SG/RDyJQPZoZITJrqTa5yjPT6+oqBP3++uvtwe3k5v7q6Cs0cgQCDocc6xwyAgjyNgsHThweqHc+8abxKbLDAABwYSI6EC8C87eK2i5stbbvYR0kl8SaFOkGxHmRV/vbNmZojhkwMjacaYycoU71m1/PuWJJtyF/ufspULFNFrGidhSnAuwmBuWkajasjDf8ahnvv72Re95shqYrj6FDdjoKe96XvcIiOcVtnLRmDV9USEUJylRkl1zRZxhnOecWu9uh/mS+44pbIm/F2Mit/ymoVkCy1TpfA8WCdEEv8RN31PS7xuDrKQVO4G/XYYpcPIgM8EZPbhBhCaJsmhMB2mSL1faT4ts3UVkMuIfy0IpdNLGfsUOxjjBawSbEHYlry7OHx7uP9/Q+fPmy6u9lF286QCTj6Uc7AvshEfy+dvHzgED9m3pW5b7w2xhctfpJVlRW8IxL0EWLkruc+SouSrcOZLzqpUNPfeeW+fTICJ8/YE3V4eXaHz1EHxq9mX+zQpLzlMhDBvhxcqIZRZPZw3gpXUjS+GwMiNU2jgGagcvv6uDeDisa9fpN0FlfW3jFPhXN5DQOWwvVoqr3uA31xv04BUtiFJKfdhpDFaQ4qxICacEdRpux9DdrCAYgDMAcykYiITON3c15PNmb/33NTcVvepJMjj2wsRyUcCCY9ofM++LokfAeEHBIkzSj4NMqx40EPVkHBCiIZrj6dkt3g3w1gktPkfLOeHK4j6j8x9X3cxp5ceDMhcKTYPL88PC0+Pzx9+PjD1fVt4BBE08zBAEXvirN4J7I7RKzYEFWqaQeJ4aEaMwCAbXOxWcfVa9d3kYmIgfRMTrQOsuIhQJ76O5kJIPtJs8WjJVseDgAAIFPMtW0ybjWnysTunUxuQEg+V4Dg1kNWbOWT9lrcOSRiuXEJUeNgRZSDcXfXS5VrMSfkwTUR9LQCFMRSFqzDYuxKrTYbMtVSC5GeGng6e5pitAAYPJ0/YOOKpfqs0auTWeY0w2n8UPqoFwJiSBHQ3lxvBxuPT+0Oo04Na/GQxwAo74jT9R0tOgM5/9orJNzUCCEbDl3Sp64lU3MHEetYsaQN2zlQUXoDg+uke7fTwshOfpAVRCkXtC0i0/QpUqQo8AibrjAasdr5vGr8yoK0atGDSXS+o6d4Q8SAgkv2FLsYwU7nBCJABuJfP3+ezWeX1zf39z9c39z99MOngMyRDKEEtxRGBw1NImZuayYEjqNaEPbaIzKcDMz4slz9+vnhy8PTZtsTo/PJA61TFp8a4RcLnloRU2fY4/PG51EZWaVtBvkkZKn8wmYFojVkd1tqKjtm/+U/m0KrZrIvNLRZCADMAlrioMTKeNZUwx1HTU8bS9R4i4N3j8ZUBQEWKtFR7sITKRtiMyEQEbAJDRHp5oBkSxdLiBPWmoTwYFC5/CixA/JBwsjHPTydIe/r5UEzwm5gHMy9HQtxahNVOJWg0Mgyr13cTapylldcTZXlYTJgyOXBVlB2A2g2JpajVuCoeZebnUkg+LUAJjUQk9hQvYdNpQZAP2ho222/PC0u/v6f17d32LTA8OPHD7PQQkCgqHoGIIDtSNghNfdQW3urPHpPsOPta/ZpCA0EpMjE8PD4/Ovnx+eX165Xp+j5YePvjzQ22ncZnKJdDzCX8ZAhMI22BWZSQXVYtpmHzu4zHcm/4XS+Wl39ob48pkoI0Tn2DxN7fnOf2cjAeiD6uZnjQcpH0o0zWQAsjUM78sTbbH8BbLgxBNvf4xqQD6XeHEIYHDGlx8MMpLkLpLN10Nj9Hn0wM6SAZQvhXovsiLVQ5UW8++vRZK8kceVsI/KwE6bhJ2IAVr+xm+lHNghTqaAj7iLItbd0kzsvyaNFrRPMQBBWm+7L4+I//vOfoZkBIBL/+PHucj4HjDH2wAyy+1gRHFGvvDFW3G56W14mww1RcgMxySGXse+7rovxnDmt/qCz065VPdBt3f4d8ae3t+DQDVyip98zZaii+CAcXcrvATXHC2GTFYH2uG9aYd8+Vx2Mc45N5jg5J529wPcmY+CixIfMfUwxEpHupeYjZ6aLm5MaJag6mNkuEgIxbLfb5+eXh4eHm+vr68uLm4v55SzMmtuLWQMATJElQqLWTe3s3nrPkbkviUCOkZbL5Waz2Wy2mYQYtmFsJbomxONLU5rwm2AiX4syBQcPz8m9ZoDDImIAnwXTAzBAvlp7fhMCMpDg09/xdgCJLU4HXY1lg9xmAgIKRuyroQ6eqGw2H9RQpz7/qBx6v5ya9Q3oq8wC7ZtjUCYjiNn2rqUdRVNmZmYxnNwiLGEGlV7MtF6vXl5enp+fX25vFzeLq1lokMOHu9msjb00FZkDAuHx8MY5JIT1n5mZ6eHh4fV1tdlsmQA0Vd/AvTCEN3D4MxTe65I4LaeyDW/qwe+FsmHL0M6TFRc1aN2Xl6u9x4KwOYltTvtBAwSA73qbdzGqil2kHu1oOSI2KKEWejMCQBgmmzFsyrBjxJqn8fQXWyNJulyHmPIr6FPrW9C3XOgekML2UlDO7oJiQCp7IGGnTM1ALCic5n4DSDwPWjo7fUqqQgzMvFi83N2+PN++PN9cX81bkWgfPty2TUvATIwoEG1MWPQ0aut3Tno8KUEMQEzMvF6vV6vVZrPVQAywo5EZEH07jLVRE1RzWSKr/jW0C1y6EAAgB/CAAXMCMgxBwQk4m96IUOaHmvrgAJU113OuICLs9fKfTDwGhEDGjsjZSh5vUvyTNXpwYfc39U3v4w5TYdnEIPffJFM5jZ+4qLFwQxjAemZBMl6pdiVz6+ia9aU77UUn0eB/Bmh7bljsLefsHLO+H8Inj7PCt2gIJ1NFmdx7c/U2zDhtXaN2JKeokgjdNDTxL69v6jC4V9raJ6o1qlhWDcPCVc1zwMgMkhibq6IHcLvtFovnh+ur66uLi3nTtmE+bxn57va2QYQQWOJGfS/OZCHRVu6bFGieTSMW702/3qz/7d/+13q92W47xBBCoziTTXhMz4IucSSAkNReWTqsY5TVxt4stDaKKMGUAQ2Rx5N2MteoJlKbgF45TO9sgzmZSLKieIdW8RZicUhDVilq9LRYwaaYaDbKQmjpXKw1aRhWMHLf7W/VtBGXaFsuRWcepzsoLUldmeWD+SGj+x54S27pmg8RDKh256Iuh+QLzDqQPqb1aTkIzBhDyLKBQ/Z2+BCEUeXmb6RqmRaE7cxNWdt7i4g9HTzwvutGFxRrdTzlrOxswZoJblnXWHebAmIIyIzESRUuaxrUi2YxaKmSFBp8AoHNJ5YdDwgcZLYxIgSLiBtWI+r24mmBwMA9Qry5vcK23Xb9ZttdXszEqcIEGNC2gSPIHoRDdB6UiZn7vn96fPz73/++eFqsVivhkrp11+3lHU9nPxGYkCi5s/AKstoQoIHvkFLGo29SexZC60ZwLXr1GHZqb04lMqkhsUPgTe89cxIAuyre8/t3CjwpqSlfIKyOHeVzZN+6+E6JAXa//6/ZiveivGeFJ4+ZmHvZTk0EpUZQDkgtDnxXdWqXZVUNpQAxRFA5Mei5TCBkhq6Pi8UzAjUB7u5ubm6uf/z0abPdtG3TtrLtDMGhULNWDtLZJMRqtfrnP3/5/OXzy8tL13VECIUhcwBOKD+rflnUkFAm+Sl8h2urjjx/xdo9pUe6Wo9SPjZYNC/TMdjafZOD/yw8eO8d+u/3S5l7xrFkcAQGMyVbzSaW7aMMMMlC/V3Qe3TTdOcTnsz2sgyjWRMcgb5yDFNDRIwx9l3f9z1FOrZyMxwyG6IqDypEAFTjeBa9ILONoev6xeK5beD29ubm5vru7i4E7PoOm7nIIGI53+SIpp9HQoQQ5vP5xcX88uKy6zpNMX08Yc4Sxr3g6sc/qEIZRv9OcrRiLPEBY7Gk0X4Krhb6G3rVmGELmEOAAACaMAuZkWMkEFtYt8Bz/Vyi75mSeZqQsh2TAs73EnPf08llZs4jMNGuTmLLeWOHCTlOK6BQt+422+1ms+ljLwpMnJYAPKvBNsKF4MjS24gTJMbY93G5XH3+/OXHHz79+OmH2Y8/9D21Ldmm2aOzc54sIRxIRQBk4r7rt5tuu+3U6gEkczdz9kRWAJp7PRGWxe+sObvlu+EfCdj8VqRh2pRB9ENoNBuwHWM3sAx2cO3dbdiRb2BUDUgQaxUoHrbg+3nJB2hHpirTQsHOEmwaJKbMbfg9TeSjiXd8Li9OYUsHx2AATBxP7iRGzYakZ3ja5Wx1IAKwSA3T+5li7Puu7/oY4yR37aHWqIsNoMCsWFmoHhfHQc9mRi6HMn3IhUS37Z8XL59/ffjTT883V9eztt1u+9ksBARgwmkL1GmqhDAvm3hqlDk7O4hdfH15XS5fl8tXib+1hEsF4soWAGgplurJHKbYEFDywG+ugckUYgY/4JzSUbbHQJIp8efwx1xVqD7t1fmeT1WBJBcYYGY37w9EqZQvENaExYl8ED3R5TYCs8/hwzk8E3wrWlH18MK0srIy0YY3/2sTA1B1N/lLRIFR3RQWW//uJ06dlZwbCOJuMZTVMRPf62F6p80dtoXH4T/IYZ50xly29uTkZ0TJNsvqAQCOMXZd38c+Rk/HfXSbc4wpAAfgAIjAegQFBgQMoQFsSQ4V4UDcMEbQtG+pGP2gmS0AkQBCjPDysnr48vTLL5/v7z5cXV4iAmLTNhgQmCyLHUya4RUJkeP9o+ucfko1IBH3fYx97GXozHQwIeFR7a40qQUCXEgJrhoG6c0yAGRROUmg6q/y5qtg1N736FEmpQk2ntdVbSjBl8BMkYgoxphnpdw39VXUSqmUjdAwE7LxdD4IHYmYkKaFlHbGLWrEPGi1JonHr16jTotJUXFFTHVCMKjDu7j8tv3T05ynO0zPCnNLMyu/z+Km2JgjZLflELNf0QHXNUD6JAFDYCY5udaygosU9ihuGXSkfPm8uxgZV1AMmOkXYDIxZWfCkeTV75NPkJ/YRGSTOgdCvexIrIFD2YAlk+3iBdYXjukGvVf+EpFrgEy0R2HyaMZitTBLrkM09Uw2i0lVASAANiG07Wx+MZ9dXMic0WMhWT3NBuMi5N3yyCzbid939OuvXz59/PjDx4/XVxehuW4CNBggAAP5uUxTVLKRhDAVfiAdMxvCgmWk2RAIqO9jt+23277r+j4SARCjAR6aBJuL9e8+9ZILY4VHJBu8EA3snTSAzW/L72J/YwepNr1HHMzvsV8wTSNkgEiJJtgQ2mhE2zvspXrG0KwtFqI0apiU5a+F2ZLFZp6xXJLpqIaasDFdqmi3fR5Gow4eZsYJIXQasCpHUE0U4nvLQ1cPJuqqY6pLl8pVfwugsUqMgEzomfbAZ3YWnqJZv3VzeCCkoKudA/rhMC6JKdkbLjDQJ8uELr6Bpohpi9RlS0QG+cwqiIdq4A6a+PYttthewYGbU1MdSAITC5peVT0q/lotrsg3U2ue1YEM5/Redtn0UKwXyVCXxearrBXlzc+wm83a6+vr+XwOIBv0KBKl5zBlNh7wB5UbcoIQ43K5+sc/frmYzdoG/4J/gttLgGY+bwJrzsKJLsPT/RDMEPsYYwTA9ev68eHp8eHp4eGJuSGCKFIPU1AjDwYyfc8vp4jxxILzR+yvL8WKHvvVyfmAbNMw8TAp3DgVAqbUyLcdFZmyVr1BFX1HmdBsiMHJJHgIjEwKIZcvqai3omxySm09lTDPW1DVX+s/7CztqNrLWsprOxJOiszPWDpxCEgMQfVQ/Un4SkDwHemqEhEgB2aSoCbLAlfr4bvbC2cgpL2cJvNMHTR8D/U30/2OWVlqJdji0hei/6kMSPgtIkIIEBCagCFgo+c1oCuIeVT5mwjFJc4BOQA0AdvQtKEBQDSUKRISAfFovwVXeYXYVswAAcLj4zPCvyNG5viXv/4Zby+aMMMmTDUfAOAtsUzMHCPHyLGn9Wq9Wr6+vr6uXlez+TWz7wJJYzElzKXw9GU9GLtPv8+189aGJSy0yrHklkksmK28txAa+67EYQPIkWrjh6aESqBtGQUwEF4F7ahritZ9Z+9bTwIhVSFJDvvBwBAwJJedhKugaa2ctE5mcP3pt0w8QZVngKE9XKHaxp3RLWq4AeKBs4UqjxokY3ZEYeYlMIDlTpEcoZHjR0FsjsyTmhkHpyYrQ0DJlRQQRSYFsWzUrhBYwhWV8Th7pYJIy0JBwdZCg0ywXK7+9//+dzFgmr/9HPBqdnOVtfxwI0+XEIgBMVKkzWazWDz/5z/+8csvvzBApMj6Ht/Cn2qC4r8wYSgGxEFSeLsic7Bqg2TPWRNm4KEp/lUNYgoH+sqkckyFhEAozMxAJKnIAgVAICCIEJqgwACDnwElaGCpjeb0bfv3nROW/Pn45xGTBeFwEgJYGoLgZ89hCHrWG3rGpJTZlZPX8kTsDz1KChzMwvpRrFPLY2YiRoAIGAD7ANtNt1i8PD4+3X+4vpzPgE3FnOYceut+CFZMw+K74YyM5ABnqL2SwZv6PS61AzPxHbvsitIb37Bpcsl2yD/kxH5KEX9fYgLBorVZUSZg5sDBhIQA2xSII0PTGH7NAOYmsr/fVb++LeHumQDOXsBcAadVIX9q5ZsNI8KhaeQ/P30L1VlNUaIUQV+gOkA5TeN9VeddResph3RwkB3pxbrMODmisoKUzyWPmHxhRAIGJiDdftO0s66Py9fXh8fF/cfbm9vre8GBBfqrC4ni4pskhAwT5WoPHrNnaicdYgd1gHgXnPvtHRVnpGyTbv2Gd9JAMZ+S7m3zP9l9h4syrL4Md64t2iJNwLCeb8tZve9qG2g4EoolIUe9Klxgequte2UtEsrwW9hYfYYlfQTtQGxQA5PeqJ7sNkEUcwK3Hzzptydctdhkc1UXjjr3je6t3/tiN6JBSo52yW4yJJBUTARAwGSdZ+0Ep+4kjy6CZC4yltxH6iIsX9dPi+fHp8XH+w/mKaTM/hk3Ml1sa/rg4TBfeYiYYox93z8/P78ul13XoZ+P91YQvDAFigYhom20Kxq/r7opk0qjSPbeUtkQ5nAB5KzTpD8yBNCzXyaMB0M6nRNLCR9QkwuOsUgBLtRZcPyoD8PJBg0q/WGjX0eFTWtAESOPFlSfr11UsDIAU+bcEBahsXFZceenCnQ+Dt5SrqHThhgQEVlinREJEAMRB/OVSjoZIn1l1vYg50QCU1awElrIQOHSfy/ieichc0cbJgPgE90k+eT3MJzEHj+bDfvAmLBQIo1/edsbd2Zi0ygvDmUDhJxlyIAcGglTjER6tieBGI9pl5IEQ1kY4LB36BIgGQ+uIHHyogMiQyAOxBa0zhG4Q96ipJZFAJJg33x7n1AEQkn5hyCnUXay3a7vvywW83+2s/n84vr2hx8+zWaNRV+mMclWZJI6p2T/9h8pkoiHX3759fHpqeu6mqvxBCrfPhezVm0stOu7m5wh91M0Nc7HZdc9O0aLvUZXDtBaLaupwturJZmuYndnndjr7XMf6Ek6Vq7JD6MdfVAYpnOAvZWluBEYOljyCmTdUQTAgCFDMlVD+Apq7XAoqzJYAyXZjHcWncDePkFEQtTwShPnw8mmCfzl/O5va1aMardW+zcAH315D8cDB6Mjd5N82e325YHNeZ5xqqjI2UVGO2zOA9gJ/P2lxWYm446GmcNBHdApAL1YVQi6kTowoKGQhBCRe0ngrYgWoSVqKRkLM3qsCwNix9AwQKTFcsn/iIDYzC+wbX/88YeAZCYIZG1Q1TuTEG+gGPuu654eHz9//nWxWPRdn3M0PgfetJtchTl4m+Juh28s9oB/K/JBO2X0RjomhhAA1Id6MjkUe0bCMMUj981fx1QSxg9EGAIxI5MsdtHUArjCxgBATMAWA/Ptp9w3pkIimDUhf0qLlMyODbzf1n8DZfECxBykRTJX3T89mJW2S1mPXyh5/oj2LiI1NQCAJAyao+fzZ7JNDLIL2fZXj/mEzzNmpNj1QEyRGZYR//HP+4+fbu/uLq+vrq7nIXBoAiIw5fvDpXClN0mIrutfXpYPDw+LxfNmsyEmwObrLeqpDP2gZeC3fVc0sCFOJMcojnDulXWKnpMhC379Dc2rHYWCAytJPBCIRHQA/fseyOyCQGIFmERFDIgk+5hQeZxFNClcBmx7LHajSAniGVl4vwPCnDmCBc+N78pMmVNqMZx/RLDLJPE7iJiBI5EcrpzbwYqpv82szdpRvGF28SDVoW9WNOiinBGFRGWODF3fExMDB+CX5fLh8fHy6vLy+vLP7Y/zedO0ARW/ln6w7R1UeqOnmolijDHGnmJk3W4IrEHLX+GAkT9oH/miYz6CwxZvTSxh1EjAs/GjWjjJQPdCQ6LPBid8BbKBtgUHKOIhUAAkloS2JrCZmTEA6kOKXOyA2I19DIfi3CZIdc2+9/jnZoRg8hWoybfN2+aSw67OyuBgQnpSZ2td5sIiF/1I96JO2LpxAuWuCm/EGwOgdfcsR2IC6pn6p8enu9vbp8enT58+tDMJ55Wd8VgNCqlKiIkuMUXaCTEy9AyESJLSFZmAAAIiqbtHgz2G9Yx7pBhYmfL1yHSE709oXke0L45Lqh3K6suS05ht5GXPseKXZtsct/e6ykBMZRVpgJkG2zSNukkhz8FR6RFA7s04Dv3wMt/lRSEihzR7VJKEaRvOvs7MyaSb+58V0UUMgJaWUz2ZlLZ7sS82D5BRTZkH5QuV729y76abkGM3S3oed941pQm1nWVmVCUHHuyQUukRPdD4cDrA5CA01EqiSW0rdUD5H8KuQ7E0limEniKzpkly3R0ttmKnPe1O6b3dgR3L0nQGNgPVwzTks61ytjULAGVguGoixMSReo49PS1e7p6fbxfP221/dXVhp6b32Ywr5l47apmqPpnDcjhTTZdEBiRABozC5iRQIyCru12ChQmsrDIrHuyc31iuCBmA8ln1WJYDXY3LqldRI4a9vuCsIt04jIgA6SBoTq/P8DwQ16V9NjkBEExCsOPT9aq9/Vj8k7eHdYZgypioEhYR27aRuG4MGAjJtKdiXHz7nXdxMNH2jUbRqGNUq2HpQxhLr+lwqwcOWbM6cboopn6tcdMbM6mFtRuwfLf+i7sMJSRcm2LnzrAHK+a7rvLEZYN1ZyxuWMnUrhx8h18GAAAgAElEQVSRFLGid/tbTrgMwtieOVyqK/6JISNqLqGiIruhNGfBlsxUPzW6tYAWLKCOhSAyIqRQ1mGBLl28eYKaWJoUwBACRwpZ2j9URjSUChbENIa5wGOa0ve8EZbeTZskjIczpxYAcBKvaLqJ61NkYCYzE/VPzy93i5e7Dy99T8wBoZEVZnosaqCWUTtWGfJIExkUQ/xRoWJGRFytN6vN5vF58fC0eHldEYgHHhiIpCZkYIKAYpeN2fdYU0jJ9/JGMPBwuEUcFGKfQQ+lKYgsKdohYpN+e+4xW8GOgLZ1qzYvMDBHTfxIZLE3kJz25plUzQSR0aIYh0MzYHkoGRm5aCEmaZ0UtDwbASI0RqEPiGTmD2JIoZVoNlHbzKQoVjCdAYCs8X4K+FCrsKkP4jOYuHKrKlvlkso9cU6mSA3R39wtWE3DwAde6AQ6LCTES1MsWA9rESKbqG5XpJeLrhsY+8uFRLoJvJKccOp2itNO9MqaIcLJlUMwVpbeo3O6wcPC1ThJQlYBw6Y+86ioVHPWPdbtV3ZKQqERVhVEFzhoJjQgylY4DCGExnZNq2GeWyUqRmxvxGazWTwvVquVZF2zwrUvqBq9VwSmN+RftZfWR+8vW2KogUgEkHAmYibC0KjRwCZuNCMHeiy4IRtpnQA4oIAMABSfX17+3//xP//zH//Ydtv/57//34B/urq6ZAlqTaqssQbGo/wQ7O3vY1yt14uXl89fHj4/PKw3W0aM4n5HJGASp5ykV1cNaxqnHs8xk8/5wAkWWfhfywcluynbu5+iDU5jbcPbkgai2o2ucpMMutUFzURhf2n26urVqpDAwbXqQtfStKcWb4EAjLYz1Ldt7nheupKPRt5B1KXA1ghbdUm9EgpNcX44kc27ch/s8IXuJNPjfBHnV7AM4K4XcIyeO6AJDdTQ/DJJLSIAE0I6sMx0HZXmmV6TthGY8b6LeEcnJ3ZwqoRw7qZPmdSTuGTBaLKq82JrVaT5LYoihBA4uxvThErP72mrmbcAg57vXEhFmaa5B9ku3TTNLqwqhGY2mzVt27ZNkD3zDNuuizFKKNqwfBuWPG1GLvnMmskF1/7GJi0dcs3PnFgqIVjtEv1JQsGdM7pBISyYgYgwUtfHx8fFv/2vf1+vux9//PHnn3+2vLWyL8ebhmOUSRUZTPwsbzIDIBFvNpuXl+XT0+KXL1++PD1t+p4hEEAENalZfOKekmbI64yZDmuuDFZ9GMfqig1R9v2IXA3ZxDtAQXBl1HNjc76rHojMvTQ+Rg19bwTv9EruI64tytIPIWqOxrkyoZ0gZOhAVcxlWq9KX+kssMcyZRPdFDLvu856A0xtrAKWKvMJhJKs0AbSyze7Ta/uFBFvqHoiserX2SUsVH4ubh49PU15+godARivN3u/YGrvEGQ4iYKNjgMvRzUx47npWn6iSuKQKtb0KU24pCmXGukO11yBTROapmmbRjg+qxciEpGrbogYAhKwHNblF7OWehcH4JItRky+GQ9tkBRNcgkyXpJPdnT9l41Lo5k1XGVlKNg2ADJhjLzd9P/z//u31+X64uLq/r6/mLVE7FtyfEBqNoTgQyaVwBia9YEBIMa42WyWr6/Ll2XX9fmzaVkYN3KAqqDasqgoUUfOQ3TfEdghqRMDPadP0qOZ+uhpHl15W4GD7sn5RQEDNsid7djMmPo+hQv1zWEmvuRBdtPBDtlVQVGOXS7CUlL9t5MbD4Z6ZSO3p/wz1X6YhprAjnvO2RgsR3s3KevZL6pL/LL8ZaxTVG47mjJOP/mR5HeDfA9+nSUKaTRqUuMxT/htfFzvzZ4PIWhmV3lzlGouG2RA0+Cnad0Z2BKGboWCT9d7dlxdzoYZuO/7p6dF33UhhJ9++un+/uP84wcs4G4tfAfKhAasYpaRWxBzUK0wxlhViN48baZQUmwciPU5rKOAvh0Jp2Rz+T0F5vZ9jDFiwLZp+1x+TyLFbhTDsYE2bctEjMFL41SU+TgywCG+9Ae9iaZwV3VRHVaUlBkOXF1vat/uatC/HCEh0KQdwEA6lkqKs6yy1qQjJZM7OxsNCh7JSakHcPdDwMBI5gpBeR6HfP44YlO+UeVScLF0xtE3BAGYoe/j6+vrxcV8tV59/vz5xx9/vLmcX17MijYBwL79EDpsyRjUK4yEseheBuyMcNZ3IUQVXXboHgAY2u33mLKOyAECVbdcDQz8UbP3zt1pbK/Igh6gBGHeiZiJmCSQb8ctkzRrXUim5jGAbvyyo7m+jjrwB32flCCUcezO1BJw8PVM2oTBMQY0GffyGhNuD7InJUASErkPOWvhsG26JHCXJ+MUQgwWiBsP350ZUIWsLAKH5R/mkM56YuAIy+Xq5vp6O5t9+fzw5fPDpw8fri4uZJ92bkrskhCFFrETFLFs35zsZyQrvrDEcq/rkeM5FqQuh8bTiStfRYzUcjxgEirHznC7Wx+XfY8W1cjZXfnbQwHqMbuwAwLj4Wv3yiYcV5L8IDuGOkdnbCkk4EaVGQYX+Yav6j9lGd8RVefJ6TSaeW+St9+cstl+DNkopE4WbhWzLA8WAsJ/uXikaE8W1lkpzhy0jBYguL8yLyZxJ3Q2BRlENdh6Z6owhiD+7BAsV7tkTXX4B63IcWsTB0iHhTLq3tNUIfvtaH9VD8+YpY1IMewymBmIm78Ejzr0oZPBTjyQEfqeXpfr+cXFy3L5+cvDTz98ur2+atpG0o16dW2ovNvEm5SfcfoGwH0fV6vVcrl8eHh4fnqmyABB4hQQAYJG4KLt8hD9E8sK8lHcR7usY4RxdOPYLawoHydeNy7eHq7F49YmPtspVzDcqGxT0ewuEI82Bpv5CBggiGdLM73Ic5hDqjLnSkPMo5NAvcEV/Uu0GbVPXfLZcbsBAyIFA4lcXeK0JJBttJjt8OcsP1heqeMEhZliasBgJE/UDWtJVTxwOKuF5Y1U0YpxrDNOUwbY0gOUz1ZoxOjkYrW/31COMAAfSoU15s6uMwCocsoSV43BkGgNZbAb7MHsjZt4SHwkysIUjSdn0PpY9fw4gz+dA+YcIJ9gPLiCtlVLOhcwZxQYgr/CDEcNTdO0bdu2bdOE7bZjkhwW5iOWUH5A48u1iBRQNm5mCyPoQXKIEICDObjtJGw9RShvMNvnTNK4yNP9+2xmDwNjMP/AEFDJtVVxgMfn56UM43/8+9+vLy+aJvzLn//UarCZDtKBaFfD5VgbBszM2+329fX1+fn58eHx9fU1atYn9IHJg6B05KtrY6IaWpPQNk2G12sPJy/SHuJqjpDaQ6h6wXA56YyoNEJcOcx4bJq2ig2xQ2fxirjve/FU60Enu25FdDGghY/6L3HsufNfVnPuoYDhyjw/E5woYHZwapg8z6rPvuXmbygPSjrGxhmJz9xmHXJBnQyJxx+sJp+9rhwThobzcM5MNvurl9i8PPJhuAO3nH+c/wSFAWGqK+T827qkpoF6jENADH3f97Hv+z7X+jMP7c5+D1ars30ACYbGnG0PNBfOdWPMM5O5iBq+WU5rgMsByOtxCpFo+boCxPl8/uXLw6ePH3/4+Km9uoQMZ5q6H8JQCybmzWazXL6+PL8sFovNZsNEzMHfWZLV3rxKsOvbaBc4U9EOjwEJxw+Pl0v5Ry+6Afz+PlnW0PvCJDOvABBxjJGI3qM9xCSbBV0VxWxLsDfvncjlhMfVGJTsoPKQu5nUP6VNR0vz75gQyr0j+2/1T+O5j4nbDu4+gZzHsiW7hZH1WdxvP/GO26a3xvilOq1TCm5RtsVT7MyfuTNKz5emzzRiPWZjN57h8cSllQzFNEZP2uONsQ/gIphKoEYj880rz7KNkwG3XeSX5cV89ij08f5iPg8IoBu1efqOOYW2iajv+67bbrtt13UxRtYtk2891OO96BQX2s5n0XaIyrdvqyf6VNK9CyEgQpYV4HzEBsLpaWqWy0aSDgGcVwHYQ27UZmCaAl417WAfx/mvRYYE7KckFmpG9xtfdBFHpD4tq4rTPczJ5q9a9tPzh9TagGBcGBxwFVTAoFfBZfOekhEYE7d94ecmBBBrCdESbniz32UmM9O26xeL54eHh19+uRUOcnt7fXV5OZs1MNWGUPtBJARvt9vttttutiQpcQ2ZL3rAaZJ9n4LjREriQTPmHugf60MAtdQ4Z3jp2UpDOGWwS0s4t8THDVTIkZgwYAAEBgqsi/+k2vc2LA32yWWM5cbUHWrTg7W+hu34RkIEqAZrVOi4vhzZd9T9AwiJ9RWlFSo2VvJ9vo3YtXQ0n5xbwexGxVgqCWm8rAP/rpiPpoqxdusIFMxw/6zCgIAQ+9jFrucYI4mTQsGZfEt+ZjkYIAy6Ede12Bx1GK8GBmBer9eLxfPDw2NAvLq8YPixaULTXDZhmoRgPSUxMBFFfn5+fV68Pj+/UgS1eRyVZz9Dw/JAFAP1vlRzQU5NCzs9lsk8wuryN6bKxFHQNmZCSymnM6NsA4KeJDWRA+2hcn2mw4J8CfgR6b4sAkr+Pg6oEXVskG6eLBJy7pwHgeh1krgtdW8Ps2/kd9YBgYMDLm6SECThErrr73gqKzqC50x8OajHVX6/dERyZEza/ciANr15+mL55mSGSxIJuipC1hdWlg9ynJxlqJESmDlGNSCYGRkDQ1Avgi3uAdYK2aYSVgNX+KGmysCMM4ykkficY+z7vu8pxshMAGyRJAD5oyI1EEvwLYkON7IHih9nazrEnl6el09Pi9h39/d3Hz7crlbrJuDVxcUUCSGuygBAzBgjbNbbzXq72WwjcEQg1h3gaJGY3gnMWzUYhgkV720T1GZwrZqJs7m6hioaKLGJB3s/8h8TUYw9oEgIDHJKMWeDYB9cNmjWKkZGPc6aubh30Bbc2xkNAqTk1y1GyZ+0hZGS82Gabckk0YYMxUMaLdeSECw7HQIMgnGTiDiaqZhQMGBCmzHQhQyyrZf/FZX775ppTlsE/vrydVwWkk0pkyUHijYtkdNzACnjQu1+ob2vbgpi5m1Dm9ciGMz74GiTPRDsrgGGpPkoNQ4UOWE+Vv5guDJ3eoLVrNB8IY75CyAjMhH1sdtut51mdmtKU18Mnf2CH/NP1Rs16BgZELd99/S02G43X7483N7eztr26vIC4KjMfYwiTl9eli8vy/Vq0wP0wYJawVJOGwcEKGyIvL1vX7dYUwXHk5Vhsqd60hpSiFR5rPpIdUNIjP2ausAAFPUnrnMukZ3IEBhVThByMj2AASMil+84w2qTdpN3mYj0fds0T6tg+AUxuNss57ZiIFmI84QhMU+Ai8FiNroAHUv0Kmfh7D80s/8NGA5WamEX2gdper0TAZxvRqKF7r8HAWznWFJUoVgZAlmkG/yn2tsUbuAhfJYFxz/4XwBUNuLbm5WjSO2j9z/pvaB7OdRmSOaBmUM63eWzy46A2LRtyJIFiG8POXCU9eJeaiy3xKa6IXVusPCyFbljgbGeQRqZmTkwB4DAHhqv3BTzcxpHEfAF33MWbT/K9+zoRoRI9PD0GOPt3//+nxfzi6uLi5vr64v5fBrKxEjEMVLfc9fFp8eXx4fF6+sqbQ8rEjSk5bJzJb5d35oQwPpe5LEE9oGBgClGBiBiQgZASnOHs/9DYUP4ryrLD8190+ES5dwT8YjwJefBCYVNSxiB9XjvKcWJkDARwGV003HMXQqxEjJd7cz0HjPnu7Yh6gprSZwm2ECg56LinQCmPW/6DZPAxACgbIBrQqM7lhPqhIjIASAEEAHStO2sbZtG2BizHy1n9j4W/HdoQLBBqxa8gwGSSNB9D6pfDpQm02iYBatQJZiRONfkBnLBe5oCN2rE5UdCw5pUyyUg5OXy5fnl6vHxcfHp493d7cXFNAkBDEwcI8Weum1cLF5eX1eb9ZYv5pw5k9zukhHKULqyX2eib4eFMtiZHSYiVSZzGnftfgAQ0B9d+RBbnkfHgExZCbjPJOJsm0hmN4xUGLnAKRI0KXP6N7VksvpuOh/ubeI0kjfrlrquGtBJxekWb+E7YUnfOdM/gqaoU4aCsHKzCso0sAK15DM7k89K7JGeCJpuMvjqNNmBGBBCgwEBQ2jbdjabyXZqEQ9CTIxq1ebDaVZRuoAEKlLQNC4ExCQeAGWXHCCmxHL2jjQUVdAlCRFC4GBWYDnx835mLagNw+CrbsVDAGQOyASMzK/b7fJl+bR4+vL4cP/xw/X11T4JgXJ+NzMREBMRLRbPi8WzSNfvP37jHclZqLz7ZO4VXF5ULixwmDepREc3M1/nQxXkgM2CbilPMiNAMaHTGztugAgJkxOAgApaQL6o/sgMOIWmvJnkgag/UJMaB+azgJYC3gCw5HlEzycPzqURS0TWMxa85e2iGxEhsyByqDXoFmbdWG2eFQyhbWdBziljphiJKNLuVEnZsGReQCvNLZZU+yjfJZqffIQ+eXYQmBKGxzwB83T8AxhZY0HEkUyw3mxeXpa//vrr5cW8CRP8ELJPTlCmGGPXda+vq+1m+8eyNEJLgyIGonEwFO8z5ayZC1PRjS4YXSwrgBKY2tMU+SfLKo9mUx/Rn4GUO+ZFD1wjbyQrybrl5+jlgyc5fCesnT9oP6n0FZ03e4dvfKGVGTRQWpJIKlXx84h+5bzBMlqoXAiONUGCk7KzjSVRDduhEEzMxJkJ7ksNBusSEdxnwAiWaFxZvyFNYz4Acm+wHUYZMXMUh/WEIUGoZiktCwR71+L0QCC2tE3bbfeyXF4/Xz4+Pn64u9snITSuRg7CI4p97LZ91/XL5etWc0r/fszw08g3vyMaDxd2zm4FDvithx8MGL69LvPV5fumy4MEDxAm1MVm78hhi4cAfkRLsAHikPiGenq2hCT/B6P52YVUEP5+9kB/U/JJPJYLp4kKVaVdvBd2rQP09SdhpHCcOBEdOFM+XaCu7sUVUEdGwBtmJ4GSzTP9P8B+vQQTDgfoxtOws7k/Ff2vYD/M4uMEPkpcju+rjq9mgtAYVEbTXvsYV6v109Pz1eXV/f3zLgnhG2jZrAjue1qt1y8vr+v1liIhBBkrTSmXQSmY/fVG1vr3piU9Zba+hwQrEn4wkBw4DZz1W6AZZMzSGAEiEGPQfGOiKeDQueSaCWZ4vouHKStUXGQCnLLkANeJqX9HVssUwvEhye+I/5cVg27HYQCNpdHTsnQ9y3VznLx7i34/VBEB/qeYJ1P01j0XZb4La9aTpwQ3dMYdctzJH3ND2L6C3FPuqjs4D3NvXNYt0+izbUnMLEs5WOp8Jo5dZCKOFELQrTlZ/BIiAIdBCzQ3qi3/rFbTCzkTQZkNIfYbMxIBAcpx94zAEjeS5XzdOe714cDhTajiQfkZi87FAByZtl33snx9fn55elpUJYRroALyEjNFoq7rX1/Xi6fFZr2NkcQDlCIH3T61p/PXbdltx7WcSNNZ/9TIxskVE+v4prSoou5YnCkbbA4GpMuOKsZgmgCxSQidlW5ZZFIh1y10Hh8EIWXGqc5jWo8JCCnLlSmYnkswb41f+zp2hbIFZSxy7nXy6TGh7tm0hLp/eCWmU8Wy9LHNcvaqmr1bW66tRr8onAD9f/Y6LR/vTjvCkjgQmp0IBoXl8XJTpnC25wHzBYG2c06rYBB/chuaBgMwE3DfddRHitQgRoGsvDQLCxlkJ0OPStFhCOZjFvHgm7JVehTtxMCABMAMxBSZCIAEs4ZSFNW7jciVsSxvMbgqd7GLeotADD3Fbddtun7bdTttCAeziSITx77fbreb9Xq77TabDfkR9VNJlYbfFdmGB7aMtjLq8sf1W0jSU/Mmc2Jkan7hyIocS9TpZKlQfFmNGv4behPCTSxdsPIwBKRAgZDQOYdzkG/c4D+oJBRXkeknhaWwT0CkW3LZj5INrAig0CmSV7entLFUSq0za8PbyswxRvVCMKBLO68MKgLKZC27RAKAwXo2+WCGUabKsQYzySqOzADQMJOmr3DaaS6MlDnAMfNl28iVXCqyt5yJopgVGDDssiHYeJiaIZHidrtdr9dd3/WxV+PviMX43ufO7az3/QSTqwXZBvY0VfPh8UboCmEG1GzGQMwcqwN5cruZNekXMzcJZTo3lYWiL4xRVW/k2o5LMBurYQbEAIEDA5nLRmoJAah6vMAf9G0JfYZwgpecmQ6Jhw+bdazf9zEfL01d03n8Ukib5iA1g7OYp8ZSuyIgyzKK0fdD1JfRYM6rO9EM9zFCCyZmHISyJFFikQhuE5ll6xywWB4MTCErocqCscJr66ufB9lYGJiZkCCCyEMEnLynmohijM8vL//8xz8kRck5EN+vs5CnwihfzchBlOAbcCXiHTTfrzG2uOdb/sNJYSmy6kKm0iWtRLAlOTYYi0BxHmmYX4G+f4H0DY1GV8tznd2grANxmajZawBskB1erN09qtc1c0/GZJ8tgavfyQEQA8qpQUmdZ4oUKcYYoygeU3aWSBsd2Mqak9qmFQSd4XnDekvqqmexMRNHhHZKxcyVsWFJ7DO4iOSOCLkQpE4AhCDj0M7adsfkZvaN8sY9iZmYCCAyMQNh8vPkbSm/uJSrvdMzuwh20OFxRZf6U0iSKeXqhLzrhPSPRiEZmeqiQ0bSXAQGgma376QdbUxX99t1pqVoIw9siNhTTiqvLN0rGYyA6CMF067YwruqynZCeOpvCSTkAMghBCLPKWHJRLKJf0IPS5pSwvcvJMa0Q7FULuiTbcd7mix0zDttD5lHtijHj2goB3KAn5uqMVYAqlZymu8AiJxtXDJg2Dm1avzYNE0TQoNmaDAAMUeSPc7GZwd40VjOIeZwF4KFWBjYL0iwCk71mMtnthx8upFbDmVhAMkNRTnjqS13xtHZl85ltDHWAT8GVB4kaWdAvJjP7q6v725u7m5u2pqyReIpAQjMwBBkLAm4ZyKEnogQCWAOEEST27k+rAWjRvt8GfTuHWi6DTHhPnbfATu+J6qAHRklYUxFrSlzqklztM1fKH5sdV7oDssq5z4oHqSrKVgPzMZ1zp37x9A6caR+mQHJrh2lr9Kjcr82gPlgpIkJXthbc3WG2C+ypz0AMhJTCBK4PgACtO7B5lPHqSYQT56TEwfxW3lJqtUOX35mSA96Xe/dwaFBtwPTpGHIxEPafqBh4pZILU0d8zKUTPnwRm7FiSCTDdn/xUPAKQW42CsB27Zpm6YBbISrRoJIHCMQpaingWqrx5HWxwgybcgRf4O2JMCLDOICOUOUgCJHCXYNZPkXNHtg4vVYHjWqvc6MCP8xh39RGBgqGkVAHhLAQE3bzEJ7c3V5f3d7f3d7X9sPUQJTgMAcI6232+flcr3dvqxee9bziWLsNZTWXxwgMFn+Ofun9i4ZAEc7O/DgVo/jaeKSPKAw2W9s5yVJ2QjYAjcSHgcYAGSOS6YmEBgRyMaAM6mCGkgk4QuiPqENJsIwgA5g10jW1C6DQV1SuF3v0KiFcAyUe1vJqDsiRL4nzTKDk/NH0nrMRjDt6fDNWKYsok/Xw2TcwtotzZKymQSqYA1zIjCkG8ySGARsaRunZ3Q81MyJ5eiOWBxJicnj8BaqozlltWalsanq+ZrASiMnyk4EDKGcQnkAJKavOjfZxDoBWACIigkZOxzMQGm9FZlpHhawJKvAvpjkkjkbfNYyhhBQtl4HjXZlAed1/QKzHSC6n6TVBdBg7U4amuxB0KUY9MRsoihBrpEjMwFzQ4SMzA0TlYyhkJupJotjBfMkgx0dIeMQ0FYJMjIzyIaPCExAfDm/ur25vrm5vru7vf94P7YhSBV/teYgEq3W66fF4pcvnx8WT8+vS1LjBLu+h4xvpaXJbLoam4AdCbuaOlWbhm+iozQ2lesHbkjnJQICMgfCBlGP57TT/0xR9vMCM8Euf1Vj0hgc097MirUBGwXRHeiQPV5JX6qzE1xsiHduB6JrobAwlB8AAPlZEC6BNOmNshiFKUHjqfLAdsyf2t8dudvNqoLPmxZmrWXC6EOE5tl28cBZgXUbbURS7ZQpNG2a6XIcTfH3FQ97JPFoSQ6SYey8czKx8WUAto1T+l7kg0uHNBk0yI8t3oD1VYKlJEVEZDuARVs+eMGpAShbqAOGYI6I5LgGRNPjrRHBEsEGtzUZJKU+umcXK28xJzOH0oQHU8hsWIBBiyNmzyQIwJEjMUUS70cPTEgMEcSi2P8qfJuJjWSmuuubYGBJCSVjSeoHbUCslNvrqx8/3f/0048//PDp/sPdeE81219J1AHE0EdarbunxfOXhy8Pi6fletURCTOMXU+cOAiDCQNBGVjgGMwaeYDOboMzTklSwoKn5abtvvJMQOiEV6YZGgQ5bo1G3TAWl94hWDZmeWm+HHEQoFBOd6o3bzy078h0dC6joWwAoYyWSlaIRv+CmrNlq6aIB7u1fCJtcZJi5QUT5oMIAJQd/b4rIHEvuUw7OCsnIlFsMS6T7j4fqbF6qMdsst+Sb9jjSYc5pepg++NwsM+tnNvM4AdyQZGmrjL8+1GmbCqyeBXkb2hMTgTAAE0ITZMpTSi3hSaENjQtBgYA4sCAlA5Gs9YPJNJ4gnlibdYpqj5b9L3GPiMQMTQYmgABiTlS7GLX933se1HvBZKwJIR1YgA1iHxlmraEqr/a/GNAgICa2DU0AQFxhgz8px9/+Jc//+lvf/3Lhw/3n+4/3FzuO0GIAYAJtpvu5eXl8enpcbFYvr52sTeRDprSAwyGSALWn9e5UevW10mkw3A49FGYdzMpy7/6GEwwFtjJ7odUPVOhWRSXMTxvDtpfLm6trvGh3YUWOVengAGRAwZGip5MoH5CXJVSBEjxD9jCdDOCnStJ2C0z2z4NSNb9werGr68Yl/QlYCDBLdlXBiKzHLl3QnSTMA+G+vQd0MTCB6bQ16DsXIbhL2OoBgzBKSXZ9OkxroMsxIDdtLbKNO47VZ79I585WRNsvkwBfqbILM3Yp3mYLEFSAFBjItFLH+4AACAASURBVIE+QUGAIPhSI1ftyJuaTZ51A2A0uKZa6GVKm90M4MxUQQ4Bm6ZpGrNbAMhiqEjSvIr/meEAj0Licm1A8gKh56VCgGAb/0RMhhCapg1N+Mu//Pmvf/3rX/78L5dXl/d3Hy7ms90SghkALTE69H2/3WxWq1W33WKQwoNGf1kKBFMXFV1Qo1AOvq/X8Q5uhwFNsSEUNWrYP++80VAjfbOmI58alSUFBAzQJMbBKlG88EQ1lKm29Ad3nElnxSH8qwIh0zL9m64CS1yTThCSQT6iRTWxWPbZEQIM7uXI1H/LMIW5VfFNSMC9b2JDCMqy6wZnK0nIQ+5VOtGGMKQV0u6pqnntrzCT78SmhFUEx1RqmtA0TdD/hyQARG5oXgM9Oyg4iRviPJkDHecpbGi0fbaCtmqVISAimQnHljsn7fs+bAXK9GezclT6IUII2AREEUUYAmKD0DQ4m2lU693t3fX11d/++ref//Tz5dXlp0+f7u/vZ+0eCQFAzH3f933f9f1yuXxdvfZ9R8TB8CMTWGQNJ2Bkfc9o+vauvvFpb306IfqROofnN06yaQzStoABZE6Blie1ULWh0ebn8TmQkrKuolFXlexCs8kXONb1yf3tTA/mjberCLlHED3fOTiwFvR1O+RY+BP3V713cG0tsehFHIDZPCG+aweREZhZo+8nG6/TB2kqZMZcfYfvTlgZcW9ySsGAsosz1wQ8k9JpYs3whkqXDYdIZqDJAh7+zQwvj3aqqBlspo+FSIXQhKYxM0KEgnFjO3TOTp6DdA6d+SCqKwtq8+LkN4o27H6mETOI5wRM6w6IEJAJJ6iDbNaVqJ4AFvyEyKGBtmlm8/msbWdNM2uatm1ms6adtTfX13cfPtzc3Pz08083N9e3tzc3N9cX81kT6nuqU3VE1Mc+9n3XdbGX9OiY1DNjA2o+yVX2l85mV+2KZnrfpaIaCMOEigpzd295ApbornhiaJpQBi0cQ2iB/XkJGYY4uBuq1YwXr+qqCWD1lMJY8Pkjxl9R04RQj5RLi5Kyt5+UMPdIICY98giWs7+ZWSSM6qnWAJYmh0AsEEX+6zmp2pXd2XG+vg2BXn/G6s2tgxwScmjvF7EwIk6uWqtBc05Xht4hIwucq94ld0Ip4FO/UksZTAfidCx1UEXcg1tNmdE+B7MhmtCosWtaILvpyanoolUjZccYZPbLbg6hS1IXakDiACjukKYJkQgDAojLJPkhYhwbxCwHGXM29+11MwAGhKYNF/N2PpvPZ7P5rG2bgAEuLy5++OHT3d3dzc3Nzc3V7e3N3d3txcVMTjgaSAgpTjQ+SfoMgochctOGpm1C17s0Y49OUKJkWYoGZxH+OzKlvLMNIf/RQQ0PAYSHURJ7OsQDYgZi6pkiq+bKbZgBI7ImffcUe3v65ji5a0bFZxWrJ65K1jxhLHFVocG2DU2rWjx6PLhq14eDdRDhsPTM0OuDhIiATAYr73879VKtzWYqCV8IQKghkh5JIuf7IoPk52CaaFN6PfsRsb2Nr8j4cyF+E8lBIzRWnSsi9p/xEUHBTIDb0KIXlBVbP5FjbB15HFliVM7Q8xRzuclbBs9pnuRsgfB4TqjoZ+mN1CJoCmAADAyBIQAGkLAmO+At2CZrAeLn83logkMPMUYA6PteAB/UFNk8jHYdTCg/dFMDxsW8tdEvCZT3a27wppEQnzCbzdpZ22xDjD2Gpglg/j+tSZKAkmXXsZIhnccdQA/FCNpjRASgbrsOyLNZmM0vLufz+4/3d7c3d7e3t7e3FxcXlxfzy4t5K5EoHDHw2IZAUOcBQzLxlbk0DaIehGDmwWhKGDtxVeDr29RFc2ACEwRDK9IEtlil8lEG5hgjMBFHVYtmrY6F8dFCsTlYsej7B9k0AIrTqaTBOjWOpvxXlCOdNCa+0N8eaJbUwxbWlI6MrlS0xQO/V6hqSRUnCBkbJCKQ0xSBZHHqPXrgtuwvQig2FU2qfa+wB4AqCFN76GsbDwDG25P89tiK9GEouIqvnrQ4K4QBNDJ2DFwV/Zb5mGk/+e+7RmNYCGIwhXOXawAzxuN1S8tVPfdwVz/PR0dCorQBMTShaZqmadAitoX/9lE3r4kiiQDZRq48LCdvTj5Bk9GW9A3jFGibtwHUFwLIMVLTNLNZO7+YhyY0oUEExCZXwphnYIhG0vbAxYPKhJAQNb00m89urm8uLy8vZu3Fxfz+/vb25ub25vr+/u7q6mo+v7i8mM9mjWzjhl15mdjj11W6SlCYrDkmJgns3CEk3iATzhrn4WM54ca027GwIcxes+aBRKlGikSRmZuA9P9z9+49kiTJndjPzNw9IrIe3T2z5HIpiScJ0kk4Qd8f4NcQcJSgAwHxbpfcx8z0oyozI8LdTH+Yu0dkVlZ3zezyCJzvbHd1VDz8aY+fvdSsZf76ue66tINj9sfyYhuhdodaYN0r49wau4DULA6Xicug1HRspjc4er2tGdSMCWjZk7rFBm0f7/4APF33nyFR38hOxlUiNqUmVm3yATHMGNpVwy1A45tD+0prgPWfNZb/Cq0qERfM4LZssCNZ/k+gwz+XG/Lnd2D/zlfndW8wqQtom6kT2HshbK0l/92Ib38XocdAcLUzuNtrA/+5/55ImIMEMRDRuq41q+u2j25KLNfNzNyFyL5xY52Zqkwwe84Py6UAh8NdCKGU4tmrdmEb7anmmuSPu8GoDkkaW6BqkyciCcLMMcSUkggPKd0dpsd3D+MwxBhiDOM4pDSkFIjMrJia6UsO0UUvq2Y1Zg4iKSWv8VpFUDPrQRNXA/431RmuGl0JRK/f1WDSTe9tqXY3DkEGWCvNo2pmBG7ulL+IQNBOK95fpgbpt/83F+Y3RXD1TdOOBrf3OWPw4rxd7/+LtT4Oq3yhOSaimStfCO+/YNZe7XE9J8yAaveMtLppVRnQ7mUBwDZV5L/h1phXs0JfrPuVc5wrY9vm235xWZLBL73ppNNFRiL/yLfViK339W9mqNZ91Zny9b2XGk07tNSUBuqYUrNG88WVKnELC0tNSkAeuubvcczgVham10ffcLyO971+J5g5xsghSLKoQxqGUrK2fMYekuo96cPq+pAfdVTM4EJxcH8u/4NF6jCJDtN4d5geHu+8cyFwiBwCgTwfFKnBTK85hAMtTYcwIjBzCOHh8eHh4eHTl+fzOa/zamDH4W+w1Jv75qa49q8vdr2dQzRArDPqGxyi+smoi8KqatwU1l/avRpoeq0c3FL8K0T0ho81v4gtjJRaZGmP2iEiD6T5SxLJlleqsofm5WidS9zYLn/hPUBU86oXpyidtjGbbpIoAVqzr/+3nCrcZT2XxPk6kWrFUjq36Lpl/dduZX6pjnTD/LH/3VvQX9oo/d5T5g2P9hiIGiR9HSbkdHQTwpjdGTRICO2UqBaXNpi4vHXU2LNEulCKbgywP8LMMaY0DhABMzHb7hY3VRNePTLcNIkKKDUmGDzUorEJYhYmIQSREHgaB1VVUwksQiD18ZJHoBpfZ91ouDZ1d2SHIx7u77//7sNPHz8dj/PJzgSYEWMDFLYh3zLt3Vbo//WPpr3VCMFuld9qnWALjduYRKVzxbSYZlNrCTcaVLt5Ir/I3vf6t/sJcjag7YTuhgEiYmyxmN94J9XyfxVmamLSNi7Y2yTAl539VqsIDlpQ4f40X3K9F1zwL9Wqxm4t+0e7yMw1u19FLtSAfg7xizDOdmZvDOTlpZey+dff/LI/12ftbS/k5tbZ77WWuGt3zBuHaOpmRwuA1w0AN7r94kr/4/Ke25LklQnC+hjtsjj57YebRE0eY0/MIhIkBomuHzTUXDw6og24BTY7JiMircOq5pEZRG/V4K8n4XLo1112skPGDGYKgVMK94/vQkohxmoUqbuX+ml+5aMNZeqBHx1LaMq0A26OBgmBCCEKIMw8DkOLAWknRslMw/WYmzyxqZwMZqQo79+9+/D+3dPT8ROUACbewwi9lz28ejcS+4tzg7dsWHrrilIN0FE/lj6t1pPD2UViWjPzpCkZMBh78Pq2d8lF11cSZPjXrP7dJ4Yb3EuAgKjSt3qMqwJB4J2TwO03A1YN2j1zewPi63bxA1/H8vZ16aTwbVR9b3ZobOKFVvTGT//s5qvIRAZt0+i2IuXqmOXcw62t2176pV1yyftyRDfn9k3TVw/zC6rcbIP7i3ux8lXCsfn8t/u7Urd5JKNj2t94YX3t7W/dEJevNBfbHcorYVJVXz7euYlj9U76bwGE2qaW+ilmEZbgf7awOZHggAu34A+4U5WbsV32FpI+/6ZaVH0ePYDtEiZjdOSrjWoPcDUhkAgtU83uDWaqCoMSk4hby/n+7jCM0zCNIYRWQsOYauDxazvI5UJnJG58cMFQTdd1LTn7NxuuVmOqmcAiMYQUIzt9cPSICSCzco0yOYnf00RCTZ0rItM0Pdzfz+/m4/Ox5Fyz0qKpUkCTz+op3M3av4Eq37b+N4mRmVU3SOsWIapvUNsAWKrwUjFVWIGh5AUoIRB5XqD2InuRQsl2f8L3yzUiT8xEBjZjN21YRZ92J/u6610FsZZz0begq4oll6flycyY3N2gzUtzjwPs6kx3kl41m93U9e3eBLXet1aT66Jnfg4aSb4++dS1mZtLcv2mb7XN2tEEIP8mN4LoFxiycxC8+FW7+PPapd5/9XinYtdk9ysjcqqi6nkhNwFwN1I0gboz7K+8Dd2guUeK6IVThe3Szr7s3pUgeHOoINLm/fe1Ae7e0I+Acz6yZq968SGrqfIJkKYH7ndmN5MQEYlICI6sBAkhDYM7j26oq3T3vqbikLnxuhbO4SDueQr78aeffJODBMTmbiDbaF6eYzLTfe/qf1WGR6fjMDUUXxcmiNTUsiHKMCTASsneL7gn/lc1KFeG1JiIqeT9iSQQC/fVreGBcPyDhCBMLVapI8PwSnfBXlRuMPTY1yqyuvu8y1xCuDuMy3wydf9BaymqfGewmVlnEm3t38ohvkILXshTb3tfI6xfozIGUyZPvN2EX3Lxkzu8VM+PqqmaKbQQUwyBCVpyjMFJIW3xgS8ggi403WAPda+RgY1C0/RdyeTdUl8PsDmYVA6xS6i3p3i1eJaEUorDhqS+825uOpe/QdicrKhx2iZmdv2GW459YPMz6RrHK1NOHQH/5jr+DLq9/96Lx6xdd93XfQ1UtTkd+Al7w7fe2KEdsbMmSW9K/+tP1b9pB1NS5foX91yAQrcn2vpy9Tvf3PPLn18Q7pdfQot7u/7drQv7E7n5Dvh+ePGda+jpcqUaF3QKL243jTGGIN1FJ8TALFyT7BvX3K0NtoERQ0JIMY3jOKU0SvTv9mq+XEMabCeVoR3Zl41e/cF28F1NgawEjzZjEWKh4D63zE2m8AgQ+3pFvpogkcxx08vVrrVpAHTbCzmT8HTnQtjshFaXBAazmxWEvFcVifR+MkEIBGXC3WE8HaOWQkamqPzAGUsrCdmPo26Qyrdb83vYD207MXt72Zv9Ca5dlF65iQF3a1M1tVazjMDWhGXnsPBktqawQsYE9fQmrcKDvY3q3eyEq6zmQT7kGeNBXCMpb4+g6yJGUKpMSEHmwT2+dC42iUgQznVP1AK4r3XF3cQ3yrMRourL4TpARS+2M1MZxTUxetn5Zgj59sZ409bpcFbfz400XpCtnYhkpbhAqu64/Brd31NLOBy5q5m1o8+0I3mVTV7CVxuVvukPs5+zxov3XfLYcKq0pS1Et7Xe7HtXM6ibZG/wif3a3UaZDN/e1P2xF+O63b09wtCVmrdYoa9m203OIQiz1NqZQURC5xAxJgkeTGBMgHr5KRemaxFQZgoSUoqHw+F+mqaQlmWpQFPlERUh+sYsfKXZTQZqMG1kmkU4tP96iVbPCk6MGqPw6rT4mIxJ8UKp321FdaCEYdysMsw9r3iVYyvrsxsRc/1FHYCoQgiLjOOYUiolf/jwYUin0/Gc12wKZ7TNdQQGmFcuakfhm1TzeldSszG2H7Z8odYO6tdfuD+U31rXunTE0AZwVglQgdaB7c5+7NCtQsJMgKnWlfnFqNoFTagTQttwbtzfLzLt3cZrP/0ACQsAPzfFIznERdT1xmw0qRMXtOyFtPqCPfjVF2/rD13s2J1V/y/S7EU1C+pcrne6i4TWypb4b29xiOsLDQnpHm4+Ono5Mx3x2rqyTWmVQ3caxgVzvWxXl1y1407xuwrxWs87Q3IC2q+4CtVqL29jZ+aU0iXXqXu/c1bVDtRpR5/qRmv5UjellyhuYPquixdd3h/6+qmXcFPv4TCMw5C4uac6muRsoTVmZjOoZSaaDoe85ufj8zyfNoP9xR4nT9sUQhin8e5wN0gkImYupViXDN6iX+JrO7qLuFU1b/o2N1IdgvhA3Om2EiYCoMTfOCzUlan9AX71Xpc+IQIRz0jiU+8kpCW7fC1irr6lmfiJSJiHYXh4eHh+Ps7zHCSOw/Scnr98elrXzI6+666IqhNQ64ks6C2iQf8fEbaC0I2Lo+5lA24lhb4xX6j5uZpk9NX7DTA1qcegwqTbEvmYTLWsOa/ZWgrI5khGTWLzCW4o29VX8PpE7G63Pm44fLRPlX15tvZP0X72/a8m5TO7Jckd3yAAQV8AjLigp+7ssYEaN2Tcyrwu0oe4sNaRkG1Sfob49QssAtcf8J5wDYfqFzuDoArLEZi3HMa7HmAnKvgl6lL9JtDsZuJKz9u/zslS7YmBiBqN1aLabFffOP9+KJoTYx0fXgjpVMGQvQLIMcYQtsPePn793SAyTpOIvHhhf7ByBREJ7vLTdgeL++N0uQEAiDml5ALK7o0XokEbWF0uEUlp2PJEXDZmORwO4zh2ZnDJHphZvA8Afvzxhz/96Y/H41FjDDHM53Q+n6zo5ceb8GUAKMimg7Db82zjXVtGjT4hP1PGMdvsPYbqIsUtXCGEGFPiapAQVE3RQEq1OPSrzr7c4tV6IN1rfaAu3Zn7UKGhD0REagryYnYKvMIhmrxMTCRETAhC05Ae7u+OD/dLSvO8zPOSJAj4y5endV390JkhqwKkXFN3dIL49TNfRXKACD2O5QLh7mFfBODbznddruuBQl+ZscYvAbLOgUEgEux3EwDDl8+fT8/H+Xw2wxDjEGOKAaa1EOYmHfeJ3DXDTcDIN8wmp1R7hufKBcHIrEW6XXZ9b4egzVGE2t7zKRAWtz14lKard8HYx74TOanTUyedZte4XyOJfYKvf8tMXZjfCOiLOTcrVzPktzXc2/t4aw7f3Pzje4mY2ZPxwjz/DlBKMXAd6a71f+6uUyVAwi8Vh/0Y2+zUP9B91dyHpJGDNt4qXV18/XLQzueaB440V0b23Ax7zEqk+eMw9etElFIUCTtO2UoCNJmzPR6maXzBIWohv86TRHgcxsM0bZ8m1NSpzTBVLzOllK5eiMrB9svUVBBmCWEcxxBkz9r38+rX3SfpJofwTQjgP/2n//c//sN//Id/+IcvHz/GGB8fH8dxmM/neT6rltbxtsw90AlWVH0Ge+ilbiDYlYfkLpTwlivXdtuuXAq1xB51JVhaiQjnTOxvkpqyqWYJr0L3K7SP+VKv/Cq9I5A07JnoYkTUcjP7G25wCMKWts7PujClEGB2GNK7h7s5hTmFOYYlLoFJmJ6fnnPJZlDVaG7e4Qo8GQNvATK3ofEW8MFuIGoGUe774xVKe/E6NMEEzY/gKzfHGCT4AW6O0q40v+j1lMLzOJyOz8uyxhCGJFFIjUrRbi1uAXjXX/S5bRJEbQZQLf7UgWd3+9vcWcjz8e11iX7M2oZxeNzcjOEcosp20XXxwoWsbkgrntRPyppp977GI1mkcta9fuBUDm3/dFKIyuPrv22LIwEakb0QRW9zUGpi+/YcXVAw3KDbtW9tY+y4XfdqpMZqdnTAVV4LLE397cru9gYQXYk29/f3uGpE4humDqjJNXQxWVQVmkoIXKgPze1mP0hqS9e/4EwlxrgfETPFmIZh6KFw/okGU/D+hW657RPu3fBn958OQYZxrCJ/VfzaCjQne/HsDUSyJfxqogG2u+uHmGOMchtl6p3B7vhjh/y/pBh2sb4tYjiEUKMcWmkHJ6z//n/99wTkJf/jP/7jl6cvx+MxhjAMowgv65LXdU/tzahJaFRUSylFteQMwMFnVIpYv78NoCEn7XGrKAC1BwjmpsXGJfYpPIiImEBeyscN1C3qdYuk7pz4lSSoe5GFGsF7vXFDBSvT6meY3E7TfJ1e6hA1NWlzWvVSRClITpFhNka8f3h+pmcy0gIVuZtSjO/fPXZzn3PdK7LyVe4KNAll29kX6Mn1RnE91EnY6y9sgkl3A7/1/S7ptZWwrwfVm2EM9JMgip1Op5TSkEQEZmQKhTGZujPXK+P1L5o6gmR7wqRN5ZKm9KIFXZOZGMGsu9p1ArxNT+UYnnqJyYiMGZJimsaDmn5++rTkBUJkTGZsNgypqK5FYQpiZ0jOI1k8Q30n9XU7MQvci7RJx430bdpChbmb1Z+aKacTauBljbmLhE49CWtKIca04xBWvY9U97aoEMLhcHCBuku7jcnx1j8QdaFdtTTAYUcFPUsahRCmaUrDsO9lH+q+3zGlaRxjjJtysONJnWCxcIohplirFDR39Ze7REJwX/gunLqoXD+xdYCGYZimaXcQtkXYOHdboQ2hvr0vK70PIXRqD8CTUIgEl9jaUjU5ctt6VkzVrGx4XRMTapm0jrp3paSRp83C0RlDQ2FeyAJUtZ8tD3YfqdMe3WljwpLX8uXzl6fPX/K6GrDoamQ5r0WLi0JWd6R/l5Y1s4TT8/EP//y7P/7xj58+fqQ+mtqxyx1haDFg0O6iZxsiSdQoaj2c5p661GYDrTaFhODsbqvr2zcSNdehCnXUo9cQC+AFmfw6h7hg5D6Aylo8trwqvXi9PoTzTCNAmGOQMUWGqRXTRDZFkSHGdSql2LrkNWfdGbCw4/+d3H+9x36D1zvq7KHLFlePC3PaiU43W0d+v47KbeJLW9Kv99NgKRA5LIgypCGGGlwjTMX5MenLssxXH7WLd24/7PfTFkJqAFFxHW03O66ndGDU6n6hYS/qEEIIwzBAYGxGdjwdVQ3BDJpSnNc1l6LuDEVWg18YXFMYkQHsdX6Jqrxc5fU6ed3LsGt56HTctFQkt+KtVakOHKp7ydbPPhnUdHAiHsdxGIarRWlbYrsSQjgc7i45RCf3Gz12yVca1fY7uV+44BDx7u5uHIcuWVDDAZrvR20xxmmaGmHl/tr6UCfQzDGGmILvRdtEiMuhAcQsQUg2p8WmNDDt3+6O/zWr5qXqs9vGnY5a9yW51fpBEJYuiKLqEM7Jtuqz9GJzO9stVp3B0W04Zp222rZPrzC9RjO063doT9vls9sjaDSRqKF/lXNst/zn/++fPn38lNdsTfDIJSu0lNILhtAuc60Zvjw9Habp/Hz8wx/+8Kc//el0OrXuATV7Wx99DQLY+rMj02Y1sWzt5E5nblNXqbMrEaiAflUBN5pEHlGkTTVoktpuafdzcnXpRnt5eDYqiwtafVOH2M8vAQwKzCkGqBLcTqUECxKGNLrgvCw5r9mTe7RlvtAhNuXnq42IQgwhhJt9v+AQIkNKzNfg5sVzzY9ls0O8okT4//qR/xYns8AAlKCmmUWYhIhUVQJzpibc61s9cglohSnQtx7Al3ULzYz2Vn90DWL3fzdmEcWd0dqhjphSSAK26qqpz+uanVKnGNacreT6ui25uzVCITGmFFPHoNFYBKqEXomsX22ZCzyKtUHFEkIIHVlh9+frU92OAkuHhlzUlmkaU9o4RGdIfWW9xRAOd4cQYlcZ/TY0lchPmxAPMQ0p7UTqrhZUlxIfhjTPvW2hdjfvof+U4jhOIqyq8zxXM0+XH9sTzJJSYAlevLEUbXrS1XYgEEgErXzCdpRaP/Z750qmvSIb1qTjHvzxOtjb6U7DKQAAqsUVAxf/0DnEVWWYHYcoVxziUjOwXbGHDiv5h7wSw47Iql4/2+XPvRtVWzjiK6nx97///adPn3LJziBLKWteDWbYGSG2CSPAnp6fD4fD+en5hx9//PTp07pmrYpmRct3KFdFkV71q2xcofKJBhDZxn4basLkSVIlXBpV6r4kgNlFtxqnBFxshN3Cv/zFi7bR084YsP2D+j+I6KYd4upljmy6YGBkLDKkoZSixbMtuut9Xz/TUnSvQ2Drzte+Q06mL1DR7VcbXdy99Jtdf8NNtbl0vnP7+8qtIYYYYpDQ7IayfYX20k6XgW6983XYjXCzZA914r3DMC/0D9cnrouiEgEWRBQ4HA4xhcPdYT7POZeiyNlKDYzYkz8HvoNUZEPYXbS96lVnCVILeO0tZE7ZQwgxpb7X60RJjWMKIaQhXVlE2+MklTWIO2h667vCX+VmzBCkPQrHlGhDuioW0e26VSJCNd+3Y9I/vb0fdSY7/bqYTruIEKdKlpiISCRMk4fjbU61Vn39DcC6rrbOpspyuwKPt9pxiHr0zZbJporW/ecdCW2IY6Obuytm5oQeL3lSv9gTGDLJXkzSqgSgvxlmZDBVVM/Xih5ok2J2oosTBMWuk7up3k66GUopy7LsMaKKU6qq6n48OedSSt/ml3aLC+Trd7/93e9++19++9vfzvMcY2QmQzkvcxeA1KwBauR8K8YIs/P5rKpMrDXPf2MmdFUzxldx0yN20bI9CLzJp9uPdc9WQLLBkk5pU0rB4SYRoCFLG6Z0RTl2ffkWY9jf2Xe/tWRWe5ax10pe5xDdROdMIgZiosASHFBy4YRgGyDou+2mcPQtwbz2cPfHN8Zof7mMnE3j+bbHod9+PD7v7Ad1fjv+uH/vdqBvNNpkjMuraKn19gKL/6eX09jOzOVYrvurG3pgJmGcplEkDMMY4vAf/o//E2Cw7GVqNN0rBCGSGOL9/cPDw6MDKV3W7hjOg4flIAAAIABJREFUy8VtyIAxM0BukI3R7bJRas6Di5F35emb27zAlnUppZSq9zRVoKneHf5y74Z2qKhLvtcB7dUs/PLLtxbwerBX0owQAEiT3Tu8YajyOJSvtYL9u30splqoRps6/cU1Za+t5qJvN5RdavptHfA1DlHfUIqamkJLxQJ893m1Sy09Kw3MY4aKQr1QSqPkcCESFXtx5aEhCztHPeDW+V3zOs/zxiEMRYvzh6Kd78BVgVJyH0ffti+34qdPH3/48cenL0/zMg8pjeMQYzqdT05qzYMSioJrmkuDG4rdmadK7KXOLXWS2vjFRvfqD5d7wRp9d2TYU0p5KiglT0dTJZnGTUjYBSMW4S7LV28HTzz11e33cxq5JLqXd+rF+tp68VUOsS22EYkEJhYhFXZ3STVzcMw2ddO37C/iENhJfxc372nWRfe+Tcrf2toRVqArjJcv35Pgdna6j4cjHn9ed4hwKQwwAaT7K8QAKS7OQJMBNqC0hW1WiulhmGQwZiIjEiNLKb3/8P43f/vffff9X/1v//t/ABi3yP0O15FhGMdhdK7mwma7uT1yUacIAEpxtHeDAtqvrJRCSlceAW3p22J0TGNn2Ox3hiAhCJBaD4laIPq+KbptbAuD5ss8CQTAGE3HqPbznU58CZnYflBd6dzJsO2qWie0ALwDao7BlNc3SyX6OeeimktxGfoGkFGJf0s9alUlKVoq1Ft0r1aUXazg1ZsaAKVmIIPYBe8uVQ+wsuMQ8H2gqqWYWnHYAKYtsH//8nXNOV+a5fqc7v5ZSnGn+U5v3fmlc7u2XkQEvqBr6BDF1en49Onzp0+fTueTFtVS5mWOKdS5NMCDTM3IiIQBUoP/54tU4KY5VygJaJwD3CqhEtxYeJO89dzzhCqWmHsRgajUoqjMQkEoeOCaMEcJQVgIqOGc9d1cw56vYph+GYegqz99golJDewpvFDZYrg4VpWlGLCrl+Ae+WAWYyAAROSCBgAv7difNngi7X2+gXr0vz2aGwyiP/qSd75parZD+7XPAlazM7bKcrTpi2hKtnVCrN2ZlL0eLMg8daZtrq6AkZWaT8/66K0S9WaSJc+Qsetiy8dCXaRsk1JRnW1czqvquW8VmJsli/qsE7mQxB5xz5xifLh/+O7Dh//5f/yfzNOpvKEpoIbcQIMdW98pva1fRBwCdfpYGWsLBAwhJLl2ZtotCYxR0J7Z8U/bUW80I+h2WDfVzP2drAvgdQ12OkRb0bYJNkJw0TYW4ATevSB3xMt2/nv78bpo3l5SCbVB7QUQePk9aCnneS4ll/5629t795yr/YV2as0M0K0v7a1ugug2QrM+FbaDaTySp7p5uehe8RH3Yahj8aeoOZWVmrpEi1nBhXhooLYZIjGb2bosRavuoc3NCZ7PzUxLyXkttTxXFRGExQNWnIt8/vjxdHq+UJ1bNlzXU5nZd0XJ+alFa7Gx+Cr2vPiotQjZVXbPbgMqaqvqopqBIlxMrNZwEbIACkQeg1JPdPOIt74HG/pyCS0RiI3IhDSwiSiLBiIhaX5ifp8xgV2uqxubKvQMXFo3baMrP7vRRuwB/4ifW8MFjBVe4vsNIN2kpB2V3WfnMm1zRLs76LIoQ1fF8G1NohHWS7Ch+Q5fKiVvmJiN0V3Xx7p5d//KRj/qW8w8yNoPvfMLRnUFrnU9DFzVR9+BRpWiVmIK/z11JdWnsO4z2uVEJgiR9Kq5m3ulbVVI/TgVd+7Lhaz4kW/rVsuQdsHdDKbdZlSdRdU0l2JkxEJtO79lohr92+5uTOxCFezTKrvqZp2wz6s2qqvaEudt0K1Zi1G6WH1tdERVc6kohFW6p17VxD1iXordtDsS1hHu5mMJXCSmJni8J2lHOqyyAS1atJRccs5FC3aMpnVyB/Xs5AyYgfw9r3AIZ4Bmju10Xbxm6i0dly8t22C1vuw6QJ6hS83UtK1/XRvX71WV1EiNDYxaT9iVTjMYI+c8n87Lsqhpca8MRfFsxm0ONeeSK0bv+TuWsuasuao+lVgYEbFICIf7+xBCyfn5eHSUP+dcclar2YGcgc3LPJ9P53mGeZJSjjEepnFIqZRyOh2/fHl6fvp8fH7eyFJbvhjDw8PDNB2q85tzo1ys6dlmaApwVQY6xWnxGeSi1lrKWspqyCwWXUsWgpBFthhCEole94sIQPGxdo9WV0s2qlNrkhZiDZwDrYOQ8MpSiExIqlhXjeHaN2oX9V7ZLwT6Zvqhr7d+gK1NgaH+VYGNmrmvi/hmWxZANLWgW5pKu1s3jxd0tgHbhxO/OJ9XUMrN/lbaYvs7X3nmZ+gQtj+pX7/dlbjmv13PZ/XRajKjKqG5Me5huzf1aK/f1SsEhz6trYMQy3S4DyFIEO6l1duskJ9/Vc1FS1nm2YxgBY2EEZjc+Y9YhDsSrCgKXYDT8Xg6Hk/PRx91tcVVWexFh9u+L8W/mXtqnstxdWkWfdE6gdv/rv9KVXMu67q4WK6mRDWtRLdOd5m3CSyqLsmrlu5jreYOtoTNc8ZuHZ0tBN2F39Jh8uuCA/UVzsHabVSNQ2ZqueRmMr3mEB1i2ttdYTC4N8SrxcqqcKampVDdeEDlENbl7ipiE9xLbIurcOfimsijYfdNtwCgRQ0eNeDSAsh6chuAUGCrliWvp7NzCFuhChS1bFZ6CJjZOi+LO24BWkpWXfO6Fs1Fs1YOASIjZokc4939g8fzH4/H8/lcssOQBQaPGfTjtq7LPM/zMvsMMFFM8a5xiOPx+PTly/OXL8fj8y4pdd0g4zi+f//u4eHx7u4uxuBnoDpnN0l8t12xHcNmTzU466SilJWLidHATPf394AwhRAOImMIKYRYp53MeK6QcBWD66tMUYoVl2NKUV1BhbE4tzCCkgoRcxQST37BIK4YgnLd/p243oqwsjeSnZftknZV2uMKH9VTTwRDaOeiYxc14AuGus8rh6hau2+njRDQ/uR3ZnPREf/rbbDQW9vbKD78tL7p3n0iuW1Qvve0UopqbjMQtfLge/T9LSOkyx9oUy+sq3cCyDgdPC+l++34Qe+BRgbTomVZl2XJalpqPKg59tc9JJiFxYqVnI1UrSg0q51Pp/PpdD6ffYQ9NVBH/y+bd69WZMy5bPjANs2Vcnr0Qxd+Xehd3RlaLyhjlTlKcTrbkv5blYp3SSk6mweqGqct5LVWd1EffqkKX0NUbs6+Mwnn992Lk9ScUF51r+lbxYX6fZdyzjnnZgG+Zn57E/LuuoK+yiGqHGBaCtk1h2hWicYB1HLOy7J0WkkGXfO6LGXNpCbEVg0nPonWOYQHll/Jp0qYS/5yPh6X+TSf52VRVQtszMSinti5fQhVXVMYVCuHWMqmQxABJGAJaQhpvH94jDGq6vPxWHKOMVaQnjmoxYgYY4oxphTSEOe5lGylmFkIIiGyBDWQF9BkZuLdqSYiqCrX5Hchxugcgvdoxq29sPsZ1soy1hz8iGoDrIB5OnwPY0Aev/vrkA4Suqs9g9T4tMU/US3Mw8xakHNZ1iWvWXMuZTWsZDPjzBYIJ0IgTcRCVJ3mpWaVAjw1Qu1cF3NfDuIrA3y10QU1vp6HdqVerJZqa+iKs+NuZusKfINYDHwzH/r++9cnrWNcb2h/lsp0/a7mL2FvYSjWQJorqdU1iyZR+tEn9JQpb1RmGu7SFM9mURCAAdZGf6hl+w4ShzQM0zQMg/u9mXXsHznnvK6LkagxSwEpsTEqT3fpi4mZg4Rc1lJ0zbODC0SEJ/zz7/45xOHv//7vD/cP0+EAkFM91dJ5wK7zfJ0qaJs22zsm1ORRTRvURke0u7I0gN5aVJ2/o5lbXGmrN+HlhrAGxmsXqZXMPFFltQK+eKLd2NxHu44IN0oWzkpFq5ny8lPaPHZKaehSKdk1iJwrktMWD5WLacdeSsmlaM5ZPeLYtKV04XVdn5+flmU1s+7pGEMw1fl0Xpclt+aTV7SsywoYEZeSj6cT7WK2QWCDVxkYYjyMUwrBzJZ5Wdd1XddlXY7Ho/sLOYcB0XSYPnz3nYiY2WplLvlpmY/rfHQdAqrsBQdImdT3u22MtjcF1DRXG28P9OSYhoeYYozjOEzTgZjHaXJwyelUDDGlNIzjkNIwjkSkpczznNd1XeecM4FSDMJ0Op3yup5FVJWIhGTvchCCZyVxdztTNbASmHdeJLaHEqxp/rdFVzufbEp//fjrmIbhb3/zmxCShCG8/zC8e3d//xjT4Bb4UkrRpUkL1adMFVq0lMrCSy55XUtZ1RbomfRI+pntxDZHogEYxhQ25+5AO1fg3rtLe9/FIH52a6SEmcx0xxg8YZR/zlyfaPUhGgbkEow1G5m/StEcJuwiOf4rjboV5N+4fRvWumy3hEG/is4m23Qxb+5oDWOiHaLZfomGzYP3+hVRLX0IcCvkYNWTxsiMctZoYJIQYgyxmYjqO4yWUsxsNhBJAHGxYtblICZi4cA1hohM9TzPiuIm+ZIV9KOCi5H+/g8GmqaJmUspalpyxXw62W+Kzq0560aJxituEHVsC9Hhu07q+1YhggOZLvlWBlBKKdqZfLdcFN1uMTWYQpUuMnNvi9glbzTsxV+yrquVYmuRtUhWKheCmjW1rNqmmxEgd8UnZ6dWQMsmtj/WO13HaQkFziWrZoMHSLGqLsvin2PimGIKEWYl57zm5+fnygKJmCilNI3TECOYrWQ7LWvOpeQuCVHL4DQO43I4pJRgNs/z6Xxe5mVZluPxaDBhocBqRsKsZbYyhAAjYZHMbIVL9rgTj25oCSmtm4QuhMw+ybv/rN5ka15diRGWIaWY0pBSycXRCCaKKY3DOB2mGGMMgYhUbRmWZZnnORQv4sEE1BiFNa+qrS5Bs3/5ZI7DkGIMIgRyFmFkGdo8nrEzNHVb2QXd3XELe7j7MMoYYhyG9Kvv/zZI4jjQ9x/Cu8cUB2YhVc5aMkqOvIJLqfYXa+WZlUrRwVnHWnKZVRfomewk9oVwIj3L8kPIH4fAMXq1VOZWPRtAd+G2qlJcCP/aDcG/tHXko1kBuy0QjbD1+hDWSvTsTnI9yF256Cz4dXWgHg/Dlc/5Fft7M0b0ZzXaVen6ZrPGCS7e0LCfq3FTjSTu89njWioxrW4YdS6splndVU70AEkQm1XOUf3nGhq4LmsaBjMIhxiT7xsjwEjN1mygrKCiRizw5PFE3UWlKhEk/jZVHJ+PxYqjGDGtBlb74XB3H4cxxkFzcfyhEzXVnTjtlY1uzptZ1wpKKfM8r+t68fuqzF1Mbmnmhyace0iUEYx2Zm2YLfO6zEt/Wq1K8U6lu3KgpSznk+Xy8sj0FExmhp35hIliiGxA0bhqXJ2BNuS3/b+rIP0pp4beg85FuRWw3LIzEdWHS9F1zaUU0hWay+q4UIxxHMdpmojIP7GueZlnV2XMzN9mZlFEWMZxTBKSCBGXUjjrudhxXbSUtodBQSjGNI3D/V0akplplJWhgUtkQXHLiRKKgQQUMEcKQ3TPCF4W5AXMRMJgA7jxd9PNI6Xt7XoWNtZhBm1pKw0V1yoqoBTjNE53d4fOWdzrfxjGaRrv7u5dhXUEdT7PyzKfz6kUr2SpOa/PT88Acs5m2r5uqJTGCMjLWtZc1pxlFRZFQQhVXgJq7Rr1+hr1EHf+sgeL/Xfv3/8q8V/FGNOQ/vZvK4f4PIU8DkZSQOZ+0xRIvwMFowLS9h3SAhBxoBQMICuquhZdyM6Ms9gXpjNh4af/O86rCCQSB9kngDHrlNpfea1HMPEbPHC+3i7gpmaNpjYtZLbFQ3TPHUdY9vwW1/dUga66Ie6gMKq3vUDHXqPTVzL7X9hY0XWIr6o01mHu3QGwZhdyvNaowhMuT7kpNYYEeAkKQVlR/UE8W2+vzwxuakazAteueHRmVQu4/brm+7KsZc15XtdJy0AUYlIgl+KPM0dgMSVVuJ2lTiQRwevHESAswYCiuua8riVrLqogrKuti51OiymRCDFXw4bXSzHAnQs3oImZJKUUQjyfT/O8VDZAyLmiUtV2nrNHDPQl2Ads9lVY5vl4PK7rugOa4B5dXZghEHtpd5JuAJjn8/H4vKzn0txOq0OrFs0ZWi50iJ1blLdamUU4xngYJ5WVDFZKVsxL0aVi31bVOk+VET1Tv2vdhaFmay5LXtZ1dcaThoHUEoISBRYKgaWWzWFVzlnVljVnsoyy5jrJkoTTcHe4CyE4WXx6flrPi5mas3uYual3nMY0vHt8JOHsAFvORsiwc54Lm6k6iaeYSoo5BR0iHcbAokOyYaDzqRyPbGrnc1E1WDEECRyiJ8kKIRA4RmE+M2dCFihZKabMLkAq77AlwmbfVJCakQvt1LLYOzkz01KEiYEhhmkce+rZ0JJdSwhBWFXdq8lMM1MQjiEyZc/jocVyLvO8lFLIwNRSVLezhFqgmQiAVh9wLYWZDUrMqLZXQtm5+jGDKAiPTBPRYIAMiyZ6+E2YPhT5FUlCSH8aHyUMJMMSDkpjdwFTQIk1DCtozUVl0+OLEVjcdMgEqFpZTGcuc7CF7R1sZeSgJXAs5RRkIY4SAot5lgYSan6uPeLzojHxny1oN6wVjmn44bOmYIHpZsRck6JeXq2vdBmhboHdnbTdePF8PbVXCO/N7/zldQuDXX/lmi/t+MEVytRxHaqJ9KyRLzeKmTq+EOD7DlUD6N5zTNjpxN0vqI+TG0sgF4aoeZ2fzrMCSgiV3IgRa0WxKGdd16KKUmxZ1ybh1nEWz4ZCzBI8hNGNh6bI2QDkJZ9P69OX4w8//FQBGlcdSvFXedo40xqPzRyCxMPhbhiHvK6n03nNq2uUy7LmXLMMdfvCZpagvYy2wWwl5x5A22F0ukSI3LsjSBAOnttCtTw/P3/69NN5PjrYo927zOwierN/uv0Eh+yFhWkchru7u/vDQUCulbBakWUxVZTs/pFmICQBwhCGFIIYAGZjWnLO82KkCs1kAK9CXl8YwhZYYtQQSIQ8QG9d12WezQp01bKUzMRpGMI4ShpkGGJKcBt9zsuqqtmz/bhnUiQ2Yo6RJKjQapqhhUlTyDMvZBbYjJgoU0U4FiuzFiklMCmRiRixUc0o6fZYhsYYU0yBJIADCYyJWCABQRAAZVCNmYMSWGE19XET2yv1app214Kr+EOAIa/LfD6dTsd1XWDqZlnnCzVK3zSvS92BQMmFCEIcPGcytGScz/PpdJ7n2cFxbRHc21p71V4iArSUrgtSTbevRGw1MSWRgpi4Bq2RsEQOA0m0oHw42QF39ya/Ost3TIkofuFAPDKPkd8TTaVyCHK2qUELlZVaiCiRgrIXjGaGW8isiCXWFHSksqoqq6pmsTWI0PrpcLc8POZpSs0DBtQtvpuQdUGfuDsO/FLBWlVbEkVD+6DzdW7YSFD7mUT56n4CnJ37kvTOXnTaXvxQH/3F7Y2TomYvDes3B3w9DQ2mhAEMNvbYB7MC8kg52owLDZS1rZp4V8I67XaUia2yrMaXjMi4Tp4zDzViOp/P87rOq1fdQF7V+YSjVeual2Vdc8lFFxdkO+OhVqGaBGBz+4RR9XfX7D5pniXth59+UC255NygG1dImNmVcTOIhGk8jNNhnufpMDFRUfWD536nTlKbJK+mVxyCiXVvvgagaiGEpkG/wiGI2XaZa4RL4RhDiCGUoAZmKlpMreYjMGNcL3eHDeBZlk0Fdj8M92mIoGEYHBIqJT99eTKU9VwWquC7meWgnMAj05BCCNVBTBXzPH+2bKuyGEgZEigMbDEgRqRgIkqttklEOfMiZoAawpBEeJqmOCaKbAIlk8BxTGMZi+Z1RsnZiqoaBAgkUURY80qFJqJSoMrZmChAklPnEIOfusjxIQwHyKBEi+asYS3JaKQ4hnGJ5Di+AcxhgtwpHQqk+gfgrhApa6HZyETYSKFKrK5GV5+/DkbXPHw1GMeq6x+R2ysNZPM8H4/H6Xg8n885Z2a2KijRboFQSvn8+XPJeV3z+w/vQwgR0dnGuq7H4/Hjx4+fP3/J62Ll2hnMmg3M7/crTFxQnLSasULJCAyYgbmWgQczmGhQPmS5hzwU+jDT/Ur3md4pPRZORqEQEw3MYwgDp2GtiTgKMZGRZctmmay0rE2FkAEjA8NzzIBESJKFaDmhJFWxwlri/CHNZ5Tx4W69ezjHZAQFA9A+NS0i6gXdog5b/0LBusFK9ecm8ne3EezsEG2iq3TQlm3jWU1n3L+d0LnYDqO/QfldE93/+y+KJr3SzKxWPHhB/a/oiOP7wHVhTjMjIVUlJlLjVhiwi6bmpbiJqvMguq26TXA18LboyHrAqm3AZS+yWkeuEUwAVOkRiSkVNVMoORgMA5Z5zVlz1mX1uDHykACX1s3IlIRD80EigIRDKeaRsKV4zJk+PT3nvMzL7K4YLjy7FzsIbolglvM0v7NKrWOMTThDsznvYn9bu5jdS3MQ1WR/oVWgadWuLzkEQEIyDdPQalJq0WGIIjwvB9WsmrVBbGSGUqDaK5h7h2raoKK5eN5QSxIe0pCMouEg0asTIw2spmt291tTVWbAWkraOA5DDMF9fkwtGTScMnDOqyfRiUwJOgoiI0LFwK62G8C4C1QEWjSk6PkPo/BANgCjGZc1wNRMhFMMi+qqpSiUycyC6ZjXqcSJ2HKJ7IVykbMOoDFEF6gDmitMCAdIUou5wL1y16xZC+iOZA3R7Z5GKKaDYcplWFbmosWKWslFctaSgZKFRMRI0OxpHSAoWub5XEyhu6Pdfq1aI0i9nc/n5+fn0+m0LMuWa7mplwBMbVmXL1++rOuacw4xvHv3zn+/LMvT09Pnz5+/fPmS8+r6gbsC74mIbmpws8qQCSTnDIOJ1cTssFYXgNRRJpYshzn8ysI7ie+X8OHEhzMdjjSdMWQKygEiwilwHDiMIVoAJAPZSkbBqlRgGVpqnsOqQyiclIoypySBg0AEgVDMiloxK5reYVIpdwhHhCdiZS7AGbS2k9KSrrd8+xeU7M+D5ZVtt2rULfoAurdRaHdsfiu0y97ufsfUPEmImy/UDnVqz7Ue/1yl5F+tbXzuWne5Na0EALy3x7qNTLXvZZh5DSt04GTLRbuD0apDjQdK9yj2PQDlb2h3wBOmtlyoIXhyzxBDHNLDw+P7d+/u7x+pwpoE0O+W38HOqqQFgAAlr2vPzFovWiAEoKBWG/Wt6bFUtad3d4fzzO4ZZMTCTvO1oZKOULLXI7s73B0OBzWvf8dGQM4SpBTtYo5bj/dL0NSISyWi/b7Z5W7oEGQkxFIDBqsZYJoO4zS4XyURVR9HZgaeP3/+/PHj89PTsqxunzBh5OzhEcxiZsTEQFBEQshmX04UhFMKMR4KrUpiHClCAMDMkqQ7TiMkFYoGyTVmvmSISkJcxAwWmBNTYqJ1CaZRiwjX7FoG1TIK/dXjg+VVc/ag2WAWi6acw/mE5gmVS1mBBXZ2gxOzA2jjskygKRTNOXIQYTNoKdmQY3IO7UsgLIF5YhJVWpbN9aDkUnIRLhBrVTCLUVBNyyKlAFCFqg3LGta5lLNSWWMc3j+kYRwkemL5jgyfTqeffvrpeDoVU7uUq7bFBxmgavM8f/r0ycxOp9Ovf/3ru8NdTHGapol5CEMp5cvTl/Pp7A5My7KUUj5+/JhSMrUffvjh93/4/R/+8IeOgvLmPbN9zAPwcs6Vi5sFCUrKxmrKzq+4oezMKkRCJmSBstzN8jdBPiB8N4cPJ5nOnI6Bn4WWIFkYRBNkMnzP8T6Fv/t3ePchcBi/fMbxc/l//q8/mkZT16CtGJRImUtRZZ2X5eHuQJLiyGNMDBVkWFnzorZauKcSZB2ChpW4wMwWRiHKnT10ReHP5Ae/rIVr6P2qdQTFak/ZeYCLz/vCGN254Gtuu1d6xC8f8Nd7vd1GbjO77s4VGNF70n9wKIiMjNxuSbWa1A4OInI1tQ3NdgzAUfHKKtwrzaVkxz8ZYAoVqGIEIYlpSCkNwxBi6uUU0jg8Pjw+Pj5O04FYPDkCjFji3d39508fn5/vzufjOs+l5Hmez/Ncsqe9JKYAEzOBMYw9q3MzaruBW6OE1UNAG4Nj1yA8uTcRQDHEu8PdYbobhlFEkgxmIGIDmFctJiyN1vNVdR0i9JzitxjEt3WIFFIM8VK0UTeO+lPuZMqGMaUhxjENP/3407LMvlgSOLK4S4y/IEqEo34KKSUUTKZD0SnLiPGkphLrtmcSkWQpLBLUhEsgCgoxqOLBwlmmgqRWgusX4GVZeM1RrMaEVw6hOWdTpWItvZGJmmgJZem5O312NJey2lIqjK9KMBMrEWuosdZrCAHkYXREMfpxcMlFRIgQDVSUtnzFpDFoEKuydo0Lcc9XYa62LyJj+rzOa9Zj1nkgGePdw9043Y0hWc95SAAwDSOKEug0nzSbeSzyfgEd3PSOGubj6WMuZVnJ8Ou/+TWfJa/ruq7DMDi+NJ/n0/m0rqua6fl8Op81l6Llxx9//OMf/vj89MRe02qLgb9w5OkuZyUXP5tKSsyqRrBCWrc2mXuTMJMxecKLQneGX6/4zujDmd+dKJ6ZPws+RnsKpEwJ+KAsyiPxe8Ej41cj7t/hc8JxkB/vDj+dV1KzYqTVM9utNAZSBaUxGAuBAkBsFABGIigjcMkDz9C1KKtaMWWTJyKqGWd3xPW/arNKA8NtQksOWXS4RKtzjhPmmvCKaKdLoJGl6+SDu5e+/NcvZhNb8rVvNKVmWO/N6NVY9X5XNQm0zDa16EeN0XTTsyPSLo45KSB3grYq5XCbqV6zXBgkxCyBODAHIiESkRRDGoZpmqZpOgzjGFMSEQ4SU5qmcRxGYiGW8XDnovbh8d3d/cNPP/7pdDqu63p8+jKfz6fn4/Px+Xw8MUUyIQQygTKM0TINVlWnpWgKzEJMntdfm6cpICwxxBgji4zDMB3u0zAwC3FgEa8f4etdiuW8OrEPIRymQ4xxW6YaHN3rYl1M+47ujDl2AAAgAElEQVR/uKyEPfxHBiYZ4hAlbgyC3LhoxB5tG6KnSwb9y2//S2JJEtbz/FRKM3C0xIatBU9JDJAaFwtqk8VDVi70WNIM49Ayh7qytzJlSHaAwEYlUTOgWMqBC61mynArsM2zEakQxLl526Va1FRZlSuiaMxGaybKVXDw48BERlq0ZDgRrJ03ha2Ws5c2FHOvUIiEKEOdPXeqE1FVqfKKNtCQVEgJIMcYC6mD5MQG6eIOC0HW8jQXS4YkHMfh/uFuPNyzMtU0TvWMBA7OIfgL2em42KogWOfE1dpmngmMtKyro6IuSKaY7h8eDjsOsSyL45WoSWXKfD4fn5//+Mc/Pj89WTW1uRHk9qmvgKIUNvZXkRozGWDVCmEds1HPxEeRKBR6XO3XoO+U3h/pcGI+s30U+ygKMZCdVYsRCh3M3gPfMX494je/wqcBzwN++u4x//jTUY1KyVm59lMLCMQowFxEwQQJnuCDjTwKCiWGNUcRxVJMVW02ZbNojg+7Ad6JVp35f12E5hp9t1s15rqRcQeauF9mNXb7gbOaCtcpafcNvc7qjMY79jhMZwzX8v0LIvKVgXRx5mZru9MtDBdI+E324G/rt1UvMDdaEhn5Ybv4AAubKVHL92+oXrGAgf0/IiVPBy8iIgceEydJE8UDpXtIUh6yjEXSzFHjWMZ7e3hn030YJglCMZRIJVIQVgnPcSJk1jnq8fBXQ7i/f/p8en7O43TKz6ccj0s4nul51sWe0k+//Wgf1vt3YywUCgUjMWKDGjVJlsxIzWVyqEKYzGBkIaTHx3cPDw8ppXGcpsMhpsFrkaJl/SZQTPFwuHPPRW6VgmjXrq+8XKTdWrgMjf4gcaAgLLWqkL+A4DXazJTYOkTFZo/373TJ8+kURSKYiDyrFbtjcqsrJwCtpTyfUIpkxEKD2H3BkEGIGGItWsqUGYWtmf/rHmF1rRIxMlmEDWJ2YFnPp/P5tK5GZsJQtrUVS+z2GaqnyjwPsDtRB4OYCZOpedSLqq4OaqO5Z5GXQSeFqSplEq+3yohCHIRIfFWYyUxQw1DY7WpuKgODhIWCmKEoiuq8BAljSCGIGzZyNiM2TzWvmOeVnp4hKZgAso+JKSWXrDAwWEjICreUPE1tJrMCsLnZmEDMZuX56ek//9M/jeM0TtMwjTHGmkReJMbYkLkaXuNhJK5+O5FpsEslSo0aVWGxZ3v06A1jq0mECKaeI4OGLEpD4bsF32V5x9O7c/xfTuF/wHDQdPcU43PgJ6aZVugalvLe8ruy3qndlXI/54dy9zfx/d9FfL/ibxLKe6x/g/z78++PP5xXzSupcgbPJCs4M2aWZVn+5Y8/pafhw3eH+0eEESooEIV+isuC/G7gMh/ujpxKjlrGbAGJRY1W4vkiIVAjTq8dop/TNn+SSr0qb9tea1eW6u3RHc/qHWnZkWv1VbOa61FraMeupx1VcqNFN7jfSthxOdg3qRQ7T+hX7+72Ehfk38p2LtahMSGrXasYWvO6FpGarqehcc45XcT2AF7mMMSEEOIwxDRMGBISD/eW7i09qowrj3z4nocHJglhiumOD490eNDDgUJAEE4WgqbAyrLISLaInXD+oRx/oHCYJsJzOX/6MgxniqcSTzmdnstxuI/j9D6kWExr1qLOnWswpJu9XTAUzz5pYIMRhRDSME6P794fpsM0Haa7Q4wJrZb9jtpXk1VL6LShw82Yz8zikV98y9R2vWhOHDwxKXS1XFCYNt7DTCJELLsQXx8MqnuZgQ3idLXY/d2BAkuMaUie8yaKoOTPp7OVEpRTwVhsYkyo1e3AJEGIsQoKq6LsN6k1uNBFAIJF1WEtM8hUgxkpWLV44sHWw07FnIByTV9hbAhWAiCFCEApICqmptkzETZ0sjkfAmj54ry+HbWQSz9+7lxZP+P2Q4dfQBlULUxwQ2lhD6pnLsRmtqrNpWTmTFyIV9Xj6Xz66WM2PqQDIHBfVwMB67o8fXk6PR/XebWi1feTqtrsHgy1wgkzwciU3IxmWta1hLgsCzFrKSzifhlVKNvlwjevkYCqg/d8cgQy99po27paqvy7be5NDVL1e29CIkiwqfCDxr8u46/18P2S/m4efkPDuDA9Mb4QZgJASe2h0DvTd9lGzZOuQ86j4h7v7w0PWQM9KaX//t34Lw92/MOzzrOsARYzJeFhJcoGIs6F8qLPeZlXnp7C3bvw8FcoAiV+CvjCCqHJ0nGRyXA2FX3ivAKZGOAMywbjKqxUknaLdP38dn0cLz1MzIi+Uqf66lUb/acqlrfQYa4Rdi5q0cWHXygIf5FGhFeMY5cfI5ccrnndV9/crfK33ugbrVZYq1HVzFSq6kSeQoNImBMHHiSmNMbxMEwPabpLaTyE+8gTxztND3l4UBkzT2f+XuU+SBSOEoYhHUpMXwZmoSkERLOIJYBBhAjkglHGUeVdzs/rMtu4Dvcf8udnOpzo/mRPx5A/04T8cHcekdN6SrJEXrMUcrW5GFSJlLjrOiAxgsMIxJyGaTrcv3///ePj4939/TRNIaaeTW/TItBC3ZoDUZtF2mFH1CqCtYndSQ+XM2yoZaXl/ft3QYKQMAmj2qtbcKweT0+fPv3keXvMzJV2NGSIQQIyNWH67t07CiIpigSHu1KMRGZP5/PzEoqlQkNGGMUCIwQwD+MogUkocvFEn72DDqyhrjTYjM1YdfnypSToSsUIRUUBs7SCjJhqDobuKQh4UXSq8B9AZkK61S4yFc1q6rYIdlzPjeyVEZhnATUzzQrLEBBRq23sGIuaghRajAxn2FlR1HoKQp/QzJzNuGhRXUpetJwDnwsvwqtpzlqeF8KTHnxvcEtbirwu5+dTnleU4huIt+DQ5qrhC60GKJNwM2XUkLdNdLVG3LfcLtqjanZpoCrugFbweds61u3xGtzqAwmRSVTd1kce5wqOhQcMBxkf08MHvv+Aw/slPWqYwDBDAh4VWrCygEIoEGUuLCpiZqWY6T63voDe3eHxEILNtnzRNZAlkTtHijMHQppLjIgzMK/r+fPxacXw/rtmi+RBAitZoBwxA8eCZIhuyzCQETeytJ2dth0N/7omCrNXdIjrtuvFXgy80bc/z/781mbo8Nyr9zSCXokGrtxYb90PVEhqvx6OU1WuSGYmIizVRx/cIWSqUK4E4ihx4BjDMAzj4zA+DuP3cXgI/z9x77YkN5JkCR5VNTPALxHBS1ZWV/dstczr9v9/xso+zUzLiPTI7kxnZWclM8mIcHcAZnrZBwM8gmQkyarp6jVhMiKdcDjcYFA1Pap6Tt6XfCP5QOWg5cbLracheIS8Dt4ZC0ScqIIbY04kiVDSMFDOJEWYCIZmoZ4UBy1F/cZMXSuWRfZVbqqfJj1fYvo1aJ4G8aRZ5oVL5dK4NhYlMRZ3V2KnMGIncWKHOEDgoBDJkodcdmXcD/vDuNunUlLKfBX1JCZCzjmlvNvtxnFIKfEm8rb6ZoSq9TaJH//0p1rr1UCus/sU5a3vIBALpyT7/eGf/umfUsollUSJt6pYBNSaavvxx39dlkl1rdV5FiH1UxIT9Zp1Zs65dJjqCvgnScfDIe1mms7sIQ5jaOEkxIl5l7QDOwigg3DXs9NaVBVB3nUAgsI10ZxoKaKwULCDHSlAAUeA0NU0YsXQe+t4h7IIzEBc15Ej1H2maAGL6Nnyq1j3ehFEADmRE6z3PYUycyIqKQkzGB68Fvuye8Rj+GQ212rmRJTy2q0mApYguMGaeA2/FDoFLorFXC2s1fP5NE1TIIGYrwyobtZa15jDlSb28+f0uj176hoCELIyPK7/2m9jr3GILUDvUufPvvLz53eNyjZ46SoUsq4IIidzZwecyMODulRmHj3d0f4NHb6T2+9x8/vYvaZ8pwJThEEMEl2eMJhoMNo77ZV2QWMQW7i7trUPhIgIvk/4w+vx/xns5+U9akppTxTsRIhIe4GnrinLNBEF0VSXx3N9tStdBSaRELMmugxEHGbYN9pfs/7rjjXWZu3nTe3/IeNbPMQLXorwdKnoIOGW78ImDvW3G7FhXl/+nC3k2eCh69vjWZLl46M7fkVrqVPPTwf1Mqb1MOKUOCUWIe7ibesT3z1EKiXloYz7chjH43EYX5Xydii/F7njdFQ5WN5HObRynPNNk2GRMuejS0+4Isiba7MW8N2YbM98yOMONzsMAp3x4cznSr+oXCgtMcKDPCTXYfRhND5qTHVf73d+YSxOp0V/qbKrPFReKrfGycIcpi5ObsSbe2BHrFWnkjmX9U8qlAZi2YrItx+Ecdy9evXqD3/4u7u7V9cn+Trc7f7+4XQ6RcRPP/1bU90eZmBLauGZm+ilU4lpv9//8R//eHN7e9wfb4+3WTIzhwcIrbbHx4fH00MHryPQSzk7wnDFyFc/FTD3D+8/7I6HPA683cCZEGZ0nhNzYkaEqU4wFRahlHiKCjeYsTcOw0co09q1TQGY09YOYq7VVQUoCSngLhqDPe0yzJ7pu8HRC5yTEFMwOYG2FKpHaPikVE0NQUS9IWPVtV8Rpl5OTwpuHlXNESnlIjQSShJm3joYzSMMcV6Wi+lpmWtrzDzwmDOlzCRBstLJNIqWaE44AY8ay2zmoc21Vg8YJDrLK0CgTJS4d336hvA8Rxq+8ET2foyN3R2rikZrTXKiXlEBIqCU8rzq4Wk8pR+ewXcfDY/gWEl2DSCRBCAlkXFv43d8+73c/l7e/Kd2+D72r6XcBkMviAk5IjngIWYpvKjt3fbme8QOoGbTNL9//2H5/av+ZRl+M+L3r9IQJ7+84xgzW3JPgSwiZdgRHqrN1hYRIwnAiS61HrwMgizFmBjeQh7RWo5F8dYpqjut6LDDGfC1xX0zRZ8xRfyNxreiTJ8NWgt8Pg5+ejnn39zBrVnj+NoHreks+kiE6+V1vBFsENCLndZjNhNGvQIqusTNCotLb9TtAQozC3OSlIdxdzwMh91w3JfhmPJNKa+SvEly14ablg9e9hiOtRyJB2KJoiZmpIAG1vbMmC5Z8s2wf3Nz/P62vLlFyri/xPw4P5zmX99fPiDPnIiKRMky7BAHj8LIJbyN4VNgcbufT/MlnS95H/MlQE5kRM689nGv6ceP0UBm2Zq3CbxpZT1tanpGqpR8OBwOh8M4jvvd7tlMAgRzV/MPD/en0+nu9etpnjvN9dNRfr0X6yOfkqSSx/2+DEPPNfrGF+cAgRzUu9Y70LAag97eEeg+YOO2hUfA8fD4cJ4vu+NxtTUR4R5NeWoHo5KLtnoJgzYzygTSMGtuCjOpTUwBe7pmwpoyjU66sdbu2JqM9sQiQpCobDV8U+MlszBf5f365UvilAiSnJMRk6Ru8Byhbpcm3UM8sYLnTBujsEeoefOoGrPGjFbVMmjkdMhlHAaRdFW26BzrF21T+IPW2ioL7y2NUYpcyeYJLMbkiCVaFTQJg4V3ortVU+PK8kogB7p6UH92rmQ8XWZxY6gJhAOyVhMAW9NLyKa12/1L3//Pl6lHWtfemGVe6AWYeCuUer5oiT4qkujL1QPkzu6IYGKRVMZy+1Zu3vLtd373lndvbLwZMg6BwdEMdQozhAG6sC1uzW0BFuIgdmt1Os0ffuHLuRDte49UGcDcVC+mZ2FEZKE0yDKkRVJlGZ0ESxMAlAPkQZd5fryktBsToUCYKRJqOMgJZNtTEUDAOdYEaMRHsdTmI/62xvav9hC43jiiJzJX2nCZv/WIrVnhSxcXz35+4zxeD3++Atfl1nmTtmC556Mlrck/MiIXJhYZhmE3HvJuz2VH+UDlKPvXqbzN6bWNR5Q95RHlQGUQQWaUkkG1am22hDcKK+EUc6G4KcPbY3z/Cr9/Cxkwng071jEvv54v2J3AHFQgEmxMKlGISiIIhYkgs9ok+4scJrkwF6fcKDlW9WwOAqzD2hvIEQQSpiQpcerRQhK5xle9Brrf4GEY9od9KSWXPIzj060BgmCqu8P+7tXdw8NDznnY7ZZWP6pOXhOSdEVXWHh/OBxvjiCcpwuJ5FRaMqHVkvXWLCd0ncYNrHrSdepwh3RmNg8gbK7zNF/OF5Yu+YLEklkOlI2kcmAoZw1zpUgpnAPzUt0tzLJaMn/OuEhXVrMAuiSTubk38y6KMBTZDQUML71BwJ0iIszY1DTMHF1SIiVJuXAuxll7HqgrnkY000W4mjazlFNXUChD6VAeM3u4qi3N5qZT1QmxIJLwPqel5LEUSdKpFM0Z7uR+WXjiuA+t3oREyZWjdGSe14rjrrO3VDR2pU6qGhLeWeoI3lll+mRwdEkhiq7O0a1ZGCGory6g1w91Dpr+1HSRz2evxHVq4T1YWSW/+uva2roj+Ojh72HIJ4D2FUW8pu0jooGSIwWJUwnZezqmw1u6+Y5v3+Jwy7tDS+CEPdAcg+PPv1q4uEWosi+m1XwCzcRgDviki54e7Hy6A/bAAFjKIHazOWIBJVAOYkk5pSGl4swHGYniMXSAKCICzfxhmkqTkjKDlDkYxt4UQbxwrlSYYq1DRyCCNwXpT4KHb2sMe2F8Atz91kjx+Sds5eMv/NMnnwFQZ9F6hjD+rd3D1d5/WTrOt9zoinv9xmU9Az624oc1dHgqoqOebMOWkqU13SKSciY3BIzSUgYX5PCyH45DOnD5zstdK8f86h+m8noebpCHy170kPKQIajLJUhAXCjcapixibuEaVSXqQgnmQvV+t1t+cdbOPD9IKcfH+7/+4+H94NhV+iWgBRVgRA+ISAMyZEyOZLzUGKf/1PeH4f98cIyYRCMdH6Q5UKxANq80Uo7HgTvzXIlyZDTkBMjZCMMgUdw3/lTb1ZrqsxSxrEMw7jffTSrwDRP8zJP86zul2mqtfbn/pNlSc8WvGqb5vkyT2UaTpfLT3/+uW9unxTdge4gzud7DTc3UDAjLNBpBhEUSMw5yC20qZu6mfa6ICKWxCy7cT8eBk15Iiw5CveMeKfaCxOeVedaExEnTrn0K+3b1N7tyMzm3mrtNLcsff8QwrIfdpIZDGcP8m6oVFXVzq6Ta1+/OeVxNw7D2IlRfYPjzW1ZfAmqhklbCj8OZV/yOAy5FCbKOUdEa+18uZzaMnlV1sYmBENlMRNjCid3ciPrqZRZ4iK4FyyCnMkEleNYOokMCCFddx0w2iRgzKipBKegBKZVmn2FYxMswYnFEi1A5zzpAYT0H8+eMUIwrf1Bbi1J+fD+VydaKeo77LDlf6/IQGzcSS89uxtOvIX4gpCVLm1t+nGtkqqjEBeXvafvl/IHO/7jqXy/P/79/vXv/ebQMmbExTAtmE749d1CClJ3DTZXR4SVmBreazT1Jqhe/cO79M//dfrdm/Kf/3j34T794bvwwGU+IynlyTgmn4eSpDBlT3xiCIe+sUO1t1OMZ5bZeWE6JbtJySzOGZqIkQ5LOPg+v95rJPmpEAZYQlCwunUa0K1n6X93fOMp0kcqAH18s4d49lnXxNHfOAUB4NmHfekKNwvfPfBvH7hho9hcyvqTrrhxPCu22JT3unpCL3oMMKWSyDIkEx2G3V0ebzTdRH6V9nd8fE2H11aOLgOOO9qPXAbVsGWOYHdqNcKCLLz5MqvWJg03fiTm5b7xG8lmxdA3/AfXgwH3U8QM2gVMqSlzE9JMUQokacng1Ck9U7M85MNhlzgsyJDIQBYwxEZ292ytBLCyKDNRbNzaBBBjzTXF2ljXTH95/4skefvddz/++OP1/X0/WVv79ddff/75z+fTWVXnVjvr6wYAYAs21n0kERD+eD5buKr9+uE9renPjzwEwQE3W1qbsHYGr5KItP5fcN/quqvq4moI68EFkxCESQkVYKbIuUiynEtOTGDm2lqd50uNc3gEmJHCeU0USyc+IWZiMbMlMOkqQ9xXWkmiwqUkYgqKIKPOHkukxCeNE4VbEHNmaZI1l9hkORBwYg2bwmfTaq26hdlyuVSRkenQi4ZVPXye59N0mZd5qYuZqSkZNTiyLK4s3CfFdEWZ5nm6zPOptaoqgDXV2tr5vHafRAdMQ8JzhFgkj8IpJ07BAAcxBTN4hXfCxEXMGqKtsUPYmlJZI/ctBl+7EdYtSMehgfP5FMTBzxsqqXfbgHDVPUgp9YKxDRBY87XYMJaeZbwWsnUMIxxrA+tK6yjgHZc7Gt/6+LbevJbjkYeBinj2qmgN1jAv+jCfhpqiIhplWygmjaX5VHFafEnSEtdmAZVf3/m//Mv/3Jf/83jAf/vv9b/8t3+elyVlApnFAndFUywMEVoQSGIj7CYymauXuaU662lqSYhELoxLCsBdfeCYkBYUAxFc+ryucjIAIfyrm/9vssFbh8JXRnrOorOd/y/1ENfr+g/wDsDVbOM6Fb95oXH1EJ+9+vLx3WGu/qCLUm7ZL6wtc35VaN2yYu4EGlJOScacXuXhFY/HGA+tHNLuJu2P6e7O8s7zSEOpKdFa1RJhruqXczMFnJbJLpcKt2xSvYJGypRbHt2KAUAGRvCOaLq/v7hMPQQlU5IqrIV57zREejvs9kiUdnEzKmFJqAz/Q7gHqIZ7qEVEJdCFehUjka8N4NcQ6inv15GDiM2bmDnRh/cfTo+nn37686vb2w/39+sE9gIgoKsJ1WV2DxaubdmCv6ead+CJ7oPRZUDbw4NW1XmaNhCCn/EPguBMDjLqMWTf13dKQt5O1q2jenN9JO1GK5jAweyZQUzCBCFkjiSRBEW6r2nwBX4mvzDMe0mrJiAz5yQiCYROMq3AwrGwV7h66x+848wpQH2zvRGwMIMczLbSb4A8mLhpy7pyZmyIWRfYcG1dZ7aLnba+6pZasyRJgsC8zNNlWuqiTc1NVXuAK2fp/Knda2pXoHNvtdalNQ03gKBVF261KoBestlnOcO/2+2KhTY/SN4x5yBauXmll+71hATMyL2Sz33HYeGwpftdj76f6IucGNfqFWL0tMowDkEcVz6WTWJ6ZSLaKlxba/f39xLB/gROeH8Utyiipx1iU2hcmzl7cTSEaJA0prKTYT8MR9vt4mbUfWkDs4Su5CTQGpfLyZbpMjMaQ5n8UuJksVhMDbV5q9wyNxGD8y/v5v/7/zr98L9++P3vvtfa/sf/+BcmKim3pgEHd7TMwtVX/mdPrANO6rIElRbzFHZaai5yGBdgCjhsj47vdRPXATZzZ3dipo5Pgr5slz9H5V4ez/ZqXxr/WyjT/49jiw+uv//2cWvAG89fe3ZAPH/xmXuIa4762cH05C6CrtlUCk4xMg8pHSXd5t2rfPNKy2sa3tLtaxzu4mYfaTApxEkAwLXFfGmhMA17rF6DQ3jxNJstVauDkxEk0053O/WdA4ADN5zeDLu/299Mv+jcThpJWSrTwjFno8plnx73/vqAQwYIUvapiFdpQgPJSMUoG7FS8elRL5PL7JyMknWzu4FBT9OwlanG1ZYFAJweHwEQ0ePDw3S5bDPUPUS4h/qqNpGTqPnWQbElrrb/rnXx10mfL5dnjTUd1NvYEkC9XqBfXe8iXhnlIlZN126CPdhCenta7yJ3RESQN4oKozCDSYBNU5XuV8ytep1DZzYNhLt4Th5DoMDTmoYwDm+h1XV2rd6at55WrDUW2GE3DCULE5P3cpS5LrW2uVYzdRARm5uazvNMG6rZ/+7C1LXVq/BxND2fzgh0jaAkiZhMTU2vUt0RiDBT6twVYISt3OxhEe7WTJutPZIObQHS2PbmnYCC4IMbpBRnBO8DR8jQ5S97gS+eJPyCOTgpx0zOXmHhphfp9/daOEYI4hAKEk6JZczj7nAs+91wd3QisKzRAxETbxmvLUDwsNb2KZ8+PLRaa6tdrKoTnkXElhVcgwlaP/o6hGgk2me5LeluLK+GfHsZDg83RXZUxHIoKauhKi7T9DBNsAZlqEA52TT6KaMSZoMuZsSWqJK0cKmLnk6/vn///t9++NPxeHTT/WHv4cu8TEt1CmIH3EN7JXMgMl/2mCFhZtV2ybIspKqT+GPCnwUWPkrcSHjvOsG2e+ozEitY/jWz/K0e4gtmc33sAADJ/v1iiP/Q8Uym5jcP6QFnfHsMsQUnV1ipn2ar1QAQQW6IlfpspRFzZ3hm7EQOkm54uE3jnYxv0vH3+fYuDnstuWWuFBQWBlPMl3Y5T1CCEi/OS0iAG1BjujSblKUGmRemy44vxAYADIyBG05/fPPmw/1pvqiGKKUAG4W3gNpk+vMw3xwyMUQwJoikoF1AmNKIpERK5CQO5uFCbeEyuy5m2rvPOzIemySQ+5qpQDyxGvT5Wvujuom6znkvcKG1XSAi6tIFHKhXOcZzFoGtNICvRMdEW4PDFTfAdS1T30FSAGtDWWy+PTxg3lUwOYIDOegA6byL3hsFAYXPy+zMC4FseeaK1vIqU62t1WZq8OAcJBGFUNyLOigYEJCa1rpclqW2pVnr5U1kdKrzaU67kpMwwymcCMtSa9Ma3jz8WhaAp2zrU0gcgYCqmtvqpIGl1kDklHPJlgwgM22tmXdl8S4ODXevWt1XWj4PCwtbeaY7NxT1EjUzt6Wh11I+8xBw08uyE06S9xYHyA5IIN4qy3qpGEDKYiLKlDrwB7NgCb9mFKjHbGAJZkgiKaUcDsdXt6/SYRc3O98AJoCEmHrDHXrRfxBAHmm3vy2795wfPtw3yUuttbU5mpJvYkCrf3C3NZrA6nGYmIKzHEu6HcrtkO9KvjmX8d2IJjpEPVbNzjCZZjtPF2sLzBGCCDhnmwY9J1JGdbYGJ/NCDfVillIKiGur0zzllA7H492dvL67O13Oj6fL3FrJXS6vWazXmFh3PIPImJZIOxrI+FfVD2E/CwwA6TuyV+yGvpfxlXrRIxxr+e7X08t/SQzx26e4ji+hTB+/5z8MQ/qmEd/gIdYDN02F3/rnz17BVmcT6/P61NCPAHpeMTyig4MBBJFnkkJc0rjnNEJGGY67mze820UuSqjwSs6WyLEsqF1fA58AACAASURBVHPVS0UwGUqNZERhZDBV0YqmNj9GKu0Ul/d4/OXutEMiHG+QNUTj1bi/yfNJLEzUu9p1rywMkL+7P98db44jlBEMIggEtGOiwUGmZOoezYzP71vLogPmDMzxzHg7Iro97o/sE/y2qmjQuqGnVXqmz95GvrBOo2/ONa71h7FC0f1znqaf1nQtdYwG3ZYFEZ6Sl9i+owIW4SvQIAx302qrlIt3ga+R6JZLL76yCItQi1PEPbdlmpo5th6DvqK6hwj3ZqbRGx4AU4vwgJLOWJhIQEIwt1bbsixVa5fA7k+Ws6G2Ni9M6B4CgLkb3BzaE+r8qYd4EvJas2bxsbRXNNVmlrT1steNCttcvedwqLPyqWENh57qXWPlpO7wBQXgqtfQjXht/iNycTtfpuPhUPJQgCGkIAYguwNK0UVeCaDKqbIwkYWLkTizIQklYVp7q0lAHJyCBSKc9sPw6nB4fXubb/bTwE4sYBB6MqKzmG15jqAAecBDih8P+3q+ZNAgUnMWr3WtnVr3cAGo+Up+zMI5MQmzwCWlfcq7PBzzcEh5R7n8iQw+Q+2V0l4lRamTXtoMawjAAibwIKviE8OJWkCdXCPUK/miuuSMYSch0tqU0u3dq5s//OHvE8v7Dx/+/O7dw+PpdJkAM+27qx7ZzClOhW4KtYEczB7kZu901sjgQLQTeSN3WLghtK9zGCMkeov8V4GhF2q/Xh7xdWcDvOwhrqd4vkZf+tC/xG1se8xrbPOyC/vGBPtLTuxLx316nb/19uvrV4zl2YtXZkm6xhCrbk8wuZCUkJ3yXnnvchv729gPlgWJjeHkANTMFkwT6uLWQP3pMiQNiWBrYYvbuWn1ZfZxWCY/n/XxnD6cxyIoOzSDe8DszWFXq/k5aq0BWO8Fc4b6Za4f7s93uzHd4LhDMJgRCcScIrPdSPsdNM5NLw+/xPSIunStrU4WB2x7mAiHm3cJy3UKfZOQuxb+9rasdYo6TN335cEE7wIbz2Zx6y3pY0tIrMARgTrl9VqtEitQuI2e8ww3bHX32FIkXWEs3DiidBVW4ptUAATREtHCFvcl3NVNF2uNclqBiR6MRPSduHkYCJJAUAtBQC0oErMHHN3eWlU1NawbidUVukej0BUds3WKrrPaF9eG1sTmIp5SEX2iemDxbGW6G4DqZm6gfrX9XlwrCRlrf/V67yKia/BF52X0p7Ouu5yVwmileSe4IiatFy2HnCMokIJBAJshmGAb/TcTs4uYu1m/Qz3O7KWz0rsTOJhB7CzBRXjIqZRcSh5L4SzOa6xBW28EX9tj+gLziOZTq7syvLq7Xea51ppUGLlyuIV6NGvqjk0VsQcWIIYwwDntUtrlYcfDiGGk3QHjADZEQ9MPFR80IQxNQRVsa62sOzSy1uyXhEhk2apQSOdxjya9Q7vakJM7cpFhTHd3+7dvX/+9fv9377//1x/+9F/+6z/3O7TWYbDAVIActsNiXENnr3lviNawOHYEKNyTabJFvDJ3l+xrhQw5UXyDwX2Z/u7z8a3Vri984ouG/yWbejW/XxvP3xxPL35+4LdlTzb2gheu8oUjv4iWvRRDPEFsG+MfbddLRBhKmWQWESLun0hOpEw5O4aJDp5f7/d/h5vXcVs4CRIFdY42uj/74wMeH3R6OBUntmADa0oWEkuyReye26+zLrVS00NVej/rny95mO4yUy3lp5OempmphO0Je51qawhuLCEFSL049/39iUnvTzJheH2HMiAzODeRiJZoGPfjje5f/TmNFxpmYwMCTlBs8VkHFLrOBW005niam56EZEa01jooTM8mNIAeI19f68aw/25bTvk67dytRWyf2De4PX74RAgATy6j5/N6Prt7tHDLEfs85H1OFtS8wU2I2NWiWWsewqxAB/KJRXqXZyc1CFjnsCZyOAk4Au6dmNvCGeTu7DBzVfNA2BXrWtekbXSi1+/I29bO18N8S7SSr3qd8clD8rS+n3uLWF1F70GLXnuwepQgWuuRI3rNRawpYlpvA19ncO0pWSnh1zsHKKElfoQFsZob+5v9MafEZhS95S9MzSymRCeOptFgmsjq+jWHcXdzPPZvx4FMTMYCFtBQShejYLedsXcRKATIesTU+gJz9zWG8LbU5TIjYhxKGbJbIFApjMgR1ezdr7+cp0nDmYnQiWSQiZzQSxE8pFoQIEXyfsRh/w9H/6Ep3NEC7HBFr2deFOeAMxmVilwvYg8JyGF7jsKgUMfiqJw5gplTT7rlIe0Pw5u3d7d3PgiOt6/ev/95vy+X+RK6RECYI5hMYAchH3Bm5JiMbPdwPLxt/IMHiEE+QG+17Wwa7IwuJdSDW+/qZp8aq5esPL1oWX9jfN3YvpSHwMvW+9NDtsO+aTt/jaG/fPBvKzd8er7fDAI+OeEKDv3Wp74EqMWX/hWU81DysEhDzCs8GwxP7hlRKO04HykfuQxehBnB3uPG2ux0yb/e++n+MZnnLnluTq4IQ1TyWXxmn9hnWsV/xG2putQ2a8S7X+T+/uFyvlweFr1Em4LbXMxycIYkC3VGCMImRI04W/vh1zrT/s1rHAfk5FJIRvGhyDjmcTfsbuvu1C4TISOYIhGtVLAd/Oxz54inAopn+2VYGFGE9ubba4ZrdRK+6QX0dUIfmTyszJ/rad2ZyGgrFdoIrxxE25H96BUIf4roOr0zOioRQDBDgMQ0BBWhFlTDVT2bDYHcsS+Ek1un5lsFZbpNW++/B9yc2T24BwE9vnJE1zo1d71Kcn+2XdmI5lZT/5ThXbcssVbNPesbeP6L42N38dmva5/5NSy7ln6uGpuxkdJHhJOvEiHdETDQcz6BTpRItDaoGxHXiItWFipliLyj/cHHUtG1P8PUTVuruoTP3uZqzVXNGsJAaSgy7g6HQ5JERBzIkgbOnfJKUso5D8PAq3beqiZwXSFbjd8KTYZ7IpbdjhC8skMSQEpkTAH0lIvTr+f5Eq2LARMRQXocIx7swpESSkbJvB/zvuz3Rg29VQWW4AW1AYwhYTBUCoSFL8t8mc8F4eS7sQclLaABWwMDRERvO/eAWVR1EUAN7g3ROCy8hsN6oyMyRwAkTO5nt4BanvimClqCBki/b7prKtpgilCQrf4hKMJX0dBng1+2ll9hNV3X0pbE+fL4Esr0tU/YdovfcoKP0ZvfPOwbIx/gq9yuTx8XL3V8vHjkt7wYJCnnMuS8dL6CXuXBkRE5MKR0iDTmtKOUPVnfrLlhqXVelg/3eP8Q5J4csK7t4nCFN2AGFtASPsMX9wQvCJjOulzaUkJ1seX88HB5XKZzmqdoc0A1u2enHDKkUKe+7TDChIiIaZ7mX2ul3e9f0zHFmAhj5jHLrqT9uNvdtvGxjRPzCM+MYBicotdo0UpN+MzMP0NCtmDuei+oN7htTiICHHTtp4xPSccIz0nx+uqnzU54B+t9g1yeGus6ksV8LY4nB8DkEQYLGFNQAgXEUTwykRAbyEDmloCABLlHOAXBV85xrP2QPVf/5IiuzB/dKvQeEetcou7h18T8s6X7vBhkW3FXPG3zEeskfhw2d46v7oG/0H0aWEtC+RqiEQHoPOn9LrkHkbkTGEhrhNSnk1c28TWnG4C7hTO7u+rsxqrH/QG7QY5H7MdZvEdF3T1orcu81LMtiNnM4JVDE6WS0zjeHI5lKEkSBxKnQXIm2WqMAFqJu7FWM1zngtZU1/pjnbCeRU+dx4mFWILYmYO5hVuEE/w9pqXFpjDKklhSJ3Y1oZQSDYXHUXZD3nPZ+V1OHxgQoDG099sRRsEQWBgpFDHNi5ynGq6se85pSEK2ljt40CpN5FtIrOpq3h0IvD/R3sLM3cmIRAIOr4CBI8DBQTnSMhyX8btK7xqB7ZXqrimbuxujM74Y3FYX+dmKeHF3/41Q/TM1nC+Nl6pdv3FcPcS3hBCbEXkZHHo2vpH171sv+7rbfXlP9uz3L8BoH73kG/bEV7Q3QA4iSBCnXJAGypmS9bAwCOaY6vTh8XFaSnjmHkSvmnRGmEEzYiGagXPT+/P5MeIuPFOEG0wn1cFrq+eYzud5anXJdY7WQKrZdHAaIx3VWDAJFARKH9gSe0BvwwaUokpZPKVhYByyzYkuO/eiy9CWbHWA7REJVLdp69ayG7+VboKYO6Dkah/ZuD6X9JQo60CHX/O/z2d7dTeBDRoHQN75s9D5dWIlx9rYoj8KLikAITns98M4APhw/34+q/Wyz6dNPZRiSeSMJmQ8hAEDkVq0MDfrEp+I/q2IukJW+MpC0nm2mEhk47SNNZjo3gVGKwckraqLn0hMfTa2Esa+LYsN1F/N5ZXc4y8Z8TSnnQZGriyKEWFm3YHHVmTRfcSVVrb7iADCxd3gquFGFt4ebBloV6D7Qm03eLeBkqnkiKKPPE/TmWyBGrklapScqPR28WFXciYgEWcSXgXCY02hx4ZZdsrAaylJrFxOiNV+9QXVCVeEuReGGLsHu5NFmKqp9gdzXbCBNTUs0kRiSDKIFfFdjl320dpotetGMDArOrs7FVigGS4KDiRHKq6ibhV1TsuYR04WoUCIpHWSIzzicjnfPzz88K//2r7/3eEw/vLL/Yf799NyqbVLAvf1LxEOV6cxQoPdXUm1zOPtaf/3O7wS4eS/u/jdZEnN3VbhcDi5IzzYsTE+XBfYSxvqb7D711qSb1hr6YUd9l8y/Nss9YpGffXYv8xffcvRHnjaAX9+VU/T+Y0fHbTyDHdz1KtY1oeOOj1YMIFtBfU3/mg1r6ZuicJg0ZHq8KAwiol8AhbCHHHR9tjao9AQvgtQGLktoUur7fS4XM6XOlmdc1vIlclatpqdS/BoBkMyvI8MZpArOcjeM79hP4cOAIg4EQ8pxkzDkPNxKLc5nQij+4Bg8AZk9xXUi1KYEyfa0jFq2o8xd3eL7dbSs/1wR1JWuOCzgK8DOc+nnzoKQgT27jeowyhbDLH1UiAouFPQpjSMY5exhFrDPVYiuDAPNQ+gZY5EnrgmKDG8SLV8qnOLMO0QvtMGbxLA7OvNvHqIVfCufzMCMbgnlkDi1KMKBuzJzm0CCZ/kDLvf9bDYHoiew+9OCltxUWzxy7c/DZunJpEkIlfLISJrGTCg3eCEd/8nKfVvKL3XpJc+hZ7tAQEPf9Ra2kz1UnUIp76VBVabHUQzxcVtCQfBhY3D4W7WnwbwmmlxdwJ7WPTuUg08fdU1DsVK7RDbYnhqmgPgcIru3ihAKmJERqTh58t5miY1jW6uV5qTXpwFTwlZPHNLrAxlq4ya9AKAeMUGXYGElBAEY7wPJEVCykNOo841yD00iFmACJE0jsMwJpF+YfH4+JBy6go/pQyXy7nW+XI+aWu+lX5EMMMQFewRgDMYFiF12p+XmwMNCSx6nHQ3GTUL7+XZ5giybS/1MSn1l6zalwdtu75vWGB/fQxx3ap9k5O42uEvujj6LDr/7fN95UOfRTidRPRLaNjTXH/1u8S2Ud02Qk+AQGe7TSyJObkRDOgFo7YWqBPBOVxAvLHqI5xcOSpHC1/MZrPJdGFRuBISQsPMzazV8+NpudS2eFssNMGEvSVfUnBySY5iDOsKtxnknQ4VZBPZgWIOy8wFNBTmXUm7cjzc2X6axhPxiMgEImiEXqstAwGiUvJhY14ys1pra83UiMkNaitfaQSuge81+UNrcPFpJvaTWK6DPMTM/iQj87mpjd4mJWmVFCXOKe92e9f28NNPFlBAPNSdPUxIdykGiZxqpiZoiFxxlKWdH9sym+tKRbxC+OQEli7UxiycRLDpRVFnoSPZvN5KLh2qqs3aumHHmrO5BvvPvrWHwzyesLWeqaCnOdheJeo+9kuwa1zf8xRd8SZvtXUWoxuVS12oqwt24TohMO2Px0QkvW2tX1/YMl9aqJpdbC4tSxuxTJm8cw52ilpEuLYlokbU8LWOCKIe2mM585BOaIgiufNlddapMHfrUg7RSXGf4opnX46uuOParIct9Y4lcSUOIkNM02WpS6xY39bEvu02SCQSu7AxlKLBjYAca4o+gHC0LZx14ADcJTwaGKnIMGRbHOSSIBK5sBkNYylDEmHitabhdD4ToUfXt7e3wuLu8zT3jZGbRYAzZzJwZeJA8qgO0SDUmqdWZuEhWKwsmqtCLdwpbKUciAg43D8q+75O0wvL4qtGrEdr25bniyb3JV6mbxufVLZ88chnx3zlYPpk2/WV8/72XDxd3NWZ/PZHX6/w6/4ysHWx9l3y9W93wEAlSQxYBrMEBcwRgeZQDwtiIFOkoDHsoHOOOfuSvIk3ihbWwhrcEAvRIygR3G3Q1qyqVtOqy3S5PFSPfThTENAQC4dkL+OSU9Bo/FN2lIZdQgFEoYFl0RJVuYIrSAQYGONAuzsaZ873lAYWYQQJqWu1/qd1pYqUUylDnwB367nNxqpNVc3dtpijg4RbGg8fedHroiSiLTn0fM5750MEE/cqVqZVt5SuiY81nBDiVcVpNdw8lLH7Qw3M4WdooghQ2h8iCbKogErmJEOjvaWLt8l0qQZs8kTEIBYmMK9BhPBKDMHE3O02bdlVoJe7exiLsENStGhNe4K+i7v2CbkmcJ72E6BAdHmF/i15Q5li4wiJQNjartjlDLf1HNdzdaf1hG7RShC99R520Q0CUTYzq11So98AYoSqp8TunJIQESg8DrvdSZuZmtulznR+UIp8KbHZaMTKajtraxHWpdip54GiapvnOZXsYW7BgLj1ijD0og1zuFmr3hdOB+2uuYdnj9rqbz96noGgyb0SIrEiplrVqoenJJ3GkRicmIWQ2TryG4EIDZ9hS4CNbgkPMAiQDUMDKTCuGbQBIEWrYi0XHsaMFjmLJGKJlHMpzOJEQXDz5mFU/XyJXFJOebcbkbKbNa1WtdWaSzbTgqGMKSAeCChQKSiTi85pXuLRLJJkv622X+po77O/J8ygrqri3gPuZzo12w3/3Lh/m/2k5ySxz7Ymn/ig+OtjiCe09+vQ0crO/G2xxl/psPo1ffbmTbflW94bL57h46vDWkvuGzvT9jcQTgqqhe2Aupsos1FYJDOqBvWIYKFgCgkcrN21x4J3KR7NbiIE0cxMAsNQUo5cTimnUoRZws09GLLfHcnPy+USeU3zBtTJyCQZRj1Cc3D5nuzPqeKQsGMkR1N7POuQFkkDWMGVQBk+DG18tdD5UkUjcUpMFhzVWtNatS7WFm1BSDnnYdVyqTWg7Ah3b9Yu02WpVWQTS/6I1XPba29TR7RqaQKIFZZZybv7FHLXV1jJFEgk8dqqcE2GA0Q5p/DQ2upc4WhL1drmebksy2mpj3WuOmdmErktBAGYWDiLiBQESW4dQeI13SAsIswiiZMwd2QmOljBabU76DdftoISomCy5o1UoaCIRCByjZUqMHogj3BbLV1P+xM5RXc1ZCEppSTXopTOJ6EIN+s5j8SSS+7At3VOb7O+GV93yrHByrFqd7hH9yn9Ie21QAJii+gddonhobURyAVkBuZE4abHcUd1ubSqrpf5XFt7PJ+xRbxYT9jzBEEIcM/B9n14nKfLDz/+6e5y16coB72qNCpWaYstVvEwf2qn7CEnwa+dqgBgCEdYhK15CQRgoGlZNGBJKkUTONwJKTPnlEvKRVKilIiyeJAA2YI9LHwiWwJlwU2CE04MlI78GHyGDKACXRDt5jKntqTMh+PgtRzuSikuSVNi5uibhCAzr03r0iaQL8s4zZd5niy1ZZ4eP7x/9+6XX9+9+z/++Mck/Cq9Yh7duZeBBC2ZI4fDFp+W9H7GwmmIu4i9tp3/VPyX2Irpg/Q5k9nHVusrZu3lQU+U9nhuwF/0EJ/XMn1xa/7XjKsV+Hc87cvn+swNrRD5v5eHAAG9ndV7L9LmJLzzoFp0zR0AobDm7o6mVBXqbtajYGfQSlUQhnAOdYtA49AkGMe825WhDLuxHA/j29d3v/vuzXdv37bZBqrTuS5z++VU0cvsvKlW1ewujsUxIQTVMSfMC1rCQAj7oJqmVCQryDnBwYAkoPO60ZY6JwDwCOudBW7WS9AZV1i510kSaF6Wy/l8Pp+7WPTWP/dRac4TyLzF/T2xsTEKrCR7gasJJREOdJ/4BBrEx1Ubu/P+eNyXUu7v7wGa56ku07t3v1zu7y8PD8s0QY0S5czLXIOZs4uLmqcU0fVWmUmSSIYIJxnKkHOWvpMGeZi71+aBiK7d8IQF+RN65Bpu4oYe0AlDSuTkzdZJBSjgId16m5mFE5iES86JhIAkwsz8NGMw91p70X/ihJzzOO5yzgQyty6r5+bR+6pV0Ru4HMmRLKQTIcW6b+9lrUnd1FwdagDYQhwCSsTiEIdIMMAGJqYyhkxTa9paCKw94WfPnoQO5oCJUkpEq9CSI6Z5VrO+FlKQVhQDb7KjPWJj/sjSoVekxUb4B2DzEIonVK4vFAWMoGoVXg0uhCzDMOSh5LGUnJMwMTwiW2SLZE5qsv6BKPZAZoyEdwTIAKlQRatYuLNjphHUHObjWNJ4yNk5BSewgOARoW6hutRpqfUyXZZlbqrn0+P5/JhT+rc//dv/+z//1/3795fLpZTyD//pH8w0why9AsN75XC4Md8TnJzgzP2phIZfPLTLdRCB+1Zj7U/6ywoZfmt0H7GWRtCT73/6exvppdqov8CQf0tgsNWv/bs6iBev4Ip1bPmMWOvOvyV6+dYYwqxbTn/CUQLYoNDeyuTuar6Iu3lzqUbVTOEczOG9O3K93REUzuHmSqHMXjLvd2XI5bAfbg77V3e3r1+9enMnbZQc5Xy6OZ/P788XQBHhMbtXNW3OiktQApgrjZXm2lC7jjsW1/dzPZZ9A6usHM65e4i1OW5rUltncSWY3LC0jZsCyCnPNBNTrcvlclnqoqruviJM8cTKt05qXCvZ1w5arOlZ7znsJ8qK6HEDuXsnHQrvlWMfFUQBkIcPd3d3h8NBRMxsmi9tWd798styPrfLBVXTJsRml4lTZgtOSiIgZSm193n3Ri5mZk455ZJ7fGOm1lTNACcChYG408xutUjrhs7MXI3VOIJ7P3HHz5mfpyHWyiX32lprjZiy5LGMOSWWtQwUm/JCr+H55eefM1jCWWRMZZ+HUgoIYe7hpiug31o9z40BYggoeXQnQdRXWvRu6fBI5qbu6tCIcOYQUOKUyFO4BNjBBPIVxLdcUNtCLkHwSGvn4saf2Le23amvDhTYTLkjltb6l7HAWaEOdum92wxhJl45lWjtmeslYb0KdoMnbBMZtGdyLw4yhAbUrUYoEXHKJY/7MQ+llCHlJCLEHIjkGAzFAXUxF/NsKIbEYOA18A+AEU6U3rGfmMCG7BjcdyaVeEaEl6GkVFNhkc4cjwhz06bzPE1Lqx/ev2+tReCH07+mlHJKP//051/e/ezuKcmPP/745u2b/WGnZliz4wRohASUcc84JyQEp4AA7IaY4PZU9MHXnP1n3XB/ncOg9Sn/uMl1zX59cuyL3K7fasw7Efs3HfdtUM+3jy09vgHZG0rdv/MKmHYP8WxX8sVrfB7g/uZBPYZQ976be1a6FxvDVgBOwRbeKDSsuc9BM3whHwBZ2ZzWi2YK9CiSVL3BZyE97oecShFxbbshH/cpwkwhGSlbyna4kZNOMI2YPWaPZIGgISIFqLR8NzFXuYQgHPvxbr9/nfRuP9xk3sF4QTi09R2xr1+szwEjgHlZlnn+8P49ReSU6jz/9KcfsIIvrmpmNi/zdLksy3KZps4+3VMJzxNJ/Ta5XYEZurqaNe0YsfVsekQkSZI4wmtTbc3DaHX562peQXbC4+Mjd1MDX+Za57leLrYsaFoCcKhWm5ZgcClSiiR2ACzgHJKNwDlniiASJubUlWfCXFubp3mepzykMmQkoTAhQRdT6tSi/arMo1k0JURJKXPqXzCuDc3rF3P0an9VeCTiAj6kLDmxdCWJvg4AgAIcKCKgAFiYB5YdyyAJoF5JZzA3drLmYcThliAMJAfX/6+5q+ty4ziu91Z1zwC7S4m2k2MnL/n/f8uRnRxZtsjVLhaY7qrKQ3UPwOWKom2dJKOj5RIcDAYzPfVx69atpqCI0k0LhT6GOgSVWsW7RLgopVDVfHUkK1sRQsJDgA5hrev9w1bb8IyOfZQU5h9ZTHcbdecCWLnK7gaz/5BNsrnFNStLDM1qASfYMUY9gBDEnBEPOJhTwj3cZ5YPwCAOJCFMD1UPaz2uy3pcl2VZqpZC0CPUMofwpbmfezw+48OzPhwOzRbRI3EI1IAYuuC81L8Qf0P8+A0fP/af1pf31Vavx6oPh16LF4WIzQgKZtZaa7217bIe1m3b/vL9961tFD09Pz89/tTSRwZUhCmZZU2AGEPvI4IeJn7WiKUTJsW8gtUA7xYxzL9QIJHKAbfztvYH6h/YuOsXxKuXP7f8n6FMMwz/GifxtTWMaXx/xSzi7Ua/134oJj/+a75L/vzyORIIM/duZldKk4dLYjPmZkazCHWg0zuiAx3sDBtNv0QwwugJNIXQqBIMFZZSUC0W1nK4vz8cD5WI6GY9O3HcfPPY1lWPq1y6hViIiVDZPVpgA2o1sC3W/WSe5MwT8W+1Vo2qVgAV9A5NnCRsRGmIoKffP58vz6eXVHGI4Mvx1FtHIKfdmFnv/Xw+v5xeWu9mPUbhlNda9LwBPjg/iLjGjYOjP6/eTCCgWpaliLCbpdRzsjlk9n9SkJXsRCpExCO2y6VdtqfHRzHTQDgKCIsONzJa5/ksQqiAyrqu9++cqrVWzdYKEREGBPQspZh7t05fqtJdQnMcBQMlID66z2DRu0kzIoRU0VI0W8CNERzzdGSXmSq1LKHUpdRVtLCADBHf0QNCAuI41gXdHSZkCapDp3KiBOiwHJRE+fbuPszcQ1WWZa2lDDQZ0Lz5DiKUGoUW0rNfi2MQUg2UoISoZ2MEJel4dQldsCY4FqCQuke1M4cY2+PjAU2GZAAAEc9JREFUx/PlEqMsMVhYY0dGIxwokipNEMByUh+yjjIqJQhyIHjj6B5hCcVyCFgNBiwlSCHXUuRuLetS13Utdam1lkphRNBMIOpRLEqPdr70p2d7fMSTL52HUt5R3jkOhhJwYAOOFQ8KOaAf4uPR4tFq1eWgdcXCquLc1YrNrPe2td57crwyuylazcy6icg+AzMy7jDrfRMPqgACZhXG6K5hWhGdRVAgYsBoHsTAbIeCya/vITCxlvnyGwa9jH6Tmy2mD/9Fw3qtVv/i9ms7iZ+hYL06/HWp/uIW84hfbBCZdYgk7u2larhHH4223cRCwnJapaPZPImQLH+m8TDGbJlikKY0EBUFiPC+lGWpKgp3b+khDOabR+vW16LHtZ7Op5AIYS3wZoYe6BFNTWi2mBfzTgVpGocl1ooqKEAtcMIMdKN3Rgcs6FOglL3Zy+kiLDlZ8kmfXk6nUU+KsN5b72aGiKI6umTzrYNbf70DPjQDIgJzYMwO6QWmJp27EShqqhQpqkpAZkM2MZmbQklWsSAbFSTC1L14KQURcE/UVgThNKGHR/dAZLctqdJ6PS6l1DIC/KDHaFEOilNACXqzjKkZe5IPNWRVItzNQizoUYQaoh7qMXUvsIuKOCPD5LVUUhUspa5SVZKySXDoijCvX9g3dw++dWstEEW0QnSIVKWWxqgLFynrmqNTXVREVEYDPAYPLJjyvqqVAkjtpcLnlwlIaEmN7mEpZvNzSXSBpLpDRccop3megO9qKBzzvc9ghOz40xUZzMnUKQ5pA1HLpR+7DSRlNFBOk5WqdTkfMAhSCIKiWqlFSy3HA/M+Fq2iWdHJMnhO/yoBtZBubK09P8fjE59lsUPtWKgPgTvH4gigjTQK53d4PPDpjvVQVkpdTLUXUCkItWhZb7Tu3ix6NreM56YUtW4MFsoNuT4iLLxnaMlQUkSDkdOwQsOlM1qCr86sSmDvDsr6/c4U/DTq/yc8xG4tr4XDSby73fHN+RBXFPnmtX+uXrG7iH9g+8wPxStn8/npvv7YX3ZMcePEvrzNoS0+UpQcuCXNpHe4m6lFDb9ziKGrXiqeAuHeehy8H7amdlniLDwJTJGPleeYXhGhFIYKmel1+iIz9IbtHM/P5+18ubQowMPhrkIvorh4gBqbx5Pj/II7I0vUeywf3YH4g+AbkXfB1bEClXBFd4QbwlIZJOgevoNE4Z7B6GVrG3rrhknrtawjJ5qhAlKgI8pP/fDspraUEGXALSsK1FKWZV3C3azP1EKBQFREUCiqooWEUSSDythXMfehZMhrRXqEiCqzCiAp+FoD4iTYR8d0Mo8EpLjVvq1W1ioQMfPeGzx1evMJaVQsx6Kdx+713LUFJYNuqkMGJIclQsO3bqWW6l5c1Fz23l5mZJn/hwQKtIgKRSk1AXWDyw5acdQigpDqVVwLIpCaE869whMUlxoSyRMlyRzdM6Y6UwA6JWbUDUhq2YGBgjGGIxm3JEQMdEDgBERSrGlcLhVS06hg4oNXJ4AIhPl9SMQTRJqWa2iaC0JklqD2rsBPJEryN4ngnDu7M/WRTwdGcTur3bKux7KspS66VBZNRY+qlQg372Hwcc2p4uItNrbz3flZPvzQf2ynl9+t9SjGA/HguA+4ogvuHL8D7lfYt/LxJezcT8+tIFShJgoOOfOInJORfZQC9DGyhNYNESKZIg8DVYpmN1PbKAKJqFogRqe4ZrpZekhjBUTEZpSV93HyAA1D4+e6zarBVzqJm92y5REz+LoxpD5/n24jivU3G8lurfIX4vC/z+J/lYP4bKfP3/S6ESNe//Orv3xFJrHH+V/8SiN43DncI4Xo9I2X7he3zVqv3YuhdNSGKHgpiEiuhKy9Hy5n+qXEhXFBNAAiOSR+5JFCitJ79gWr9d679YZtw08/bU+Pp8vlcj5bQA9Sljtd67Isdr54BHt78eZRrNejK4z8aPGe9tsS76LdOSqqRmFHzfC2X9w2781hgDt9tNuVUko5Hg/LckhLsWqNiDFSOfuofUbJhIqq6hRwSCWzbt26Gaz35m7dPWfGxGFdA5Edp4PvOn5xECI6hheD7ldB8oFgDXW25MUIgnBL0lB2BwqiggUshEC6BNLtKpSazQ0adgdbozOkW7v0bRSTIxBRGccK1uXQoxpoIT4Y/1MoG5nPOGVVvZQ0oqIOwpOzQ0zZiIiI8ddKqaLpSxUywmnbcX3u3Ush4aKvl+1uVkXn+k/twNhPSgKaQ6cdGtDRlsHRzjn6AkncsonSHjMELnSFC6CZkGh2iQRu2xix1+0DbhFRyFXrw4HsJ8W8REJBZG814zr8baoAczdaAVBGszoI6mubl9c9lTRE1vVYl6WUhSqkTG5EbOdLi+ZmHMJT4qTRNj+v7fkYZXF/+rE9/k0OhW09sGJx3AUAtMB7wIBKnN7hu41+8lOc75oIWIwKBZ1a4CXYiypqRViEd/er7xSpRbEuIg+Z7R0Oh1pVBB6u1KqiAljqsiGEHSiG0lABFu9Czdo0I8aApbxK9rouvYN0X7XdvjdmOyXm4hnbDqBwLrdi9hpluh5m//mrFpn3o79hjd8y5T8PZU2KzCd7vrXrV2BNY67Zp/t9doYjPZ6eie5ZFXeyhzfHFs3ZXC3g6I4waD63gBLhzb3RukdH2PA5EiJp5IZ98HCHedBde2pnGlrD+fJiHkqFd0SATkjVqsfDUj1CLue+STv04lV1UYq/J34juBcujgpPtdhikIAovG3WNusXeI+cLMcgpWgtZVnqodZVRUfhP8LM4QbXiIylR5oqI8BkBnQwAzPqkjDtvXm2f3lyZQKAlsIkQbtDsvxFJpuWt5EkbyrcHPDJdBdItT0nnOKgQ4MaXCiFrBFL6nyqlGHxRJRS9SBaSXfv7tXMbUhqA0P3VMDK0BFwIwYA7JxVVRWF8OLasGZCo5KN2MMW5voJR0yCbKGUMTthROl7Y2twJ3olMJUw0qeL72atj9N4zRnNECbRKgpEMUoOUEkljB1/2pf49REgoESRkD3CHAnIXO/z1Zi3COGA4li242JNNB505gvzLo37JpA5R/o6pHS3RxRAiEyFFK+2G9Igqcu61roWrdnTksHdtm1h4R5mLuKkAIoWQPfYWn8RWdCiP8r6p0df7z/+tnwUrsA7x9JRiMXhxL9XnAQfi3xcCo6LRqdDhTrGuStLhXeEMWrUCMdSl9kiEq1tKorjXcAAB+Pu7u79+/frWoVUgcpEWZMkjyzPI0Lc6ZayvJkIzoxqv1GvzdgXW+4/XTufvHc8rAGMtp3rGpi7jULFF7Rddzv41Uj+37nFG9b85hN/4UN/5bNKiP2zCsTnHgyzSAmMHD4iYC5whXXbZGvaTBsjM/eACApQsjvRm3un99FyAJ+6oi6ZGzObliOiW7C7mLVm1jtax/l8drNuFimhnwU+URWRpUaw6LIs3U/FS1HSYb8hviHugUNgNSJc2ph4KgFvm/UNQykogh4BlaKlFs3OVIooU/J4BIZJXx0SabhOweE1zkywR0IgASSsNMhe7r13yhgy59l9iAxSs/g8u+oSF8In5nDa3pGIBwZdzSOGImtAKEqtEIWollqKppNQFQEVUrWoChiIFihAd8TkKgtCRRRMpE8G+XfOTcr/gotARMW0RKiqpidKDGkiAHvlZlyVuY2QWCbaklXD9IwkiAG+36w8XpOB64uSqRszb3PkE865o4iSicVlDMKRm+Vn8tUzREKEWhUiPhl6/saTuJstApIVDPrK3qA8lkRHMtHLg44a8/Aauye+BU2GhyjXb3qzZc+MDyVd1rKq1lKG08+FJCB85LjJ7QgHaBHNg+a120IBnuXw/Yt/c3o5LE+qB+BbQBwHR3UQWAS/J/6j9O8WPtVSirOFDoI2mSX3UrOCXqPKysmjICjW+/FwbP1SCrNUs66H42HVTB0w1DpHxpy0OIcLwhkBD0rAA4zYgb3EA99EN/4eD/HJ3zI1yfogb653zK7tfW2U/pUz5v4XtviZvOILLw7jdIM2/aOnHPHFaaXXD5hkvhj6NOEOp7pbmLB//8fv/rAe7799Vx5QfJjNCizEQsA93JgjfwcKHHBDWNCGlHN0MyNj285bO1OkLLVtv3Xz0+n044cP//nH/yTKst7V5SAlWfwuqhnsqaxV786Qy8upfeTh/fFb4hvHPXBAMFwDdsZPf4vzR3t5evLeSBwO69YEhhxL01trpVzOl/JQiKCIBy11dSbQlIuWkvF1YgkRoGRPUYx5EHvI6u7eu4f33ols5RqXHhGQIQ+konnMLHpYNzfPOFio4yfJaRMu5/PLy7O3toYzSKhIESlFyhKysFTRkuZERSTHVIRYwoVpNktnmAOjFkwZoAgAgIDH62gd2HpS/rmsFeR0EKmayp1ZPpDIdKSqqJot2tT0ZXPa3pSHSguqu0ppnsJNSvXqNG6e3hyQMDhGIalIiGFjJl6flnqmZq8XuHIIfGTqszM99iuBETsONwDKoGxJqTwI6bu5mfhIDpPd3/+JY7h9ssZw8TfEnTUj+LIfV3cfg93ZjBrXEhFCxrZd+gYmSQ8W52ZKhGzl7sf2/KePtpT/woPdYQEcUEc1VMdS8fuCy93lfNTtaSnqaJvnrLcpVk9hUS3lmC2Wg+ruiPDW2mUr4YtHBxxwivTeVSogg7CR4CA0JMLhCs44EdMt552VUTIYlZ/PrdtXm2h+oju8l6dSUfw1cPLJVnau+ls37f9ke9MbfL6la3jtWm8v2XzEf/mLjHzmjR1fRVkyWXyDaRCRAQ5pKaDvzx8fn3/88O5f7uRbyhGFcEchFsWq6NlyzxBAEDKQ1+BQlY4IM2/dm3sHArDL+ezuL8+nvvUff/jw5z9999e//mAdd/fvjnf3x/t3h+O9KIGCGM2XGbsdhEeKFD8Q1bECC0A4DHZGnDdsWVJ2EodauNT2EgDczTp7a8/PP5E4HA4R6CnHlqIPu4fAQEemtB0SiojrQg+4t7aZ9fC9G9269d3B33CUwH3OzTWIjbCMpwa+lA3InJFPFgGRZXGGkSECVahG0JHTZgLMR24+jI4R+1Jcyyhnj9wQRtioiGdMNXD/3chlEBbzzEUEmmQdmfDAjMRm2EIgqvpSshKgOaSZglmgzSU1BnN+CiBNZJ/XRf0zy3hnErmAOfFbEJQQuowcaYftXr1dkCLTY4mO2ef4tHw80YUARukneQ4D2wb2CbMTk4rAaI54jZHs7o47U+eXtqH7dX0M5yllrlRqzUSCpAotGBYRhmgWly2IS/XT1n54aiXcmvzrN/JAABWgwAHzIOyw9If7cvhJ9HTJC5bJVN4CgUJDGJL0MZm9g4hWWimlW4swMGnMrKWUZJz1PtPtERxiL8ykAxLe1PGvqinjS37d9ibOfgvYpK8JwYzObv/l9btLcg3/P29foMh+DlN96iHk1Su//FkxP/HtDxidw1e+98A5EomwQNsuz08ffjw9PpTfPegDgpBEd4GFKSDpSblXOEctwZCjkWEWvdvm3p9fnpNDt122y+n0/Z//fHp+aef24cPH0/OpW2zb5fn5p2/ahcR6fJAonI+0wAu8eF9RKm1xFEMBCkDAGvoL7LzFBlhjdIYXVdbqFwlP+jZ6256tC4GwAC6XNsmp7uFuqbQBDH7R9BAj0hltNTkKx80HxyOHhbrF0J/ADrsMf+KWrCef5GMCt+HPrEaM1IS8tmT30XlGV0bREHWwgS4QgReqDEmPGKF0HqxAR/i2C7oj+aREosIzoeDr0HXUflVqoSqnh7hR2cM8HgDYKr2OOrzLmM40q0+TzkmRjOVv+tjHYkRalZ93EQM+AgARGBA6yA9JTwq5Vvux2++bxR9mfWs0T1MP3oSb188d7jaZWj4FwhgOyG26MBwj81q8NnQ7VgVENs4HPp+z+bnJGsXpHN3sMkYo7U5VREopy7KI6GVrOcsjogcuDFq/bFuLJ+C/+xm9o5/4rRx4CARwJ6i2OUzQ7u7v7taIcsKI3TwhZpkMoiAyYS1TrAWAllpK7baNOsRcRwiLiNkaHoM5MJz59Agxph8GR3LuhDCuagdvXJt/JI7PI3qkMEvsOR3f0gP/H31z9Zpz9YtPAAAAAElFTkSuQmCC;" vertex="1" parent="RFcTqZ5h8VtnZ5tcwIsU-5">
          <mxGeometry x="10" width="180" height="180" as="geometry" />
        </mxCell>
        <mxCell id="RFcTqZ5h8VtnZ5tcwIsU-6" value="" style="endArrow=none;html=1;rounded=0;" edge="1" parent="1">
          <mxGeometry width="50" height="50" relative="1" as="geometry">
            <mxPoint x="-240" y="600" as="sourcePoint" />
            <mxPoint x="920" y="600" as="targetPoint" />
          </mxGeometry>
        </mxCell>
        <mxCell id="RFcTqZ5h8VtnZ5tcwIsU-7" value="&lt;h1&gt;TODO&lt;/h1&gt;&lt;p&gt;- текстолит разбить на ячейки&lt;br&gt;- переключение сдвиг по фазе механически&lt;br&gt;-&amp;nbsp;&lt;/p&gt;" style="text;html=1;strokeColor=none;fillColor=none;spacing=5;spacingTop=-20;whiteSpace=wrap;overflow=hidden;rounded=0;" vertex="1" parent="1">
          <mxGeometry y="10" width="190" height="120" as="geometry" />
        </mxCell>
        <mxCell id="RFcTqZ5h8VtnZ5tcwIsU-8" value="" style="endArrow=none;html=1;rounded=0;" edge="1" parent="1">
          <mxGeometry width="50" height="50" relative="1" as="geometry">
            <mxPoint x="-240" y="240" as="sourcePoint" />
            <mxPoint x="920" y="240" as="targetPoint" />
          </mxGeometry>
        </mxCell>
        <mxCell id="RFcTqZ5h8VtnZ5tcwIsU-9" value="hack rf радар" style="rounded=0;whiteSpace=wrap;html=1;" vertex="1" parent="1">
          <mxGeometry x="-190" y="690" width="120" height="60" as="geometry" />
        </mxCell>
        <mxCell id="RFcTqZ5h8VtnZ5tcwIsU-10" value="" style="endArrow=none;html=1;rounded=0;" edge="1" parent="1">
          <mxGeometry width="50" height="50" relative="1" as="geometry">
            <mxPoint x="-240" y="-40" as="sourcePoint" />
            <mxPoint x="920" y="-40" as="targetPoint" />
          </mxGeometry>
        </mxCell>
        <mxCell id="RFcTqZ5h8VtnZ5tcwIsU-12" value="&lt;h1&gt;TODO&lt;/h1&gt;&lt;p&gt;- использовать hackrf излучающие антенны&lt;br&gt;- или использовать генератор сигналов (портативный)&amp;nbsp;&lt;br&gt;- софт?&lt;/p&gt;" style="text;html=1;strokeColor=none;fillColor=none;spacing=5;spacingTop=-20;whiteSpace=wrap;overflow=hidden;rounded=0;" vertex="1" parent="1">
          <mxGeometry y="630" width="270" height="120" as="geometry" />
        </mxCell>
      </root>
    </mxGraphModel>
  </diagram>
</mxfile>
